<?xml version="1.0" encoding="UTF-8"?>
<svg viewBox="0 0 354 630" version="1.1" xmlns="http://www.w3.org/2000/svg" xmlns:xlink="http://www.w3.org/1999/xlink">
    <!-- Generator: Sketch 63.1 (92452) - https://sketch.com -->
    <title>Artboard</title>
    <desc>Created with Sketch.</desc>
    <g id="Artboard" stroke="none" stroke-width="1" fill="none" fill-rule="evenodd">
        <g id="Group-2" transform="translate(34.000000, 73.000000)">
            <text id="Looking-for-Android?" font-family="SkyscannerRelative-Bold, Skyscanner Relative" font-size="24" font-weight="bold" letter-spacing="2.74285714" fill="#111236">
                <tspan x="0.371428571" y="383">Looking for Android?</tspan>
                <tspan x="11.4954286" y="412" font-family="SkyscannerRelative-Book, Skyscanner Relative" font-weight="300">We’re working on it.</tspan>
            </text>
            <g id="NoFlightsFoundDayView-05" transform="translate(28.000000, 0.000000)" fill-rule="nonzero">
                <g id="Group" transform="translate(8.000000, 56.000000)">
                    <g>
                        <path d="M35.3307177,125.668668 C35.3307177,125.668668 32.0581182,124.466417 31.8911488,119.490432 C31.7241795,114.514447 33.0599344,96.6476548 41.1078578,93.9091932 L46.050151,112.343715 L42.6105821,122.963602" id="Path" fill="#725D56"></path>
                        <path d="M60.3761226,39.0397749 C60.3761226,39.0397749 59.4410941,29.7891182 59.8418206,28.1193246 C60.275941,26.449531 61.9456346,23.6108818 62.2461795,23.3437148 C62.5467243,23.0765478 61.9122407,24.4123827 62.7136937,24.5125704 C63.5151467,24.6461538 65.7191423,21.3733583 67.3888359,18.9688555 C68.5576215,17.2990619 72.097372,14.2600375 74.1010044,12.6236398 C74.5017309,12.2896811 75.0694267,12.6570356 74.9692451,13.1579737 C74.7688819,13.9594747 74.8022758,14.660788 75.536941,14.3268293 C77.0396653,13.6589118 79.5442057,11.0540338 81.4142626,10.5196998 C83.2843195,9.98536585 86.5569191,9.01688555 86.5569191,9.01688555 L84.8538316,17.7666041" id="Path" fill="#725D56"></path>
                        <path d="M58.2055208,62.2833021 C58.2055208,62.2833021 56.6360088,79.6157598 61.311151,85.1594747 C65.9862933,90.7031895 72.9656127,89.6011257 72.9656127,89.6011257 L72.9656127,86.7290807 C72.9656127,86.7290807 65.1180526,87.2968105 62.7136937,82.187242 C60.3093348,77.0776735 60.7434552,60.5467167 60.7434552,60.5467167" id="Path" fill="#444560"></path>
                        <path d="M112.737716,40.7095685 C112.737716,40.7095685 111.635718,50.4945591 116.945344,61.4818011 C122.254969,72.4690432 113.20523,87.4637899 109.999418,88.3654784 C106.793606,89.267167 102.619372,89.6011257 102.619372,89.6011257 L102.619372,88.0315197 C102.619372,88.0315197 108.964208,88.1317073 111.068022,83.5898687 C113.171836,79.04803 117.279282,71.7009381 116.411042,67.9272045 C115.509407,64.1534709 115.208862,61.0810507 113.539169,59.3444653 C111.869475,57.6078799 110.199781,44.9508443 110.366751,41.3774859" id="Path" fill="#444560"></path>
                        <path d="M125.995083,12.7572233 C125.995083,12.7572233 122.989635,12.1560976 119.917398,12.7572233 C116.845162,13.358349 113.539169,14.0930582 113.505669,15.8630394 C113.472381,17.6664165 121.353335,17.1988743 121.353335,17.1988743 L127.097081,16.6979362" id="Path" fill="#E88764"></path>
                        <path d="M104.923549,88.9666041 C104.923549,88.9666041 115.409225,89.9016886 116.444436,90.7031895 C117.479646,91.5046904 118.615037,96.9816135 119.41649,99.1189493 C120.217943,101.256285 131.738829,124.499812 132.473495,130.277298 C133.20816,136.021388 132.874221,142.834146 134.209976,148.077298 C135.545731,153.32045 137.382394,163.806754 137.616151,164.641651 C137.616151,164.641651 137.616151,164.675047 137.616151,164.675047 C137.816514,165.576735 137.081849,166.445028 136.113427,166.378236 C132.206344,166.077674 121.420123,165.54334 114.440803,167.513696 C105.79179,169.984991 72.9990066,178.601126 63.6487221,177.699437 C63.4817528,177.699437 63.3147834,177.666041 63.147814,177.632645 C54.1648622,176.430394 45.8163939,166.778987 48.421116,158.062664 C50.3579606,151.650657 53.0628644,142.80075 55.534011,135.420263 C59.9420022,122.162101 61.2777572,100.989118 61.0773939,98.6180113 C60.8770307,96.2469043 59.741639,94.5103189 60.4763042,93.7756098 C61.2109694,93.0409006 65.3852035,92.673546 67.2552604,92.0390244 C69.0919235,91.4378987 70.8617987,89.6679174 70.8617987,89.6679174" id="Path" fill="#FFB54D"></path>
                        <path d="M109.966024,45.8859287 C109.966024,45.8859287 111.401961,54.9362101 111.001234,59.7786116 C110.600508,64.6210131 108.730451,72.2018762 107.928998,73.3373358 C107.094151,74.4727955 105.457851,73.9384615 105.558033,77.1444653 C105.658215,80.3170732 104.623004,87.0296435 105.558033,93.9091932 C106.493061,100.788743 101.150042,113.545966 97.3431401,115.182364 C93.5362386,116.818762 89.729337,116.117448 82.0153524,110.44015 C74.3013677,104.796248 70.4944661,93.0742964 70.0937397,90.6030019 C69.6930132,88.1317073 70.9285865,76.4097561 70.0937397,73.7380863 C69.2588928,71.0664165 66.3870197,67.7602251 65.0512648,64.4874296 C63.7155099,61.1812383 65.0512648,55.6375235 65.0512648,55.6375235 L78.7093589,43.5148218 C78.7093589,43.5148218 78.8095405,46.1864916 83.5514705,47.6225141 C88.2934005,49.0585366 90.8313349,46.3868668 91.1318797,45.3515947 C91.4658184,44.3163227 94.9387812,37.5369606 95.3729016,37.436773 C95.7736281,37.3365854 97.109383,37.0360225 97.4433217,36.2011257 C97.7438666,35.3662289 98.5787134,33.3290807 99.0796215,33.2288931 C99.5805296,33.1287054 101.150042,33.4292683 101.450586,34.564728 C101.751131,35.7001876 99.1464093,39.9080675 99.0462276,41.7448405 C98.946046,43.5816135 101.884707,46.2532833 104.956943,46.6874296 C108.02918,47.121576 109.966024,45.8859287 109.966024,45.8859287 Z" id="Path" fill="#FFC692"></path>
                        <path d="M107.895604,73.3373358 C107.895604,73.3373358 101.751131,75.7752345 94.471267,76.1091932 C87.1914027,76.4765478 80.0785077,74.0386492 78.1082692,72.4022514 C76.1380307,70.7658537 74.5017309,60.9474672 74.6687003,59.9789869 C74.8356696,59.0105066 77.5405734,54.2015009 77.5405734,53.667167 C77.5405734,53.132833 76.2716062,50.4277674 78.2752386,49.6930582 C80.2454771,48.958349 87.0912211,51.9305816 88.9946718,50.9621013 C90.8981226,49.9602251 92.0335143,47.0881801 92.4676346,46.7208255 C92.8683611,46.3534709 93.3358753,45.9193246 93.4694508,45.3849906 C93.6030263,44.8506567 91.7997572,43.7819887 92.4676346,42.4795497 C93.1355121,41.1771107 95.0389629,37.9043152 96.5416872,38.0712946 C98.0110176,38.2382739 99.0128338,41.7448405 99.0128338,41.7448405 C99.0128338,41.7448405 101.550768,45.9527205 103.12028,46.9879925 C104.689792,48.0232645 110.333357,48.5575985 110.333357,48.5575985 C110.333357,48.5575985 109.999418,43.4814259 109.465116,42.7467167 C108.930814,42.0120075 100.715921,30.7242026 100.715921,30.7242026 L79.2770548,32.2604128 L62.8806631,58.8101313 C62.8806631,58.8101313 63.1812079,61.9493433 63.5151467,62.6506567 C63.8490854,63.35197 63.9826609,64.921576 64.4167812,65.6228893 C64.8509016,66.3242026 67.8229563,71.467167 68.9917418,72.8363977 C70.1605274,74.2056285 70.0937397,79.6157598 70.0603458,85.0926829 C70.0603458,85.0926829 75.3699716,80.2168856 77.640755,80.1500938 C79.9115383,80.0833021 86.7572823,83.3894934 91.6995756,83.2225141 C96.6418688,83.0555347 96.30793,81.15197 99.2799847,78.9812383 C102.252039,76.8439024 107.661847,73.804878 107.895604,73.3373358 Z" id="Path" fill="#E88764"></path>
                        <path d="M111.902869,24.8465291 C111.902869,24.8465291 110.400144,22.241651 108.329724,21.9744841 C106.259304,21.7073171 104.623004,21.9744841 104.623004,21.9744841 C104.623004,21.9744841 103.454219,27.0172608 99.480348,27.3512195 C95.5064771,27.6851782 93.3692692,24.5125704 93.436057,24.3121951 C93.5028447,24.1118199 106.359486,14.3602251 106.359486,14.3602251 C106.359486,14.3602251 110.700689,16.9984991 113.472381,17.1988743 C116.244072,17.3992495 119.550066,15.8630394 119.550066,15.8630394" id="Path" fill="#68697F"></path>
                        <path d="M133.074584,36.8356473 L114.440803,38.9061914 C114.440803,38.9061914 110.433538,45.6521576 109.966024,45.8859287 C109.465116,46.1196998 108.730451,47.6559099 103.521007,46.3534709 C98.3115624,45.0510319 98.5787134,42.3459662 98.678895,41.7782364 C98.7790767,41.1771107 101.717737,35.0990619 101.450586,34.5981238 C101.183436,34.0971857 99.1464093,32.9617261 98.7790767,33.4626642 C98.411744,33.9969981 97.7772605,35.9673546 97.4433217,36.7020638 C97.1427769,37.4701689 95.3729016,37.4701689 95.3729016,37.4701689 C95.3729016,37.4701689 91.4324246,46.4536585 89.6625493,47.5557223 C87.892674,48.6577861 81.4810504,48.5575985 79.3772364,45.0510319 C77.2734224,41.5444653 74.8022758,42.0454034 74.3347615,40.7763602 C73.8672473,39.4739212 74.6687003,25.9819887 74.8690635,25.8484053 C75.0694267,25.7148218 81.1805055,19.0356473 81.1805055,19.0356473 L83.0505624,16.6979362 C83.0505624,16.6979362 88.2934005,16.1969981 88.8610963,16.6979362 C89.3953983,17.1988743 105.658215,18.2341463 105.658215,18.2341463 L117.713403,22.6090056 L133.608886,27.8855535 L138.751543,30.1564728" id="Path" fill="#444560"></path>
                        <path d="M123.624118,15.3287054 C123.323573,15.0949343 120.61867,15.8296435 119.58346,15.8630394 C118.54825,15.8964353 111.969657,21.3065666 111.902869,24.8465291 C111.836081,28.4198874 116.91195,31.2919325 120.117762,30.6574109 C123.323573,30.0562852 123.824481,29.6889306 124.225208,29.7557223 C124.625934,29.8225141 127.297444,32.4941839 130.403074,32.6277674 C133.508705,32.7613508 136.447366,30.9245779 136.447366,30.9245779" id="Path" fill="#68697F"></path>
                        <path d="M0.53430197,102.625516 C0.0333938731,100.187617 -0.100181619,97.649531 0.300544858,96.1133208 C1.20217943,92.8405253 12.1219759,80.5174484 15.2276061,77.8457786 C18.3332363,75.1741088 57.2704924,47.7894934 58.3390963,46.6206379 C59.3743064,45.4517824 61.4447265,32.9617261 61.9122407,31.0581614 C62.379755,29.1545966 64.6839322,28.520075 66.4872014,27.1842402 C68.2904705,25.8484053 73.0991882,19.102439 75.3031839,17.7332083 C77.5405734,16.3639775 78.5089957,16.8649156 79.4440241,16.2971857 C80.3790526,15.7294559 83.5848644,12.0893058 83.5848644,12.0893058 C83.417895,12.4900563 83.150744,13.2247655 82.8835931,14.0596623 L84.1191664,13.9928705 C84.1191664,13.9928705 84.3195296,16.4641651 84.1191664,17.1654784 C83.9188031,17.8667917 82.5496543,20.7722326 81.2472933,20.7388368 C81.1805055,20.7388368 81.1137178,20.7388368 81.04693,20.7388368 C80.9133545,21.5403377 80.9133545,21.8742964 80.9133545,21.8742964 C79.6777812,23.5440901 75.6371226,31.2585366 75.5703348,31.7594747 C75.4701532,32.2604128 75.3365777,34.2307692 75.536941,35.3996248 C75.7373042,36.6018762 75.1362145,37.6371482 75.0360329,38.1380863 C74.468337,41.2772983 85.5551029,34.8318949 87.9594618,34.8652908 C90.3638206,34.8986867 90.1968513,35.7001876 90.8647287,36.7354597 C91.4992123,37.8041276 91.0316981,38.0378987 88.2934005,39.4071295 C85.521709,40.7763602 81.3808688,44.0157598 79.3438425,44.9842402 C77.2734224,45.9527205 77.7409366,46.8878049 75.9710613,49.7932458 C74.201186,52.6986867 71.1289497,53.934334 68.7579847,55.5707317 C66.3536259,57.2405253 55.2334661,67.2258912 53.7307418,69.8641651 C52.9292889,71.2667917 44.3804574,82.4210131 36.0319891,92.8405253 C36.6330788,93.1410882 37.3009563,93.4750469 38.0356215,93.8424015 C42.7775515,96.2135084 48.0871773,96.1133208 48.0871773,96.1133208 C48.0871773,96.1133208 45.2153042,130.243902 44.2802757,130.678049 C43.3452473,131.078799 43.679186,128.908068 38.6367112,124.900563 C33.5942363,120.893058 13.7582757,117.085929 8.91616412,114.314071 C7.21307659,113.312195 5.64356456,111.57561 4.37459738,109.705441 C4.04065865,109.505066 3.70671991,109.271295 3.33938731,108.970732 C2.13720788,108.069043 1.10199781,105.397373 0.53430197,102.625516 L0.53430197,102.625516 L0.53430197,102.625516 Z" id="Path" fill="#FFC692"></path>
                        <path d="M143.760624,24.3121951 C143.760624,24.3121951 131.538466,35.7335835 130.002348,36.2345216 C128.46623,36.7354597 122.922847,36.134334 121.353335,35.7335835 C119.817217,35.332833 115.375832,35.7001876 114.474197,36.4348968 C113.572562,37.169606 113.238624,38.5054409 113.739532,39.006379 C114.24044,39.5073171 115.476013,39.5073171 117.446252,40.1418386 C119.383096,40.7429644 118.281099,42.3125704 122.989635,42.9136961 C127.698171,43.5148218 131.939193,43.6484053 132.740646,43.8487805 C133.575492,44.0491557 135.111611,45.3515947 138.584573,45.5853659 C142.09093,45.7857411 144.962803,47.2551595 145.664074,47.6559099 C146.39874,48.0566604 156.049569,56.1718574 161.49277,61.2146341 C166.935972,66.2574109 169.607482,73.036773 173.013657,77.6787992 C176.419832,82.3208255 179.191523,86.5287054 179.191523,86.5287054 C179.191523,86.5287054 166.134519,90.4360225 157.385324,91.5714822 C148.636129,92.7069418 139.219057,91.872045 136.848092,92.1726079 C134.477127,92.4731707 129.534834,93.2078799 129.534834,93.2078799 C129.534834,93.2078799 138.284029,101.222889 141.456446,109.237899 C144.628864,117.252908 143.627048,129.909944 143.627048,129.909944 C143.627048,129.909944 149.571158,118.588743 161.392589,116.551595 C173.21402,114.514447 193.985009,103.794371 199.42821,99.0855535 C204.871412,94.3767355 207.242377,89.3339587 206.507711,85.5268293 C205.773046,81.7196998 188.942534,59.6116323 175.985711,51.3962477 C163.028889,43.180863 156.550477,33.5962477 156.550477,33.5962477 C156.550477,33.5962477 147.200193,28.0525328 146.83286,26.6165103 C146.465527,25.1804878 145.229954,23.0097561 145.229954,23.0097561 L143.760624,24.3121951 Z" id="Path" fill="#FFC692"></path>
                        <path d="M101.550768,49.7932458 C101.550768,49.7932458 102.719554,48.2236398 102.585978,47.6559099 C102.452403,47.0881801 99.0796215,45.9527205 98.6121073,45.819137 C98.1445931,45.6855535 95.8070219,46.9212008 94.5380548,47.1883677 C93.2690876,47.4555347 92.6679979,48.156848 92.5344224,48.8247655 C92.4008469,49.4926829 92.6012101,50.3275797 93.7699957,50.4611632 C94.9387812,50.5947467 97.7438666,49.993621 98.5119257,50.1272045 C99.2799847,50.260788 100.081438,50.6615385 100.649134,50.4945591 C101.216829,50.3275797 101.550768,49.7932458 101.550768,49.7932458 Z" id="Path" fill="#E88764"></path>
                        <path d="M124.926479,14.3602251 C124.926479,14.3602251 121.286547,15.7628518 121.353335,17.1988743 C121.420123,18.6348968 123.256786,19.369606 124.291996,18.835272 C125.327206,18.3009381 127.097081,17.1988743 127.097081,17.1988743" id="Path" fill="#E88764"></path>
                        <path d="M105.958759,13.7257036 C105.958759,13.7257036 110.166387,13.4919325 110.333357,16.9651032 C110.500326,20.4382739 106.860394,20.939212 104.923549,20.5050657 C102.986705,20.0709193 102.452403,17.1988743 102.452403,17.1988743" id="Path" fill="#68697F"></path>
                        <path d="M114.474197,36.4348968 C115.409225,35.7001876 119.817217,35.2994371 121.353335,35.7335835 C122.889453,36.134334 128.432836,36.7688555 130.002348,36.2345216 C131.271315,35.8003752 139.886934,27.9189493 142.792201,25.2138837 L142.792201,25.2138837 C142.792201,25.2138837 142.257899,30.356848 141.556628,32.6945591 C140.888751,35.0322702 139.352632,36.4682927 138.684755,38.5054409 C137.983484,40.575985 141.556628,42.412758 141.556628,42.412758 L141.556628,44.249531 C141.556628,44.249531 144.662258,43.8487805 147.400556,44.249531 C150.138853,44.6502814 163.897129,55.50394 168.839422,59.3444653 C173.781716,63.1849906 182.831455,69.7639775 191.881195,71.8011257 C193.81804,72.235272 195.955247,72.5692308 198.125849,72.769606 C202.901173,78.6806754 206.24056,83.7902439 206.574499,85.4600375 C207.309164,89.267167 204.938199,94.3099437 199.494998,99.0187617 C194.051797,103.760976 173.280808,114.447655 161.459376,116.484803 C149.637945,118.555347 143.693836,129.843152 143.693836,129.843152 C143.693836,129.843152 144.729046,117.186116 141.523234,109.171107 C138.350816,101.156098 129.601622,93.1410882 129.601622,93.1410882 C129.601622,93.1410882 132.239738,92.7403377 134.577309,92.4397749 C134.911247,93.2746717 135.345368,94.2097561 135.746094,94.8108818 C136.781304,96.2469043 140.488024,98.3174484 143.760624,98.9185741 C147.066617,99.5196998 151.341033,100.154221 158.754473,98.0836773 C166.167913,96.079925 176.987527,87.163227 176.987527,87.163227 L176.987527,87.163227 C178.39007,86.7624765 179.258311,86.4953096 179.258311,86.4953096 C179.258311,86.4953096 176.486619,82.2874296 173.080444,77.6454034 C169.674269,73.0033771 167.002759,66.224015 161.559558,61.1812383 C156.116357,56.1384615 146.432134,48.0232645 145.730862,47.6225141 C144.996197,47.2217636 142.124324,45.7523452 138.651361,45.55197 C135.145004,45.3515947 133.608886,44.0491557 132.807433,43.8153846 C131.972587,43.6150094 127.764959,43.5148218 123.056422,42.8803002 C118.314492,42.2791745 119.449884,40.7095685 117.513039,40.1084428 C115.576195,39.5073171 114.340622,39.5073171 113.80632,38.9729831 C113.238624,38.5054409 113.539169,37.169606 114.474197,36.4348968 Z" id="Path" fill="#E88764"></path>
                        <path d="M147.200193,18.4679174 C147.200193,18.4679174 146.365346,22.0078799 144.862622,23.3437148 C143.359897,24.6795497 137.449182,30.0896811 136.447366,30.9579737 C135.445549,31.8262664 128.800169,32.460788 125.327206,28.7538462 C121.820849,25.0469043 122.789271,20.6052533 122.856059,19.5699812 C122.922847,18.5347092 124.75951,17.0318949 124.75951,17.0318949 C124.75951,17.0318949 124.559147,15.2953096 124.893085,14.3268293 C125.227024,13.3917448 130.035742,7.61425891 130.035742,7.61425891" id="Path" fill="#444560"></path>
                        <path d="M144.194744,8.54934334 C144.194744,8.54934334 147.634313,13.1245779 147.400556,17.265666 C147.200193,21.3733583 143.092746,23.2435272 139.58639,23.3771107 C136.080033,23.5106942 131.839011,21.8742964 129.50144,17.9001876 C127.163869,13.9260788 129.033926,9.11707317 130.069136,7.68105066 C131.104346,6.24502814 136.146821,5.14296435 137.916696,5.41013133 C139.653177,5.67729831 144.194744,8.54934334 144.194744,8.54934334 Z" id="Path" fill="#68697F"></path>
                        <path d="M143.259716,20.5050657 C143.259716,20.5050657 146.632497,18.9688555 145.964619,14.6273921 C145.263348,10.3193246 141.857173,8.04840525 139.719965,7.28030019 C137.582757,6.51219512 133.842643,6.57898687 132.106162,8.115197 C130.403074,9.61801126 130.069136,13.6589118 130.069136,13.6589118" id="Path" fill="#CDCDD7"></path>
                        <ellipse id="Oval" fill="#6D9FEB" transform="translate(137.479032, 15.328916) rotate(-55.985755) translate(-137.479032, -15.328916) " cx="137.479032" cy="15.3289158" rx="6.44529413" ry="7.81432666"></ellipse>
                        <path d="M55.6007987,135.420263 C55.6341926,135.320075 55.6675865,135.219887 55.7009803,135.1197 C63.7155099,138.726454 83.1841379,145.739587 98.8458644,145.138462 C111.502142,144.670919 126.095265,139.093809 132.874221,134.585366 C133.174766,139.227392 134.276764,144.570732 135.311974,148.578236 C136.647729,153.821388 137.449182,163.806754 137.649545,164.641651 C137.649545,164.641651 137.649545,164.675047 137.649545,164.675047 C137.849908,165.576735 137.115243,166.445028 136.146821,166.378236 C132.239738,166.077674 121.453516,165.54334 114.474197,167.513696 C105.825184,169.984991 73.0324005,178.601126 63.682116,177.699437 C63.5151467,177.699437 63.3481773,177.666041 63.1812079,177.632645 C54.1982561,176.430394 45.8497878,166.778987 48.4545099,158.062664 C50.4247484,151.684053 53.1296521,142.80075 55.6007987,135.420263 Z" id="Path" fill="#FF9400"></path>
                        <path d="M106.226013,10.8202627 C106.226013,10.8202627 106.259304,14.4604128 105.123913,16.1302064 C103.955127,17.8 99.5137419,24.4457786 98.7790767,25.5144465 C98.0444114,26.5831144 91.7329694,28.787242 87.4585537,26.0153846 C83.1841379,23.2435272 83.0505624,18.7016886 82.8835931,17.6664165 C82.7166237,16.6645403 82.7834114,14.3602251 82.7834114,14.3602251 C82.7834114,14.3602251 83.5180766,12.3564728 83.6516521,12.1227017 C84.0857725,11.2210131 87.0578272,4.40825516 87.0578272,4.40825516" id="Path" fill="#444560"></path>
                        <path d="M100.949678,1.90356473 C100.949678,1.90356473 105.35767,5.54371482 106.159123,9.58461538 C106.927182,13.6255159 103.387431,16.3973734 100.01465,17.3658537 C96.6418688,18.334334 92.1336959,17.7332083 88.9278841,14.4270169 C85.7220723,11.1208255 86.3899497,6.01125704 87.0244333,4.37485929 C87.6923108,2.73846154 92.3340591,0.467542214 94.1039344,0.333958724 C95.8404158,0.166979362 100.949678,1.90356473 100.949678,1.90356473 Z" id="Path" fill="#68697F"></path>
                        <path d="M102.886523,13.7257036 C102.886523,13.7257036 105.79179,11.4213884 104.122096,7.3804878 C102.452403,3.33958724 98.5787134,1.97035647 96.30793,1.73658537 C94.0705405,1.50281426 90.4306084,2.47129456 89.1282473,4.34146341 C87.8258863,6.21163227 88.4603699,10.219137 88.4603699,10.219137" id="Path" fill="#CDCDD7"></path>
                        <ellipse id="Oval" fill="#6D9FEB" transform="translate(96.026754, 10.098317) rotate(-69.720245) translate(-96.026754, -10.098317) " cx="96.0267536" cy="10.0983174" rx="6.44527826" ry="7.81412702"></ellipse>
                        <path d="M116.444436,90.7031895 C116.444436,90.7031895 130.703619,91.0037523 132.840827,92.7069418 C134.978035,94.4101313 146.265164,107.568105 145.229954,125.668668 C144.194744,143.769231 141.089114,150.548593 140.187479,151.38349 C139.285845,152.218386 136.280396,153.787992 136.280396,153.787992 C136.280396,153.787992 132.774039,138.392495 132.106162,133.383114 C131.438285,128.373734 120.050974,104.529081 119.717035,101.824015 C119.41649,99.1523452 116.444436,90.7031895 116.444436,90.7031895 Z" id="Path" fill="#444560"></path>
                        <path d="M61.0106062,93.3748593 C61.0106062,93.3748593 49.8570525,95.011257 48.421116,95.545591 C46.9851795,96.0465291 46.8849978,119.290056 45.0149409,126.369981 C43.1782779,133.449906 39.8722845,147.442777 39.9724661,150.014259 C40.0726477,152.585741 40.7071313,154.85666 41.6087659,156.392871 C42.5437943,157.929081 47.8200263,160.300188 48.0537834,159.498687 C48.2875405,158.697186 51.7938972,156.793621 52.4951685,153.721201 C53.2298337,150.64878 60.3427287,129.475797 60.9772123,124.433021 C61.6450898,119.390244 61.8788469,96.580863 61.7452714,95.4454034 C61.6450898,94.3099437 61.0106062,93.3748593 61.0106062,93.3748593 Z" id="Path" fill="#444560"></path>
                        <path d="M122.254969,147.74334 C122.254969,147.74334 109.364934,151.984615 98.678895,152.118199 C87.9928556,152.251782 72.4980985,149.914071 72.4980985,149.914071 C72.4980985,149.914071 80.0451138,156.893809 94.5714486,157.027392 C109.097783,157.194371 122.254969,147.74334 122.254969,147.74334 Z" id="Path" fill="#FFB54D"></path>
                        <path d="M0.333938731,96.1133208 C1.2355733,92.8405253 12.1553698,80.5174484 15.261,77.8457786 C17.631965,75.7752345 41.4417965,58.9771107 52.6955318,50.8285178 C56.836372,51.1958724 63.2813895,51.3294559 66.6207768,48.156848 C71.2959191,43.715197 71.8302211,32.4273921 72.4980985,31.6258912 C72.7986434,31.2585366 75.4701532,28.8206379 78.4088141,26.182364 C77.0062714,28.7538462 75.6371226,31.4923077 75.5703348,31.7928705 C75.4701532,32.2938086 75.3365777,34.2641651 75.536941,35.4330206 C75.7373042,36.635272 75.1362145,37.6705441 75.0360329,38.1714822 C74.468337,41.3106942 85.5551029,34.8652908 87.9594618,34.8986867 C90.3638206,34.9320826 90.1968513,35.7335835 90.8647287,36.7688555 C91.4992123,37.8375235 91.0316981,38.0712946 88.2934005,39.4405253 C85.521709,40.8097561 81.3808688,44.0491557 79.3438425,45.017636 C77.2734224,45.9861163 77.7409366,46.9212008 75.9710613,49.8266417 C74.201186,52.7320826 71.1289497,53.9677298 68.7579847,55.6041276 C66.3536259,57.2739212 55.2334661,67.2592871 53.7307418,69.897561 C52.9292889,71.3001876 44.3804574,82.454409 36.0319891,92.8739212 C36.6330788,93.1744841 37.3009563,93.5084428 38.0356215,93.8757974 C42.7775515,96.2469043 48.0871773,96.1467167 48.0871773,96.1467167 C48.0871773,96.1467167 46.8849978,130.878424 45.9833633,131.279174 C45.0483348,131.679925 43.7125799,128.941463 38.6701051,124.933959 C33.6276302,120.926454 13.7916696,117.119325 8.94955799,114.347467 C7.24647046,113.345591 5.67695843,111.609006 4.40799125,109.738837 C4.07405252,109.538462 3.74011379,109.30469 3.37278118,109.004128 C2.20399563,108.069043 1.16878556,105.397373 0.601089716,102.625516 L0.601089716,102.625516 L0.601089716,102.625516 C0.0333938731,100.187617 -0.100181619,97.649531 0.333938731,96.1133208 Z" id="Path" fill="#E88764"></path>
                        <path d="M35.9985952,92.9073171 C35.9985952,92.9073171 27.7169147,103.694184 27.4163698,103.794371 C27.115825,103.894559 30.6221816,102.258161 35.9985952,101.723827 C41.3750088,101.222889 47.8534202,101.490056 47.8534202,101.490056 L48.0537834,96.1801126 C48.0537834,96.1801126 38.0356215,93.9425891 35.9985952,92.9073171 Z" id="Path" fill="#FFC692"></path>
                        <path d="M91.1318797,114.481051 C91.1318797,114.481051 83.8186215,106.8 81.7482014,103.794371 C79.6777812,100.788743 76.3717878,94.0093809 75.5703348,93.9091932 C74.7688819,93.8090056 81.6480197,107.534709 81.8149891,108.33621 C82.0153524,109.137711 81.9819585,110.473546 81.9819585,110.473546 C81.9819585,110.473546 87.7924924,115.549719 92.4676346,115.883677 C92.4676346,115.850281 91.5660001,114.915197 91.1318797,114.481051 Z" id="Path" fill="#E88764" opacity="0.5"></path>
                        <path d="M77.7409366,46.3534709 C77.7409366,46.3534709 76.4051817,50.6949343 73.1993699,52.7320826 C69.993558,54.8026266 64.1162364,59.5782364 64.1162364,59.5782364 C64.1162364,59.5782364 71.8302211,52.3313321 73.7336718,50.527955 C75.6371226,48.7579737 77.7409366,46.3534709 77.7409366,46.3534709 Z" id="Path" fill="#FFC692"></path>
                        <path d="M79.3438425,24.5459662 C79.3438425,24.5459662 81.7815952,20.3046904 81.4476565,19.636773 C81.1471117,19.0022514 81.8817769,16.4641651 82.0821401,15.8630394 C82.2491095,15.2285178 82.8835931,14.0930582 82.8835931,14.0930582 C82.8835931,14.0930582 87.9594618,19.4363977 87.7257047,19.6701689 C87.4919475,19.90394 87.7257047,23.3771107 87.7257047,23.3771107" id="Path" fill="#444560"></path>
                        <path d="M102.585978,19.8371482 C102.585978,19.8371482 97.7772605,28.9876173 97.1427769,29.8893058 C96.5082933,30.7909944 91.6327878,33.3624765 86.4567375,29.8893058 C86.4567375,29.8893058 94.1373283,31.7594747 96.0073852,28.9208255 C97.8774421,26.0487805 102.585978,19.8371482 102.585978,19.8371482 Z" id="Path" fill="#68697F"></path>
                        <path d="M111.836081,114.781614 C112.203414,113.846529 100.983072,122.930206 94.0705405,122.930206 C87.1580088,122.930206 74.5017309,115.850281 74.5017309,115.850281 C74.5017309,115.850281 85.0208009,127.238274 93.168906,127.037899 C101.317011,126.837523 110.700689,117.687054 111.836081,114.781614 Z" id="Path" fill="#FFFFFF" opacity="0.5"></path>
                        <path d="M75.5035471,125.73546 C76.1714246,126.169606 83.2175318,133.483302 90.0298819,134.585366 C90.0298819,134.585366 81.5478381,134.685553 77.2734224,131.212383 C73.0324005,127.739212 72.0305843,124.733583 71.8970088,123.932083 C71.7968272,123.163977 75.5035471,125.73546 75.5035471,125.73546 Z" id="Path" fill="#FF9400"></path>
                        <path d="M41.4084027,144.270169 C41.4084027,144.270169 50.792081,131.412758 48.0537834,96.1801126 L44.9815471,95.4787992 C44.9815471,95.4787992 47.2189366,99.6532833 47.0519672,101.222889 C46.8849978,102.792495 44.213488,127.806004 42.9779147,130.277298 C41.7089475,132.715197 41.4084027,141.99925 41.4084027,144.270169 Z" id="Path" fill="#444560"></path>
                        <path d="M49.4897199,100.855535 C49.4897199,100.855535 61.8120591,97.649531 61.778733,95.4120075 C61.7452714,93.1744841 60.5430919,92.6067542 59.5412758,92.3395872 C58.5394596,92.0724203 52.094442,94.1095685 50.8922626,94.3099437 C49.6900832,94.5103189 47.7866324,94.1095685 46.6512407,94.3099437 C45.5492429,94.5103189 44.9481532,95.4454034 44.9481532,95.4454034 C44.9481532,95.4454034 48.4545099,101.156098 49.4897199,100.855535 Z" id="Path" fill="#444560"></path>
                        <path d="M44.9815471,95.4787992 L41.1412517,93.9091932 C41.1412517,93.9091932 40.540162,108.536585 39.0708315,114.714822 C37.5681072,120.926454 35.4976871,124.766979 35.3641116,125.668668 C35.2305361,126.570356 42.9779147,130.277298 42.9779147,130.277298 C42.9779147,130.277298 54.732558,100.922326 44.9815471,95.4787992 Z" id="Path" fill="#FFB54D"></path>
                        <path d="M132.840827,92.7069418 L138.684755,90.7031895 C138.684755,90.7031895 147.901464,99.8536585 148.202009,111.275047 C148.502554,122.696435 144.996197,129.20863 144.996197,129.20863 C144.996197,129.20863 146.365346,109.171107 132.840827,92.7069418 Z" id="Path" fill="#FFB54D"></path>
                        <path d="M66.0196871,153.787992 C66.0196871,153.787992 74.468337,159.932833 78.9097222,161.101689 C83.3511073,162.30394 89.0948535,162.738086 89.996488,163.172233 C90.9315165,163.606379 88.6607331,167.914447 78.0080876,166.745591 C67.3554421,165.54334 66.0196871,153.787992 66.0196871,153.787992 Z" id="Path" fill="#FFB54D"></path>
                        <path d="M102.585978,47.6893058 C102.585978,47.6893058 100.44877,44.0157598 99.747499,42.9136961 C99.0128338,41.8116323 98.3783502,40.1084428 98.3783502,40.1084428 C98.3783502,40.1084428 96.575081,42.3125704 96.8756259,42.8469043 C97.1761707,43.4146341 98.6455012,44.8172608 98.6455012,44.8172608" id="Path" fill="#FFC692"></path>
                        <path d="M96.0073852,3.5065666 C96.0073852,3.5065666 102.719554,3.94071295 103.621188,10.0855535 C103.621188,10.0855535 104.122096,10.8870544 100.715921,10.0855535 C97.3097462,9.28405253 96.0073852,7.68105066 96.0073852,7.68105066 C96.0073852,7.68105066 93.3024815,7.68105066 92.4676346,6.97973734 C91.6327878,6.27842402 91.1318797,4.50844278 91.1318797,4.50844278 C91.1318797,4.50844278 93.4026631,2.87204503 96.0073852,3.5065666 Z" id="Path" fill="#FFFFFF"></path>
                        <path d="M132.00598,19.0022514 C132.00598,19.0022514 132.640464,15.8296435 134.978035,15.3287054 C137.315606,14.8277674 138.718149,16.4641651 138.718149,16.4641651 C138.718149,16.4641651 139.018694,14.5939962 140.855357,14.0930582 C142.69202,13.5921201 144.829228,14.9613508 144.862622,15.8630394 C144.862622,15.8630394 145.998013,21.4067542 139.786753,22.1748593 C133.575492,22.9429644 132.00598,19.0022514 132.00598,19.0022514 Z" id="Path" fill="#FFFFFF"></path>
                    </g>
                    <path d="M91.4992123,59.4446529 C91.4992123,59.4446529 94.1707222,57.1069418 97.109383,57.0067542 C100.048044,56.9065666 101.951495,59.2776735 101.717737,59.7452158 C101.48398,60.212758 93.9703589,59.678424 92.8015734,59.7452158 C91.6661817,59.8454034 91.4992123,59.4446529 91.4992123,59.4446529 Z" id="Path" fill="#FFFFFF"></path>
                    <path d="M100.181619,61.6153846 C100.181619,61.6153846 91.9667265,61.3482176 91.4992123,61.6153846 C91.0316981,61.8825516 94.4044793,64.0532833 97.2763524,63.9196998 C100.148225,63.7861163 101.350405,62.2165103 101.350405,61.9827392 C101.350405,61.7489681 100.181619,61.6153846 100.181619,61.6153846 Z" id="Path" fill="#E88764" opacity="0.5"></path>
                    <path d="M65.518779,58.4761726 C65.518779,58.4761726 65.2850219,62.6506567 65.0846587,63.2183865 C64.8842954,63.7861163 64.75072,66.3575985 64.4501751,66.6915572 C64.1496302,67.0255159 64.0494486,66.1238274 63.3481773,64.6878049 C62.6469059,63.2517824 62.4799366,60.9474672 62.4799366,60.9474672 L65.518779,58.4761726 Z" id="Path" fill="#725D56"></path>
                </g>
                <g id="Group" fill="#FFFFFF">
                    <path d="M42.3282799,95.2587646 C42.3282799,95.2587646 7.3106414,95.8263773 4.70685131,95.2587646 C2.10306122,94.6911519 -0.433965015,91.0851419 0.433965015,87.8464107 C1.30189504,84.6076795 6.04212828,84.5075125 6.04212828,84.5075125 C6.04212828,84.5075125 5.34110787,77.5626043 12.9521866,73.7228715 C20.5632653,69.8831386 24.1351312,73.7228715 24.1351312,73.7228715 C24.1351312,73.7228715 30.7781341,69.4824708 38.2223032,71.1519199 C45.6664723,72.8213689 47.135277,79.8664441 46.6345481,82.3372287 C46.1338192,84.8080134 51.975656,85.7762938 51.5750729,90.2504174 C51.1744898,94.7245409 47.5358601,95.2587646 42.3282799,95.2587646 Z" id="Path"></path>
                    <path d="M177.491691,63.0717863 C177.491691,63.0717863 176.690525,53.5559265 187.239213,50.984975 C197.821283,48.4140234 200.258163,54.3238731 200.258163,54.3238731 C200.258163,54.3238731 209.805394,51.1519199 215.280029,56.6944908 C220.754665,62.2370618 218.718367,65.509182 218.718367,65.509182 C218.718367,65.509182 227.464431,66.9449082 228.666181,70.984975 C229.86793,75.0250417 227.664723,76.293823 222.557289,76.5943239 C217.483236,76.8948247 183.533819,75.6928214 179.494606,75.2587646 C175.422012,74.8247078 170.848688,72.654424 171.816764,67.8464107 C172.818222,63.0717863 177.491691,63.0717863 177.491691,63.0717863 Z" id="Path"></path>
                    <path d="M31.245481,195.392321 C31.245481,195.392321 29.4094752,187.8798 23.333965,186.043406 C17.2584548,184.207012 16.4239067,189.148581 15.422449,188.51419 C14.4209913,187.8798 12.785277,185.776294 9.11326531,187.011686 C5.44125364,188.280467 5.57478134,192.687813 4.50655977,192.721202 C3.43833819,192.754591 1.00145773,192.954925 0.40058309,195.392321 C-0.200291545,197.829716 2.03629738,199.66611 4.2728863,199.66611 C6.50947522,199.66611 32.7142857,200.267112 33.5488338,199.66611 C34.3166181,199.03172 34.5169096,196.193656 31.245481,195.392321 Z" id="Path"></path>
                    <path d="M136.665598,129.081803 C136.665598,129.081803 141.405831,122.804674 145.144606,122.036728 C148.85,121.268781 151.921137,125.542571 152.722303,125.141903 C153.523469,124.741235 155.025656,123.772955 158.56414,124.641068 C162.102624,125.509182 162.069242,128.380634 162.503207,130.217028 C162.90379,132.053422 159.26516,133.255426 156.093878,133.255426 C152.922595,133.255426 135.463848,134.691152 134.862974,133.255426 C134.228717,131.819699 133.828134,130.183639 136.665598,129.081803 Z" id="Path"></path>
                    <path d="M85.424344,40.3672788 C85.424344,40.3672788 142.841254,41.3355593 147.080758,40.3672788 C151.320262,39.3989983 155.526385,33.4891486 154.090962,28.2136895 C152.655539,22.9382304 144.877551,22.7045075 144.877551,22.7045075 C144.877551,22.7045075 146.012536,11.3188648 133.527697,5.04173623 C121.042857,-1.23539232 115.20102,5.04173623 115.20102,5.04173623 C115.20102,5.04173623 104.351895,-1.86978297 92.1341108,0.834724541 C79.9163265,3.53923205 77.512828,15.0918197 78.3139942,19.1652755 C79.1151603,23.2387312 69.56793,24.8080134 70.2021866,32.1202003 C70.8364431,39.4323873 76.9119534,40.3672788 85.424344,40.3672788 Z" id="Path"></path>
                </g>
                <path d="M70,233 C70,233 60.0003809,229.092764 57.3360087,228.959184 C54.638743,228.792208 52.6980275,228.959184 52.1059448,228.959184 C51.5138621,228.959184 53.5861515,223.949907 53.8164059,222.447124 C54.0466603,220.944341 52.8296014,219.575139 53.8164059,218.205937 C54.8032104,216.836735 55.790015,215 55.790015,215" id="Path" fill="#FF9400"></path>
            </g>
        </g>
    </g>
</svg>
