<svg viewBox="0 0 602 131" xmlns="http://www.w3.org/2000/svg"><g fill="none" fill-rule="evenodd"><g fill="#fff" fill-rule="nonzero" transform="translate(145 34)"><path d="m50.9 22.3c0 3.1-1 5.9-3 8.6s-4.8 4.7-8.4 5.9c4.1.7 7.6 2.8 10.4 6.1s4.2 6.8 4.2 10.5c0 5.9-2.3 10.7-6.8 14.3s-10.5 5.4-18 5.4h-29.2v-69.9l26.2.1c7.2 0 13.1 1.7 17.7 5.1s6.9 8 6.9 13.9zm-35.3 10.2h6.4c8.8 0 13.3-3.2 13.3-9.6 0-2.4-.8-4.2-2.5-5.5s-3.8-1.9-6.3-1.9h-10.8v17zm8.1 10.8h-8.1v17.5h13.8c2.7 0 4.8-.7 6.5-2.1s2.5-3.3 2.5-5.6c0-2.9-1-5.3-3-7.1-2.1-1.8-6-2.7-11.7-2.7z"/><path d="m98.2 21.9h14.9v51.1h-14.9v-7.5c-4 5.7-9.3 8.6-16.1 8.6-7.6 0-13.6-2.6-18.1-7.7s-6.8-11.5-6.8-19.2c0-7.5 2.2-13.8 6.5-18.8 4.4-5.1 10.4-7.6 18.1-7.6 3.3 0 6.4.7 9.3 2.2s5.2 3.4 7 5.9v-7zm-26.1 25.4c0 4.2 1.2 7.7 3.6 10.5s5.6 4.2 9.6 4.2c3.9 0 7-1.2 9.6-3.6 2.5-2.4 3.8-5.9 3.8-10.3 0-4.7-1.3-8.4-3.8-11.1-2.5-2.8-5.9-4.1-10-4.1-3.9 0-7 1.4-9.3 4.1s-3.5 6.2-3.5 10.3z"/><path d="m125.8 66.5c-5.2-5-7.8-11.4-7.8-19.1s2.6-14.1 7.8-19.1 12.1-7.5 20.8-7.5c7.1 0 14.1 2.5 20.9 7.6l-6.8 10.9c-3.8-3.4-8.3-5.1-13.5-5.1-4.3 0-7.8 1.2-10.5 3.7s-4 5.7-4 9.6 1.3 7.1 4 9.6 6.1 3.7 10.5 3.7c5.2 0 9.7-1.7 13.5-5.1l6.8 10.9c-6.8 5.1-13.8 7.6-20.9 7.6-8.6-.2-15.6-2.7-20.8-7.7z"/><path d="m187 42.6 14.6-20.7h16.4v2l-17 21.3 6.7 10.7c2 3.1 4.3 4.6 7 4.6 2 0 3.8-.6 5.5-1.8l5.6 10.5c-3.7 3.3-8.2 5-13.4 5-6.5 0-11.6-2.6-15.2-7.8l-10.2-16.6v23.2h-14.9v-72.1h14.9z"/><path d="m242.6 96.4h-14.9v-74.5h14.9v7.5c4-5.7 9.3-8.6 16.1-8.6 7.6 0 13.6 2.6 18.2 7.7 4.5 5.1 6.8 11.5 6.8 19.2 0 7.5-2.2 13.8-6.5 18.8-4.4 5.1-10.4 7.6-18.1 7.6-3.3 0-6.4-.7-9.3-2.2s-5.2-3.4-7-5.9v30.4zm26.1-48.8c0-4.2-1.2-7.7-3.6-10.5s-5.6-4.2-9.6-4.2c-3.9 0-7 1.2-9.6 3.6-2.5 2.4-3.8 5.9-3.8 10.3 0 4.7 1.3 8.4 3.8 11.1 2.5 2.8 5.8 4.1 10 4.1 3.9 0 7-1.4 9.3-4.1 2.4-2.7 3.5-6.2 3.5-10.3z"/><path d="m329 21.9h14.9v51.1h-14.9v-7.5c-4 5.7-9.3 8.6-16.1 8.6-7.6 0-13.6-2.6-18.1-7.7s-6.8-11.5-6.8-19.2c0-7.5 2.2-13.8 6.5-18.8 4.4-5.1 10.4-7.6 18.1-7.6 3.3 0 6.4.7 9.3 2.2s5.2 3.4 7 5.9v-7zm-26.2 25.4c0 4.2 1.2 7.7 3.6 10.5s5.6 4.2 9.6 4.2c3.9 0 7-1.2 9.6-3.6s3.8-5.9 3.8-10.3c0-4.7-1.3-8.4-3.8-11.1s-5.9-4.1-10-4.1c-3.9 0-7 1.4-9.3 4.1s-3.5 6.2-3.5 10.3z"/><path d="m356 66.5c-5.2-5-7.8-11.4-7.8-19.1s2.6-14.1 7.8-19.1 12.1-7.5 20.8-7.5c7.1 0 14.1 2.5 20.9 7.6l-6.8 10.9c-3.8-3.4-8.3-5.1-13.5-5.1-4.3 0-7.8 1.2-10.5 3.7s-4 5.7-4 9.6 1.3 7.1 4 9.6 6.1 3.7 10.5 3.7c5.2 0 9.7-1.7 13.5-5.1l6.8 10.9c-6.8 5.1-13.8 7.6-20.9 7.6-8.6-.2-15.5-2.7-20.8-7.7z"/><path d="m417.2 42.6 14.6-20.7h16.5v2l-17 21.3 6.7 10.7c2 3.1 4.3 4.6 7 4.6 2 0 3.8-.6 5.5-1.8l5.6 10.5c-3.7 3.3-8.2 5-13.4 5-6.5 0-11.6-2.6-15.2-7.8l-10.3-16.5v23.1h-14.9v-72.1h14.9z"/></g><path d="m51.4 5.3c-5.8 0-10.1.8-11.2 6.5h22.5c-1.2-5.7-3.9-6.5-11.3-6.5z"/><path d="m51.4 32.5c-.7 0-1.3.1-1.7.3s-.6.5-.6.9v9.5c0 .6.2 1.2.7 1.7.5.4 1 .7 1.6.7s1.2-.2 1.7-.7c.4-.5.7-1 .7-1.6v-9.5c0-.2-.1-.6-.6-.9-.4-.3-1-.4-1.8-.4z"/><path d="m42.4 46.2c.3.5.8.9 1.4 1.1.2.1.4.1.6.1.4 0 .8-.1 1.2-.3.5-.3.9-.8 1.1-1.4s.1-1.2-.2-1.8l-4.8-8.2c-.2-.3-.5-.4-.9-.4-.4 0-1 .2-1.6.6s-1.1.7-1.3 1.1c-.2.3-.3.7-.1 1z"/><path d="m38.1 52.2c.4.2.8.3 1.2.3.2 0 .4 0 .6-.1.6-.2 1.1-.6 1.4-1.1s.4-1.1.2-1.7c-.1-.6-.5-1.1-1.1-1.4l-8.2-4.8c-.1-.1-.3-.1-.4-.1-.2 0-.4.1-.6.2-.3.2-.7.7-1.1 1.3s-.6 1.2-.6 1.6.1.8.4.9z"/><path d="m4.9 75.5v24.5c0 1.4 1.1 2.4 2.4 2.4h2.4v-29.4h-2.4c-1.3 0-2.4 1.1-2.4 2.5z"/><path d="m61.3 49.6c-.1.6-.1 1.2.2 1.7s.8.9 1.4 1.1c.2 0 .4.1.6.1.4 0 .8-.1 1.2-.3l8.2-4.8c.3-.2.5-.5.4-.9 0-.4-.2-1-.6-1.6s-.7-1.1-1.1-1.3c-.2-.1-.4-.2-.6-.2s-.3 0-.4.1l-8.2 4.8c-.6.2-.9.7-1.1 1.3z"/><path d="m61.2 35.6-4.8 8.2c-.3.6-.4 1.2-.2 1.8s.6 1.1 1.1 1.4c.4.2.8.3 1.2.3.2 0 .4 0 .6-.1.6-.2 1.1-.6 1.4-1.1l4.8-8.2c.2-.3.1-.7-.1-1-.2-.4-.7-.7-1.3-1.1s-1.2-.6-1.7-.6c-.6 0-.9.2-1 .4z"/><path d="m28 61.3c.2.2.4.3.7.3h.2c1.2-.4 5.7-1.6 12.2-2.3h.6c1 0 1.9.3 2.8.7l5.3 3c.5.3 1 .4 1.6.4s1.1-.1 1.6-.4l5.3-3c.8-.5 1.8-.7 2.8-.7h.6c6.5.8 11 2 12.2 2.3h.2c.3 0 .6-.1.7-.3.2-.2.5-.7.7-1.4.2-.5.2-1.1.2-1.6 0-.4-.3-.7-.7-.8-2.5-.7-11.6-3.1-23.7-3.1s-21.2 2.4-23.7 3.1c-.4.1-.6.4-.7.8 0 .3 0 .9.2 1.6.4.7.7 1.1.9 1.4z"/><path d="m95.5 73h-2.5v29.4h2.4c1.4 0 2.4-1.1 2.4-2.4v-24.5c.1-1.4-1-2.5-2.3-2.5z"/><g fill-rule="nonzero"><path d="m37.8 100c0 1.4-1.1 2.4-2.5 2.4s-2.4-1.1-2.4-2.4v-7.4h-8.5v17.1h53.9v-17.1h-40.5z" fill="#e18b96"/><path d="m95.5 68.1h-2.4v-24.5c0-14.8-10.2-27.6-24.6-31-.9-9.4-7.8-12.3-17-12.3-11.2 0-16.3 4.1-17 12.3-14.4 3.4-24.6 16.2-24.6 31v24.5h-2.4c-4 0-7.3 3.3-7.4 7.4v24.5c0 4 3.3 7.3 7.4 7.3h2.4v4.9c0 6.8 5.5 12.3 12.3 12.3h58.8c6.8 0 12.2-5.5 12.3-12.3v-4.9h2.4c4 0 7.3-3.3 7.4-7.3v-24.5c-.3-4.1-3.6-7.4-7.6-7.4zm-85.7 34.3h-2.4c-1.4 0-2.4-1.1-2.4-2.4v-24.5c0-1.4 1.1-2.4 2.4-2.4h2.4zm60.8-59c.1-.1.3-.1.4-.1.2 0 .4.1.6.2.4.2.7.7 1.1 1.3s.6 1.2.6 1.6-.1.8-.4.9l-8.2 4.8c-.4.2-.8.3-1.2.3-.2 0-.4 0-.6-.1-.6-.2-1.1-.6-1.4-1.1s-.4-1.1-.2-1.7.6-1.1 1.1-1.4zm-5.5-6.5c.2.3.3.7.1 1l-4.8 8.2c-.3.5-.8.9-1.4 1.1-.2.1-.4.1-.6.1-.4 0-.8-.1-1.2-.3-.5-.3-.9-.8-1.1-1.4s-.1-1.2.2-1.8l4.8-8.2c.2-.3.5-.4.8-.4.5 0 1.1.2 1.7.6.8.4 1.3.8 1.5 1.1zm-13.7-31.6c7.4 0 10.1.8 11.3 6.5h-22.5c1.2-5.7 5.4-6.5 11.2-6.5zm2.3 28.4v9.5c0 .6-.2 1.2-.7 1.6-.4.4-1 .7-1.7.7-.6 0-1.2-.2-1.6-.7-.4-.4-.7-1-.7-1.7v-9.5c0-.4.2-.7.6-.9s1-.3 1.7-.3 1.3.1 1.7.3c.6.4.7.7.7 1zm-16 3.2c.2-.4.7-.7 1.3-1.1s1.2-.6 1.6-.6c.5 0 .8.2.9.4l4.8 8.2c.3.6.4 1.2.2 1.8s-.6 1.1-1.1 1.4c-.4.2-.8.3-1.2.3-.2 0-.4 0-.6-.1-.6-.2-1.1-.6-1.4-1.1l-4.8-8.2c.1-.3.1-.7.3-1zm-7.6 7.9c.4-.6.8-1.1 1.1-1.3.2-.1.4-.2.6-.2s.3 0 .4.1l8.2 4.8c.5.3 1 .8 1.1 1.4s.1 1.2-.2 1.7-.8.9-1.4 1.1c-.2 0-.4.1-.6.1-.4 0-.8-.1-1.2-.3l-8.2-4.8c-.3-.2-.5-.5-.4-.9 0-.5.2-1 .6-1.7zm-2.4 12.7c2.5-.7 11.6-3.1 23.7-3.1s21.2 2.4 23.7 3.1c.4.1.6.4.7.8 0 .5 0 1-.2 1.6-.2.7-.5 1.2-.7 1.4s-.4.3-.7.3h-.2c-1.2-.4-5.8-1.6-12.2-2.3-.2 0-.4 0-.6 0-1 0-1.9.3-2.8.7l-5.3 3c-.5.3-1 .4-1.6.4s-1.1-.1-1.6-.4l-5.3-3c-.8-.5-1.8-.7-2.8-.7-.2 0-.4 0-.6 0-6.5.8-11 2-12.2 2.3h-.2c-.3 0-.6-.1-.7-.3-.2-.3-.5-.7-.7-1.4s-.2-1.2-.2-1.6c-.1-.3.1-.7.5-.8zm55.5 54.7c0 1.4-1.1 2.5-2.4 2.5h-58.8c-1.4 0-2.5-1.1-2.5-2.5v-34.3c0-1.3 1.1-2.4 2.5-2.4h58.8c1.4 0 2.4 1.1 2.4 2.4zm14.7-12.2c0 1.4-1.1 2.4-2.4 2.4h-2.5v-29.4h2.4c1.4 0 2.4 1.1 2.4 2.4v24.6z" fill="#d1435b"/><path d="m24.5 80.4h53.9v7.3h-53.9z" fill="#e18b96"/></g></g></svg>