<svg width="602" height="131" viewBox="0 0 602 131" fill="none" xmlns="http://www.w3.org/2000/svg">
<g clip-path="url(#clip0_19622_16117)">
<path d="M195.9 56.3002C195.9 59.4002 194.9 62.2002 192.9 64.9002C190.9 67.6002 188.1 69.6002 184.5 70.8002C188.6 71.5002 192.1 73.6002 194.9 76.9002C197.7 80.2002 199.1 83.7002 199.1 87.4002C199.1 93.3002 196.8 98.1002 192.3 101.7C187.8 105.3 181.8 107.1 174.3 107.1H145.1V37.2002L171.3 37.3002C178.5 37.3002 184.4 39.0002 189 42.4002C193.6 45.8002 195.9 50.4002 195.9 56.3002ZM160.6 66.5002H167C175.8 66.5002 180.3 63.3002 180.3 56.9002C180.3 54.5002 179.5 52.7002 177.8 51.4002C176.1 50.1002 174 49.5002 171.5 49.5002H160.7V66.5002H160.6ZM168.7 77.3002H160.6V94.8002H174.4C177.1 94.8002 179.2 94.1002 180.9 92.7002C182.6 91.3002 183.4 89.4002 183.4 87.1002C183.4 84.2002 182.4 81.8002 180.4 80.0002C178.3 78.2002 174.4 77.3002 168.7 77.3002Z" fill="#FEEB87"/>
<path d="M243.2 55.9H258.1V107H243.2V99.5C239.2 105.2 233.9 108.1 227.1 108.1C219.5 108.1 213.5 105.5 209 100.4C204.5 95.3 202.2 88.9 202.2 81.2C202.2 73.7 204.4 67.4 208.7 62.4C213.1 57.3 219.1 54.8 226.8 54.8C230.1 54.8 233.2 55.5 236.1 57C239 58.5 241.3 60.4 243.1 62.9V55.9H243.2ZM217.1 81.3C217.1 85.5 218.3 89 220.7 91.8C223.1 94.6 226.3 96 230.3 96C234.2 96 237.3 94.8 239.9 92.4C242.4 90 243.7 86.5001 243.7 82.1001C243.7 77.4001 242.4 73.7 239.9 71C237.4 68.2 234 66.9 229.9 66.9C226 66.9 222.9 68.3 220.6 71C218.3 73.7 217.1 77.2 217.1 81.3Z" fill="#FEEB87"/>
<path d="M270.8 100.5C265.6 95.5 263 89.1 263 81.4C263 73.7 265.6 67.3 270.8 62.3C276 57.3 282.9 54.8 291.6 54.8C298.7 54.8 305.7 57.3 312.5 62.4L305.7 73.3C301.9 69.9 297.4 68.2 292.2 68.2C287.9 68.2 284.4 69.4 281.7 71.9C279 74.4 277.7 77.6 277.7 81.5C277.7 85.4 279 88.6001 281.7 91.1001C284.4 93.6001 287.8 94.8 292.2 94.8C297.4 94.8 301.9 93.1 305.7 89.7L312.5 100.6C305.7 105.7 298.7 108.2 291.6 108.2C283 108 276 105.5 270.8 100.5Z" fill="#FEEB87"/>
<path d="M332 76.6002L346.6 55.9001H363V57.9001L346 79.2001L352.7 89.9001C354.7 93.0001 357 94.5002 359.7 94.5002C361.7 94.5002 363.5 93.9002 365.2 92.7001L370.8 103.2C367.1 106.5 362.6 108.2 357.4 108.2C350.9 108.2 345.8 105.6 342.2 100.4L332 83.8002V107H317.1V34.9001H332V76.6002Z" fill="#FEEB87"/>
<path d="M387.6 130.4H372.7V55.9H387.6V63.4C391.6 57.7 396.9 54.8 403.7 54.8C411.3 54.8 417.3 57.4 421.9 62.5C426.4 67.6 428.7 74 428.7 81.7C428.7 89.2 426.5 95.5 422.2 100.5C417.8 105.6 411.8 108.1 404.1 108.1C400.8 108.1 397.7 107.4 394.8 105.9C391.9 104.4 389.6 102.5 387.8 100V130.4H387.6ZM413.7 81.6001C413.7 77.4001 412.5 73.9001 410.1 71.1001C407.7 68.3001 404.5 66.9 400.5 66.9C396.6 66.9 393.5 68.1 390.9 70.5C388.4 72.9 387.1 76.4 387.1 80.8C387.1 85.5 388.4 89.2 390.9 91.9C393.4 94.7 396.7 96 400.9 96C404.8 96 407.9 94.6 410.2 91.9C412.6 89.2 413.7 85.7001 413.7 81.6001Z" fill="#FEEB87"/>
<path d="M474 55.9H488.9V107H474V99.5C470 105.2 464.7 108.1 457.9 108.1C450.3 108.1 444.3 105.5 439.8 100.4C435.3 95.3 433 88.9 433 81.2C433 73.7 435.2 67.4 439.5 62.4C443.9 57.3 449.9 54.8 457.6 54.8C460.9 54.8 464 55.5 466.9 57C469.8 58.5 472.1 60.4 473.9 62.9V55.9H474ZM447.8 81.3C447.8 85.5 449 89 451.4 91.8C453.8 94.6 457 96 461 96C464.9 96 468 94.8 470.6 92.4C473.2 90 474.4 86.5001 474.4 82.1001C474.4 77.4001 473.1 73.7 470.6 71C468.1 68.3 464.7 66.9 460.6 66.9C456.7 66.9 453.6 68.3 451.3 71C449 73.7 447.8 77.2 447.8 81.3Z" fill="#FEEB87"/>
<path d="M501 100.5C495.8 95.5 493.2 89.1 493.2 81.4C493.2 73.7 495.8 67.3 501 62.3C506.2 57.3 513.1 54.8 521.8 54.8C528.9 54.8 535.9 57.3 542.7 62.4L535.9 73.3C532.1 69.9 527.6 68.2 522.4 68.2C518.1 68.2 514.6 69.4 511.9 71.9C509.2 74.4 507.9 77.6 507.9 81.5C507.9 85.4 509.2 88.6001 511.9 91.1001C514.6 93.6001 518 94.8 522.4 94.8C527.6 94.8 532.1 93.1 535.9 89.7L542.7 100.6C535.9 105.7 528.9 108.2 521.8 108.2C513.2 108 506.3 105.5 501 100.5Z" fill="#FEEB87"/>
<path d="M562.2 76.6002L576.8 55.9001H593.3V57.9001L576.3 79.2001L583 89.9001C585 93.0001 587.3 94.5002 590 94.5002C592 94.5002 593.8 93.9002 595.5 92.7001L601.1 103.2C597.4 106.5 592.9 108.2 587.7 108.2C581.2 108.2 576.1 105.6 572.5 100.4L562.2 83.9001V107H547.3V34.9001H562.2V76.6002Z" fill="#FEEB87"/>
<path d="M37.8 100C37.8 101.4 36.7 102.4 35.3 102.4C33.9 102.4 32.9 101.3 32.9 100V92.6001H24.4V109.7H78.3V92.6001H37.8V100Z" fill="#FEEB87"/>
<path d="M95.5 68.1001H93.1V43.6001C93.1 28.8001 82.9 16.0001 68.5 12.6001C67.6 3.20005 60.7 0.300049 51.5 0.300049C40.3 0.300049 35.2 4.40005 34.5 12.6001C20.1 16.0001 9.89998 28.8001 9.89998 43.6001V68.1001H7.49998C3.49998 68.1001 0.199976 71.4 0.0999756 75.5V100C0.0999756 104 3.39998 107.3 7.49998 107.3H9.89998V112.2C9.89998 119 15.4 124.5 22.2 124.5H81C87.8 124.5 93.2 119 93.3 112.2V107.3H95.7C99.7 107.3 103 104 103.1 100V75.5C102.8 71.4 99.5 68.1001 95.5 68.1001ZM9.79998 102.4H7.39998C5.99998 102.4 4.99998 101.3 4.99998 100V75.5C4.99998 74.1 6.09998 73.1001 7.39998 73.1001H9.79998V102.4ZM70.6 43.4C70.7 43.3 70.9 43.3 71 43.3C71.2 43.3 71.4 43.4 71.6 43.5C72 43.7 72.3 44.2001 72.7 44.8C73.1 45.4 73.3 46 73.3 46.4C73.3 46.8 73.2 47.2001 72.9 47.3L64.7 52.1001C64.3 52.3001 63.9 52.4 63.5 52.4C63.3 52.4 63.1 52.4 62.9 52.3C62.3 52.1 61.8 51.7 61.5 51.2C61.2 50.7 61.1 50.1 61.3 49.5C61.5 48.9 61.9 48.4001 62.4 48.1001L70.6 43.4ZM65.1 36.9C65.3 37.2 65.4 37.6 65.2 37.9L60.4 46.1001C60.1 46.6001 59.6 47 59 47.2C58.8 47.3 58.6 47.3 58.4 47.3C58 47.3 57.6 47.2 57.2 47C56.7 46.7 56.3 46.2001 56.1 45.6001C55.9 45.0001 56 44.4 56.3 43.8L61.1 35.6001C61.3 35.3001 61.6 35.2 61.9 35.2C62.4 35.2 63 35.4 63.6 35.8C64.4 36.2001 64.9 36.6 65.1 36.9ZM51.4 5.30005C58.8 5.30005 61.5 6.10005 62.7 11.8H40.2C41.4 6.10005 45.6 5.30005 51.4 5.30005ZM53.7 33.7V43.2C53.7 43.8 53.5 44.4 53 44.8C52.6 45.2001 52 45.5 51.3 45.5C50.7 45.5 50.1 45.3 49.7 44.8C49.3 44.4 49 43.8001 49 43.1001V33.6001C49 33.2001 49.2 32.9 49.6 32.7C50 32.5 50.6 32.4 51.3 32.4C52 32.4 52.6 32.5 53 32.7C53.6 33.1 53.7 33.4 53.7 33.7ZM37.7 36.9C37.9 36.5 38.4 36.2001 39 35.8C39.6 35.4 40.2 35.2 40.6 35.2C41.1 35.2 41.4 35.4001 41.5 35.6001L46.3 43.8C46.6 44.4 46.7 45.0001 46.5 45.6001C46.3 46.2001 45.9 46.7 45.4 47C45 47.2 44.6 47.3 44.2 47.3C44 47.3 43.8 47.3 43.6 47.2C43 47 42.5 46.6001 42.2 46.1001L37.4 37.9C37.5 37.6 37.5 37.2 37.7 36.9ZM30.1 44.8C30.5 44.2001 30.9 43.7 31.2 43.5C31.4 43.4 31.6 43.3 31.8 43.3C32 43.3 32.1 43.3 32.2 43.4L40.4 48.2C40.9 48.5 41.4 49.0001 41.5 49.6001C41.6 50.2001 41.6 50.8 41.3 51.3C41 51.8 40.5 52.2 39.9 52.4C39.7 52.4 39.5 52.5 39.3 52.5C38.9 52.5 38.5 52.4 38.1 52.2L29.9 47.4C29.6 47.2 29.4 46.9 29.5 46.5C29.5 46 29.7 45.5 30.1 44.8ZM27.7 57.5C30.2 56.8 39.3 54.4 51.4 54.4C63.5 54.4 72.6 56.8 75.1 57.5C75.5 57.6 75.7 57.9 75.8 58.3C75.8 58.8 75.8 59.3 75.6 59.9C75.4 60.6 75.1 61.1 74.9 61.3C74.7 61.5 74.5 61.6001 74.2 61.6001H74C72.8 61.2001 68.2 60 61.8 59.3C61.6 59.3 61.4 59.3 61.2 59.3C60.2 59.3 59.3 59.6 58.4 60L53.1 63C52.6 63.3 52.1 63.4 51.5 63.4C50.9 63.4 50.4 63.3 49.9 63L44.6 60C43.8 59.5 42.8 59.3 41.8 59.3C41.6 59.3 41.4 59.3 41.2 59.3C34.7 60.1 30.2 61.3001 29 61.6001H28.8C28.5 61.6001 28.2 61.5 28.1 61.3C27.9 61 27.6 60.6 27.4 59.9C27.2 59.2 27.2 58.7001 27.2 58.3C27.1 58 27.3 57.6 27.7 57.5ZM83.2 112.2C83.2 113.6 82.1 114.7 80.8 114.7H22C20.6 114.7 19.5 113.6 19.5 112.2V77.9C19.5 76.6 20.6 75.5 22 75.5H80.8C82.2 75.5 83.2 76.6 83.2 77.9V112.2ZM97.9 100C97.9 101.4 96.8 102.4 95.5 102.4H93V73H95.4C96.8 73 97.8 74.1 97.8 75.4V100H97.9Z" fill="#FF7B59"/>
<path d="M78.4 80.4001H24.5V87.7001H78.4V80.4001Z" fill="#FEEB87"/>
</g>
<defs>
<clipPath id="clip0_19622_16117">
<rect width="602" height="131" fill="white"/>
</clipPath>
</defs>
</svg>
