
<svg viewBox="0 0 603 131" xmlns="http://www.w3.org/2000/svg" xmlns:xlink="http://www.w3.org/1999/xlink">
    <g id="Page-1" stroke="none" stroke-width="1" fill="none" fill-rule="evenodd">
        <g id="Backpack_Logo_Horizontal_SkyGrey_White" fill-rule="nonzero">
            <g id="Group" transform="translate(146.000000, 35.000000)" fill="#FFFFFF">
                <path d="M50.8,21.8 C50.8,24.9 49.8,27.7 47.8,30.4 C45.8,33.1 43,35.1 39.4,36.3 C43.5,37 47,39.1 49.8,42.4 C52.6,45.7 54,49.2 54,52.9 C54,58.8 51.7,63.6 47.2,67.2 C42.7,70.8 36.7,72.6 29.2,72.6 L0,72.6 L0,2.7 L26.2,2.8 C33.4,2.8 39.3,4.5 43.9,7.9 C48.5,11.3 50.8,16 50.8,21.8 Z M15.5,32.1 L21.9,32.1 C30.7,32.1 35.2,28.9 35.2,22.5 C35.2,20.1 34.4,18.3 32.7,17 C31,15.7 28.9,15.1 26.4,15.1 L15.6,15.1 L15.6,32.1 L15.5,32.1 Z M23.6,42.8 L15.5,42.8 L15.5,60.3 L29.3,60.3 C32,60.3 34.1,59.6 35.8,58.2 C37.5,56.8 38.3,54.9 38.3,52.6 C38.3,49.7 37.3,47.3 35.3,45.5 C33.3,43.7 29.4,42.8 23.6,42.8 Z" id="Shape"></path>
                <path d="M98.2,21.4 L113,21.4 L113,72.6 L98.1,72.6 L98.1,65.1 C94.1,70.8 88.8,73.7 82,73.7 C74.4,73.7 68.4,71.1 63.9,66 C59.4,60.9 57.1,54.5 57.1,46.8 C57.1,39.3 59.3,33 63.6,28 C68,22.9 74,20.4 81.7,20.4 C85,20.4 88.1,21.1 91,22.6 C93.9,24.1 96.2,26 98,28.5 L98,21.4 L98.2,21.4 L98.2,21.4 Z M72,46.8 C72,51 73.2,54.5 75.6,57.3 C78,60.1 81.2,61.5 85.2,61.5 C89.1,61.5 92.2,60.3 94.8,57.9 C97.3,55.5 98.6,52 98.6,47.6 C98.6,42.9 97.3,39.2 94.8,36.5 C92.3,33.7 88.9,32.4 84.8,32.4 C80.9,32.4 77.8,33.8 75.5,36.5 C73.2,39.3 72,42.7 72,46.8 Z" id="Shape"></path>
                <path d="M125.8,66 C120.6,61 118,54.6 118,46.9 C118,39.2 120.6,32.8 125.8,27.8 C131,22.8 137.9,20.3 146.6,20.3 C153.7,20.3 160.7,22.8 167.5,27.9 L160.7,38.8 C156.9,35.4 152.4,33.7 147.2,33.7 C142.9,33.7 139.4,34.9 136.7,37.4 C134,39.9 132.7,43.1 132.7,47 C132.7,50.9 134,54.1 136.7,56.6 C139.4,59.1 142.8,60.3 147.2,60.3 C152.4,60.3 156.9,58.6 160.7,55.2 L167.5,66.1 C160.7,71.2 153.7,73.7 146.6,73.7 C137.9,73.6 131,71.1 125.8,66 Z" id="Path"></path>
                <path d="M186.9,42.1 L201.5,21.4 L218,21.4 L218,23.4 L201,44.7 L207.7,55.4 C209.7,58.5 212,60 214.7,60 C216.7,60 218.5,59.4 220.2,58.2 L225.8,68.7 C222.1,72 217.6,73.7 212.4,73.7 C205.9,73.7 200.8,71.1 197.2,65.9 L186.9,49.3 L186.9,72.5 L172,72.5 L172,0.4 L186.9,0.4 L186.9,42.1 L186.9,42.1 Z" id="Path"></path>
                <path d="M242.6,95.9 L227.7,95.9 L227.7,21.4 L242.6,21.4 L242.6,28.9 C246.6,23.2 251.9,20.3 258.7,20.3 C266.3,20.3 272.3,22.9 276.9,28 C281.4,33.1 283.7,39.5 283.7,47.2 C283.7,54.7 281.5,61 277.2,66 C272.8,71.1 266.8,73.6 259.1,73.6 C255.8,73.6 252.7,72.9 249.8,71.4 C246.9,69.9 244.6,68 242.8,65.5 L242.8,95.9 L242.6,95.9 Z M268.7,47.1 C268.7,42.9 267.5,39.4 265.1,36.6 C262.7,33.8 259.5,32.4 255.5,32.4 C251.6,32.4 248.5,33.6 245.9,36 C243.4,38.4 242.1,41.9 242.1,46.3 C242.1,51 243.4,54.7 245.9,57.4 C248.4,60.2 251.7,61.5 255.9,61.5 C259.8,61.5 262.9,60.1 265.2,57.4 C267.6,54.7 268.7,51.3 268.7,47.1 Z" id="Shape"></path>
                <path d="M328.9,21.4 L343.8,21.4 L343.8,72.6 L328.9,72.6 L328.9,65.1 C324.9,70.8 319.6,73.7 312.8,73.7 C305.2,73.7 299.2,71.1 294.7,66 C290.2,60.9 287.9,54.5 287.9,46.8 C287.9,39.3 290.1,33 294.4,28 C298.8,22.9 304.8,20.4 312.5,20.4 C315.8,20.4 318.9,21.1 321.8,22.6 C324.7,24.1 327,26 328.8,28.5 L328.9,21.4 L328.9,21.4 Z M302.8,46.8 C302.8,51 304,54.5 306.4,57.3 C308.8,60.1 312,61.5 316,61.5 C319.9,61.5 323,60.3 325.6,57.9 C328.1,55.5 329.4,52 329.4,47.6 C329.4,42.9 328.1,39.2 325.6,36.5 C323.1,33.7 319.7,32.4 315.6,32.4 C311.7,32.4 308.6,33.8 306.3,36.5 C304,39.3 302.8,42.7 302.8,46.8 Z" id="Shape"></path>
                <path d="M356,66 C350.8,61 348.2,54.6 348.2,46.9 C348.2,39.2 350.8,32.8 356,27.8 C361.2,22.8 368.1,20.3 376.8,20.3 C383.9,20.3 390.9,22.8 397.7,27.9 L390.9,38.8 C387.1,35.4 382.6,33.7 377.4,33.7 C373.1,33.7 369.6,34.9 366.9,37.4 C364.2,39.9 362.9,43.1 362.9,47 C362.9,50.9 364.2,54.1 366.9,56.6 C369.6,59.1 373,60.3 377.4,60.3 C382.6,60.3 387.1,58.6 390.9,55.2 L397.7,66.1 C390.9,71.2 383.9,73.7 376.8,73.7 C368.2,73.6 361.2,71.1 356,66 Z" id="Path"></path>
                <path d="M417.2,42.1 L431.8,21.4 L448.3,21.4 L448.3,23.4 L431.3,44.7 L438,55.4 C440,58.5 442.3,60 445,60 C447,60 448.8,59.4 450.5,58.2 L456.1,68.7 C452.4,72 447.9,73.7 442.7,73.7 C436.2,73.7 431.1,71.1 427.5,65.9 L417.2,49.3 L417.2,72.5 L402.3,72.5 L402.3,0.4 L417.2,0.4 L417.2,42.1 L417.2,42.1 Z" id="Path"></path>
            </g>
            <g id="Group">
                <path d="M10.5,103.1 L8,103.1 C6.6,103.1 5.5,102 5.5,100.6 L5.5,76 C5.5,74.6 6.6,73.5 8,73.5 L10.5,73.5 L10.5,103.1 Z" id="Path" fill="#D1435B"></path>
                <path d="M99,100.7 C99,102.1 97.9,103.2 96.5,103.2 L94,103.2 L94,73.7 L96.5,73.7 C97.9,73.7 99,74.8 99,76.2 L99,100.7 Z" id="Path" fill="#D1435B"></path>
                <path d="M15.4,44.1 C15.4,29.2 27.5,17.1 42.5,17 L62.2,17 C77.1,17 89.2,29.1 89.3,44.1 L89.3,113 C89.3,117.1 86,120.4 81.9,120.4 L22.9,120.4 C18.8,120.4 15.5,117.1 15.5,113 L15.5,44.1 L15.4,44.1 Z" id="Path" fill="#D1435B"></path>
                <rect id="Rectangle" fill="#E18B96" x="25.2" y="81" width="54.1" height="29.5"></rect>
                <path d="M81.8,76.1 L22.8,76.1 C21.4,76.1 20.3,77.2 20.3,78.6 L20.3,113 C20.3,114.4 21.4,115.5 22.8,115.5 L81.8,115.5 C83.2,115.5 84.3,114.4 84.3,113 L84.3,78.6 C84.3,77.2 83.2,76.1 81.8,76.1 Z M79.4,110.5 L25.3,110.5 L25.3,93.3 L32.7,93.3 L37.6,93.3 L79.4,93.3 L79.4,110.5 L79.4,110.5 Z M79.4,88.4 L25.3,88.4 L25.3,81 L79.4,81 L79.4,88.4 Z" id="Shape" fill="#111236"></path>
                <path d="M33.7,93.3 L33.7,100.7 C33.7,102.1 34.8,103.2 36.2,103.2 C37.6,103.2 38.7,102.1 38.7,100.7 L38.7,93.3 L33.7,93.3 Z" id="Path" fill="#111236"></path>
                <path d="M96.6,68.7 L94.1,68.7 L94.1,44.1 C94.1,29.2 83.9,16.4 69.4,13 C68.5,3.5 61.6,0.6 52.3,0.6 C41,0.6 36,4.7 35.2,13 C20.7,16.4 10.5,29.3 10.5,44.1 L10.5,68.7 L8,68.7 C3.9,68.7 0.6,72 0.6,76.1 L0.6,100.7 C0.6,104.8 3.9,108.1 8,108.1 L10.5,108.1 L10.5,113 C10.5,119.8 16,125.3 22.8,125.3 L81.8,125.3 C88.6,125.3 94.1,119.8 94.1,113 L94.1,108 L96.6,108 C100.7,108 104,104.7 104,100.6 L104,76 C103.9,72 100.6,68.7 96.6,68.7 Z M10.5,103.1 L8,103.1 C6.6,103.1 5.5,102 5.5,100.6 L5.5,76 C5.5,74.6 6.6,73.5 8,73.5 L10.5,73.5 L10.5,103.1 Z M52.3,5.5 C59.7,5.5 62.5,6.3 63.6,12.1 L41,12.1 C42.2,6.4 46.5,5.6 52.3,5.5 Z M15.4,44.1 C15.4,29.2 27.5,17.1 42.5,17 L62.2,17 C77.1,17 89.2,29.1 89.3,44.1 L89.3,113 C89.3,117.1 86,120.4 81.9,120.4 L22.9,120.4 C18.8,120.4 15.5,117.1 15.5,113 L15.5,44.1 L15.4,44.1 Z M99,100.7 C99,102.1 97.9,103.2 96.5,103.2 L94,103.2 L94,73.7 L96.5,73.7 C97.9,73.7 99,74.8 99,76.2 L99,100.7 Z" id="Shape" fill="#111236"></path>
                <g transform="translate(28.000000, 33.000000)" fill="#111236" id="Path">
                    <path d="M24.3,30.8 C24.8,30.8 25.3,30.7 25.8,30.4 L31.1,27.3 C32.2,26.7 33.4,26.4 34.6,26.6 C41.1,27.4 45.6,28.6 46.9,29 C47.2,29.1 47.5,29 47.7,28.8 C47.9,28.5 48.2,28.1 48.4,27.5 C48.6,26.9 48.6,26.4 48.6,26 C48.6,25.7 48.4,25.4 48.1,25.4 C46,24.8 36.8,22.3 24.3,22.3 C11.8,22.3 2.6,24.8 0.5,25.4 C0.2,25.5 1.42108547e-14,25.7 1.42108547e-14,26 C1.42108547e-14,26.3 1.42108547e-14,26.8 0.2,27.5 C0.4,28.1 0.7,28.6 0.9,28.8 C1.1,29 1.4,29.1 1.7,29 C3,28.6 7.6,27.4 14,26.6 C15.2,26.5 16.5,26.7 17.5,27.3 L22.8,30.4 C23.3,30.6 23.8,30.8 24.3,30.8 Z"></path>
                    <path d="M15.4,13.6 C15.7,14.1 16.2,14.4 16.7,14.6 C17.2,14.7 17.8,14.7 18.3,14.4 C18.8,14.1 19.1,13.6 19.3,13.1 C19.4,12.6 19.4,12 19.1,11.5 L14.3,3.2 C14.2,2.9 13.8,2.8 13.5,2.9 C13.1,2.9 12.6,3.1 11.9,3.5 C11.3,3.9 10.8,4.2 10.6,4.5 C10.4,4.7 10.4,5.1 10.5,5.3 L15.4,13.6 Z"></path>
                    <path d="M11.1,19.5 C11.6,19.8 12.2,19.8 12.7,19.7 C13.2,19.6 13.7,19.2 14,18.7 C14.3,18.2 14.3,17.6 14.2,17.1 C14.1,16.6 13.7,16.1 13.2,15.8 L4.9,11 C4.6,10.9 4.3,10.9 4.1,11.1 C3.8,11.3 3.4,11.8 3.1,12.4 C2.7,13 2.5,13.6 2.5,14 C2.5,14.3 2.6,14.6 2.8,14.8 L11.1,19.5 Z"></path>
                    <path d="M26.4,10.6 C26.4,11.2 26.2,11.7 25.8,12.1 C25.4,12.5 24.9,12.7 24.3,12.7 C23.7,12.7 23.2,12.5 22.8,12.1 C22.4,11.7 22.2,11.2 22.2,10.6 L22.2,1.1 C22.2,0.8 22.4,0.5 22.7,0.4 C23,0.2 23.6,0.1 24.3,0.1 C25,0.1 25.6,0.2 25.9,0.4 C26.2,0.5 26.4,0.8 26.4,1.1 L26.4,10.6 Z"></path>
                    <path d="M33.2,13.6 C32.9,14.1 32.4,14.4 31.9,14.6 C31.4,14.7 30.8,14.7 30.3,14.4 C29.8,14.1 29.5,13.6 29.3,13.1 C29.2,12.6 29.2,12 29.5,11.5 L34.3,3.2 C34.4,2.9 34.8,2.8 35.1,2.9 C35.5,2.9 36,3.1 36.7,3.5 C37.3,3.9 37.8,4.2 38,4.5 C38.2,4.7 38.2,5.1 38.1,5.3 L33.2,13.6 Z"></path>
                    <path d="M37.5,19.5 C37,19.8 36.4,19.8 35.9,19.7 C35.4,19.6 34.9,19.2 34.6,18.7 C34.3,18.2 34.3,17.6 34.4,17.1 C34.5,16.6 34.9,16.1 35.4,15.8 L43.7,11 C44,10.9 44.3,10.9 44.5,11.1 C44.8,11.3 45.2,11.8 45.5,12.4 C45.9,13 46.1,13.6 46.1,14 C46.1,14.3 46,14.6 45.8,14.8 L37.5,19.5 Z"></path>
                </g>
            </g>
        </g>
    </g>
</svg>