<svg viewBox="0 0 602 142" xmlns="http://www.w3.org/2000/svg"><g fill="none" fill-rule="evenodd"><g transform="translate(0 11)"><g fill="#fff" fill-rule="nonzero" transform="translate(145 34)"><path d="m50.9 22.3c0 3.1-1 5.9-3 8.6s-4.8 4.7-8.4 5.9c4.1.7 7.6 2.8 10.4 6.1s4.2 6.8 4.2 10.5c0 5.9-2.3 10.7-6.8 14.3s-10.5 5.4-18 5.4h-29.2v-69.9l26.2.1c7.2 0 13.1 1.7 17.7 5.1s6.9 8 6.9 13.9zm-35.3 10.2h6.4c8.8 0 13.3-3.2 13.3-9.6 0-2.4-.8-4.2-2.5-5.5s-3.8-1.9-6.3-1.9h-10.8v17zm8.1 10.8h-8.1v17.5h13.8c2.7 0 4.8-.7 6.5-2.1s2.5-3.3 2.5-5.6c0-2.9-1-5.3-3-7.1-2.1-1.8-6-2.7-11.7-2.7z"/><path d="m98.2 21.9h14.9v51.1h-14.9v-7.5c-4 5.7-9.3 8.6-16.1 8.6-7.6 0-13.6-2.6-18.1-7.7s-6.8-11.5-6.8-19.2c0-7.5 2.2-13.8 6.5-18.8 4.4-5.1 10.4-7.6 18.1-7.6 3.3 0 6.4.7 9.3 2.2s5.2 3.4 7 5.9v-7zm-26.1 25.4c0 4.2 1.2 7.7 3.6 10.5s5.6 4.2 9.6 4.2c3.9 0 7-1.2 9.6-3.6 2.5-2.4 3.8-5.9 3.8-10.3 0-4.7-1.3-8.4-3.8-11.1-2.5-2.8-5.9-4.1-10-4.1-3.9 0-7 1.4-9.3 4.1s-3.5 6.2-3.5 10.3z"/><path d="m125.8 66.5c-5.2-5-7.8-11.4-7.8-19.1s2.6-14.1 7.8-19.1 12.1-7.5 20.8-7.5c7.1 0 14.1 2.5 20.9 7.6l-6.8 10.9c-3.8-3.4-8.3-5.1-13.5-5.1-4.3 0-7.8 1.2-10.5 3.7s-4 5.7-4 9.6 1.3 7.1 4 9.6 6.1 3.7 10.5 3.7c5.2 0 9.7-1.7 13.5-5.1l6.8 10.9c-6.8 5.1-13.8 7.6-20.9 7.6-8.6-.2-15.6-2.7-20.8-7.7z"/><path d="m187 42.6 14.6-20.7h16.4v2l-17 21.3 6.7 10.7c2 3.1 4.3 4.6 7 4.6 2 0 3.8-.6 5.5-1.8l5.6 10.5c-3.7 3.3-8.2 5-13.4 5-6.5 0-11.6-2.6-15.2-7.8l-10.2-16.6v23.2h-14.9v-72.1h14.9z"/><path d="m242.6 96.4h-14.9v-74.5h14.9v7.5c4-5.7 9.3-8.6 16.1-8.6 7.6 0 13.6 2.6 18.2 7.7 4.5 5.1 6.8 11.5 6.8 19.2 0 7.5-2.2 13.8-6.5 18.8-4.4 5.1-10.4 7.6-18.1 7.6-3.3 0-6.4-.7-9.3-2.2s-5.2-3.4-7-5.9v30.4zm26.1-48.8c0-4.2-1.2-7.7-3.6-10.5s-5.6-4.2-9.6-4.2c-3.9 0-7 1.2-9.6 3.6-2.5 2.4-3.8 5.9-3.8 10.3 0 4.7 1.3 8.4 3.8 11.1 2.5 2.8 5.8 4.1 10 4.1 3.9 0 7-1.4 9.3-4.1 2.4-2.7 3.5-6.2 3.5-10.3z"/><path d="m329 21.9h14.9v51.1h-14.9v-7.5c-4 5.7-9.3 8.6-16.1 8.6-7.6 0-13.6-2.6-18.1-7.7s-6.8-11.5-6.8-19.2c0-7.5 2.2-13.8 6.5-18.8 4.4-5.1 10.4-7.6 18.1-7.6 3.3 0 6.4.7 9.3 2.2s5.2 3.4 7 5.9v-7zm-26.2 25.4c0 4.2 1.2 7.7 3.6 10.5s5.6 4.2 9.6 4.2c3.9 0 7-1.2 9.6-3.6s3.8-5.9 3.8-10.3c0-4.7-1.3-8.4-3.8-11.1s-5.9-4.1-10-4.1c-3.9 0-7 1.4-9.3 4.1s-3.5 6.2-3.5 10.3z"/><path d="m356 66.5c-5.2-5-7.8-11.4-7.8-19.1s2.6-14.1 7.8-19.1 12.1-7.5 20.8-7.5c7.1 0 14.1 2.5 20.9 7.6l-6.8 10.9c-3.8-3.4-8.3-5.1-13.5-5.1-4.3 0-7.8 1.2-10.5 3.7s-4 5.7-4 9.6 1.3 7.1 4 9.6 6.1 3.7 10.5 3.7c5.2 0 9.7-1.7 13.5-5.1l6.8 10.9c-6.8 5.1-13.8 7.6-20.9 7.6-8.6-.2-15.5-2.7-20.8-7.7z"/><path d="m417.2 42.6 14.6-20.7h16.5v2l-17 21.3 6.7 10.7c2 3.1 4.3 4.6 7 4.6 2 0 3.8-.6 5.5-1.8l5.6 10.5c-3.7 3.3-8.2 5-13.4 5-6.5 0-11.6-2.6-15.2-7.8l-10.3-16.5v23.1h-14.9v-72.1h14.9z"/></g><path d="m51.4 5.3c-5.8 0-10.1.8-11.2 6.5h22.5c-1.2-5.7-3.9-6.5-11.3-6.5z"/><path d="m51.4 32.5c-.7 0-1.3.1-1.7.3s-.6.5-.6.9v9.5c0 .6.2 1.2.7 1.7.5.4 1 .7 1.6.7s1.2-.2 1.7-.7c.4-.5.7-1 .7-1.6v-9.5c0-.2-.1-.6-.6-.9-.4-.3-1-.4-1.8-.4z"/><path d="m42.4 46.2c.3.5.8.9 1.4 1.1.2.1.4.1.6.1.4 0 .8-.1 1.2-.3.5-.3.9-.8 1.1-1.4s.1-1.2-.2-1.8l-4.8-8.2c-.2-.3-.5-.4-.9-.4s-1 .2-1.6.6-1.1.7-1.3 1.1c-.2.3-.3.7-.1 1z"/><path d="m38.1 52.2c.4.2.8.3 1.2.3.2 0 .4 0 .6-.1.6-.2 1.1-.6 1.4-1.1s.4-1.1.2-1.7c-.1-.6-.5-1.1-1.1-1.4l-8.2-4.8c-.1-.1-.3-.1-.4-.1-.2 0-.4.1-.6.2-.3.2-.7.7-1.1 1.3s-.6 1.2-.6 1.6.1.8.4.9z"/><path d="m4.9 75.5v24.5c0 1.4 1.1 2.4 2.4 2.4h2.4v-29.4h-2.4c-1.3 0-2.4 1.1-2.4 2.5z"/><path d="m61.3 49.6c-.1.6-.1 1.2.2 1.7s.8.9 1.4 1.1c.2 0 .4.1.6.1.4 0 .8-.1 1.2-.3l8.2-4.8c.3-.2.5-.5.4-.9 0-.4-.2-1-.6-1.6s-.7-1.1-1.1-1.3c-.2-.1-.4-.2-.6-.2s-.3 0-.4.1l-8.2 4.8c-.6.2-.9.7-1.1 1.3z"/><path d="m61.2 35.6-4.8 8.2c-.3.6-.4 1.2-.2 1.8s.6 1.1 1.1 1.4c.4.2.8.3 1.2.3.2 0 .4 0 .6-.1.6-.2 1.1-.6 1.4-1.1l4.8-8.2c.2-.3.1-.7-.1-1-.2-.4-.7-.7-1.3-1.1s-1.2-.6-1.7-.6c-.6 0-.9.2-1 .4z"/><path d="m28 61.3c.2.2.4.3.7.3h.2c1.2-.4 5.7-1.6 12.2-2.3h.6c1 0 1.9.3 2.8.7l5.3 3c.5.3 1 .4 1.6.4s1.1-.1 1.6-.4l5.3-3c.8-.5 1.8-.7 2.8-.7h.6c6.5.8 11 2 12.2 2.3h.2c.3 0 .6-.1.7-.3.2-.2.5-.7.7-1.4.2-.5.2-1.1.2-1.6 0-.4-.3-.7-.7-.8-2.5-.7-11.6-3.1-23.7-3.1s-21.2 2.4-23.7 3.1c-.4.1-.6.4-.7.8 0 .3 0 .9.2 1.6.4.7.7 1.1.9 1.4z"/><path d="m95.5 77h-2.5v29.4h2.4c1.4 0 2.4-1.1 2.4-2.4v-24.5c.1-1.4-1-2.5-2.3-2.5z"/><g fill-rule="nonzero"><path d="m37.8 100c0 1.4-1.1 2.4-2.5 2.4s-2.4-1.1-2.4-2.4v-7.4h-8.5v17.1h53.9v-17.1h-40.5z" fill="#e18b96"/><path d="m95.5 68.1h-2.4v-24.5c0-14.8-10.2-27.6-24.6-31-.9-9.4-7.8-12.3-17-12.3-11.2 0-16.3 4.1-17 12.3-14.4 3.4-24.6 16.2-24.6 31v24.5h-2.4c-4 0-7.3 3.3-7.4 7.4v24.5c0 4 3.3 7.3 7.4 7.3h2.4v4.9c0 6.8 5.5 12.3 12.3 12.3h58.8c6.8 0 12.2-5.5 12.3-12.3v-4.9h2.4c4 0 7.3-3.3 7.4-7.3v-24.5c-.3-4.1-3.6-7.4-7.6-7.4zm-85.7 34.3h-2.4c-1.4 0-2.4-1.1-2.4-2.4v-24.5c0-1.4 1.1-2.4 2.4-2.4h2.4zm60.8-59c.1-.1.3-.1.4-.1.2 0 .4.1.6.2.4.2.7.7 1.1 1.3s.6 1.2.6 1.6-.1.8-.4.9l-8.2 4.8c-.4.2-.8.3-1.2.3-.2 0-.4 0-.6-.1-.6-.2-1.1-.6-1.4-1.1s-.4-1.1-.2-1.7.6-1.1 1.1-1.4zm-5.5-6.5c.2.3.3.7.1 1l-4.8 8.2c-.3.5-.8.9-1.4 1.1-.2.1-.4.1-.6.1-.4 0-.8-.1-1.2-.3-.5-.3-.9-.8-1.1-1.4s-.1-1.2.2-1.8l4.8-8.2c.2-.3.5-.4.8-.4.5 0 1.1.2 1.7.6.8.4 1.3.8 1.5 1.1zm-13.7-31.6c7.4 0 10.1.8 11.3 6.5h-22.5c1.2-5.7 5.4-6.5 11.2-6.5zm2.3 28.4v9.5c0 .6-.2 1.2-.7 1.6-.4.4-1 .7-1.7.7-.6 0-1.2-.2-1.6-.7-.4-.4-.7-1-.7-1.7v-9.5c0-.4.2-.7.6-.9s1-.3 1.7-.3 1.3.1 1.7.3c.6.4.7.7.7 1zm-16 3.2c.2-.4.7-.7 1.3-1.1s1.2-.6 1.6-.6c.5 0 .8.2.9.4l4.8 8.2c.3.6.4 1.2.2 1.8s-.6 1.1-1.1 1.4c-.4.2-.8.3-1.2.3-.2 0-.4 0-.6-.1-.6-.2-1.1-.6-1.4-1.1l-4.8-8.2c.1-.3.1-.7.3-1zm-7.6 7.9c.4-.6.8-1.1 1.1-1.3.2-.1.4-.2.6-.2s.3 0 .4.1l8.2 4.8c.5.3 1 .8 1.1 1.4s.1 1.2-.2 1.7-.8.9-1.4 1.1c-.2 0-.4.1-.6.1-.4 0-.8-.1-1.2-.3l-8.2-4.8c-.3-.2-.5-.5-.4-.9 0-.5.2-1 .6-1.7zm-2.4 12.7c2.5-.7 11.6-3.1 23.7-3.1s21.2 2.4 23.7 3.1c.4.1.6.4.7.8 0 .5 0 1-.2 1.6-.2.7-.5 1.2-.7 1.4s-.4.3-.7.3h-.2c-1.2-.4-5.8-1.6-12.2-2.3-.2 0-.4 0-.6 0-1 0-1.9.3-2.8.7l-5.3 3c-.5.3-1 .4-1.6.4s-1.1-.1-1.6-.4l-5.3-3c-.8-.5-1.8-.7-2.8-.7-.2 0-.4 0-.6 0-6.5.8-11 2-12.2 2.3h-.2c-.3 0-.6-.1-.7-.3-.2-.3-.5-.7-.7-1.4s-.2-1.2-.2-1.6c-.1-.3.1-.7.5-.8zm55.5 54.7c0 1.4-1.1 2.5-2.4 2.5h-58.8c-1.4 0-2.5-1.1-2.5-2.5v-34.3c0-1.3 1.1-2.4 2.5-2.4h58.8c1.4 0 2.4 1.1 2.4 2.4zm14.7-12.2c0 1.4-1.1 2.4-2.4 2.4h-2.5v-29.4h2.4c1.4 0 2.4 1.1 2.4 2.4v24.6z" fill="#d1435b"/><path d="m24.5 80.4h53.9v7.3h-53.9z" fill="#e18b96"/></g></g><g transform="matrix(-.98768834 -.15643447 -.15643447 .98768834 250.141713 10.668341)"><path d="m57.675214 1.769411c-7.1831255 1.95010218-14.5451901 5.82836978-19.7241981 9.5833377-5.1815642 3.7549679-18.7103804 13.2175273-21.79938 16.2155509-2.9949288 2.9072509-6.53255423 3.9208804-8.08063281 7.5013628-.59688962 1.3817637 4.04836861 5.5497478 4.95865731 5.9809185 2.3622513 1.1245741 6.2127645-.8673844 7.9699461-.9858933 5.7012544-.3857844 11.5448932-1.13466 17.3220689 2.7206623-1.0685218 1.0640588.6262868-.0806869-1.5567699 9.253782-.769438 3.2905138-2.4540215 11.8307207-.3859971 13.4595881 2.055243 1.6187815 3.3103728-4.6924491 5.3528345-3.7267275-.0025563.0025215 0 .005043-.0025563.0075644v.005043c0 .0025214-.0025563.0075644 0 .0075644 0 0 .0051125 0 .0051125.0025214.0051126 0 .0204502 0 .0332316-.0025214.0025562.0025214.0076688.0025214.0127813.0025214.0153377.0075644.028119.0151288.0409004.0226932l.0127813-.032779c.966271-.2445823 8.5021622-3.5199673 15.3836475-2.2037617 3.8778653.7413111 10.0640446-1.3388988 13.6223758-2.4256508 5.6416933-1.7196402 13.5661378-3.275385 18.5917694-3.3661578 3.7014825-.0655581 7.0501994-2.1331606 10.6136436-2.3726999 2.101256-.1412022.15082-6.8256098.107363-7.5316204-.207058-3.3913724-4.4888144-8.6057651-6.6948775-13.2376991-2.2035068-4.6319339-5.8998767-10.5145152-9.9694625-15.1252688-4.0695857-4.6117622-9.5604589-10.58309917-13.428099-12.4204918-3.865084-1.83739263-4.5885091-3.44810542-12.38514-1.3318386z" fill="#d1435b" stroke="#111236" stroke-width=".83349"/><path d="m41.3599156 17.8938259c-4.6479863 1.1179824-8.625786 15.8725143-14.351677 18.437089-3.7461648 1.6759609-13.9521132 4.2253455-13.0446856 4.6582599 2.3548268 1.1291217 6.1932378-.8708921 7.9448967-.9898802 5.6833354-.3873445 11.5086077-1.1392484 17.2676258 2.7316643-1.0651635 1.0683618.6243184-.0810132-1.551877 9.2912033-.7670196 3.3038202-2.4463086 11.8785628-.3847839 13.5140171 2.0487834 1.6253276 3.2999683-4.7114249 5.3360105-3.741798-.0025482.0025317 0 .0050634-.0025482.007595v.0050634c0 .0025316-.0025482.0075949 0 .0075949 0 0 .0050965 0 .0050965.0025317.0050965 0 .0203859 0 .0331271-.0025317.0025482.0025317.0076447.0025317.0127412.0025317.0152894.007595.0280306.01519.0407718.022785l.0127412-.0329116c.963234-.2455714 8.4754399-3.5342016 15.3352968-2.2126735 3.8656772.7443089 10.0324134-1.3443131 13.5795608-2.4354598 5.6239615-1.7265942 13.5234996-3.2886303 18.5333357-3.3797701 3.6898488-.0658233 7.0280407-2.1417869 10.580285-2.3822949 2.094651-.1417731-13.0189488 1.1443117-6.994914-3.1848321 2.6705535-1.9190005-26.7539518 4.0025592-38.0502912-8.8025922-11.184217-12.6811-9.5431517-22.6606624-14.3007122-21.5155912z" fill="#111236" opacity=".10112"/><g stroke="#111236"><path d="m8.87011185 33.2869385c.93930577.6028763 7.24728235 8.3074313 7.99243135 7.768419.0902009-.8506687-.6454255-1.1853162-1.1630885-1.2823895.6930389-.8506687.8237111-1.7422104-.3787907-1.8162926-1.3331741-.2273559-2.7888203-.3882932-1.3577743-1.7728651.6607676-.7765865-.0444392-2.1560492-.4499463-2.8559989-1.0660102-.5568942-1.8690889-1.5608365-2.3060737-2.2454588" fill="#000" fill-rule="nonzero" opacity=".26966" stroke-width=".83016"/><path d="m91.3692761 50.2295292c-1.8804521-.6652475-4.2404826-1.4309096-5.9038624-1.3279846-1.1434159-.9589605-2.0192774.2234228-3.0087234.5372187-.1665904-1.8476306-2.9052354.7807244-4.1117537.7957866-.8581929.4895217-.2675543-1.4560133-1.8022051-.7154548-1.9056931.1782361-3.0869704.3087752-4.5004646.9187946-.3407531 2.0108046-3.3949102 3.1454908-3.8542959.9388775-1.6633798.722986-4.7604465 2.1212608-4.7806393-.1606635-2.6679703 2.0585016-2.7512655 3.9161737-5.3561335 4.9102794.232217-1.7823612-5.6464045-2.7388113-6.4465432-.8710977-1.6128979.6451646.3357049-2.3396627-1.9965606-1.5187725-2.6250607-.758131-1.095458 4.5010894-6.4490673 2.3522146-2.9809584-.0953939-1.330199 4.1948246-3.2964705 5.9947583-.5250121 1.8903069-2.7966992-.6602268-3.7179946-.5171358.2145483 2.9923584.860717 1.9781698.181735 4.0140781-.4063796 2.553044-.9465363 3.8308212 1.8754039 4.3630191.9137231-1.2325905-.0454337-.7104341.1590181 1.5589384 1.6305666-.4719491 3.7710007-3.1731048 3.5514042-.3966381 1.1080785-1.6744153 4.6090008-2.5480233 4.5635671-4.3529777 1.77444.1857672 3.7634283 2.1538955 5.2576936-.2384849 1.5018376-1.7672989 3.6624645-2.5881892 3.6851814-1.2225491 1.824922 1.6970086 2.0066569 1.3530882 3.9073018.9213049-.4896747-2.1865303 4.4398863-.150622 1.8375425-2.3271109 1.0348797-1.0317611 3.8341031-1.631739 5.449525-1.2752668 1.4311629 2.0735638 5.7928022 2.2442688 6.4717842-.436804.1413495-2.1112193 3.4529645-2.8316948 4.6897719-1.3731712 2.1530546-1.8777551 5.5504889.8510147 7.403176-.5899364-1.6659039-2.1488748 2.3524582-3.5546807 3.104639-1.9053691 1.4740726-.7882555 2.8446571-3.6199503 4.457555-1.5915732 1.8552112-.6024883 4.1218501-1.4384407 5.6918383-2.0635223 1.1762291 1.9304728 4.225338-.0577384 2.905235-2.3948908-.716843-1.6693946 2.349935.8234006 1.514459-1.2953498-.949061-2.2794139-2.281784-5.4449877-3.9148746-5.3420626-2.2262534-.5522809-3.5438319.9413879-3.6372235 3.0526072-.0277651-1.5413658-2.6553499-.0376555-4.0335067.5221565l-.754705.1782361-.9036266-.6326127" fill="#111236" fill-rule="nonzero" opacity=".29404" stroke-width=".60143"/><path d="m92.4765998 50.652559c-1.880209-.662647-3.6216106-.7555179-5.2847753-.6551169-1.143268-.9588301-2.4985328-.6425668-3.4878508-.3288135-.164045-1.8473795-2.4253434 1.6490875-3.6317056 1.6641476-.858082.4894552-.2675197-1.4558154-1.7994483-.7178676-1.9079705.180722-4.1187934-.9964805-5.5346286-.386544-.340709 2.0105312-3.3944712 3.1450632-3.8512737.9387499-1.6656885.7228876-3.7301327 3.4261862-3.7503228 1.1470821-3.1269516-.1355414-4.4645499 2.9191609-7.069081 3.9131314.2321869-1.7821189-3.9320343-1.7444685-4.7320696.1255013-1.6126893.6450768-.4290409-3.3734757-2.7584811-2.552697-2.6247212-.760538-2.5540556 4.4402369-5.6860547 3.3835158-2.9805729-.095381-2.5641508 2.8513901-4.530168 4.6485691-.5249442 1.89005-1.5622139.6877473-2.4833901.8283087 1.5142623 2.1385426-4.6412138 1.6917579-2.814004 4.9874227-.4038033 2.552697.2145205 4.3850164 3.0360958 4.917142.9136049-1.229913 1.7893533-2.2389437 1.9937787.0326304 1.6303557-.471885 3.7730368-3.1726736 3.5534687-.3965842 1.1054115-1.6766978 4.6058811-2.547677 4.562977-4.352386 1.7716868.1857419 3.7604179 2.1536027 5.25449-.2384526 1.5041672-1.7695687 1.7514967-.3263034 1.7742106 1.039151 1.8246861 1.6942679 3.9194155-.9111396 5.8172909-1.3428642-.4896115-2.1862331 4.4418359-.1480915 1.8373049-2.3267946 1.0347458-1.0291108 3.8336072-1.6315172 5.4513441-1.2725834 1.418359 1.3378441 5.7895294 2.2414537 6.4684236-.4392546.1413311-2.1084223 3.452518-2.83131 4.6916892-1.3729846 2.1502524-1.8774998 5.5472474.850899 7.3996949-.5873462-1.6656884-2.1510927 2.3521541-3.5541975 3.1042377-1.9076201 1.4738819-.7856383 2.846813-3.6194583 4.4595023-1.5913568 1.8549713-.5998964 4.1187934-1.4357352 5.6885784-2.0632418 1.176077 1.9302104 4.227316-.0552206 2.90486-2.3920553-.716751-1.6691677 2.34963.8207787 1.514262-1.2976837.02019-2.4221756-.898462-6.1746653-3.914368-5.3388264-2.2234415-.5522059-3.5433734.9387499-3.6367529 3.0521922-.0277615-1.5411563-3.5383262-.9839304-4.9163048-.4267045l-.4517549.2384525-.3230426.2535127" fill="#fff" stroke-width=".60143"/><path d="m39.0036244 48.4724697c.7629267-10.4902995 5.7802627-15.2667883 4.8958509-23.6564599-.522386-4.9595876-4.747639-1.2018262-3.3699976 3.4513984" stroke-width=".83349"/></g><path d="m39.8411818 62.2863285c-.5319399 1.9347687-1.5855901.7040194-2.516485.8479066 1.5344421 2.1865713-4.7030648 1.731785-2.8515047 5.1054256-.411742 2.6130941.2173793 4.4887663 3.0765562 5.0334821.9257801-1.2590129 1.813199-2.2919173 2.0203487.0334024 1.6520826-.4830498 3.8207607-3.2477393 3.5982666-.4059674 1.1201427-1.7163686 4.6698186-2.6105247 4.6237853-4.4553639 1.7952972.1875672 3.7261368 1.8885193 5.242677-.5627017 1.521655-1.8088675 1.8592322-.0154165 1.8822489 1.3823447 1.8490026 1.7343545 3.96909-.9326972 5.8922574-1.3746365-.4935789-2.2379596 2.2684168-.3956897 1.864347-2.3818468-.2659699-1.3001234 8.603105-.9147113 7.3269607-2.1865713-3.810531-3.8001633-9.7667235 1.9244911-10.6285684 1.5596343-.8592876-.3648568-1.813199-.1438872-.608662-.6988806 1.2045369-.5549934-1.7236899.3571486-4.1634528-.5113134-2.4372054-.8710313-4.222273.2286779-4.3859468 2.3998327-1.8362156-1.148528-1.9692006.1567343-4.8283776.955822 1.8208712-2.6798988-3.2223282-.7117277-3.2223282-.7117277s.8771893-2.9368402-.7007286-2.5488587c.8490579-1.5339401-.0946239-2.0041429-.0946239-2.0041429s.4654474-1.31554-1.5267698.5241605z" fill="#111236" fill-rule="nonzero" opacity=".11236"/><path d="m10.2871816 30.9137036c-.323466-.5924827-1.33112959-.7566337-1.46081411-1.2619112.22533306-.584788-.66059602-.1590213-.83499934-.4821936-1.04219644.8797469-2.48065113 1.2619111-3.25279572 2.472525.41066764-.0923349.40967389-.7130311-.03900473-.2539211-.84493685.4334613-1.6615518 1.1926599-1.34379989 2.2801605.07676727.5565747-.60271003 1.0362035.22682368 1.1695762-.10807043.8925713-1.40491558.8540984-1.4056609 1.6415104.28694563.8592281.16073924 1.7543643-.52196775 2.3571064-.67515448.6514744-.39700356 1.6107321-.37240822 2.4032738-.33966412.530926-.53081214 1.0233792-.08322665 1.5260917.09490323.9105253.82655246 1.5132674.83201809 2.4597008.30806283.4975828.92592757.4668045 1.24144353 1.0285089.92170413.0795106.98952764 1.4081081 1.86750672 1.592778.75425707.2539212 1.64689397.0769458 2.32661971.2641806.55724592.4668045 1.19722161.7925418 1.89880987.9233496.88220251.5796584 1.18206691-.8643578 1.71595971-1.3285975.027825-.7258553.5331474-.7822823.8717681-.1718456.7704055.5411855 1.5686361-.3872938 2.1209132-.879747.5398553-.6078718 1.145795-1.1336681 1.7470144-1.667159.8536322-.9951657 1.1567263-2.418663 1.1090262-3.7267416.0844689-.8207552-.6546335-.8669227-1.1405778-.9592576.2198675-.6899474.7733868-1.6774185-.3560113-1.7517994-.6476773-.1744105-2.1159445-.9233496-1.2749826-1.7081968.6205975-.7489391-.2335315-1.7569291-.6146351-2.4340522-.6598507-.5411854-1.0431902-1.2978191-1.4536094-1.9569882-.7942555-.1308078-1.5388235-.6283907-1.7413003-1.4978782-.2121658-.6925122-.0588797-.1795402.0081985.1564564" fill="#fff" stroke="#111236" stroke-width=".8136"/><path d="m3.69353232 40.810017c-.42149545-.50992 1.24289819-.2717848 1.10547119-.7791164.23878599-.5901612-.04686208-.6160455-.23194097-.9395988-1.10415484.8878303-.84404397-1.219149-1.66228747.0051768.43492222-.0957718.36357602-1.6410625-.1118898-1.1777341-.89538164.4374441-.70582716-1.5038759-.70661697-.7092289.30407697.8671229.17033576 1.7704838-.55313051 2.3787641-.71546285.6574603-.42070563 1.6255319-.39464189 2.4253557-.3599429.5358043-.56250292 1.0327823-.08819549 1.5401139.10056918.9188914.87589966 1.5271717.8816916 2.4823011.32645494.5021548.9812077.4710937 1.31556074 1.0379591.97673211.0802412 1.04860485 1.4210462 1.97900142 1.6074129.79928805.2562543 1.74521756.0776528 2.46552458.266608.59051486.4710936 1.26869866.7998238 2.01217345.9318336.9348722.5849844 1.2526392-.8722998 1.8184067-1.340805.0294862-.7325248.5649776-.7894702.9238148-.1734246.8164006.546158 1.6622874-.3908524 2.2475369-.8878303.572086-.6134572-2.1972523.0931833-1.5601387-.4452094.9045961-1.0043096-2.0408699 1.4029272-2.091681.0802412.0897751-.8282965-3.25665126 1.0534896-2.54792812-.4012061.23273077-.6962868.40438289-.194132-.79244303-.2691964-.68634518-.176013-2.58110016-1.4210462-1.68993084-2.2156932.65764873-.7558206-.35330849.1190676-.75716484-.564277-.69924541-.546158-.25247603-.2459005-.68739826-.9111262-.84193781-.1320097-.47178003-.4710936-.68634517-1.3485703-.36410257 1.0301938-.25853125-.934422-.18744832-.5927497z" fill="#111236" fill-rule="nonzero" opacity=".095506"/><path d="m38.7789101 43.2666756s3.5400299-8.4604242 4.3913613-11.8360097c.7974496-3.1584574.6950743-7.9781977-.498406-8.8719578-1.1934804-.8912353-2.7614389.6513845-2.9257782 2.4793007-.1643392 1.8279162-.3044318 2.2874199.495712 5.7740943.3637017 1.5779663.1831979 5.3246895-.30982 7.0920118-.4930178 1.7673222-1.5706525 5.7942922-1.1530691 5.3625607z" fill="#111236" fill-opacity=".22346"/></g></g></svg>