<svg viewBox="0 0 595 130" xmlns="http://www.w3.org/2000/svg"><g fill="none"><g fill="#fff" transform="translate(144 34)"><path d="m50.3 21.8c0 3-1 5.9-3 8.5-2 2.7-4.7 4.6-8.3 5.9 4.1.7 7.5 2.7 10.3 6s4.1 6.7 4.1 10.4c0 5.9-2.2 10.5-6.7 14.1s-10.4 5.3-17.8 5.3h-28.9v-69.1l26 .1c7.2 0 13 1.7 17.5 5.1s6.8 8 6.8 13.7zm-34.9 10.2h6.3c8.7 0 13.1-3.2 13.1-9.5 0-2.4-.8-4.2-2.5-5.5s-3.8-1.9-6.3-1.9h-10.7v16.9zm8 10.7h-8v17.3h13.6c2.6 0 4.8-.7 6.5-2.1s2.5-3.2 2.5-5.5c0-2.9-1-5.2-3-7-2.1-1.9-5.9-2.7-11.6-2.7z"/><path d="m97.1 21.5h14.7v50.5h-14.7v-7.4c-3.9 5.7-9.2 8.5-15.9 8.5-7.5 0-13.5-2.5-17.9-7.6-4.5-5.1-6.7-11.4-6.7-19 0-7.4 2.2-13.6 6.5-18.6s10.3-7.5 17.9-7.5c3.3 0 6.4.7 9.2 2.2 2.9 1.4 5.2 3.4 7 5.8v-6.9zm-25.8 25.1c0 4.1 1.2 7.6 3.6 10.4s5.5 4.2 9.5 4.2c3.8 0 7-1.2 9.5-3.6s3.8-5.8 3.8-10.2c0-4.6-1.3-8.3-3.8-11s-5.8-4.1-9.9-4.1c-3.9 0-7 1.4-9.2 4.1-2.4 2.7-3.5 6.1-3.5 10.2z"/><path d="m124.4 65.6c-5.2-5-7.7-11.3-7.7-18.9s2.6-13.9 7.7-18.9c5.2-5 12-7.4 20.6-7.4 7 0 13.9 2.5 20.7 7.5l-6.7 10.7c-3.8-3.4-8.2-5-13.3-5-4.3 0-7.7 1.2-10.4 3.6-2.6 2.4-3.9 5.6-3.9 9.5s1.3 7 3.9 9.5 6.1 3.6 10.4 3.6c5.1 0 9.6-1.7 13.3-5l6.7 10.7c-6.8 5-13.7 7.5-20.7 7.5-8.6 0-15.4-2.4-20.6-7.4z"/><path d="m184.9 42 14.4-20.5h16.3v2l-16.8 21.1 6.6 10.6c2 3 4.3 4.5 6.9 4.5 2 0 3.8-.6 5.4-1.8l5.5 10.4c-3.7 3.3-8.1 4.9-13.2 4.9-6.4 0-11.4-2.6-15-7.7l-10.2-16.4v23h-14.7v-71.3h14.7v41.2z"/><path d="m239.9 95.1h-14.7v-73.7h14.7v7.4c3.9-5.7 9.2-8.5 15.9-8.5 7.5 0 13.5 2.5 18 7.6s6.7 11.4 6.7 19c0 7.4-2.2 13.6-6.5 18.6s-10.3 7.5-17.9 7.5c-3.3 0-6.4-.7-9.2-2.2-2.9-1.4-5.2-3.4-7-5.8zm25.9-48.2c0-4.1-1.2-7.6-3.6-10.4s-5.5-4.2-9.5-4.2c-3.8 0-7 1.2-9.5 3.6s-3.8 5.8-3.8 10.2c0 4.6 1.2 8.3 3.8 11 2.5 2.7 5.8 4.1 9.9 4.1 3.9 0 7-1.4 9.2-4.1 2.3-2.7 3.5-6.1 3.5-10.2z"/><path d="m325.3 21.5h14.7v50.5h-14.7v-7.4c-3.9 5.7-9.2 8.5-15.9 8.5-7.5 0-13.5-2.5-17.9-7.6-4.5-5.1-6.7-11.4-6.7-19 0-7.4 2.2-13.6 6.5-18.6s10.3-7.5 17.9-7.5c3.3 0 6.4.7 9.2 2.2 2.9 1.4 5.2 3.4 7 5.8zm-25.8 25.1c0 4.1 1.2 7.6 3.6 10.4s5.5 4.2 9.5 4.2c3.8 0 7-1.2 9.5-3.6s3.8-5.8 3.8-10.2c0-4.6-1.3-8.3-3.8-11s-5.8-4.1-9.9-4.1c-3.9 0-7 1.4-9.2 4.1-2.4 2.7-3.5 6.1-3.5 10.2z"/><path d="m352.1 65.6c-5.2-5-7.7-11.3-7.7-18.9s2.6-13.9 7.7-18.9c5.2-5 12-7.4 20.6-7.4 7 0 13.9 2.5 20.7 7.5l-6.7 10.7c-3.8-3.4-8.2-5-13.3-5-4.3 0-7.7 1.2-10.4 3.6-2.6 2.4-3.9 5.6-3.9 9.5s1.3 7 3.9 9.5 6.1 3.6 10.4 3.6c5.1 0 9.6-1.7 13.3-5l6.7 10.7c-6.8 5-13.7 7.5-20.7 7.5-8.6 0-15.4-2.4-20.6-7.4z"/><path d="m412.6 42 14.4-20.5h16.3v2l-16.8 21.1 6.6 10.6c2 3 4.3 4.5 6.9 4.5 2 0 3.8-.6 5.4-1.8l5.5 10.4c-3.7 3.3-8.1 4.9-13.2 4.9-6.4 0-11.4-2.6-15-7.7l-10.2-16.4v23h-14.7v-71.3h14.7z"/></g><path d="m10 101.7h-2.4c-1.3 0-2.4-1.1-2.4-2.4v-24.3c0-1.3 1.1-2.4 2.4-2.4h2.4z" fill="#0870e3"/><path d="m97.6 99.2c0 1.3-1.1 2.4-2.4 2.4h-2.4v-29.2h2.4c1.3 0 2.4 1.1 2.4 2.4z" fill="#0870e3"/><g transform="translate(13 16)"><path d="m75.6 17.4h-75.6l16.6-17.2h44.9z" fill="#d1435b"/><path d="m0 13.1h75.6v21.4h-75.6z" fill="#ff9400"/><path d="m0 32.4h75.6v19.3h-75.6z" fill="#ffb54c"/><path d="m0 49.5h75.6v19.3h-75.6z" fill="#03a698"/><path d="m0 66.6h75.6v19.3h-75.6z" fill="#0870e3"/><path d="m0 85.9h75.6v17.2h-75.6z" fill="#5a489b"/></g><path d="m22.6 76.8h57.5v34.2h-57.5z" fill="#03a698"/><g fill="#111236"><path d="m80.6 74.9h-58.4c-1.3 0-2.4 1.1-2.4 2.4v34.1c0 1.3 1.1 2.4 2.4 2.4h58.4c1.3 0 2.4-1.1 2.4-2.4v-34.1c0-1.3-1.1-2.4-2.4-2.4zm-2.5 34.1h-53.5v-17h7.3 4.9 41.4v17zm0-21.9h-53.5v-7.3h53.5z"/><path d="m33 91.9v7.3c0 1.3 1.1 2.4 2.4 2.4s2.4-1.1 2.4-2.4v-7.3z"/><path d="m95.2 67.6h-2.4v-24.3c0-14.7-10.1-27.4-24.4-30.8-.9-9.3-7.7-12.2-16.9-12.2-11.2 0-16.2 4.1-16.9 12.2-14.3 3.4-24.4 16.1-24.4 30.8v24.3h-2.4c-4 0-7.3 3.3-7.3 7.3v24.3c0 4 3.3 7.3 7.3 7.3h2.4v4.9c0 6.7 5.4 12.2 12.2 12.2h58.4c6.7 0 12.2-5.4 12.2-12.2v-4.9h2.4c4 0 7.3-3.3 7.3-7.3v-24.3c-.3-4-3.5-7.3-7.5-7.3zm-85.2 34.1h-2.4c-1.3 0-2.4-1.1-2.4-2.4v-24.3c0-1.3 1.1-2.4 2.4-2.4h2.4zm41.4-96.5c7.4 0 10 .8 11.2 6.5h-22.4c1.2-5.7 5.4-6.5 11.2-6.5zm-36.5 38.1c0-14.8 12-26.7 26.8-26.8h19.5c14.8 0 26.7 12 26.8 26.8v68.1c0 4-3.3 7.3-7.3 7.3h-58.4c-4 0-7.3-3.3-7.3-7.3zm82.7 55.9c0 1.3-1.1 2.4-2.4 2.4h-2.4v-29.2h2.4c1.3 0 2.4 1.1 2.4 2.4z"/><g transform="translate(27 32)"><path d="m24.4 30.7c.5 0 1-.1 1.4-.4l5.3-3c1.1-.6 2.3-.9 3.5-.7 6.4.7 10.9 1.9 12.2 2.3.3.1.6 0 .7-.2.2-.3.5-.7.7-1.3s.2-1.1.2-1.5c0-.3-.2-.6-.5-.6-2.1-.6-11.2-3.1-23.5-3.1s-21.4 2.5-23.5 3.1c-.3.1-.5.3-.5.6s0 .8.2 1.5.5 1.1.7 1.3.5.3.7.2c1.3-.4 5.8-1.6 12.2-2.3 1.2-.1 2.4.1 3.5.7l5.3 3c.4.3.9.4 1.4.4z"/><path d="m15.6 13.7c.3.5.7.8 1.3 1 .5.1 1.1.1 1.6-.2s.8-.7 1-1.3.1-1.1-.2-1.6l-4.7-8.2c-.1-.3-.5-.4-.7-.3-.4 0-.9.2-1.5.6s-1.1.7-1.3 1c-.2.2-.2.6-.1.8z"/><path d="m11.3 19.6c.5.3 1.1.3 1.6.2s1-.5 1.3-1 .3-1.1.2-1.6-.5-1-1-1.3l-8.2-4.7c-.3-.1-.6-.1-.8.1-.3.2-.7.6-1 1.3-.4.6-.6 1.2-.6 1.5s.1.6.3.7z"/><path d="m26.5 10.8c0 .6-.2 1.1-.6 1.5s-.9.6-1.5.6-1.1-.2-1.5-.6-.6-.9-.6-1.5v-9.4c0-.3.2-.6.5-.7.3-.2.9-.3 1.6-.3s1.3.1 1.6.3c.3.1.5.4.5.7z"/><path d="m33.1 13.7c-.3.5-.7.8-1.3 1-.5.1-1.1.1-1.6-.2s-.8-.7-1-1.3-.1-1.1.2-1.6l4.7-8.2c.1-.3.5-.4.7-.3.4 0 .9.2 1.5.6s1.1.7 1.3 1c.2.2.2.6.1.8z"/><path d="m37.5 19.6c-.5.3-1.1.3-1.6.2s-1-.5-1.3-1-.3-1.1-.2-1.6.5-1 1-1.3l8.2-4.7c.3-.1.6-.1.8.1.3.2.7.6 1 1.3.4.6.6 1.2.6 1.5s-.1.6-.3.7z"/></g></g></g></svg>