<svg width="64" height="64" viewBox="0 0 64 64" fill="none" xmlns="http://www.w3.org/2000/svg">
<path d="M12.0415 49.92H10.8563C10.1926 49.92 9.67114 49.3985 9.67114 48.7348V37.0726C9.67114 36.4089 10.1926 35.8874 10.8563 35.8874H12.0415V49.92Z" fill="#E70866"/>
<path d="M53.997 48.7348C53.997 49.3985 53.4756 49.92 52.8118 49.92H51.6741V35.9348H52.8593C53.523 35.9348 54.0444 36.4563 54.0444 37.12V48.7348H53.997Z" fill="#E70866"/>
<path d="M14.3645 21.9022C14.3645 14.8385 20.1008 9.10222 27.2119 9.05481H36.5038C43.5675 9.05481 49.3038 14.7911 49.3512 21.9022V54.5659C49.3512 56.5096 47.7867 58.0741 45.843 58.0741H17.8726C15.9289 58.0741 14.3645 56.5096 14.3645 54.5659V21.9022Z" fill="#E70866"/>
<path d="M44.6577 39.3956H19.0103V53.3807H44.6577V39.3956Z" fill="#FFA3E5"/>
<path d="M45.8431 37.0726H17.8727C17.209 37.0726 16.6875 37.5941 16.6875 38.2578V54.5659C16.6875 55.2296 17.209 55.7511 17.8727 55.7511H45.8431C46.5068 55.7511 47.0282 55.2296 47.0282 54.5659V38.2578C47.0282 37.5941 46.5068 37.0726 45.8431 37.0726ZM44.7053 53.3807H19.0105V45.2267H22.5186H24.8416H44.6579V53.3807H44.7053ZM44.7053 42.9037H19.0105V39.3956H44.6579V42.9037H44.7053Z" fill="#05203C"/>
<path d="M23.04 45.2267V48.7348C23.04 49.3985 23.5615 49.92 24.2252 49.92C24.8889 49.92 25.4104 49.3985 25.4104 48.7348V45.2267H23.04Z" fill="#05203C"/>
<path d="M52.8593 33.5644H51.6741V21.9022C51.6741 14.8385 46.8385 8.77037 39.9644 7.15852C39.5378 2.65481 36.2667 1.28 31.8578 1.28C26.5007 1.28 24.1304 3.2237 23.7511 7.15852C16.877 8.77037 12.0415 14.8859 12.0415 21.9022V33.5644H10.8563C8.91259 33.5644 7.34814 35.1289 7.34814 37.0726V48.7348C7.34814 50.6785 8.91259 52.243 10.8563 52.243H12.0415V54.5659C12.0415 57.7896 14.6489 60.397 17.8726 60.397H45.843C49.0667 60.397 51.6741 57.7896 51.6741 54.5659V52.243H52.8593C54.803 52.243 56.3674 50.6785 56.3674 48.7348V37.0726C56.32 35.1289 54.7556 33.5644 52.8593 33.5644ZM12.0415 49.92H10.8563C10.1926 49.92 9.67111 49.3985 9.67111 48.7348V37.0726C9.67111 36.4089 10.1926 35.8874 10.8563 35.8874H12.0415V49.92ZM31.8578 3.65037C35.3659 3.65037 36.6933 4.02963 37.2148 6.77926H26.5007C27.0696 4.02963 29.1081 3.65037 31.8578 3.65037ZM14.3644 21.9022C14.3644 14.8385 20.1007 9.10222 27.2118 9.05481H36.5037C43.5674 9.05481 49.3037 14.7911 49.3511 21.9022V54.5659C49.3511 56.5096 47.7867 58.0741 45.843 58.0741H17.8726C15.9289 58.0741 14.3644 56.5096 14.3644 54.5659V21.9022ZM53.997 48.7348C53.997 49.3985 53.4755 49.92 52.8118 49.92H51.6741V35.9348H52.8593C53.523 35.9348 54.0444 36.4563 54.0444 37.12V48.7348H53.997Z" fill="#05203C"/>
<path d="M31.8579 31.2415C32.0949 31.2415 32.332 31.1941 32.569 31.0519L35.0816 29.5822C35.6031 29.2978 36.172 29.1556 36.7409 29.2504C39.8223 29.6296 41.9557 30.1985 42.572 30.3882C42.7142 30.4356 42.8564 30.3882 42.9512 30.2933C43.046 30.1511 43.1883 29.9615 43.2831 29.677C43.3779 29.3926 43.3779 29.1556 43.3779 28.9659C43.3779 28.8237 43.2831 28.6815 43.1409 28.6815C42.1453 28.397 37.7838 27.2119 31.8579 27.2119C25.932 27.2119 21.5705 28.397 20.5749 28.6815C20.4327 28.7289 20.3379 28.8237 20.3379 28.9659C20.3379 29.1081 20.3379 29.3452 20.4327 29.677C20.5275 29.9615 20.6697 30.1985 20.7646 30.2933C20.8594 30.3882 21.0016 30.4356 21.1438 30.3882C21.7601 30.1985 23.9409 29.6296 26.9749 29.2504C27.5438 29.203 28.1601 29.2978 28.6342 29.5822L31.1468 31.0519C31.3838 31.1941 31.6209 31.2415 31.8579 31.2415Z" fill="#05203C"/>
<path d="M27.6385 23.0874C27.7808 23.3244 28.0178 23.4667 28.2548 23.5615C28.4919 23.6089 28.7763 23.6089 29.0133 23.4667C29.2504 23.3244 29.3926 23.0874 29.4874 22.8504C29.5822 22.6133 29.5348 22.3289 29.3926 22.0919L27.117 18.157C27.0696 18.0148 26.88 17.9674 26.7378 18.0148C26.5482 18.0148 26.3111 18.1096 25.9793 18.2993C25.6948 18.4889 25.4578 18.6311 25.363 18.7733C25.2682 18.8681 25.2682 19.0578 25.3156 19.1526L27.6385 23.0874Z" fill="#05203C"/>
<path d="M25.6002 25.8844C25.8373 26.0267 26.1217 26.0267 26.3587 25.9793C26.5958 25.9319 26.8328 25.7422 26.975 25.5052C27.1173 25.2681 27.1173 24.9837 27.0699 24.7467C27.0225 24.5096 26.8328 24.2726 26.5958 24.1304L22.661 21.8548C22.5187 21.8074 22.3765 21.8074 22.2817 21.9022C22.1395 21.997 21.9499 22.2341 21.8076 22.5185C21.618 22.803 21.5232 23.0874 21.5232 23.277C21.5232 23.4193 21.5706 23.5615 21.6654 23.6563L25.6002 25.8844Z" fill="#05203C"/>
<path d="M32.8534 21.6652C32.8534 21.9496 32.7586 22.1867 32.569 22.3763C32.3793 22.5659 32.1423 22.6607 31.8579 22.6607C31.5734 22.6607 31.3364 22.5659 31.1467 22.3763C30.9571 22.1867 30.8623 21.9496 30.8623 21.6652V17.1615C30.8623 17.0193 30.9571 16.877 31.0993 16.8296C31.2416 16.7348 31.526 16.6874 31.8579 16.6874C32.1897 16.6874 32.4742 16.7348 32.6164 16.8296C32.7586 16.877 32.8534 17.0193 32.8534 17.1615V21.6652Z" fill="#05203C"/>
<path d="M36.0772 23.0874C35.9349 23.3244 35.6979 23.4667 35.4609 23.5615C35.2238 23.6563 34.9394 23.6089 34.7024 23.4667C34.4653 23.3244 34.3231 23.0874 34.2283 22.8504C34.1335 22.6133 34.1809 22.3289 34.3231 22.0919L36.5987 18.157C36.6461 18.0148 36.8357 17.9674 36.9779 18.0148C37.1675 18.0148 37.4046 18.1096 37.7364 18.2993C38.0683 18.4889 38.2579 18.6311 38.3527 18.7733C38.4475 18.8681 38.4475 19.0578 38.4001 19.1526L36.0772 23.0874Z" fill="#05203C"/>
<path d="M38.1157 25.8844C37.8786 26.0267 37.5942 26.0267 37.3571 25.9793C37.1201 25.9319 36.8831 25.7422 36.7408 25.5052C36.5986 25.2681 36.5986 24.9837 36.646 24.7467C36.6934 24.5096 36.8831 24.2726 37.1201 24.1304L41.0549 21.8548C41.1971 21.8074 41.3394 21.8074 41.4342 21.9022C41.5764 21.997 41.766 22.2341 41.9083 22.5185C42.0979 22.803 42.1927 23.0874 42.1927 23.277C42.1927 23.4193 42.1453 23.5615 42.0505 23.6563L38.1157 25.8844Z" fill="#05203C"/>
</svg>
