<svg viewBox="0 0 603 131" xmlns="http://www.w3.org/2000/svg"><g fill="none"><g fill="#fff" transform="translate(146 35)"><path d="m50.8 21.8c0 3.1-1 5.9-3 8.6s-4.8 4.7-8.4 5.9c4.1.7 7.6 2.8 10.4 6.1s4.2 6.8 4.2 10.5c0 5.9-2.3 10.7-6.8 14.3s-10.5 5.4-18 5.4h-29.2v-69.9l26.2.1c7.2 0 13.1 1.7 17.7 5.1s6.9 8.1 6.9 13.9zm-35.3 10.3h6.4c8.8 0 13.3-3.2 13.3-9.6 0-2.4-.8-4.2-2.5-5.5s-3.8-1.9-6.3-1.9h-10.8v17zm8.1 10.7h-8.1v17.5h13.8c2.7 0 4.8-.7 6.5-2.1s2.5-3.3 2.5-5.6c0-2.9-1-5.3-3-7.1s-5.9-2.7-11.7-2.7z"/><path d="m98.2 21.4h14.8v51.2h-14.9v-7.5c-4 5.7-9.3 8.6-16.1 8.6-7.6 0-13.6-2.6-18.1-7.7s-6.8-11.5-6.8-19.2c0-7.5 2.2-13.8 6.5-18.8 4.4-5.1 10.4-7.6 18.1-7.6 3.3 0 6.4.7 9.3 2.2s5.2 3.4 7 5.9v-7.1zm-26.2 25.4c0 4.2 1.2 7.7 3.6 10.5s5.6 4.2 9.6 4.2c3.9 0 7-1.2 9.6-3.6 2.5-2.4 3.8-5.9 3.8-10.3 0-4.7-1.3-8.4-3.8-11.1-2.5-2.8-5.9-4.1-10-4.1-3.9 0-7 1.4-9.3 4.1-2.3 2.8-3.5 6.2-3.5 10.3z"/><path d="m125.8 66c-5.2-5-7.8-11.4-7.8-19.1s2.6-14.1 7.8-19.1 12.1-7.5 20.8-7.5c7.1 0 14.1 2.5 20.9 7.6l-6.8 10.9c-3.8-3.4-8.3-5.1-13.5-5.1-4.3 0-7.8 1.2-10.5 3.7s-4 5.7-4 9.6 1.3 7.1 4 9.6 6.1 3.7 10.5 3.7c5.2 0 9.7-1.7 13.5-5.1l6.8 10.9c-6.8 5.1-13.8 7.6-20.9 7.6-8.7-.1-15.6-2.6-20.8-7.7z"/><path d="m186.9 42.1 14.6-20.7h16.5v2l-17 21.3 6.7 10.7c2 3.1 4.3 4.6 7 4.6 2 0 3.8-.6 5.5-1.8l5.6 10.5c-3.7 3.3-8.2 5-13.4 5-6.5 0-11.6-2.6-15.2-7.8l-10.3-16.6v23.2h-14.9v-72.1h14.9z"/><path d="m242.6 95.9h-14.9v-74.5h14.9v7.5c4-5.7 9.3-8.6 16.1-8.6 7.6 0 13.6 2.6 18.2 7.7 4.5 5.1 6.8 11.5 6.8 19.2 0 7.5-2.2 13.8-6.5 18.8-4.4 5.1-10.4 7.6-18.1 7.6-3.3 0-6.4-.7-9.3-2.2s-5.2-3.4-7-5.9v30.4zm26.1-48.8c0-4.2-1.2-7.7-3.6-10.5s-5.6-4.2-9.6-4.2c-3.9 0-7 1.2-9.6 3.6-2.5 2.4-3.8 5.9-3.8 10.3 0 4.7 1.3 8.4 3.8 11.1 2.5 2.8 5.8 4.1 10 4.1 3.9 0 7-1.4 9.3-4.1 2.4-2.7 3.5-6.1 3.5-10.3z"/><path d="m328.9 21.4h14.9v51.2h-14.9v-7.5c-4 5.7-9.3 8.6-16.1 8.6-7.6 0-13.6-2.6-18.1-7.7s-6.8-11.5-6.8-19.2c0-7.5 2.2-13.8 6.5-18.8 4.4-5.1 10.4-7.6 18.1-7.6 3.3 0 6.4.7 9.3 2.2s5.2 3.4 7 5.9zm-26.1 25.4c0 4.2 1.2 7.7 3.6 10.5s5.6 4.2 9.6 4.2c3.9 0 7-1.2 9.6-3.6 2.5-2.4 3.8-5.9 3.8-10.3 0-4.7-1.3-8.4-3.8-11.1-2.5-2.8-5.9-4.1-10-4.1-3.9 0-7 1.4-9.3 4.1-2.3 2.8-3.5 6.2-3.5 10.3z"/><path d="m356 66c-5.2-5-7.8-11.4-7.8-19.1s2.6-14.1 7.8-19.1 12.1-7.5 20.8-7.5c7.1 0 14.1 2.5 20.9 7.6l-6.8 10.9c-3.8-3.4-8.3-5.1-13.5-5.1-4.3 0-7.8 1.2-10.5 3.7s-4 5.7-4 9.6 1.3 7.1 4 9.6 6.1 3.7 10.5 3.7c5.2 0 9.7-1.7 13.5-5.1l6.8 10.9c-6.8 5.1-13.8 7.6-20.9 7.6-8.6-.1-15.6-2.6-20.8-7.7z"/><path d="m417.2 42.1 14.6-20.7h16.5v2l-17 21.3 6.7 10.7c2 3.1 4.3 4.6 7 4.6 2 0 3.8-.6 5.5-1.8l5.6 10.5c-3.7 3.3-8.2 5-13.4 5-6.5 0-11.6-2.6-15.2-7.8l-10.3-16.6v23.2h-14.9v-72.1h14.9z"/></g><path d="m10.5 103.1h-2.5c-1.4 0-2.5-1.1-2.5-2.5v-24.6c0-1.4 1.1-2.5 2.5-2.5h2.5z" fill="#d1435b"/><path d="m99 100.7c0 1.4-1.1 2.5-2.5 2.5h-2.5v-29.5h2.5c1.4 0 2.5 1.1 2.5 2.5z" fill="#d1435b"/><path d="m15.4 44.1c0-14.9 12.1-27 27.1-27.1h19.7c14.9 0 27 12.1 27.1 27.1v68.9c0 4.1-3.3 7.4-7.4 7.4h-59c-4.1 0-7.4-3.3-7.4-7.4v-68.9z" fill="#d1435b"/><path d="m25.2 81h54.1v29.5h-54.1z" fill="#e18b96"/><g fill="#111236"><path d="m81.8 76.1h-59c-1.4 0-2.5 1.1-2.5 2.5v34.4c0 1.4 1.1 2.5 2.5 2.5h59c1.4 0 2.5-1.1 2.5-2.5v-34.4c0-1.4-1.1-2.5-2.5-2.5zm-2.4 34.4h-54.1v-17.2h7.4 4.9 41.8zm0-22.1h-54.1v-7.4h54.1z"/><path d="m33.7 93.3v7.4c0 1.4 1.1 2.5 2.5 2.5s2.5-1.1 2.5-2.5v-7.4z"/><path d="m96.6 68.7h-2.5v-24.6c0-14.9-10.2-27.7-24.7-31.1-.9-9.5-7.8-12.4-17.1-12.4-11.3 0-16.3 4.1-17.1 12.4-14.5 3.4-24.7 16.3-24.7 31.1v24.6h-2.5c-4.1 0-7.4 3.3-7.4 7.4v24.6c0 4.1 3.3 7.4 7.4 7.4h2.5v4.9c0 6.8 5.5 12.3 12.3 12.3h59c6.8 0 12.3-5.5 12.3-12.3v-5h2.5c4.1 0 7.4-3.3 7.4-7.4v-24.6c-.1-4-3.4-7.3-7.4-7.3zm-86.1 34.4h-2.5c-1.4 0-2.5-1.1-2.5-2.5v-24.6c0-1.4 1.1-2.5 2.5-2.5h2.5zm41.8-97.6c7.4 0 10.2.8 11.3 6.6h-22.6c1.2-5.7 5.5-6.5 11.3-6.6zm-36.9 38.6c0-14.9 12.1-27 27.1-27.1h19.7c14.9 0 27 12.1 27.1 27.1v68.9c0 4.1-3.3 7.4-7.4 7.4h-59c-4.1 0-7.4-3.3-7.4-7.4v-68.9zm83.6 56.6c0 1.4-1.1 2.5-2.5 2.5h-2.5v-29.5h2.5c1.4 0 2.5 1.1 2.5 2.5z"/><g transform="translate(28 33)"><path d="m24.3 30.8c.5 0 1-.1 1.5-.4l5.3-3.1c1.1-.6 2.3-.9 3.5-.7 6.5.8 11 2 12.3 2.4.3.1.6 0 .8-.2.2-.3.5-.7.7-1.3s.2-1.1.2-1.5c0-.3-.2-.6-.5-.6-2.1-.6-11.3-3.1-23.8-3.1s-21.7 2.5-23.8 3.1c-.3.1-.5.3-.5.6s0 .8.2 1.5c.2.6.5 1.1.7 1.3s.5.3.8.2c1.3-.4 5.9-1.6 12.3-2.4 1.2-.1 2.5.1 3.5.7l5.3 3.1c.5.2 1 .4 1.5.4z"/><path d="m15.4 13.6c.3.5.8.8 1.3 1 .5.1 1.1.1 1.6-.2s.8-.8 1-1.3c.1-.5.1-1.1-.2-1.6l-4.8-8.3c-.1-.3-.5-.4-.8-.3-.4 0-.9.2-1.6.6-.6.4-1.1.7-1.3 1-.2.2-.2.6-.1.8z"/><path d="m11.1 19.5c.5.3 1.1.3 1.6.2s1-.5 1.3-1 .3-1.1.2-1.6-.5-1-1-1.3l-8.3-4.8c-.3-.1-.6-.1-.8.1-.3.2-.7.7-1 1.3-.4.6-.6 1.2-.6 1.6 0 .3.1.6.3.8z"/><path d="m26.4 10.6c0 .6-.2 1.1-.6 1.5s-.9.6-1.5.6-1.1-.2-1.5-.6-.6-.9-.6-1.5v-9.5c0-.3.2-.6.5-.7.3-.2.9-.3 1.6-.3s1.3.1 1.6.3c.3.1.5.4.5.7z"/><path d="m33.2 13.6c-.3.5-.8.8-1.3 1-.5.1-1.1.1-1.6-.2s-.8-.8-1-1.3c-.1-.5-.1-1.1.2-1.6l4.8-8.3c.1-.3.5-.4.8-.3.4 0 .9.2 1.6.6.6.4 1.1.7 1.3 1 .2.2.2.6.1.8z"/><path d="m37.5 19.5c-.5.3-1.1.3-1.6.2s-1-.5-1.3-1-.3-1.1-.2-1.6.5-1 1-1.3l8.3-4.8c.3-.1.6-.1.8.1.3.2.7.7 1 1.3.4.6.6 1.2.6 1.6 0 .3-.1.6-.3.8z"/></g></g></g></svg>