<svg height="130" viewBox="0 0 595 130" width="595" xmlns="http://www.w3.org/2000/svg"><g fill="none"><g fill="#fff" transform="translate(143 35)"><path d="m51 21.2c0 3-1 5.9-3 8.5-2 2.7-4.7 4.6-8.3 5.9 4.1.7 7.5 2.7 10.3 6s4.1 6.7 4.1 10.4c0 5.9-2.2 10.6-6.7 14.1-4.5 3.6-10.4 5.3-17.8 5.3h-28.9v-69.2l26 .1c7.2 0 13 1.7 17.5 5.1s6.8 8 6.8 13.8zm-35 10.1h6.3c8.7 0 13.1-3.2 13.1-9.5 0-2.4-.8-4.2-2.5-5.5s-3.8-1.9-6.3-1.9h-10.6zm8 10.7h-8v17.3h13.6c2.6 0 4.8-.7 6.5-2.1s2.5-3.2 2.5-5.5c0-2.9-1-5.2-3-7s-5.8-2.7-11.6-2.7z"/><path d="m97.9 20.8h14.7v50.6h-14.7v-7.4c-3.9 5.7-9.2 8.5-15.9 8.5-7.5 0-13.5-2.5-18-7.6s-6.7-11.4-6.7-19c0-7.4 2.2-13.7 6.5-18.7s10.3-7.5 17.9-7.5c3.3 0 6.4.7 9.2 2.2 2.9 1.4 5.2 3.4 7 5.8zm-25.9 25.2c0 4.1 1.2 7.6 3.6 10.4s5.5 4.2 9.5 4.2c3.8 0 7-1.2 9.5-3.6s3.8-5.8 3.8-10.2c0-4.6-1.3-8.3-3.8-11s-5.8-4.1-9.9-4.1c-3.9 0-7 1.4-9.2 4.1s-3.5 6.1-3.5 10.2z"/><path d="m125.2 65c-5.2-5-7.7-11.3-7.7-18.9s2.6-13.9 7.7-18.9c5.2-5 12-7.5 20.6-7.5 7 0 13.9 2.5 20.7 7.5l-6.7 10.8c-3.8-3.4-8.2-5-13.3-5-4.3 0-7.7 1.2-10.4 3.7-2.6 2.4-3.9 5.6-3.9 9.5s1.3 7 3.9 9.5c2.6 2.4 6.1 3.7 10.4 3.7 5.1 0 9.6-1.7 13.3-5l6.7 10.8c-6.8 5-13.7 7.5-20.7 7.5-8.6-.3-15.5-2.8-20.6-7.7z"/><path d="m185.7 41.3 14.4-20.5h16.3v2l-16.8 21.1 6.6 10.6c2 3 4.3 4.5 6.9 4.5 2 0 3.8-.6 5.4-1.8l5.5 10.4c-3.7 3.3-8.1 4.9-13.2 4.9-6.5 0-11.5-2.6-15-7.7l-10.2-16.4v23h-14.6v-71.4h14.7z"/><path d="m240.8 94.5h-14.7v-73.7h14.7v7.4c3.9-5.7 9.2-8.5 15.9-8.5 7.5 0 13.5 2.5 18 7.6s6.7 11.4 6.7 19c0 7.4-2.2 13.7-6.5 18.7s-10.3 7.5-17.9 7.5c-3.3 0-6.4-.7-9.2-2.2-2.9-1.4-5.2-3.4-7-5.8zm25.8-48.2c0-4.1-1.2-7.6-3.6-10.4s-5.5-4.2-9.5-4.2c-3.8 0-7 1.2-9.5 3.6s-3.8 5.8-3.8 10.2c0 4.6 1.2 8.3 3.8 11 2.5 2.7 5.8 4.1 9.9 4.1 3.9 0 7-1.4 9.2-4.1 2.4-2.8 3.5-6.2 3.5-10.2z"/><path d="m326.3 20.8h14.7v50.6h-14.7v-7.4c-3.9 5.7-9.2 8.5-15.9 8.5-7.5 0-13.5-2.5-18-7.6s-6.7-11.4-6.7-19c0-7.4 2.2-13.7 6.5-18.7s10.3-7.5 17.9-7.5c3.3 0 6.4.7 9.2 2.2 2.9 1.4 5.2 3.4 7 5.8zm-25.9 25.2c0 4.1 1.2 7.6 3.6 10.4s5.5 4.2 9.5 4.2c3.8 0 7-1.2 9.5-3.6s3.8-5.8 3.8-10.2c0-4.6-1.3-8.3-3.8-11s-5.8-4.1-9.9-4.1c-3.9 0-7 1.4-9.2 4.1-2.4 2.7-3.5 6.1-3.5 10.2z"/><path d="m353.1 65c-5.2-5-7.7-11.3-7.7-18.9s2.6-13.9 7.7-18.9c5.2-5 12-7.5 20.6-7.5 7 0 13.9 2.5 20.7 7.5l-6.7 10.8c-3.8-3.4-8.2-5-13.3-5-4.3 0-7.7 1.2-10.4 3.7-2.6 2.4-3.9 5.6-3.9 9.5s1.3 7 3.9 9.5 6.1 3.7 10.4 3.7c5.1 0 9.6-1.7 13.3-5l6.7 10.8c-6.8 5-13.7 7.5-20.7 7.5-8.6-.3-15.5-2.8-20.6-7.7z"/><path d="m413.6 41.3 14.4-20.5h16.3v2l-16.8 21.1 6.6 10.6c2 3 4.3 4.5 6.9 4.5 2 0 3.8-.6 5.4-1.8l5.5 10.4c-3.7 3.3-8.1 4.9-13.2 4.9-6.5 0-11.5-2.6-15-7.7l-10.2-16.4v23h-14.7v-71.4h14.7v41.3z"/></g><g transform="translate(-1)"><path d="m2.4 103.7c-.9-1.2-1.4-2.6-1.4-4.2v-16.5" fill="#0870e3"/><path d="m1 82.9v-2.7" fill="#0870e3"/><path d="m2.5 103.7c-.1 0-.1 0 0 0" fill="#5a489b"/><path d="m25.2 80h53.3v1h-53.3z" fill="#03a698"/><path d="m25.2 82.9h53.3v4.4h-53.3z" fill="#03a698"/><path d="m25.2 80.2h53.3v2.7h-53.3z" fill="#03a698"/><path d="m51.9.8c-11.1 0-16.1 4.1-16.9 12.2-2 .5-4 1.2-5.8 2h45.4c-1.8-.8-3.8-1.5-5.8-2-.9-9.3-7.7-12.2-16.9-12.2zm-11.1 11.4c1.2-5.6 5.4-6.5 11.1-6.5 7.3 0 10 .8 11.2 6.5z" fill="#d1435b"/><path d="m11.1 38.5h27.4l-.3-.5c-.2-.3-.1-.7.1-1s.7-.7 1.3-1.1 1.2-.6 1.6-.6c.5 0 .8.2.9.4l1.6 2.8h5.8v-4.7c0-.4.2-.7.6-.9s1-.3 1.7-.3 1.3.1 1.7.3c.5.3.6.6.6.9v4.7h5.8l1.6-2.8c.2-.3.5-.4.8-.4.5 0 1.1.2 1.7.6s1.1.7 1.3 1.1c.2.3.3.7.1 1l-.3.5h27.4c-1.2-7.2-4.9-13.7-10.2-18.4h-61.2c-5.1 4.8-8.8 11.2-10 18.4z" fill="#ff9400"/><path d="m21.3 20.1h61.2c-2.3-2.1-5-3.8-7.9-5.1h-45.4c-2.9 1.3-5.6 3.1-7.9 5.1z" fill="#d1435b"/><g fill="#ffb54c"><path d="m60.8 46.2c-.3.5-.8.9-1.4 1.1-.2.1-.4.1-.6.1-.4 0-.8-.1-1.2-.3-.5-.3-.9-.8-1.1-1.4s-.1-1.2.2-1.7l1.6-2.8h-4.3v2.1c0 .6-.2 1.2-.7 1.6-.4.4-1 .7-1.6.7s-1.2-.2-1.6-.7c-.4-.4-.7-1-.7-1.6v-2.1h-4.3l1.6 2.8c.3.5.4 1.1.2 1.7s-.5 1.1-1.1 1.4c-.4.2-.8.3-1.2.3-.2 0-.4 0-.6-.1-.6-.2-1.1-.5-1.4-1.1l-3-5.1h-29.2c-.1.9-.1 1.7-.1 2.6v15.7h17.2c-.1-.5-.1-.9-.1-1.1 0-.4.3-.7.7-.8 2.5-.7 11.5-3.1 23.5-3.1s21 2.3 23.5 3.1c.4.1.6.4.7.8 0 .4 0 .7-.1 1.1h17.2v-15.7c0-.9 0-1.7-.1-2.6h-29.2zm-18.9 5.1c-.3.5-.8.9-1.4 1.1-.2 0-.4.1-.6.1-.4 0-.8-.1-1.2-.3l-8.2-4.7c-.3-.2-.5-.5-.4-.9 0-.4.2-1 .6-1.6s.7-1.1 1.1-1.3c.2-.1.4-.2.6-.2s.3 0 .4.1l8.2 4.7c.5.3.9.8 1.1 1.4.2.5.1 1.1-.2 1.6zm30-7.8c.4.2.7.7 1.1 1.3s.6 1.2.6 1.6-.1.8-.4.9l-8.2 4.7c-.3.2-.7.3-1.2.3-.2 0-.4 0-.6-.1-.6-.2-1.1-.5-1.4-1.1-.3-.5-.4-1.1-.2-1.7s.5-1.1 1.1-1.4l8.2-4.7c.1-.1.3-.1.4-.1.3.1.5.2.6.3z"/><path d="m41.8 59.2c-.6.1-1.1.1-1.6.2h3.8c-.5-.2-1-.3-1.6-.3-.2 0-.4 0-.6.1z"/><path d="m61.4 59.1c-.5 0-1.1.1-1.6.3h3.8c-.5-.1-1.1-.1-1.7-.2-.1-.1-.3-.1-.5-.1z"/><path d="m49.6 41.1v-2.6h-5.8l1.5 2.6z"/><path d="m63.8 41.1h29.2c-.1-.9-.2-1.7-.3-2.6h-27.4z"/><path d="m38.5 38.5h-27.4c-.1.8-.3 1.7-.3 2.6h29.2z"/><path d="m58.5 41.1 1.5-2.6h-5.8v2.6z"/></g><path d="m53.4 62.9c-.5.3-1 .4-1.5.4s-1.1-.1-1.5-.4l-1.4-.8h-38.2v5.9h-2.4c-4 0-7.3 3.3-7.3 7.3v5h4.9v-5c0-1.3 1.1-2.4 2.4-2.4h2.4v7.5h9.7v-2.6c0-1.3 1.1-2.4 2.4-2.4h58.1c1.3 0 2.4 1.1 2.4 2.4v2.6h9.7v-7.5h2.4c1.3 0 2.4 1.1 2.4 2.4v5h4.9v-5c0-4-3.3-7.3-7.3-7.3h-2.4v-6h-38.2z" fill="#03a698"/><path d="m75.8 59.8c-.2.7-.5 1.1-.7 1.4-.2.2-.4.3-.7.3h-.2c-1.1-.3-4.9-1.4-10.4-2.1h-3.8c-.4.1-.8.3-1.2.5l-3.8 2.2h38.2v-2.7h-17.2c-.1.1-.1.2-.2.4z" fill="#03a698"/><path d="m45.1 59.9c-.4-.2-.8-.4-1.2-.5h-3.8c-5.5.7-9.3 1.8-10.4 2.1h-.2c-.3 0-.6-.1-.7-.3-.2-.3-.5-.7-.7-1.4 0-.2-.1-.3-.1-.4h-17.2v2.7h38.2z" fill="#03a698"/><path d="m98 99.4c0 1.3-1.1 2.4-2.4 2.4h-2.4v-19h-9.7v20.8h18c.9-1.2 1.4-2.6 1.4-4.2v-16.5h-4.9z" fill="#0870e3"/><path d="m20.4 82.9h-9.7v19h-2.4c-1.3 0-2.4-1.1-2.4-2.4v-16.5h-4.9v16.5c0 1.6.5 3 1.4 4.2h18z" fill="#0870e3"/><path d="m83.4 80.2h9.7v2.7h-9.7z" fill="#0870e3"/><path d="m10.7 80.2h9.7v2.7h-9.7z" fill="#0870e3"/><path d="m1 80.2h4.9v2.7h-4.9z" fill="#0870e3"/><path d="m98 80.2h4.9v2.7h-4.9z" fill="#0870e3"/><path d="m83.4 111.5c0 1.3-1.1 2.4-2.4 2.4h-58.2c-1.3 0-2.4-1.1-2.4-2.4v-7.8h-17.9c1.3 1.8 3.4 3 5.8 3h2.4v4.8c0 6.7 5.4 12.1 12.1 12.1h58.2c6.7 0 12.1-5.4 12.1-12.1v-4.8h2.4c2.4 0 4.5-1.2 5.8-3h-17.9z" fill="#5a489b"/><path d="m83.4 103.7h17.9s.1-.1.1-.1z" fill="#5a489b"/><path d="m20.4 103.7h-18s.1.1.1.1z" fill="#5a489b"/><path d="m78.6 92.2v17h-53.3v-17h8.4v7.3c0 1.3 1.1 2.4 2.4 2.4s2.4-1.1 2.4-2.4v-7.3z" fill="#03a698"/></g></g></svg>