
<svg width="595px" height="130px" viewBox="0 0 595 130" version="1.1" xmlns="http://www.w3.org/2000/svg" xmlns:xlink="http://www.w3.org/1999/xlink">
    <g id="Page-1" stroke="none" stroke-width="1" fill="none" fill-rule="evenodd">
        <g id="Backpack_Logo_Horizontal_White_Pride" transform="translate(-1.000000, 0.000000)" fill-rule="nonzero">
            <g id="Group">
                <g transform="translate(144.000000, 35.000000)" fill="#FFFFFF">
                    <path d="M51,21.2 C51,24.2 50,27.1 48,29.7 C46,32.4 43.3,34.3 39.7,35.6 C43.8,36.3 47.2,38.3 50,41.6 C52.8,44.9 54.1,48.3 54.1,52 C54.1,57.9 51.9,62.6 47.4,66.1 C42.9,69.7 37,71.4 29.6,71.4 L0.7,71.4 L0.7,2.2 L26.7,2.3 C33.9,2.3 39.7,4 44.2,7.4 C48.7,10.8 51,15.4 51,21.2 Z M16,31.3 L22.3,31.3 C31,31.3 35.4,28.1 35.4,21.8 C35.4,19.4 34.6,17.6 32.9,16.3 C31.2,15 29.1,14.4 26.6,14.4 L16,14.4 L16,31.3 Z M24,42 L16,42 L16,59.3 L29.6,59.3 C32.2,59.3 34.4,58.6 36.1,57.2 C37.8,55.8 38.6,54 38.6,51.7 C38.6,48.8 37.6,46.5 35.6,44.7 C33.6,42.9 29.8,42 24,42 Z" id="Shape"></path>
                    <path d="M97.9,20.8 L112.6,20.8 L112.6,71.4 L97.9,71.4 L97.9,64 C94,69.7 88.7,72.5 82,72.5 C74.5,72.5 68.5,70 64,64.9 C59.5,59.8 57.3,53.5 57.3,45.9 C57.3,38.5 59.5,32.2 63.8,27.2 C68.1,22.2 74.1,19.7 81.7,19.7 C85,19.7 88.1,20.4 90.9,21.9 C93.8,23.3 96.1,25.3 97.9,27.7 L97.9,20.8 Z M72,46 C72,50.1 73.2,53.6 75.6,56.4 C78,59.2 81.1,60.6 85.1,60.6 C88.9,60.6 92.1,59.4 94.6,57 C97.1,54.6 98.4,51.2 98.4,46.8 C98.4,42.2 97.1,38.5 94.6,35.8 C92.1,33.1 88.8,31.7 84.7,31.7 C80.8,31.7 77.7,33.1 75.5,35.8 C73.3,38.5 72,41.9 72,46 Z" id="Shape"></path>
                    <path d="M125.2,65 C120,60 117.5,53.7 117.5,46.1 C117.5,38.5 120.1,32.2 125.2,27.2 C130.4,22.2 137.2,19.7 145.8,19.7 C152.8,19.7 159.7,22.2 166.5,27.2 L159.8,38 C156,34.6 151.6,33 146.5,33 C142.2,33 138.8,34.2 136.1,36.7 C133.5,39.1 132.2,42.3 132.2,46.2 C132.2,50.1 133.5,53.2 136.1,55.7 C138.7,58.1 142.2,59.4 146.5,59.4 C151.6,59.4 156.1,57.7 159.8,54.4 L166.5,65.2 C159.7,70.2 152.8,72.7 145.8,72.7 C137.2,72.4 130.3,69.9 125.2,65 Z" id="Path"></path>
                    <path d="M185.7,41.3 L200.1,20.8 L216.4,20.8 L216.4,22.8 L199.6,43.9 L206.2,54.5 C208.2,57.5 210.5,59 213.1,59 C215.1,59 216.9,58.4 218.5,57.2 L224,67.6 C220.3,70.9 215.9,72.5 210.8,72.5 C204.3,72.5 199.3,69.9 195.8,64.8 L185.6,48.4 L185.6,71.4 L171,71.4 L171,0 L185.7,0 L185.7,41.3 Z" id="Path"></path>
                    <path d="M240.8,94.5 L226.1,94.5 L226.1,20.8 L240.8,20.8 L240.8,28.2 C244.7,22.5 250,19.7 256.7,19.7 C264.2,19.7 270.2,22.2 274.7,27.3 C279.2,32.4 281.4,38.7 281.4,46.3 C281.4,53.7 279.2,60 274.9,65 C270.6,70 264.6,72.5 257,72.5 C253.7,72.5 250.6,71.8 247.8,70.3 C244.9,68.9 242.6,66.9 240.8,64.5 L240.8,94.5 L240.8,94.5 Z M266.6,46.3 C266.6,42.2 265.4,38.7 263,35.9 C260.6,33.1 257.5,31.7 253.5,31.7 C249.7,31.7 246.5,32.9 244,35.3 C241.5,37.7 240.2,41.1 240.2,45.5 C240.2,50.1 241.4,53.8 244,56.5 C246.5,59.2 249.8,60.6 253.9,60.6 C257.8,60.6 260.9,59.2 263.1,56.5 C265.5,53.7 266.6,50.3 266.6,46.3 Z" id="Shape"></path>
                    <path d="M326.3,20.8 L341,20.8 L341,71.4 L326.3,71.4 L326.3,64 C322.4,69.7 317.1,72.5 310.4,72.5 C302.9,72.5 296.9,70 292.4,64.9 C287.9,59.8 285.7,53.5 285.7,45.9 C285.7,38.5 287.9,32.2 292.2,27.2 C296.5,22.2 302.5,19.7 310.1,19.7 C313.4,19.7 316.5,20.4 319.3,21.9 C322.2,23.3 324.5,25.3 326.3,27.7 L326.3,20.8 Z M300.4,46 C300.4,50.1 301.6,53.6 304,56.4 C306.4,59.2 309.5,60.6 313.5,60.6 C317.3,60.6 320.5,59.4 323,57 C325.5,54.6 326.8,51.2 326.8,46.8 C326.8,42.2 325.5,38.5 323,35.8 C320.5,33.1 317.2,31.7 313.1,31.7 C309.2,31.7 306.1,33.1 303.9,35.8 C301.5,38.5 300.4,41.9 300.4,46 Z" id="Shape"></path>
                    <path d="M353.1,65 C347.9,60 345.4,53.7 345.4,46.1 C345.4,38.5 348,32.2 353.1,27.2 C358.3,22.2 365.1,19.7 373.7,19.7 C380.7,19.7 387.6,22.2 394.4,27.2 L387.7,38 C383.9,34.6 379.5,33 374.4,33 C370.1,33 366.7,34.2 364,36.7 C361.4,39.1 360.1,42.3 360.1,46.2 C360.1,50.1 361.4,53.2 364,55.7 C366.6,58.2 370.1,59.4 374.4,59.4 C379.5,59.4 384,57.7 387.7,54.4 L394.4,65.2 C387.6,70.2 380.7,72.7 373.7,72.7 C365.1,72.4 358.2,69.9 353.1,65 Z" id="Path"></path>
                    <path d="M413.6,41.3 L428,20.8 L444.3,20.8 L444.3,22.8 L427.5,43.9 L434.1,54.5 C436.1,57.5 438.4,59 441,59 C443,59 444.8,58.4 446.4,57.2 L451.9,67.6 C448.2,70.9 443.8,72.5 438.7,72.5 C432.2,72.5 427.2,69.9 423.7,64.8 L413.5,48.4 L413.5,71.4 L398.8,71.4 L398.8,0 L413.5,0 L413.5,41.3 L413.6,41.3 Z" id="Path"></path>
                </g>
                <g>
                    <path d="M2.4,103.7 C1.5,102.5 1,101.1 1,99.5 L1,83" id="Path" fill="#0870E3"></path>
                    <path d="M1,82.9 L1,80.2" id="Path" fill="#0870E3"></path>
                    <path d="M2.5,103.7 C2.4,103.7 2.4,103.7 2.5,103.7" id="Path" fill="#5A489B"></path>
                    <path d="M25.2,103.7 L25.2,103.7" id="Path" fill="#5A489B"></path>
                    <path d="M20.4,103.7 L20.4,103.7" id="Path" fill="#5A489B"></path>
                    <rect id="Rectangle" fill="#03A698" x="25.2" y="80" width="53.3" height="1"></rect>
                    <rect id="Rectangle" fill="#03A698" x="25.2" y="82.9" width="53.3" height="4.4"></rect>
                    <rect id="Rectangle" fill="#03A698" x="25.2" y="80.2" width="53.3" height="2.7"></rect>
                    <path d="M51.9,0.8 C40.8,0.8 35.8,4.9 35,13 C33,13.5 31,14.2 29.2,15 L74.6,15 C72.8,14.2 70.8,13.5 68.8,13 C67.9,3.7 61.1,0.8 51.9,0.8 Z M40.8,12.2 C42,6.6 46.2,5.7 51.9,5.7 C59.2,5.7 61.9,6.5 63.1,12.2 L40.8,12.2 Z" id="Shape" fill="#D1435B"></path>
                    <path d="M11.1,38.5 L38.5,38.5 L38.2,38 C38,37.7 38.1,37.3 38.3,37 C38.5,36.7 39,36.3 39.6,35.9 C40.2,35.5 40.8,35.3 41.2,35.3 C41.2,35.3 41.2,35.3 41.2,35.3 C41.7,35.3 42,35.5 42.1,35.7 L43.7,38.5 L49.5,38.5 L49.5,33.8 C49.5,33.4 49.7,33.1 50.1,32.9 C50.5,32.7 51.1,32.6 51.8,32.6 C52.5,32.6 53.1,32.7 53.5,32.9 C54,33.2 54.1,33.5 54.1,33.8 L54.1,38.5 L59.9,38.5 L61.5,35.7 C61.7,35.4 62,35.3 62.3,35.3 C62.8,35.3 63.4,35.5 64,35.9 C64.6,36.3 65.1,36.6 65.3,37 C65.5,37.3 65.6,37.7 65.4,38 L65.1,38.5 L92.5,38.5 C91.3,31.3 87.6,24.8 82.3,20.1 L21.1,20.1 C16,24.9 12.3,31.3 11.1,38.5 Z" id="Path" fill="#FF9400"></path>
                    <path d="M21.3,20.1 L82.5,20.1 C80.2,18 77.5,16.3 74.6,15 L29.2,15 C26.3,16.3 23.6,18.1 21.3,20.1 Z" id="Path" fill="#D1435B"></path>
                    <path d="M60.8,46.2 C60.5,46.7 60,47.1 59.4,47.3 C59.2,47.4 59,47.4 58.8,47.4 C58.4,47.4 58,47.3 57.6,47.1 C57.1,46.8 56.7,46.3 56.5,45.7 C56.3,45.1 56.4,44.5 56.7,44 L58.3,41.2 L54,41.2 L54,43.3 C54,43.9 53.8,44.5 53.3,44.9 C52.9,45.3 52.3,45.6 51.7,45.6 C51.1,45.6 50.5,45.4 50.1,44.9 C49.7,44.5 49.4,43.9 49.4,43.3 L49.4,41.2 L45.1,41.2 L46.7,44 C47,44.5 47.1,45.1 46.9,45.7 C46.7,46.3 46.4,46.8 45.8,47.1 C45.4,47.3 45,47.4 44.6,47.4 C44.4,47.4 44.2,47.4 44,47.3 C43.4,47.1 42.9,46.8 42.6,46.2 L39.6,41.1 L10.4,41.1 C10.3,42 10.3,42.8 10.3,43.7 L10.3,59.4 L27.5,59.4 C27.4,58.9 27.4,58.5 27.4,58.3 C27.4,57.9 27.7,57.6 28.1,57.5 C30.6,56.8 39.6,54.4 51.6,54.4 C63.6,54.4 72.6,56.7 75.1,57.5 C75.5,57.6 75.7,57.9 75.8,58.3 C75.8,58.7 75.8,59 75.7,59.4 L92.9,59.4 L92.9,43.7 C92.9,42.8 92.9,42 92.8,41.1 L63.6,41.1 L60.8,46.2 Z M41.9,51.3 C41.6,51.8 41.1,52.2 40.5,52.4 C40.3,52.4 40.1,52.5 39.9,52.5 C39.5,52.5 39.1,52.4 38.7,52.2 L30.5,47.5 C30.2,47.3 30,47 30.1,46.6 C30.1,46.2 30.3,45.6 30.7,45 C31.1,44.4 31.4,43.9 31.8,43.7 C32,43.6 32.2,43.5 32.4,43.5 C32.6,43.5 32.7,43.5 32.8,43.6 L41,48.3 C41.5,48.6 41.9,49.1 42.1,49.7 C42.3,50.2 42.2,50.8 41.9,51.3 Z M71.9,43.5 C72.3,43.7 72.6,44.2 73,44.8 C73.4,45.4 73.6,46 73.6,46.4 C73.6,46.8 73.5,47.2 73.2,47.3 L65,52 C64.7,52.2 64.3,52.3 63.8,52.3 C63.6,52.3 63.4,52.3 63.2,52.2 C62.6,52 62.1,51.7 61.8,51.1 C61.5,50.6 61.4,50 61.6,49.4 C61.8,48.8 62.1,48.3 62.7,48 L70.9,43.3 C71,43.2 71.2,43.2 71.3,43.2 C71.6,43.3 71.8,43.4 71.9,43.5 Z" id="Shape" fill="#FFB54C"></path>
                    <path d="M41.8,59.2 C41.2,59.3 40.7,59.3 40.2,59.4 L44,59.4 C43.5,59.2 43,59.1 42.4,59.1 C42.2,59.1 42,59.1 41.8,59.2 Z" id="Path" fill="#FFB54C"></path>
                    <path d="M61.4,59.1 C60.9,59.1 60.3,59.2 59.8,59.4 L63.6,59.4 C63.1,59.3 62.5,59.3 61.9,59.2 C61.8,59.1 61.6,59.1 61.4,59.1 Z" id="Path" fill="#FFB54C"></path>
                    <polygon id="Path" fill="#FFB54C" points="49.6 41.1 49.6 38.5 43.8 38.5 45.3 41.1"></polygon>
                    <path d="M63.8,41.1 L93,41.1 C92.9,40.2 92.8,39.4 92.7,38.5 L65.3,38.5 L63.8,41.1 Z" id="Path" fill="#FFB54C"></path>
                    <path d="M38.5,38.5 L11.1,38.5 C11,39.3 10.8,40.2 10.8,41.1 L40,41.1 L38.5,38.5 Z" id="Path" fill="#FFB54C"></path>
                    <polygon id="Path" fill="#FFB54C" points="58.5 41.1 60 38.5 54.2 38.5 54.2 41.1"></polygon>
                    <path d="M53.4,62.9 C52.9,63.2 52.4,63.3 51.9,63.3 C51.4,63.3 50.8,63.2 50.4,62.9 L49,62.1 L10.8,62.1 L10.8,68 L8.4,68 C4.4,68 1.1,71.3 1.1,75.3 L1.1,80.3 L6,80.3 L6,75.3 C6,74 7.1,72.9 8.4,72.9 L10.8,72.9 L10.8,80.4 L20.5,80.4 L20.5,77.8 C20.5,76.5 21.6,75.4 22.9,75.4 L81,75.4 C82.3,75.4 83.4,76.5 83.4,77.8 L83.4,80.4 L93.1,80.4 L93.1,72.9 L95.5,72.9 C96.8,72.9 97.9,74 97.9,75.3 L97.9,80.3 L102.8,80.3 L102.8,75.3 C102.8,71.3 99.5,68 95.5,68 L93.1,68 L93.1,62 L54.9,62 L53.4,62.9 Z" id="Path" fill="#03A698"></path>
                    <path d="M75.8,59.8 C75.6,60.5 75.3,60.9 75.1,61.2 C74.9,61.4 74.7,61.5 74.4,61.5 L74.2,61.5 C73.1,61.2 69.3,60.1 63.8,59.4 L60,59.4 C59.6,59.5 59.2,59.7 58.8,59.9 L55,62.1 L93.2,62.1 L93.2,59.4 L76,59.4 C75.9,59.5 75.9,59.6 75.8,59.8 Z" id="Path" fill="#03A698"></path>
                    <path d="M45.1,59.9 C44.7,59.7 44.3,59.5 43.9,59.4 L40.1,59.4 C34.6,60.1 30.8,61.2 29.7,61.5 L29.5,61.5 C29.2,61.5 28.9,61.4 28.8,61.2 C28.6,60.9 28.3,60.5 28.1,59.8 C28.1,59.6 28,59.5 28,59.4 L10.8,59.4 L10.8,62.1 L49,62.1 L45.1,59.9 Z" id="Path" fill="#03A698"></path>
                    <path d="M98,99.4 C98,100.7 96.9,101.8 95.6,101.8 L93.2,101.8 L93.2,82.8 L83.5,82.8 L83.5,103.6 L101.5,103.6 C102.4,102.4 102.9,101 102.9,99.4 L102.9,82.9 L98,82.9 L98,99.4 Z" id="Path" fill="#0870E3"></path>
                    <path d="M20.4,82.9 L10.7,82.9 L10.7,101.9 L8.3,101.9 C7,101.9 5.9,100.8 5.9,99.5 L5.9,83 L1,83 L1,99.5 C1,101.1 1.5,102.5 2.4,103.7 L20.4,103.7 L20.4,82.9 Z" id="Path" fill="#0870E3"></path>
                    <rect id="Rectangle" fill="#0870E3" x="83.4" y="80.2" width="9.7" height="2.7"></rect>
                    <rect id="Rectangle" fill="#0870E3" x="10.7" y="80.2" width="9.7" height="2.7"></rect>
                    <rect id="Rectangle" fill="#0870E3" x="1" y="80.2" width="4.9" height="2.7"></rect>
                    <rect id="Rectangle" fill="#0870E3" x="98" y="80.2" width="4.9" height="2.7"></rect>
                    <path d="M83.4,111.5 C83.4,112.8 82.3,113.9 81,113.9 L22.8,113.9 C21.5,113.9 20.4,112.8 20.4,111.5 L20.4,103.7 L2.5,103.7 C3.8,105.5 5.9,106.7 8.3,106.7 L10.7,106.7 L10.7,111.5 C10.7,118.2 16.1,123.6 22.8,123.6 L81,123.6 C87.7,123.6 93.1,118.2 93.1,111.5 L93.1,106.7 L95.5,106.7 C97.9,106.7 100,105.5 101.3,103.7 L83.4,103.7 L83.4,111.5 Z" id="Path" fill="#5A489B"></path>
                    <path d="M83.4,103.7 L101.3,103.7 C101.3,103.7 101.4,103.6 101.4,103.6 L83.4,103.7 L83.4,103.7 Z" id="Path" fill="#5A489B"></path>
                    <path d="M20.4,103.7 L2.4,103.7 C2.4,103.7 2.5,103.8 2.5,103.8 L20.4,103.7 L20.4,103.7 Z" id="Path" fill="#5A489B"></path>
                    <path d="M78.6,92.2 L78.6,109.2 L25.3,109.2 L25.3,92.2 L33.7,92.2 L33.7,99.5 C33.7,100.8 34.8,101.9 36.1,101.9 C37.4,101.9 38.5,100.8 38.5,99.5 L38.5,92.2 L78.6,92.2 Z" id="Path" fill="#03A698"></path>
                </g>
            </g>
        </g>
    </g>
</svg>