<svg width="603" height="131" viewBox="0 0 603 131" fill="none" xmlns="http://www.w3.org/2000/svg">
<g clip-path="url(#clip0_9018_10114)">
<path d="M196.8 56.8C196.8 59.9 195.8 62.7 193.8 65.4C191.8 68.1 189 70.1 185.4 71.3C189.5 72 193 74.1 195.8 77.4C198.6 80.7 200 84.2 200 87.9C200 93.8 197.7 98.6 193.2 102.2C188.7 105.8 182.7 107.6 175.2 107.6H146V37.7L172.2 37.8C179.4 37.8 185.3 39.5 189.9 42.9C194.5 46.3 196.8 51 196.8 56.8ZM161.5 67.1H167.9C176.7 67.1 181.2 63.9 181.2 57.5C181.2 55.1 180.4 53.3 178.7 52C177 50.7 174.9 50.1 172.4 50.1H161.6V67.1H161.5ZM169.6 77.8H161.5V95.3H175.3C178 95.3 180.1 94.6 181.8 93.2C183.5 91.8 184.3 89.9 184.3 87.6C184.3 84.7 183.3 82.3 181.3 80.5C179.3 78.7 175.4 77.8 169.6 77.8Z" fill="#05203C"/>
<path d="M244.2 56.4H259V107.6H244.1V100.1C240.1 105.8 234.8 108.7 228 108.7C220.4 108.7 214.4 106.1 209.9 101C205.4 95.9 203.1 89.5 203.1 81.8C203.1 74.3 205.3 68 209.6 63C214 57.9 220 55.4 227.7 55.4C231 55.4 234.1 56.1 237 57.6C239.9 59.1 242.2 61 244 63.5V56.4H244.2ZM218 81.8C218 86 219.2 89.5 221.6 92.3C224 95.1 227.2 96.5 231.2 96.5C235.1 96.5 238.2 95.3 240.8 92.9C243.3 90.5 244.6 87 244.6 82.6C244.6 77.9 243.3 74.2 240.8 71.5C238.3 68.7 234.9 67.4 230.8 67.4C226.9 67.4 223.8 68.8 221.5 71.5C219.2 74.3 218 77.7 218 81.8Z" fill="#05203C"/>
<path d="M271.8 101C266.6 96 264 89.6 264 81.9C264 74.2 266.6 67.8 271.8 62.8C277 57.8 283.9 55.3 292.6 55.3C299.7 55.3 306.7 57.8 313.5 62.9L306.7 73.8C302.9 70.4 298.4 68.7 293.2 68.7C288.9 68.7 285.4 69.9 282.7 72.4C280 74.9 278.7 78.1 278.7 82C278.7 85.9 280 89.1 282.7 91.6C285.4 94.1 288.8 95.3 293.2 95.3C298.4 95.3 302.9 93.6 306.7 90.2L313.5 101.1C306.7 106.2 299.7 108.7 292.6 108.7C283.9 108.6 277 106.1 271.8 101Z" fill="#05203C"/>
<path d="M332.9 77.1L347.5 56.4H364V58.4L347 79.7L353.7 90.4C355.7 93.5 358 95 360.7 95C362.7 95 364.5 94.4 366.2 93.2L371.8 103.7C368.1 107 363.6 108.7 358.4 108.7C351.9 108.7 346.8 106.1 343.2 100.9L332.9 84.3V107.5H318V35.4H332.9V77.1Z" fill="#05203C"/>
<path d="M388.6 130.9H373.7V56.4H388.6V63.9C392.6 58.2 397.9 55.3 404.7 55.3C412.3 55.3 418.3 57.9 422.9 63C427.4 68.1 429.7 74.5 429.7 82.2C429.7 89.7 427.5 96 423.2 101C418.8 106.1 412.8 108.6 405.1 108.6C401.8 108.6 398.7 107.9 395.8 106.4C392.9 104.9 390.6 103 388.8 100.5V130.9H388.6ZM414.7 82.1C414.7 77.9 413.5 74.4 411.1 71.6C408.7 68.8 405.5 67.4 401.5 67.4C397.6 67.4 394.5 68.6 391.9 71C389.4 73.4 388.1 76.9 388.1 81.3C388.1 86 389.4 89.7 391.9 92.4C394.4 95.2 397.7 96.5 401.9 96.5C405.8 96.5 408.9 95.1 411.2 92.4C413.6 89.7 414.7 86.3 414.7 82.1Z" fill="#05203C"/>
<path d="M474.9 56.4H489.8V107.6H474.9V100.1C470.9 105.8 465.6 108.7 458.8 108.7C451.2 108.7 445.2 106.1 440.7 101C436.2 95.9 433.9 89.5 433.9 81.8C433.9 74.3 436.1 68 440.4 63C444.8 57.9 450.8 55.4 458.5 55.4C461.8 55.4 464.9 56.1 467.8 57.6C470.7 59.1 473 61 474.8 63.5V56.4H474.9ZM448.8 81.8C448.8 86 450 89.5 452.4 92.3C454.8 95.1 458 96.5 462 96.5C465.9 96.5 469 95.3 471.6 92.9C474.1 90.5 475.4 87 475.4 82.6C475.4 77.9 474.1 74.2 471.6 71.5C469.1 68.7 465.7 67.4 461.6 67.4C457.7 67.4 454.6 68.8 452.3 71.5C450 74.3 448.8 77.7 448.8 81.8Z" fill="#05203C"/>
<path d="M502 101C496.8 96 494.2 89.6 494.2 81.9C494.2 74.2 496.8 67.8 502 62.8C507.2 57.8 514.1 55.3 522.8 55.3C529.9 55.3 536.9 57.8 543.7 62.9L536.9 73.8C533.1 70.4 528.6 68.7 523.4 68.7C519.1 68.7 515.6 69.9 512.9 72.4C510.2 74.9 508.9 78.1 508.9 82C508.9 85.9 510.2 89.1 512.9 91.6C515.6 94.1 519 95.3 523.4 95.3C528.6 95.3 533.1 93.6 536.9 90.2L543.7 101.1C536.9 106.2 529.9 108.7 522.8 108.7C514.2 108.6 507.2 106.1 502 101Z" fill="#05203C"/>
<path d="M563.2 77.1L577.8 56.4H594.3V58.4L577.3 79.7L584 90.4C586 93.5 588.3 95 591 95C593 95 594.8 94.4 596.5 93.2L602.1 103.7C598.4 107 593.9 108.7 588.7 108.7C582.2 108.7 577.1 106.1 573.5 100.9L563.2 84.3V107.5H548.3V35.4H563.2V77.1Z" fill="#05203C"/>
<path d="M10.5 103.1H8C6.6 103.1 5.5 102 5.5 100.6V76C5.5 74.6 6.6 73.5 8 73.5H10.5V103.1Z" fill="#E70866"/>
<path d="M99 100.7C99 102.1 97.9 103.2 96.5 103.2H94V73.7H96.5C97.9 73.7 99 74.8 99 76.2V100.7Z" fill="#E70866"/>
<path d="M15.4 44.1C15.4 29.2 27.5 17.1 42.5 17H62.2C77.1 17 89.2 29.1 89.3 44.1V113C89.3 117.1 86 120.4 81.9 120.4H22.9C18.8 120.4 15.5 117.1 15.5 113V44.1H15.4Z" fill="#E70866"/>
<path d="M79.3 81H25.2V110.5H79.3V81Z" fill="#FFA3E5"/>
<path d="M81.7999 76.1H22.7999C21.3999 76.1 20.2999 77.2 20.2999 78.6V113C20.2999 114.4 21.3999 115.5 22.7999 115.5H81.7999C83.1999 115.5 84.2999 114.4 84.2999 113V78.6C84.2999 77.2 83.1999 76.1 81.7999 76.1ZM79.3999 110.5H25.2999V93.3H32.6999H37.5999H79.3999V110.5ZM79.3999 88.4H25.2999V81H79.3999V88.4Z" fill="#05203C"/>
<path d="M33.7 93.3V100.7C33.7 102.1 34.8 103.2 36.2 103.2C37.6 103.2 38.7 102.1 38.7 100.7V93.3H33.7Z" fill="#05203C"/>
<path d="M96.6 68.7H94.1V44.1C94.1 29.2 83.9 16.4 69.4 13C68.5 3.5 61.6 0.600006 52.3 0.600006C41 0.600006 36 4.7 35.2 13C20.7 16.4 10.5 29.3 10.5 44.1V68.7H7.99998C3.89998 68.7 0.599976 72 0.599976 76.1V100.7C0.599976 104.8 3.89998 108.1 7.99998 108.1H10.5V113C10.5 119.8 16 125.3 22.8 125.3H81.8C88.6 125.3 94.1 119.8 94.1 113V108H96.6C100.7 108 104 104.7 104 100.6V76C103.9 72 100.6 68.7 96.6 68.7ZM10.5 103.1H7.99998C6.59998 103.1 5.49998 102 5.49998 100.6V76C5.49998 74.6 6.59998 73.5 7.99998 73.5H10.5V103.1ZM52.3 5.5C59.7 5.5 62.5 6.30001 63.6 12.1H41C42.2 6.40001 46.5 5.6 52.3 5.5ZM15.4 44.1C15.4 29.2 27.5 17.1 42.5 17H62.2C77.1 17 89.2 29.1 89.3 44.1V113C89.3 117.1 86 120.4 81.9 120.4H22.9C18.8 120.4 15.5 117.1 15.5 113V44.1H15.4ZM99 100.7C99 102.1 97.9 103.2 96.5 103.2H94V73.7H96.5C97.9 73.7 99 74.8 99 76.2V100.7Z" fill="#05203C"/>
<path d="M52.3 63.8C52.8 63.8 53.3 63.7 53.8 63.4L59.1 60.3C60.2 59.7 61.4 59.4 62.6 59.6C69.1 60.4 73.6 61.6 74.9 62C75.2 62.1 75.5 62 75.7 61.8C75.9 61.5 76.2 61.1 76.4 60.5C76.6 59.9 76.6 59.4 76.6 59C76.6 58.7 76.4 58.4 76.1 58.4C74 57.8 64.8 55.3 52.3 55.3C39.8 55.3 30.6 57.8 28.5 58.4C28.2 58.5 28 58.7 28 59C28 59.3 28 59.8 28.2 60.5C28.4 61.1 28.7 61.6 28.9 61.8C29.1 62 29.4 62.1 29.7 62C31 61.6 35.6 60.4 42 59.6C43.2 59.5 44.5 59.7 45.5 60.3L50.8 63.4C51.3 63.6 51.8 63.8 52.3 63.8Z" fill="#05203C"/>
<path d="M43.4 46.6C43.7 47.1 44.2 47.4 44.7 47.6C45.2 47.7 45.8 47.7 46.3 47.4C46.8 47.1 47.1 46.6 47.3 46.1C47.4 45.6 47.4 45 47.1 44.5L42.3 36.2C42.2 35.9 41.8 35.8 41.5 35.9C41.1 35.9 40.6 36.1 39.9 36.5C39.3 36.9 38.8 37.2 38.6 37.5C38.4 37.7 38.4 38.1 38.5 38.3L43.4 46.6Z" fill="#05203C"/>
<path d="M39.1 52.5C39.6 52.8 40.2 52.8 40.7 52.7C41.2 52.6 41.7 52.2 42 51.7C42.3 51.2 42.3 50.6 42.2 50.1C42.1 49.6 41.7 49.1 41.2 48.8L32.9 44C32.6 43.9 32.3 43.9 32.1 44.1C31.8 44.3 31.4 44.8 31.1 45.4C30.7 46 30.5 46.6 30.5 47C30.5 47.3 30.6 47.6 30.8 47.8L39.1 52.5Z" fill="#05203C"/>
<path d="M54.3999 43.6C54.3999 44.2 54.2 44.7 53.8 45.1C53.4 45.5 52.9 45.7 52.3 45.7C51.7 45.7 51.2 45.5 50.8 45.1C50.4 44.7 50.2 44.2 50.2 43.6V34.1C50.2 33.8 50.4 33.5 50.7 33.4C51 33.2 51.6 33.1 52.3 33.1C53 33.1 53.5999 33.2 53.8999 33.4C54.1999 33.5 54.3999 33.8 54.3999 34.1V43.6Z" fill="#05203C"/>
<path d="M61.2 46.6C60.9 47.1 60.4 47.4 59.9 47.6C59.4 47.7 58.8 47.7 58.3 47.4C57.8 47.1 57.5 46.6 57.3 46.1C57.2 45.6 57.2 45 57.5 44.5L62.3 36.2C62.4 35.9 62.8 35.8 63.1 35.9C63.5 35.9 64 36.1 64.7 36.5C65.3 36.9 65.8 37.2 66 37.5C66.2 37.7 66.2 38.1 66.1 38.3L61.2 46.6Z" fill="#05203C"/>
<path d="M65.5 52.5C65 52.8 64.4 52.8 63.9 52.7C63.4 52.6 62.9 52.2 62.6 51.7C62.3 51.2 62.3 50.6 62.4 50.1C62.5 49.6 62.9 49.1 63.4 48.8L71.7 44C72 43.9 72.3 43.9 72.5 44.1C72.8 44.3 73.2 44.8 73.5 45.4C73.9 46 74.1 46.6 74.1 47C74.1 47.3 74 47.6 73.8 47.8L65.5 52.5Z" fill="#05203C"/>
</g>
<defs>
<clipPath id="clip0_9018_10114">
<rect width="603" height="131" fill="white"/>
</clipPath>
</defs>
</svg>
