<svg fill="none" height="126" width="104" xmlns="http://www.w3.org/2000/svg"><path d="m10.5 103.1h-2.5c-1.4 0-2.5-1.1-2.5-2.5v-24.6c0-1.4 1.1-2.5 2.5-2.5h2.5zm88.5-2.4c0 1.4-1.1 2.5-2.5 2.5h-2.5v-29.5h2.5c1.4 0 2.5 1.1 2.5 2.5zm-83.6-56.6c0-14.9 12.1-27 27.1-27.1h19.7c14.9 0 27 12.1 27.1 27.1v68.9c0 4.1-3.3 7.4-7.4 7.4h-59c-4.1 0-7.4-3.3-7.4-7.4v-68.9z" fill="#d1435b"/><path d="m25.2 81h54.1v29.5h-54.1z" fill="#e18b96"/><g fill="#111236"><path d="m81.8 76.1h-59c-1.4 0-2.5 1.1-2.5 2.5v34.4c0 1.4 1.1 2.5 2.5 2.5h59c1.4 0 2.5-1.1 2.5-2.5v-34.4c0-1.4-1.1-2.5-2.5-2.5zm-2.4 34.4h-54.1v-17.2h54.1zm0-22.1h-54.1v-7.4h54.1z"/><path d="m33.7 93.3v7.4c0 1.4 1.1 2.5 2.5 2.5s2.5-1.1 2.5-2.5v-7.4z"/><path d="m96.6 68.7h-2.5v-24.6c0-14.9-10.2-27.7-24.7-31.1-.9-9.5-7.8-12.4-17.1-12.4-11.3 0-16.3 4.1-17.1 12.4-14.5 3.4-24.7 16.3-24.7 31.1v24.6h-2.5c-4.1 0-7.4 3.3-7.4 7.4v24.6c0 4.1 3.3 7.4 7.4 7.4h2.5v4.9c0 6.8 5.5 12.3 12.3 12.3h59c6.8 0 12.3-5.5 12.3-12.3v-5h2.5c4.1 0 7.4-3.3 7.4-7.4v-24.6c-.1-4-3.4-7.3-7.4-7.3zm-86.1 34.4h-2.5c-1.4 0-2.5-1.1-2.5-2.5v-24.6c0-1.4 1.1-2.5 2.5-2.5h2.5zm41.8-97.6c7.4 0 10.2.8 11.3 6.6h-22.6c1.2-5.7 5.5-6.5 11.3-6.6zm-36.9 38.6c0-14.9 12.1-27 27.1-27.1h19.7c14.9 0 27 12.1 27.1 27.1v68.9c0 4.1-3.3 7.4-7.4 7.4h-59c-4.1 0-7.4-3.3-7.4-7.4v-68.9zm83.6 56.6c0 1.4-1.1 2.5-2.5 2.5h-2.5v-29.5h2.5c1.4 0 2.5 1.1 2.5 2.5z"/><path d="m52.3 63.8c.5 0 1-.1 1.5-.4l5.3-3.1c1.1-.6 2.3-.9 3.5-.7 6.5.8 11 2 12.3 2.4.3.1.6 0 .8-.2.2-.3.5-.7.7-1.3s.2-1.1.2-1.5c0-.3-.2-.6-.5-.6-2.1-.6-11.3-3.1-23.8-3.1s-21.7 2.5-23.8 3.1c-.3.1-.5.3-.5.6s0 .8.2 1.5c.2.6.5 1.1.7 1.3s.5.3.8.2c1.3-.4 5.9-1.6 12.3-2.4 1.2-.1 2.5.1 3.5.7l5.3 3.1c.5.2 1 .4 1.5.4zm-8.9-17.2c.3.5.8.8 1.3 1 .5.1 1.1.1 1.6-.2s.8-.8 1-1.3c.1-.5.1-1.1-.2-1.6l-4.8-8.3c-.1-.3-.5-.4-.8-.3-.4 0-.9.2-1.6.6-.6.4-1.1.7-1.3 1-.2.2-.2.6-.1.8zm-4.3 5.9c.5.3 1.1.3 1.6.2s1-.5 1.3-1 .3-1.1.2-1.6-.5-1-1-1.3l-8.3-4.8c-.3-.1-.6-.1-.8.1-.3.2-.7.7-1 1.3-.4.6-.6 1.2-.6 1.6 0 .3.1.6.3.8zm15.3-8.9c0 .6-.2 1.1-.6 1.5s-.9.6-1.5.6-1.1-.2-1.5-.6-.6-.9-.6-1.5v-9.5c0-.3.2-.6.5-.7.3-.2.9-.3 1.6-.3s1.3.1 1.6.3c.3.1.5.4.5.7zm6.8 3c-.3.5-.8.8-1.3 1-.5.1-1.1.1-1.6-.2s-.8-.8-1-1.3c-.1-.5-.1-1.1.2-1.6l4.8-8.3c.1-.3.5-.4.8-.3.4 0 .9.2 1.6.6.6.4 1.1.7 1.3 1 .2.2.2.6.1.8zm4.3 5.9c-.5.3-1.1.3-1.6.2s-1-.5-1.3-1-.3-1.1-.2-1.6.5-1 1-1.3l8.3-4.8c.3-.1.6-.1.8.1.3.2.7.7 1 1.3.4.6.6 1.2.6 1.6 0 .3-.1.6-.3.8z"/></g></svg>