<svg height="90" viewBox="0 0 90 90" width="90" xmlns="http://www.w3.org/2000/svg"><g fill="#fff" transform="translate(3 3)"><path d="m46.5979148 0v2.17273211 34.85118289h36.7219329v-37.023915zm4.318227 4.35246175h28.0854789v28.31899155h-28.0854789zm-50.2286418 41.93268015v2.1797297 34.8511828h36.7274157v-37.0309125zm64.2712077 0c-10.1161164 0-18.3607929 8.313062-18.3607929 18.5119574 0 10.1988956 8.2446765 18.5189551 18.3607929 18.5189551 10.1157694 0 18.36114-8.3200595 18.36114-18.5189551 0-10.1988954-8.2453706-18.5119574-18.36114-18.5119574zm-59.94770613 4.3594592h28.08013493v28.3119941h-28.08013493zm59.94770613 0c7.7810675 0 14.042913 6.3082706 14.042913 14.1524982 0 7.8442278-6.2618455 14.1594959-14.042913 14.1594959-7.7807204 0-14.0425659-6.3152681-14.0425659-14.1594959 0-7.8442276 6.2618455-14.1524982 14.0425659-14.1524982z"/><path d="m19.1027449 9.55607756-12.22292866 24.26801684h24.54053916zm-.0132839-8.57933901 18.6499284 36.74387785h-37.15650027z"/></g></svg>