<svg height="90" viewBox="0 0 90 90" width="90" xmlns="http://www.w3.org/2000/svg"><g fill="#fff" transform="translate(0 6)"><path d="m22.5839572.19215506-22.29763973 38.43344854 22.13575513 38.528536 44.4333949.0919442 22.2984256-38.4334485-22.1349693-38.52696438-44.1001955-.09351586zm2.1005707 73.06025124-19.88823106-34.6181584 20.03439866-34.53328689 39.9257731.08408569 19.888231 34.6181584-20.0351845 34.5332869z"/><path d="m37.936957 39.2939929-4.1819648-11.9992504-4.3455439 11.9992504zm-6.1014307-16.0293696h4.1536663l9.8575378 27.1596493h-4.0301193l-2.836061-8.1340907h-10.6554171l-2.9458039 8.1340907h-3.7719818z"/><path d="m30.108076 38.8046361h7.1395022l-3.5007304-10.0473447zm8.5171555.9794038h-9.9141347l5.0530061-13.951156zm3.5386918 10.1508758h2.9844555l-9.5020811-26.1802454h-3.4710515l-9.8596084 26.1802454h2.7207964l2.9458039-8.1340906h11.3456243zm4.3807445.9800941h-5.075783l-2.8367512-8.135471h-9.9638297l-2.9458038 8.135471h-4.822477l10.5967495-28.1397433h4.8362812z"/><g transform="translate(48.487049 29.074373)"><path d="m5.14466566 18.3571621c.70401124.5542363 1.53571079.8303191 2.49647907.8303191 1.17059124 0 2.30529171-.2712514 3.40272097-.8130639 1.8483746-.8979595 2.7725619-2.3687908 2.7725619-4.4111136v-2.6773133c-.4051515.260208-.9283285.4755527-1.5681505.6494848-.6391318.1725518-1.2658398.2967891-1.882885.3692608l-2.01126344.2588277c-1.20441138.1601281-2.1106533.4127439-2.71803555.7578474-1.02978898.5770131-1.54330306 1.5005102-1.54330306 2.76635-.00069021.9607683.34924479 1.7165451 1.05187561 2.269401zm7.00836284-8.99063767c.7626789-.0980094 1.2755027-.41757529 1.5343304-.95938786.1483945-.29747926.2208663-.72402725.2208663-1.28033417 0-1.1381515-.403081-1.9643294-1.2078624-2.47853368-.8061619-.51282388-1.959498-.76958092-3.45931802-.76958092-1.73518064 0-2.96581989.47072124-3.69122755 1.41216372-.40584178.52041616-.67019109 1.29482852-.79373816 2.32254689h-3.10593194c.06211864-2.44747437.85309597-4.15021528 2.37362221-5.10822273 1.51914582-.95800745 3.28400536-1.43701118 5.28974719-1.43701118 2.32668817 0 4.21578497.44449337 5.67005127 1.33140949 1.4411525.88760633 2.1610385 2.26802053 2.1610385 4.14193279v11.40912332c0 .3451036.0704011.6211864.2112033.8316996.1414925.2091327.4417326.3126638.8972693.3126638.1483945 0 .3154246-.0096629.5004001-.0269181.1842853-.0186356.3816845-.0455537.5915075-.0835151v2.4585177c-.5176553.1483945-.9124538.2401921-1.1843954.2774633-.2705612.0365809-.639822.0552165-1.1084726.0552165-1.1457438 0-1.9788237-.4072222-2.4964791-1.2202861-.2712514-.4313794-.4610583-1.0422127-.5728719-1.8304292-.6764029.8882965-1.6516655 1.6578774-2.9209564 2.3121937-1.26929085.6522457-2.66765042.9787137-4.19645915.9787137-1.83733129 0-3.3364611-.5569971-4.50084048-1.6716816-1.16575978-1.113304-1.74898478-2.5075224-1.74898478-4.1819648 0-1.8345705.5735621-3.2557069 1.72068629-4.2654798 1.14574378-1.009773 2.65039526-1.6309594 4.51050338-1.86632z"/><path d="m13.3274159 12.0873898c-.2871262.1200961-.6053116.2277684-.9517956.3209463-.6577673.1794539-1.3134641.3071422-1.9505252.3844454l-2.00643207.2574472c-1.13608089.1511554-1.99193769.3858258-2.54203274.6971092-.87242177.4907372-1.29551872 1.2561769-1.29551872 2.3418727 0 .8089227.28298491 1.4245874.86690011 1.8842654.61980597.4879764 1.33762135.7254076 2.19416836.7254076 1.0891468 0 2.16103842-.2574472 3.18461556-.7619886 1.6834151-.8185856 2.5006203-2.1175554 2.5006203-3.9728321zm-5.68592606 7.5895173c-1.07120142 0-2.01126349-.3140443-2.79947999-.9345404-.82272686-.6494849-1.24168257-1.5419227-1.24168257-2.6545365 0-1.4508154.60393121-2.5247776 1.79522866-3.1935883.66743026-.3789237 1.61508461-.6460338 2.89334815-.8158248l2.01402431-.2588276c.5935781-.0704011 1.2037212-.1911874 1.8159349-.3575273.590127-.1587476 1.0712014-.3575273 1.4328699-.5894369l.7537062-.4810743v3.5711315c0 2.236271-1.0249576 3.8686108-3.049335 4.8514657-1.1560969.5728719-2.372932.8627589-3.61461456.8627589zm1.59990005-16.28819731c1.58885671 0 2.84020221.28505553 3.72297711.84757431.9517956.60738225 1.4356307 1.57988405 1.4356307 2.89058732 0 .63844157-.0890367 1.12848861-.273322 1.4977494-.3306092.69296793-.9745724 1.10709219-1.9111834 1.22787843l-5.30907302.66397925c-1.75243582.2208662-3.18254493.8089227-4.24753448 1.7469141-1.04635396.9207363-1.55434638 2.196239-1.55434638 3.8982897 0 1.5488248.52386718 2.8015506 1.59713922 3.8285788 1.0794839 1.0325498 2.44195271 1.5357108 4.16332921 1.5357108 1.44253283 0 2.77739336-.3112834 3.97283205-.9248775 1.1995799-.6177354 2.1258379-1.3479745 2.7566871-2.172772l.7095329-.9317795.1628889 1.1609283c.1014605.7157447.269871 1.2658398.5038512 1.6378614.4224067.6660499 1.1050216.9911374 2.0809744.9911374.4451836 0 .7958088-.0172552 1.0435931-.0510753.1842853-.0255377.4382815-.0807542.759918-.1656497v-1.5205262c-.0179453.0013804-.0358907.0041412-.0524557.0055216-.2008503.020016-.3851356.0296789-.5487146.0296789-.6260179 0-1.0636092-.1780734-1.3017306-.5286986-.1960188-.289887-.2981695-.6619086-.2981695-1.1057118v-11.4091233c0-1.70757236-.6294689-2.92578789-1.9277484-3.7243575-1.3652296-.83515059-3.1866862-1.25824754-5.41191386-1.25824754-1.90359117 0-3.59528877.45760731-5.03022933 1.36177861-1.28033416.8075423-1.97744333 2.18519567-2.1203162 4.20405143h2.1686307c.15322598-.9138342.42861861-1.61508461.83307997-2.13412035.8172052-1.06153851 2.1886467-1.60128046 4.07567291-1.60128046zm-2.37638304 19.11666601c-1.95742733 0-3.58769649-.6080725-4.84180279-1.806272-1.25824753-1.2051016-1.89806951-2.7311495-1.89806951-4.5360411 0-1.9719216.63499053-3.5304093 1.88564579-4.6333602 1.2161449-1.0705112 2.82156661-1.73794147 4.77416249-1.9836552l5.30631217-.66466944c.5915075-.07592278.9690508-.30093029 1.1547165-.68537564.0786836-.16219867.1725517-.47486249.1725517-1.0691308 0-.96836055-.3216365-1.6440733-.9835451-2.06509963-.7212664-.46036813-1.796609-.69365813-3.19496863-.69365813-1.5660799 0-2.67869374.41136343-3.30264096 1.22235677-.3506252.4479444-.5839152 1.14850461-.69572875 2.0816646l-.05107533.43137944h-4.04254297l.01242373-.50247077c.06695009-2.60967304.94075228-4.46425951 2.60277097-5.50923305 1.59161756-1.00356112 3.46000817-1.51224375 5.55133568-1.51224375 2.40744236 0 4.40076046.47210165 5.92473776 1.40250082 1.5888567.97940387 2.3950186 2.51373425 2.3950186 4.55950809v11.40912329c0 .2443333.043483.4313795.1290687.5556167.016565.0269181.1456337.1000801.4907373.1000801.1311393 0 .2829849-.0082825.4507052-.0255377.1739322-.0172552.3602881-.0427928.5549265-.0779934l.5756327-.1007702v3.4116936l-.356837.1007703c-.5445734.156677-.9545565.2519256-1.2499651.2926478-.2954086.0393418-.6812344.0593578-1.1761129.0593578-1.319676 0-2.2983896-.486596-2.9085327-1.4466741-.1829049-.2885065-.329919-.6322297-.4444934-1.0394519-.6453436.6322297-1.4535761 1.1981996-2.4143444 1.693078-1.33348011.6839953-2.8201862 1.0318597-4.42008625 1.0318597z"/></g></g></svg>