<svg height="43" viewBox="0 0 157 43" width="157" xmlns="http://www.w3.org/2000/svg"><g fill="#fff" fill-rule="evenodd"><path d="m30.4360375 18.1834115h-13.1074906c-.3382215 0-.6123498.2741283-.6123498.6127829v6.4084529c0 .3377885.2741283.613216.6123498.613216h5.1131642v7.9618467s-1.1480476.3914881-4.3223928.3914881c-3.744688 0-8.97607816-1.3680431-8.97607816-12.8719048 0-11.50602695 5.44748816-13.02001205 10.56151856-13.02001205 4.4271938 0 6.3339663.77907872 7.5478393 1.15497662.3815277.11649371.7340403-.26286869.7340403-.60152326l1.4620176-6.19148886c0-.15850072-.0536997-.34948111-.2338535-.47853362-.4928247-.35164642-3.4995748-2.03409269-11.0954841-2.03409269-8.75001974 0-17.72609791 3.72260182-17.72609791 21.61932626 0 17.8967243 10.27656361 20.5635208 18.93650651 20.5635208 7.1702092 0 11.5198849-3.0639144 11.5198849-3.0639144.1792877-.0991712.1987755-.3494811.1987755-.4642426v-19.9871151c0-.3386546-.2741283-.6127829-.6123498-.6127829"/><path d="m97.9867963 2.27270991c0-.34081988-.2702308-.61581431-.6088853-.61581431h-7.3802443c-.3369224 0-.6110507.27499443-.6110507.61581431 0 .00173224.0021653 14.26290029.0021653 14.26290029h-11.5042947v-14.26290029c0-.34081988-.2710968-.61581431-.6088853-.61581431h-7.3798112c-.3356232 0-.6097515.27499443-.6097515.61581431v38.61961209c0 .3408198.2741283.6179796.6097515.6179796h7.3798112c.3377885 0 .6088853-.2771598.6088853-.6179796v-16.5187208h11.5042947s-.0203539 16.5174216-.0203539 16.5187208c0 .3408198.2736953.6179796.6114837.6179796h7.3975668c.3382215 0 .6084523-.2771598.6093184-.6179796z"/><path d="m44.3628816 7.34083568c0-2.65770212-2.1302324-4.80525708-4.7589194-4.80525708-2.6260886 0-4.7584864 2.14755496-4.7584864 4.80525708 0 2.65467067 2.1323978 4.80785542 4.7584864 4.80785542 2.628687 0 4.7589194-2.15318475 4.7589194-4.80785542"/><path d="m43.835412 32.7459908c0-.98998 0-17.8270014 0-17.8270014 0-.3386546-.2732622-.6153813-.6106176-.6153813h-7.357292c-.3373554 0-.6391997.348182-.6391997.6868365v25.5402705c0 .7504966.4677071.9739567 1.0726949.9739567h6.6284485c.7275443 0 .9059659-.3572763.9059659-.9860824 0-1.3689093 0-6.7319504 0-7.7725986"/><path d="m126.034929 14.3620715h-7.323513c-.335623 0-.609318.2767267-.609318.6171135v18.9365065s-1.860868 1.3611142-4.501681 1.3611142c-2.640379 0-3.341074-1.1982828-3.341074-3.7836636 0-2.5888452 0-16.5139571 0-16.5139571 0-.3403868-.272829-.6171135-.609318-.6171135h-7.433078c-.33519 0-.610185.2767267-.610185.6171135v17.7642074c0 7.6803564 4.280386 9.5594128 10.168732 9.5594128 4.83124 0 8.726201-2.6689617 8.726201-2.6689617s.185351 1.4065857.269365 1.5733146c.083581.1662958.302277.3343239.538729.3343239l4.728605-.02122c.33519 0 .610184-.2771597.610184-.6162474l-.002598-25.9248296c0-.3403868-.273262-.6171135-.611051-.6171135"/><path d="m143.163402 35.2534203c-2.540343-.077085-4.263497-1.2298963-4.263497-1.2298963v-12.2301068s1.699769-1.0419474 3.785396-1.2281641c2.637348-.2360189 5.178557.5603823 5.178557 6.8519085 0 6.6340783-1.146749 7.9436581-4.700456 7.8362587zm2.888524-21.7592052c-4.159562 0-6.988756 1.8561041-6.988756 1.8561041v-13.07760929c0-.34081988-.272829-.61581431-.608886-.61581431h-7.401464c-.336489 0-.609751.27499443-.609751.61581431v38.61961209c0 .3408198.273262.6179796.610617.6179796h5.13525c.231256 0 .406213-.1190921.535698-.327828.127754-.2074368.311805-1.7807514.311805-1.7807514s3.026238 2.8677372 8.755217 2.8677372c6.72632 0 10.583604-3.4116632 10.583604-15.3152412 0-11.9044441-6.160741-13.4600031-10.323334-13.4600031z"/><path d="m65.0467937 14.3001436h-5.5362659s-.0082282-7.31225354-.0082282-7.31355272c0-.27715975-.1429105-.41530656-.4629434-.41530656h-7.5439418c-.2936161 0-.4508176.12905251-.4508176.41097594v7.55779974s-3.7806322.912895-4.0365719.9865155c-.2542074.0736206-.4417233.3083402-.4417233.5885314v4.7493921c0 .341686.2728291.6171135.6101845.6171135h3.8681107v11.4259104c0 8.486718 5.9528716 9.3203626 9.9695226 9.3203626 1.8357503 0 4.0313751-.5893975 4.3938481-.7232137.2191294-.0805496.3464497-.3079072.3464497-.5538865l.0064959-5.2244611c0-.3408199-.2879863-.6166805-.6119167-.6166805-.3230644 0-1.1480477.1312178-1.9977155.1312178-2.71963 0-3.6407531-1.2645413-3.6407531-2.901083 0-1.6352425-.0004331-10.858166-.0004331-10.858166h5.536699c.3373554 0 .6106176-.2754275.6106176-.6171135v-5.9489741c0-.3408199-.2732622-.6153813-.6106176-.6153813"/></g></svg>