<?xml version="1.0" encoding="UTF-8"?>
<svg width="84px" height="84px" viewBox="0 0 84 84" version="1.1" xmlns="http://www.w3.org/2000/svg" xmlns:xlink="http://www.w3.org/1999/xlink">
    <!-- Generator: Sketch 58 (84663) - https://sketch.com -->
    <title>Group 3</title>
    <desc>Created with Sketch.</desc>
    <g id="New_Designs" stroke="none" stroke-width="1" fill="none" fill-rule="evenodd">
        <g id="Web:-Home" transform="translate(-814.000000, -736.000000)" fill="#FFFFFF">
            <g id="Group-3" transform="translate(814.000000, 736.000000)">
                <path d="M67.7386332,0 L67.7386332,6.81471296 L16.2587419,6.81471296 L16.2587419,0 L0,0 L0,16.2597581 L6.81953689,16.2597581 L6.81953689,67.745492 L0,67.745492 L0,84 L16.2587419,84 L16.2587419,78.2589456 L67.7412581,78.2589456 L67.7412581,84 L84,84 L84,67.742867 L78.2514296,67.742867 L78.2514296,16.2597581 L84,16.2597581 L84,0 L67.7386332,0 Z M9.44445486,16.2597581 L16.2587419,16.2597581 L16.2587419,9.43979499 L67.7412581,9.43979499 L67.7412581,16.257133 L75.6291366,16.257133 L75.6291366,67.742867 L67.7412581,67.742867 L67.7412581,75.6312385 L16.2587419,75.6312385 L16.2587419,67.742867 L9.44445486,67.742867 L9.44445486,16.2597581 Z" id="Fill-1"></path>
                <polygon id="Fill-2" points="25.7467709 63 47.4568587 41.2872643 55.638853 49.4692586 63 22 35.5307414 29.3584991 43.7127357 37.5431413 22 59.255877"></polygon>
            </g>
        </g>
    </g>
</svg>