<svg height="446" viewBox="0 0 565 446" width="565" xmlns="http://www.w3.org/2000/svg"><g fill="#e18b96" fill-rule="evenodd"><g transform="translate(72 43)"><path d="m63.6112183 81.2761049c.0167203.0011537.0357469.0011537.0570797.0011537h12.3384375c.0207562 0 .0397828 0 .0559265-.0011537.0230625-.0571083.0547735-.1465204.0951328-.2866954l17.8077094-78.16400274h-10.0022062c-.1083938 0-.1746985.01038333-.2098688.01903611-.0098015.02711204-.0224859.07326019-.0322875.14421296l-.0138375.0755676-13.2609375 62.76148147-2.2457109.0455713-14.529375-57.2237037c-.0432422-.15171204-.083025-.23420185-.1049344-.27285093-.0299812-.00576851-.0812953-.01096018-.1608609-.01096018h-10.378125c-.0795657 0-.1308797.00519167-.1602844.01038333-.0230625.04095648-.064575.13094537-.1147359.30630834l-14.5207266 57.19082314-2.2457109-.0455713-13.2741985-62.83647221c-.0103781-.07152963-.0230625-.11767778-.0322875-.14478982-.0357469-.00865278-.1020515-.01903611-.2098687-.01903611h-10.00278284l17.80770934 78.16400274c.040936.140175.0726469.2295871.0951328.2866954.0167204.0011537.0351704.0011537.0565032.0011537h12.3384375c.0207562 0 .0397828 0 .0559265-.0011537.0247922-.0605694.0588094-.1586343.1037813-.315538l14.1742125-55.9211722h2.2353328l14.1834375 55.9546297c.0397828.136137.0709172.2249722.0939797.2820805zm12.3955172 2.3085611h-12.3384375c-1.8092532 0-2.1926672-1.3440648-2.3771672-1.9901389l-13.0747078-51.5786315-13.0660594 51.5451741c-.1931484.6795315-.5771391 2.0235963-2.3858156 2.0235963h-12.3384375c-1.8092532 0-2.1926672-1.3440648-2.3771672-1.9901389l-.0155672-.0605694-17.86709532-78.42416298c-.25022812-.90911852-.00288281-1.49866111.25022813-1.83438889.378225-.50243796.98073281-.75740648 1.79022656-.75740648h10.26281253c1.3958578 0 2.311439.76605926 2.5190015 2.102625l12.2283141 57.87554625 13.3087922-52.41679717c.1499062-.52493519.577139-2.02301945 2.5017047-2.02301945h10.378125c1.923989 0 2.3517984 1.49808426 2.4924797 1.99013889l13.3174406 52.44967773 12.2288906-57.87554625c.2069859-1.33656574 1.1225672-2.102625 2.5190016-2.102625h10.2628125c.8089172 0 1.411425.25496852 1.7902265.75740648.253111.33572778.4998797.92527037.2502282 1.83438889l-17.8826625 78.48473238c-.1845.6460741-.5684907 1.9901389-2.3771672 1.9901389z"/><path d="m109.969611 45.6281603h30.590676c-2.118867-6.4607408-7.741504-10.267963-15.315229-10.267963-5.755824 0-12.60135 2.7308167-15.275447 10.267963zm33.568622 2.3074074h-36.62498l.380531-1.4473213c2.606063-9.9062769 10.981786-13.4354565 17.951274-13.4354565 9.254981 0 15.967898 5.0330324 17.958192 13.4642991zm-18.293175-23.4201852c-16.302882 0-28.1362503 12.1784963-28.1362503 28.957963 0 8.157262 2.8026703 15.5386583 7.8908343 20.7851259 5.111227 5.2701185 12.342473 8.172837 20.360728 8.172837 13.400466 0 22.099064-5.8308185 26.595099-17.8258759.058232-.175363.094556-.3034241.117618-.4026426h-9.415842c-.254264 0-.340748.0149982-.369.0224972.009802.0017306-.068611.0871047-.214481.3784148-2.984288 6.3303723-8.298464 9.2901991-16.713394 9.2901991-10.25993 0-17.196553-6.1976963-18.555511-16.5787222l-.170662-1.3036852h46.631798v-2.192037c0-17.2536389-11.523178-29.3040741-28.020937-29.3040741zm.115312 60.2233333c-17.706234 0-30.5578123-13.1493379-30.5578123-31.2653703 0-18.1166093 12.8025703-31.2653704 30.4425003-31.2653704 9.047995 0 16.765284 3.2586361 22.318734 9.4234518 5.16427 5.7321769 8.008453 13.6119732 8.008453 22.1880297v2.192037c0 1.4450139-.861961 2.3074074-2.30625 2.3074074h-43.965773c1.583817 8.336663 7.503961 13.2675926 16.060148 13.2675926 7.620427 0 11.998842-2.3898972 14.639499-7.9911287.712631-1.4259778 1.5129-1.6999824 2.657376-1.6999824h9.801563c1.154278 0 1.960312.8064389 1.960312 1.9612963 0 .3547639-.021909.7135657-.289434 1.5176972-4.888097 13.0437741-14.293561 19.3643398-28.769316 19.3643398z"/><path d="m222.796204 35.3600243c-8.962088 0-15.220674 7.4483111-15.220674 18.1131481s6.258586 18.1131482 15.220674 18.1131482c9.104498 0 15.22125-7.2787167 15.22125-18.1131482 0-10.8338546-6.116752-18.1131481-15.22125-18.1131481zm0 38.5337037c-10.319316 0-17.526924-8.3972324-17.526924-20.4205556 0-12.0233231 7.207608-20.4205555 17.526924-20.4205555 10.484212 0 17.5275 8.2062944 17.5275 20.4205555s-7.043288 20.4205556-17.5275 20.4205556zm-16.605.381299 1.958006 1.9070723c4.256761 4.1469879 9.960694 6.2490361 16.953244 6.2490361 15.13073 0 24.9075-11.3662889 24.9075-28.957963 0-17.5910972-9.77677-28.957963-24.9075-28.957963-6.314513 0-11.566997 1.9837936-17.029927 6.4330519l-1.881323 1.5315417v-29.65422319h-8.993799v78.45185189h8.993799zm18.91125 10.4635158c-6.601641 0-12.174694-1.7461306-16.605-5.1957047v1.7345936c0 1.4450139-.861961 2.3074074-2.30625 2.3074074h-8.993799c-1.444289 0-2.30625-.8623935-2.30625-2.3074074v-78.45185189c0-1.44501388.861961-2.3074074 2.30625-2.3074074h8.993799c1.444289 0 2.30625.86239352 2.30625 2.3074074v24.88711949c5.250178-3.7933778 10.456537-5.5048973 16.605-5.5048973 16.276936 0 27.21375 12.5644102 27.21375 31.2653704s-10.936814 31.2653704-27.21375 31.2653704z"/><path d="m273.940238 45.6281603h30.590677c-2.118868-6.4607408-7.741505-10.267963-15.31523-10.267963-5.755823 0-12.60135 2.7308167-15.275447 10.267963zm33.568622 2.3074074h-36.62498l.380532-1.4473213c2.606062-9.9062769 10.981785-13.4354565 17.951273-13.4354565 9.254981 0 15.967898 5.0330324 17.958192 13.4642991zm-18.293175-23.4201852c-16.302881 0-28.13625 12.1784963-28.13625 28.957963 0 8.157262 2.80267 15.5386583 7.890834 20.7851259 5.111227 5.2701185 12.342474 8.172837 20.360728 8.172837 13.400466 0 22.099065-5.8308185 26.595099-17.8258759.058233-.175363.094556-.3034241.117619-.4026426h-9.415843c-.254264 0-.340748.0149982-.369.0224972.009802.0017306-.068034.0871047-.213328.377838-2.984864 6.3309491-8.299617 9.2907759-16.714547 9.2907759-10.259929 0-17.196553-6.1976963-18.55551-16.5787222l-.170663-1.3036852h46.631798v-2.192037c0-17.2536389-11.523178-29.3040741-28.020937-29.3040741zm.115312 60.2233333c-17.706234 0-30.557812-13.1493379-30.557812-31.2653703 0-18.1166093 12.80257-31.2653704 30.4425-31.2653704 9.047995 0 16.765284 3.2586361 22.318734 9.4234518 5.164271 5.7321769 8.008453 13.6119732 8.008453 22.1880297v2.192037c0 1.4450139-.86196 2.3074074-2.30625 2.3074074h-43.965773c1.583817 8.336663 7.503961 13.2675926 16.060148 13.2675926 7.621004 0 11.999419-2.3898972 14.640075-7.9911287.711479-1.4259778 1.511747-1.6999824 2.6568-1.6999824h9.801563c1.154278 0 1.960312.8064389 1.960312 1.9612963 0 .3547639-.021909.7135657-.289434 1.5176972-4.888097 13.0437741-14.293561 19.3643398-28.769316 19.3643398z"/><path d="m330.150815 81.2772009h8.994375v-78.45185183h-8.994375zm8.993799 2.3074074h-8.993799c-1.444289 0-2.30625-.8623935-2.30625-2.3074074v-78.45185183c0-1.44443703.861961-2.3074074 2.30625-2.3074074h8.993799c1.444289 0 2.30625.86297037 2.30625 2.3074074v78.45185183c0 1.4450139-.861961 2.3074074-2.30625 2.3074074z"/><path d="m353.096331 14.3626745h11.53125v-11.537037h-11.53125zm11.53125 2.3074074h-11.53125c-1.444289 0-2.30625-.8623935-2.30625-2.3074074v-11.537037c0-1.44501389.861961-2.30740741 2.30625-2.30740741h11.53125c1.444289 0 2.30625.86239352 2.30625 2.30740741v11.537037c0 1.4450139-.861961 2.3074074-2.30625 2.3074074zm-10.262236 64.6074075h8.994375v-55.6085186h-8.994375zm8.993798 2.3074074h-8.993798c-1.444289 0-2.30625-.8623936-2.30625-2.3074074v-55.6085186c0-1.4450139.861961-2.3074074 2.30625-2.3074074h8.993798c1.444289 0 2.30625.8623935 2.30625 2.3074074v55.6085186c0 1.4450138-.861961 2.3074074-2.30625 2.3074074z"/><path d="m388.441976 45.6281603h30.590676c-2.118867-6.4607408-7.741504-10.267963-15.315229-10.267963-5.755824 0-12.60135 2.7308167-15.275447 10.267963zm33.568622 2.3074074h-36.62498l.380531-1.4473213c2.606063-9.9062769 10.981786-13.4354565 17.951274-13.4354565 9.254981 0 15.967898 5.0330324 17.958192 13.4642991zm-18.293175-23.4201852c-16.302881 0-28.13625 12.1784963-28.13625 28.957963 0 8.157262 2.80267 15.5386583 7.890834 20.7851259 5.111227 5.2701185 12.342474 8.172837 20.360728 8.172837 13.400466 0 22.099064-5.8308185 26.595099-17.8258759.058233-.175363.094556-.3034241.117618-.4026426h-9.415842c-.254264 0-.340748.0149982-.369.0224972.009802.0017306-.068034.0871047-.213328.377838-2.984864 6.3309491-8.299617 9.2907759-16.714547 9.2907759-10.259929 0-17.196553-6.1976963-18.555511-16.5787222l-.170662-1.3036852h46.631798v-2.192037c0-17.2536389-11.523178-29.3040741-28.020937-29.3040741zm.115312 60.2233333c-17.706234 0-30.557812-13.1493379-30.557812-31.2653703 0-18.1166093 12.80257-31.2653704 30.4425-31.2653704 9.047995 0 16.765284 3.2586361 22.318734 9.4234518 5.16427 5.7321769 8.008453 13.6119732 8.008453 22.1880297v2.192037c0 1.4450139-.861961 2.3074074-2.30625 2.3074074h-43.965773c1.583817 8.336663 7.503961 13.2675926 16.060148 13.2675926 7.621003 0 11.999419-2.3898972 14.640075-7.9911287.711478-1.4259778 1.511747-1.6999824 2.6568-1.6999824h9.801563c1.154278 0 1.960312.8064389 1.960312 1.9612963 0 .3547639-.021909.7135657-.289434 1.5176972-4.888097 13.0437741-14.293561 19.3643398-28.769316 19.3643398z"/><path d="m436.300007 26.016351 20.846771 54.8511121c.054773.1246.204103.4101416.306154.4101416h10.378125c.102052 0 .251382-.2855416.323452-.4545592l20.829473-54.8066945c.046125-.1880537.059386-.2630444.062846-.3472648h-9.915146c-.415125 0-.449142.1188315-.505645.3166917l-.022486.0715296-15.961556 44.6892898-15.984042-44.7608194c-.056503-.1978602-.090521-.3166917-.505646-.3166917h-9.915145c.00346.0842204.01672.1592111.062845.3472648m31.53105 57.5686611h-10.378125c-.75299 0-1.78792-.3213065-2.444048-1.853425l-20.913075-55.0241676-.017297-.0663379c-.135492-.5422408-.14933-.7481769-.14933-1.0873658 0-1.331374.859655-2.192037 2.190938-2.192037h10.032187c1.354922 0 2.340844.7101046 2.711574 1.950913l13.778114 38.5769676 13.778114-38.5769676c.37073-1.2408084 1.356652-1.950913 2.711573-1.950913h10.032188c1.330706 0 2.190937.860663 2.190937 2.192037 0 .3391889-.013837.545125-.149329 1.0873658l-.041513.1303685-20.871562 54.9162963c-.673425 1.5759592-1.708931 1.8972657-2.461346 1.8972657"/><path d="m506.982419 45.6281603h30.590676c-2.118867-6.4607408-7.741504-10.267963-15.315229-10.267963-5.755824 0-12.60135 2.7308167-15.275447 10.267963zm33.568622 2.3074074h-36.62498l.380531-1.4473213c2.606063-9.9062769 10.981786-13.4354565 17.951274-13.4354565 9.254981 0 15.967898 5.0330324 17.958192 13.4642991zm-18.293175-23.4201852c-16.302882 0-28.13625 12.1784963-28.13625 28.957963 0 8.157262 2.80267 15.5386583 7.890834 20.7851259 5.111227 5.2701185 12.342473 8.172837 20.360728 8.172837 13.400466 0 22.099064-5.8308185 26.595099-17.8258759.058809-.175363.095132-.3034241.118195-.4026426h-9.416419c-.254264 0-.340748.0149982-.369.0224972.009802.0017306-.068034.0871047-.213328.377838-2.984864 6.3309491-8.299617 9.2907759-16.714547 9.2907759-10.25993 0-17.196553-6.1976963-18.555511-16.5787222l-.170662-1.3036852h46.632375v-2.192037c0-17.2536389-11.523178-29.3040741-28.021514-29.3040741zm.115312 60.2233333c-17.706234 0-30.557812-13.1493379-30.557812-31.2653703 0-18.1166093 12.80257-31.2653704 30.4425-31.2653704 9.047995 0 16.765284 3.2586361 22.319311 9.4234518 5.16427 5.7321769 8.008453 13.6119732 8.008453 22.1880297v2.192037c0 1.4450139-.861961 2.3074074-2.30625 2.3074074h-43.96635c1.583817 8.336663 7.503961 13.2675926 16.060148 13.2675926 7.621003 0 11.999419-2.3898972 14.640075-7.9911287.711478-1.4259778 1.511747-1.6999824 2.6568-1.6999824h9.801563c1.154278 0 1.960889.8064389 1.960889 1.9612963 0 .3547639-.02191.7141426-.290011 1.5188509-4.888097 13.0426204-14.293561 19.3631861-28.769316 19.3631861z"/><path d="m35.3013653 150.730395c-8.9620875 0-15.22125 7.448311-15.22125 18.113148s6.2591625 18.113148 15.22125 18.113148c9.1044984 0 15.22125-7.278717 15.22125-18.113148 0-10.833855-6.1167516-18.113148-15.22125-18.113148zm0 38.533703c-10.3198922 0-17.5275-8.397232-17.5275-20.420555 0-12.022747 7.2076078-20.420556 17.5275-20.420556 10.4836359 0 17.5275 8.206872 17.5275 20.420556 0 12.214261-7.0438641 20.420555-17.5275 20.420555zm-25.59937499 30.227037h8.99437499v-29.654223l1.8807469 1.532119c5.4635062 4.448681 10.715414 6.433052 17.0305031 6.433052 15.1307297 0 24.9075-11.366866 24.9075-28.95854 0-17.591097-9.7767703-28.957963-24.9075-28.957963-6.9931266 0-12.6970594 2.102625-16.9538203 6.249036l-1.9574297 1.907072v-7.002404h-8.99437499zm8.99437499 2.307408h-8.99437499c-1.44428906 0-2.30625-.862394-2.30625-2.307408v-78.451851c0-1.445014.86196094-2.307408 2.30625-2.307408h8.99437499c1.4442891 0 2.30625.862394 2.30625 2.307408v1.734593c4.4297297-3.449574 10.0027828-5.195705 16.605-5.195705 16.2769359 0 27.21375 12.564411 27.21375 31.265371s-10.9368141 31.265947-27.21375 31.265947c-6.1490391 0-11.3553984-1.711519-16.605-5.504897v24.886542c0 1.445014-.8619609 2.307408-2.30625 2.307408z"/><path d="m75.1983372 141.03911v37.726688c0 12.097737 6.8512922 19.036112 18.796514 19.036112 6.7307908 0 12.4681638-2.348941 17.5396078-7.180652l1.948205-1.856886v7.883834h8.993798v-55.609096h-8.993798v27.343355c0 14.424757-8.339977 20.88146-16.6050003 20.88146-8.1802687 0-12.6849515-4.916508-12.6849515-13.844444v-34.380371zm18.796514 59.070207c-13.2136593 0-21.102764-7.979015-21.102764-21.343519v-37.726688c0-1.444437.8619609-2.307407 2.30625-2.307407h8.994375c1.444289 0 2.30625.86297 2.30625 2.307407v34.380371c0 7.655978 3.4916625 11.537037 10.3787015 11.537037 9.8776683 0 14.2987503-9.328848 14.2987503-18.574053v-27.343355c0-1.444437.861961-2.307407 2.30625-2.307407h8.993798c1.444289 0 2.30625.86297 2.30625 2.307407v55.609096c0 1.445014-.861961 2.307407-2.30625 2.307407h-8.993798c-1.444289 0-2.30625-.862393-2.30625-2.307407v-2.63679c-5.03685 4.098532-10.681974 6.097901-17.1815628 6.097901z"/><path d="m132.854068 149.576922h11.300625v31.034052c0 10.764633 6.637964 17.190762 17.758125 17.190762 4.150097 0 8.632294-.722795 11.69903-1.886305.124537-.046725.163744-.079029.16432-.079606.013838-.067491.013838-.475326.013838-.803554v-7.704434c-.025369.008076-.055927.017883-.09571.031727-4.261373 1.584035-7.274489 1.904188-10.743665 1.904188-8.100703 0-9.801563-5.771403-9.801563-10.613497v-29.073333h19.487813v-8.537408h-19.487813v-17.767037h-8.994375v17.767037h-11.300625zm29.05875 50.532222c-12.375914 0-20.064375-7.471385-20.064375-19.49817v-28.726645h-8.994375c-1.444289 0-2.30625-.86297-2.30625-2.307407v-8.537408c0-1.445014.861961-2.307407 2.30625-2.307407h8.994375v-15.45963c0-1.445014.861961-2.307407 2.30625-2.307407h8.994375c1.444289 0 2.30625.862393 2.30625 2.307407v15.45963h17.181563c1.444289 0 2.30625.862393 2.30625 2.307407v8.537408c0 1.444437-.861961 2.307407-2.30625 2.307407h-17.181563v26.765926c0 5.744291 2.312016 8.30609 7.495313 8.30609 3.213183 0 6.002592-.296502 9.976837-1.773243.522942-.175363.770864-.187477 1.093163-.187477 1.183106 0 2.075625.942576 2.075625 2.192037v7.844609c0 1.076405 0 2.415855-1.671455 3.042316-3.355594 1.273689-8.034398 2.034557-12.511983 2.034557z"/><path d="m180.131617 149.576922h11.300625v31.034052c0 10.764633 6.63854 17.190762 17.758701 17.190762 4.149521 0 8.632294-.722795 11.69903-1.886305.123961-.046725.163167-.079029.163744-.079029.013837-.068068.013837-.475903.013837-.804131v-7.704434c-.025369.008076-.055926.017883-.095709.031727-4.261374 1.584035-7.274489 1.904188-10.743666 1.904188-8.100703 0-9.801562-5.771403-9.801562-10.613497v-29.073333h19.487812v-8.537408h-19.487812v-17.767037h-8.994375v17.767037h-11.300625zm29.059326 50.532222c-12.37649 0-20.064951-7.471385-20.064951-19.49817v-28.726645h-8.994375c-1.444289 0-2.30625-.86297-2.30625-2.307407v-8.537408c0-1.445014.861961-2.307407 2.30625-2.307407h8.994375v-15.45963c0-1.445014.861961-2.307407 2.30625-2.307407h8.994375c1.444289 0 2.30625.862393 2.30625 2.307407v15.45963h17.181562c1.444289 0 2.30625.862393 2.30625 2.307407v8.537408c0 1.444437-.861961 2.307407-2.30625 2.307407h-17.181562v26.765926c0 5.744291 2.312015 8.30609 7.495312 8.30609 3.213183 0 6.002592-.296502 9.976838-1.773243.522942-.175363.770864-.187477 1.093739-.187477 1.182529 0 2.075048.942576 2.075048 2.192037v7.844609c0 1.076405 0 2.415278-1.670301 3.042316-3.356747 1.273689-8.035552 2.034557-12.51256 2.034557z"/><path d="m231.099742 129.733045h11.53125v-11.537037h-11.53125zm11.53125 2.307407h-11.53125c-1.444289 0-2.30625-.862393-2.30625-2.307407v-11.537037c0-1.445014.861961-2.307408 2.30625-2.307408h11.53125c1.444289 0 2.30625.862394 2.30625 2.307408v11.537037c0 1.445014-.861961 2.307407-2.30625 2.307407zm-10.262813 64.607408h8.994952v-55.608519h-8.994952zm8.994375 2.307407h-8.994375c-1.444289 0-2.30625-.862393-2.30625-2.307407v-55.608519c0-1.445014.861961-2.307407 2.30625-2.307407h8.994375c1.444289 0 2.30625.862393 2.30625 2.307407v55.608519c0 1.445014-.861961 2.307407-2.30625 2.307407z"/><path d="m294.866459 196.648206h8.994375v-37.726688c0-12.097737-6.850716-19.036111-18.795938-19.036111-6.731367 0-12.46874 2.34894-17.540184 7.181228l-1.948205 1.85631v-7.883835h-8.993798v55.609096h8.993798v-27.343355c0-14.424757 8.339977-20.882037 16.605577-20.882037 8.179692 0 12.684375 4.917085 12.684375 13.844445zm8.994375 2.307407h-8.994375c-1.444289 0-2.30625-.862393-2.30625-2.307407v-34.380947c0-7.655401-3.491663-11.537037-10.378125-11.537037-9.877669 0-14.299327 9.329425-14.299327 18.574629v27.343355c0 1.445014-.861961 2.307407-2.30625 2.307407h-8.993798c-1.444289 0-2.30625-.862393-2.30625-2.307407v-55.609096c0-1.444437.861961-2.307407 2.30625-2.307407h8.993798c1.444289 0 2.30625.86297 2.30625 2.307407v2.637367c5.03685-4.099109 10.681974-6.098478 17.182139-6.098478 13.21366 0 21.102188 7.979015 21.102188 21.343519v37.726688c0 1.445014-.861961 2.307407-2.30625 2.307407z"/><path d="m344.450891 150.730395c-9.246332 0-14.990625 6.675329-14.990625 17.420926 0 10.745596 5.744293 17.420925 14.990625 17.420925 9.246333 0 14.990625-6.675329 14.990625-17.420925 0-10.745597-5.744292-17.420926-14.990625-17.420926zm0 37.149259c-10.669289 0-17.296875-7.559067-17.296875-19.728333 0-12.169267 6.627586-19.728334 17.296875-19.728334s17.296875 7.559067 17.296875 19.728334c0 12.169266-6.627586 19.728333-17.296875 19.728333zm-23.633873 14.421296c1.086244 11.147662 10.304902 18.343889 23.519137 18.343889 16.909425 0 25.483486-9.237705 25.483486-27.457571v-52.147984h-8.994375v6.228269l-1.910728-1.667102c-4.531204-3.952012-9.632053-5.714871-16.539272-5.714871-15.130729 0-24.9075 11.095168-24.9075 28.265741 0 16.90695 10.009702 28.26574 24.9075 28.26574 7.072693 0 11.409596-1.473279 16.573866-5.629497l1.876134-1.509621v5.063028c0 11.290722-5.884396 17.766461-16.14375 17.766461-8.412623 0-13.688746-3.406311-14.854556-9.59247-.013837-.090566-.025945-.160365-.0369-.214012zm23.519137 20.651296c-14.53341 0-24.670532-8.063812-25.825387-20.544578l-.005189-.106718c0-1.444437.861961-2.307407 2.30625-2.307407h8.994951c1.987988 0 2.218613 1.614031 2.294143 2.144158 1.194061 6.324604 7.501654 7.662323 12.580593 7.662323 8.923458 0 13.8375-5.489899 13.8375-15.459053v-.331689c-4.856386 3.450727-9.336276 4.715187-16.14375 4.715187-16.276936 0-27.21375-12.286368-27.21375-30.573148 0-18.572323 10.68255-30.573149 27.21375-30.573149 6.464419 0 11.658094 1.522312 16.14375 4.762489v-1.301377c0-1.445014.862538-2.307408 2.30625-2.307408h8.994375c1.444289 0 2.30625.862394 2.30625 2.307408v52.147984c0 19.472211-9.609567 29.764978-27.789736 29.764978z"/><path d="m410.061052 149.576806h11.300625v31.03463c0 10.764055 6.63854 17.190185 17.758125 17.190185 4.150097 0 8.63287-.722218 11.699029-1.886305.124538-.046725.163168-.079029.163744-.079029.014414-.068069.014414-.475903.014414-.803555v-7.70501c-.025369.008076-.056503.017882-.096286.031727-4.261373 1.584035-7.274489 1.904765-10.743089 1.904765-8.101279 0-9.801562-5.77198-9.801562-10.614074v-29.073334h19.487812v-8.537407h-19.487812v-17.767037h-8.994375v17.767037h-11.300625zm29.05875 50.532223c-12.375914 0-20.064375-7.471386-20.064375-19.497593v-28.727222h-8.994375c-1.444289 0-2.30625-.862394-2.30625-2.307408v-8.537407c0-1.445014.861961-2.307408 2.30625-2.307408h8.994375v-15.459629c0-1.445014.861961-2.307408 2.30625-2.307408h8.994375c1.444289 0 2.30625.862394 2.30625 2.307408v15.459629h17.181562c1.443713 0 2.30625.862394 2.30625 2.307408v8.537407c0 1.445014-.862537 2.307408-2.30625 2.307408h-17.181562v26.765926c0 5.74429 2.311439 8.306666 7.495312 8.306666 3.212606 0 6.002592-.297078 9.976261-1.773819.525825-.175363.762216-.187477 1.093739-.187477 1.183106 0 2.075625.942576 2.075625 2.192037v7.845185c0 1.075829 0 2.414702-1.670878 3.04174-3.355594 1.273689-8.034398 2.034557-12.512559 2.034557z"/><path d="m502.426768 196.64786h8.994375v-37.495371c0-12.604213-6.778646-19.266852-19.603125-19.266852-7.67693 0-12.711474 3.110386-17.910338 7.780578l-1.923412 1.728248v-31.198455h-8.994375v78.451852h8.994375v-27.342778c0-6.454395 1.840964-11.85719 5.322825-15.622879 3.135923-3.391312 7.429008-5.259158 12.089362-5.259158 8.525053 0 13.030313 4.707688 13.030313 13.613704zm8.994375 2.307407h-8.994375c-1.444289 0-2.30625-.862393-2.30625-2.307407v-34.611111c0-7.608099-3.507806-11.306297-10.724063-11.306297-7.518951 0-15.105937 5.743714-15.105937 18.57463v27.342778c0 1.445014-.861961 2.307407-2.30625 2.307407h-8.994375c-1.444289 0-2.30625-.862393-2.30625-2.307407v-78.451852c0-1.445014.861961-2.307408 2.30625-2.307408h8.994375c1.444289 0 2.30625.862394 2.30625 2.307408v26.09274c4.44299-3.658972 9.771581-6.710518 17.5275-6.710518 14.128664 0 21.909375 7.661746 21.909375 21.574259v37.495371c0 1.445014-.861961 2.307407-2.30625 2.307407z"/><path d="m3.47517297 264.947004h11.30062503v31.034629c0 10.764056 6.6385406 17.190762 17.758125 17.190762 4.1500968 0 8.6328703-.722795 11.6984531-1.886882.1251141-.046725.1643203-.079029.1643203-.079029.0144141-.068068.0144141-.475903.0144141-.803554v-7.705011c-.0253688.008076-.0565032.01846-.096286.031727-4.2613734 1.584035-7.274489 1.904765-10.743089 1.904765-8.1012797 0-9.8015625-5.77198-9.8015625-10.614074v-29.073333h19.4878125v-8.537408h-19.4878125v-17.767037h-8.994375v17.767037h-11.30062503zm29.05875003 50.532799c-12.3764907 0-20.064375-7.471386-20.064375-19.49817v-28.727222h-8.99437503c-1.44428906 0-2.30625-.862394-2.30625-2.307407v-8.537408c0-1.445014.86196094-2.307407 2.30625-2.307407h8.99437503v-15.45963c0-1.444437.8619609-2.307407 2.30625-2.307407h8.994375c1.444289 0 2.30625.86297 2.30625 2.307407v15.45963h17.1815625c1.444289 0 2.30625.862393 2.30625 2.307407v8.537408c0 1.445013-.861961 2.307407-2.30625 2.307407h-17.1815625v26.765926c0 5.744291 2.311439 8.306667 7.4953125 8.306667 3.2126062 0 6.0020156-.297079 9.9768375-1.773243.5229422-.175363.7702875-.188054 1.0931625-.188054 1.1831062 0 2.075625.942576 2.075625 2.192037v7.845186c0 1.075828 0 2.415278-1.6714547 3.041739-3.3555938 1.273689-8.0343985 2.035134-12.5119828 2.035134z"/><path d="m56.1733314 312.017942h8.994375v-30.11109c0-11.172467 5.4346781-18.113725 14.1834375-18.113725 4.8806016 0 7.9496438 1.073521 12.5742516 3.328435.0403593.015575.0766828.029996.1101234.042687v-.025381-9.11426c0-.741831 0-.741831-.6584344-1.004876-3.3284953-1.232732-6.278189-1.763436-9.8350031-1.763436-6.8760844 0-11.6160047 3.503798-14.3811984 6.443435l-1.9931766 2.1182v-7.407931h-8.994375zm8.994375 2.307407h-8.994375c-1.4442891 0-2.30625-.862393-2.30625-2.307407v-55.607942c0-1.445014.8619609-2.307407 2.30625-2.307407h8.994375c1.4442891 0 2.30625.862393 2.30625 2.307407v1.805546c4.0440094-3.455919 8.8583063-5.266657 14.068125-5.266657 3.7949344 0 7.0842234.591273 10.6635234 1.917455 1.7833079.712989 2.1361641 1.736325 2.1361641 3.158264v9.11426c0 1.788817-1.1185312 2.422777-2.075625 2.422777-.3067312 0-.5702203-.046725-1.2355734-.313807l-.0772594-.033457c-4.4118563-2.153388-7.1332313-3.113847-11.6021672-3.113847-7.4370797 0-11.8771875 5.909271-11.8771875 15.806318v30.11109c0 1.445014-.8619609 2.307407-2.30625 2.307407z"/><path d="m120.055476 287.559769c-2.569739 0-10.954687.54051-10.954687 7.499074 0 4.686922 3.316964 7.268334 9.340312 7.268334 7.341947 0 14.747892-3.919709 15.199341-12.647477-4.911736-1.462896-8.211403-2.119931-13.584966-2.119931m-1.614375 17.074815c-7.292362 0-11.646562-3.579366-11.646562-9.575741 0-6.048868 5.081245-9.806481 13.260937-9.806481 5.967999 0 9.479841.762598 15.09556 2.472964l.817565.2492v.854317c0 9.306351-7.207608 15.805741-17.5275 15.805741m1.037813-27.458148c-16.512174 0-22.3706253 9.881472-22.3706253 18.343889 0 12.127733 10.2218763 17.651666 19.7184373 17.651666 7.537978 0 12.677456-1.869 17.185022-6.250189l1.956853-1.901304v6.99779h11.026758c-1.56825-2.984632-2.032383-5.506628-2.032383-10.614074v-25.842963c0-12.524608-8.61615-20.305185-22.485937-20.305185-11.832216 0-20.380332 6.012526-22.8658924 16.082629-.0345938.137291-.0541969.28035-.0651516.414757l9.324169.000577c.316533 0 .389179-.034035.400711-.040957 0 0 .059386-.050186.134339-.248623 2.155767-5.330111 6.671981-8.132458 13.071825-8.132458 8.44837 0 13.491562 4.873245 13.491562 13.036852v3.620899l-1.480036-.43783c-5.32859-1.575383-9.113147-2.375476-15.009651-2.375476m-2.652188 38.302963c-5.835389 0-11.244698-1.803816-15.232204-5.078604-4.4441442-3.649165-6.7924833-8.79526-6.7924833-14.88047 0-12.352129 9.9168753-20.651296 24.6768753-20.651296 5.573053 0 9.464273.714142 14.183437 2.042632v-.542818c0-6.818965-4.07745-10.729444-11.185312-10.729444-5.460047 0-9.135057 2.241646-10.923553 6.662639-.659588 1.759398-2.129822 1.759398-2.683322 1.759398h-9.6862503c-1.1358281 0-1.9603125-.776443-1.9603125-1.845926 0-.269967 0-.833551.1493297-1.432323 1.2655547-5.128213 4.0918641-9.493251 8.1721971-12.621519 4.449333-3.410348 10.304325-5.21301 16.931911-5.21301 15.292743 0 24.792187 8.664892 24.792187 22.612593v25.842963c0 5.510089.602508 7.475423 2.043914 10.05049.53678.939691.300389 1.629029.1107 1.955527-.242156.417641-.772593.915464-1.923989.915464h-11.53125c-1.444289 0-2.30625-.862393-2.30625-2.307407v-1.717865c-4.495458 3.566098-9.798679 5.178976-16.835625 5.178976"/><path d="m151.946013 256.756803 20.84677 54.851689c.054774.1246.20468.410142.306155.410142h10.378125c.102052 0 .251381-.285542.324028-.454559l20.828897-54.807272c.046125-.187477.059386-.263044.062845-.347264h-9.915145c-.415125 0-.449142.118831-.505645.316691l-.022486.07153-15.961557 44.68929-15.984042-44.76082c-.056503-.19786-.09052-.316691-.505645-.316691h-9.915145c.003459.08422.01672.159787.062845.347264m31.53105 57.569238h-10.378125c-.752414 0-1.78792-.321883-2.443472-1.852848l-20.913651-55.024744-.017297-.066338c-.135493-.542241-.14933-.748177-.14933-1.087943 0-1.331374.860231-2.192037 2.190937-2.192037h10.032188c1.354922 0 2.340844.710682 2.711573 1.950913l13.778114 38.576968 13.778115-38.576391c.370153-1.240808 1.356651-1.95149 2.711573-1.95149h10.032187c1.331283 0 2.190938.860663 2.190938 2.192037 0 .339766-.013838.545702-.14933 1.087943l-.041512.130368-20.871563 54.916297c-.673425 1.575382-1.708354 1.897265-2.461345 1.897265"/><path d="m222.629001 276.368613h30.5901c-2.118291-6.460164-7.741505-10.267963-15.31523-10.267963-5.755247 0-12.600773 2.730816-15.27487 10.267963zm33.568045 2.307407h-36.624403l.380531-1.447321c2.606063-9.906277 10.98121-13.435457 17.950697-13.435457 9.255558 0 15.968475 5.033609 17.958192 13.463722zm-18.293175-23.420185c-16.302881 0-28.13625 12.179073-28.13625 28.95854 0 8.156685 2.80267 15.538658 7.890834 20.785126 5.111227 5.270695 12.342474 8.172837 20.360729 8.172837 13.400465 0 22.09964-5.831396 26.595098-17.826453.058809-.174786.095133-.303424.118195-.402066l-9.416418-.000577c-.254264 0-.340749.015575-.369.022497.009801.001731-.068035.087105-.213329.378415-2.984287 6.330372-8.29904 9.290199-16.714546 9.290199-10.25993 0-17.196554-6.197696-18.555511-16.578722l-.170663-1.303685h46.632375v-2.192037c0-17.253639-11.523178-29.304074-28.021514-29.304074zm.115313 60.22391c-17.706235 0-30.557813-13.149338-30.557813-31.26537 0-18.11661 12.80257-31.265948 30.4425-31.265948 9.047995 0 16.765861 3.258637 22.319311 9.423452 5.16427 5.732754 8.008453 13.61255 8.008453 22.18803v2.192037c0 1.445014-.861961 2.307407-2.30625 2.307407h-43.96635c1.583241 8.336663 7.504538 13.267593 16.060149 13.267593 7.621003 0 11.999418-2.389897 14.640075-7.991706.711478-1.424824 1.511746-1.699405 2.6568-1.699405h9.801562c1.154278 0 1.960889.807016 1.960889 1.961873 0 .354764-.021909.714143-.290011 1.518274-4.888097 13.043197-14.293561 19.363763-28.769315 19.363763z"/><path d="m279.416083 312.018519h8.994375v-78.451852h-8.994375zm8.993798 2.307407h-8.993798c-1.444289 0-2.30625-.862394-2.30625-2.307407v-78.451852c0-1.445014.861961-2.307408 2.30625-2.307408h8.993798c1.444289 0 2.30625.862394 2.30625 2.307408v78.451852c0 1.445013-.861961 2.307407-2.30625 2.307407z"/><path d="m304.32243 312.018519h8.994951v-78.451852h-8.994951zm8.994951 2.307407h-8.994951c-1.444289 0-2.30625-.862394-2.30625-2.307407v-78.451852c0-1.445014.861961-2.307408 2.30625-2.307408h8.994951c1.443713 0 2.30625.862394 2.30625 2.307408v78.451852c0 1.445013-.862537 2.307407-2.30625 2.307407z"/><path d="m340.015742 276.368613h30.5901c-2.118291-6.460164-7.741505-10.267963-15.31523-10.267963-5.755247 0-12.600773 2.730816-15.27487 10.267963zm33.568045 2.307407h-36.624403l.380531-1.447321c2.606063-9.906277 10.98121-13.435457 17.950697-13.435457 9.255558 0 15.968475 5.033609 17.958193 13.463722zm-18.293175-23.420185c-16.302881 0-28.13625 12.179073-28.13625 28.95854 0 8.156685 2.802671 15.538658 7.890835 20.785126 5.111226 5.270695 12.342473 8.172837 20.360728 8.172837 13.400465 0 22.09964-5.831396 26.595098-17.826453.05881-.174786.095133-.303424.118196-.402066l-9.416419-.000577c-.254264 0-.340749.015575-.369.022497.009801.001731-.068035.087105-.213328.378415-2.984288 6.330372-8.299041 9.290199-16.714547 9.290199-10.25993 0-17.196553-6.197696-18.555511-16.578722l-.170663-1.303685h46.632375v-2.192037c0-17.253639-11.523178-29.304074-28.021514-29.304074zm.115313 60.22391c-17.706235 0-30.557813-13.149338-30.557813-31.26537 0-18.11661 12.802571-31.265948 30.4425-31.265948 9.047996 0 16.765861 3.258637 22.319311 9.423452 5.164271 5.732754 8.008453 13.61255 8.008453 22.18803v2.192037c0 1.445014-.861961 2.307407-2.30625 2.307407h-43.96635c1.583241 8.336663 7.504538 13.267593 16.060149 13.267593 7.621003 0 11.999419-2.389897 14.640075-7.991706.711478-1.424824 1.511747-1.699405 2.6568-1.699405h9.801562c1.154278 0 1.960889.807016 1.960889 1.961873 0 .354764-.021909.714143-.290011 1.518274-4.888096 13.043197-14.29356 19.363763-28.769315 19.363763z"/><path d="m397.263786 312.017942h8.994375v-30.11109c0-11.172467 5.434678-18.113725 14.183437-18.113725 4.880602 0 7.949644 1.073521 12.574828 3.328435.039783.015575.076683.029996.109547.042687v-.025381-9.11426c0-.741254 0-.741254-.658434-1.004876-3.328495-1.232732-6.278189-1.763436-9.835003-1.763436-6.876085 0-11.616005 3.503798-14.381775 6.443435l-1.9926 2.1182v-7.407931h-8.994375zm8.994375 2.307407h-8.994375c-1.444289 0-2.30625-.862393-2.30625-2.307407v-55.607942c0-1.445014.861961-2.307407 2.30625-2.307407h8.994375c1.443712 0 2.30625.862393 2.30625 2.307407v1.805546c4.044009-3.455919 8.858306-5.266657 14.068125-5.266657 3.795511 0 7.084223.591273 10.662947 1.918032 1.783884.712989 2.13674 1.735748 2.13674 3.157687v9.11426c0 1.788817-1.117954 2.422777-2.075625 2.422777-.307308 0-.57022-.046725-1.235573-.313807l-.07726-.033457c-4.411279-2.153388-7.133231-3.113847-11.602167-3.113847-7.437079 0-11.877187 5.909271-11.877187 15.806318v30.11109c0 1.445014-.862538 2.307407-2.30625 2.307407z"/><path d="m479.479869 312.01823h8.993798v-47.071111h17.989327v-8.537407h-17.989327v-5.422408c0-8.295706 4.515061-10.037222 8.303077-10.037222 2.988323 0 5.880361.449368 10.262812 2.632752v-8.2859c0-.303424 0-.678955-.039206-.783365-.004613 0-.059963-.050763-.217941-.131522-3.021764-1.288687-6.878967-1.969372-11.15879-1.969372-9.958388 0-16.14375 6.409977-16.14375 16.728703v7.268334h-10.609327v8.537407h10.609327zm8.993798 2.307407h-8.993798c-1.444289 0-2.30625-.86297-2.30625-2.307407v-44.763704h-8.303077c-1.444289 0-2.30625-.862393-2.30625-2.307407v-8.537407c0-1.445014.861961-2.307408 2.30625-2.307408h8.303077v-4.960926c0-11.564149 7.241625-19.036111 18.45-19.036111 4.605004 0 8.789695.749908 12.100893 2.170117l.061116.028266c1.560178.78048 1.560178 1.905341 1.560178 2.993284v8.422037c0 1.359063-.806611 2.307407-1.960889 2.307407-.427233 0-.720127-.050763-1.323211-.353033-4.008262-2.005137-6.610866-2.415856-9.284962-2.415856-2.574352 0-5.996827.801248-5.996827 7.729815v3.115h15.683077c1.443712 0 2.30625.862394 2.30625 2.307408v8.537407c0 1.445014-.862538 2.307407-2.30625 2.307407h-15.683077v44.763704c0 1.444437-.861961 2.307407-2.30625 2.307407z"/></g><path d="m31 3v413h681v-2.31049h-678.6954315v-408.37902049h678.6954315v-2.31048951z"/><path d="m456 442h2v-28h-2z"/><path d="m457.052942 445.583106c-1.910729 0-3.459375-1.550001-3.459375-3.461112 0-1.911687 1.548646-3.461111 3.459375-3.461111 1.910151 0 3.459375 1.549424 3.459375 3.461111 0 1.911111-1.549224 3.461112-3.459375 3.461112"/><path d="m28.196875 417.157577h6.91875v-6.922222h-6.91875z"/><path d="m28.196875 7.7537037h6.91875v-6.92222222h-6.91875z"/><path d="m3.98240312 187.15463h27.67384688v-2.307408h-27.67384688z"/><path d="m.52302812 186.000926c0-1.911687 1.54864688-3.461111 3.459375-3.461111 1.91072813 0 3.459375 1.549424 3.459375 3.461111s-1.54864687 3.461111-3.459375 3.461111c-1.91072812 0-3.459375-1.549424-3.459375-3.461111"/></g></svg>