<?xml version="1.0" encoding="UTF-8"?>
<svg width="565px" height="446px" viewBox="0 0 565 446" version="1.1" xmlns="http://www.w3.org/2000/svg" xmlns:xlink="http://www.w3.org/1999/xlink">
    <!-- Generator: Sketch 58 (84663) - https://sketch.com -->
    <title>Group 56</title>
    <desc>Created with Sketch.</desc>
    <g id="New_Designs" stroke="none" stroke-width="1" fill="none" fill-rule="evenodd">
        <g id="Guidelines-TOV" transform="translate(-875.000000, -95.000000)" fill="#E18B96">
            <g id="Group" transform="translate(480.000000, 0.000000)">
                <g id="Group-56" transform="translate(395.000000, 95.000000)">
                    <g id="Group-2">
                        <g id="Group-44" transform="translate(72.000000, 43.000000)">
                            <path d="M63.6112183,81.2761049 C63.6279386,81.2772586 63.6469652,81.2772586 63.668298,81.2772586 L76.0067355,81.2772586 C76.0274917,81.2772586 76.0465183,81.2772586 76.062662,81.2761049 C76.0857245,81.2189966 76.1174355,81.1295845 76.1577948,80.9894095 L93.9655042,2.82540676 L83.963298,2.82540676 C83.8549042,2.82540676 83.7885995,2.83579009 83.7534292,2.84444287 C83.7436277,2.87155491 83.7309433,2.91770306 83.7211417,2.98865583 L83.7073042,3.06422343 L70.4463667,65.8257049 L68.2006558,65.8712762 L53.6712808,8.6475725 C53.6280386,8.49586046 53.5882558,8.41337065 53.5663464,8.37472157 C53.5363652,8.36895306 53.4850511,8.36376139 53.4054855,8.36376139 L43.0273605,8.36376139 C42.9477948,8.36376139 42.8964808,8.36895306 42.8670761,8.37414472 C42.8440136,8.4151012 42.8025011,8.50509009 42.7523402,8.68045306 L28.2316136,65.8712762 L25.9859027,65.8257049 L12.7117042,2.98923269 C12.7013261,2.91770306 12.6886417,2.87155491 12.6794167,2.84444287 C12.6436698,2.83579009 12.5773652,2.82540676 12.469548,2.82540676 L2.46676516,2.82540676 L20.2744745,80.9894095 C20.3154105,81.1295845 20.3471214,81.2189966 20.3696073,81.2761049 C20.3863277,81.2772586 20.4047777,81.2772586 20.4261105,81.2772586 L32.764548,81.2772586 C32.7853042,81.2772586 32.8043308,81.2772586 32.8204745,81.2761049 C32.8452667,81.2155355 32.8792839,81.1174706 32.9242558,80.9605669 L47.0984683,25.0393947 L49.3338011,25.0393947 L63.5172386,80.9940244 C63.5570214,81.1301614 63.5881558,81.2189966 63.6112183,81.2761049 L63.6112183,81.2761049 Z M76.0067355,83.584666 L63.668298,83.584666 C61.8590448,83.584666 61.4756308,82.2406012 61.2911308,81.5945271 L48.216423,30.0158956 L35.1503636,81.5610697 C34.9572152,82.2406012 34.5732245,83.584666 32.764548,83.584666 L20.4261105,83.584666 C18.6168573,83.584666 18.2334433,82.2406012 18.0489433,81.5945271 L18.0333761,81.5339577 L0.166280781,3.10979472 C-0.0839473438,2.2006762 0.163397969,1.61113361 0.416508906,1.27540583 C0.794733906,0.77296787 1.39724172,0.517999352 2.20673547,0.517999352 L12.469548,0.517999352 C13.8654058,0.517999352 14.780987,1.28405861 14.9885495,2.62062435 L27.2168636,60.4961706 L40.5256558,8.07937343 C40.675562,7.55443824 41.1027948,6.05635398 43.0273605,6.05635398 L53.4054855,6.05635398 C55.3294745,6.05635398 55.7572839,7.55443824 55.8979652,8.04649287 L69.2154058,60.4961706 L81.4442964,2.62062435 C81.6512823,1.28405861 82.5668636,0.517999352 83.963298,0.517999352 L94.2261105,0.517999352 C95.0350277,0.517999352 95.6375355,0.77296787 96.016337,1.27540583 C96.269448,1.61113361 96.5162167,2.2006762 96.2665652,3.10979472 L78.3839027,81.5945271 C78.1994027,82.2406012 77.815412,83.584666 76.0067355,83.584666 L76.0067355,83.584666 Z" id="Fill-1"></path>
                            <path d="M109.969611,45.6281603 L140.560287,45.6281603 C138.44142,39.1674195 132.818783,35.3601973 125.245058,35.3601973 C119.489234,35.3601973 112.643708,38.091014 109.969611,45.6281603 L109.969611,45.6281603 Z M143.538233,47.9355677 L106.913253,47.9355677 L107.293784,46.4882464 C109.899847,36.5819695 118.27557,33.0527899 125.245058,33.0527899 C134.500039,33.0527899 141.212956,38.0858223 143.20325,46.517089 L143.538233,47.9355677 Z M125.245058,24.5153825 C108.942176,24.5153825 97.1088077,36.6938788 97.1088077,53.4733455 C97.1088077,61.6306075 99.911478,69.0120038 104.999642,74.2584714 C110.110869,79.5285899 117.342115,82.4313084 125.36037,82.4313084 C138.760836,82.4313084 147.459434,76.6004899 151.955469,64.6054325 C152.013701,64.4300695 152.050025,64.3020084 152.073087,64.2027899 L142.657245,64.2027899 C142.402981,64.2027899 142.316497,64.2177881 142.288245,64.2252871 C142.298047,64.2270177 142.219634,64.3123918 142.073764,64.6037019 C139.089476,70.9340742 133.7753,73.893901 125.36037,73.893901 C115.10044,73.893901 108.163817,67.6962047 106.804859,57.3151788 L106.634197,56.0114936 L153.265995,56.0114936 L153.265995,53.8194566 C153.265995,36.5658177 141.742817,24.5153825 125.245058,24.5153825 L125.245058,24.5153825 Z M125.36037,84.7387158 C107.654136,84.7387158 94.8025577,71.5893779 94.8025577,53.4733455 C94.8025577,35.3567362 107.605128,22.2079751 125.245058,22.2079751 C134.293053,22.2079751 142.010342,25.4666112 147.563792,31.6314269 C152.728062,37.3636038 155.572245,45.2434001 155.572245,53.8194566 L155.572245,56.0114936 C155.572245,57.4565075 154.710284,58.318901 153.265995,58.318901 L109.300222,58.318901 C110.884039,66.655564 116.804183,71.5864936 125.36037,71.5864936 C132.980797,71.5864936 137.359212,69.1965964 139.999869,63.5953649 C140.7125,62.1693871 141.512769,61.8953825 142.657245,61.8953825 L152.458808,61.8953825 C153.613086,61.8953825 154.41912,62.7018214 154.41912,63.8566788 C154.41912,64.2114427 154.397211,64.5702445 154.129686,65.374376 C149.241589,78.4181501 139.836125,84.7387158 125.36037,84.7387158 L125.36037,84.7387158 Z" id="Fill-3"></path>
                            <path d="M222.796204,35.3600243 C213.834116,35.3600243 207.57553,42.8083354 207.57553,53.4731724 C207.57553,64.1380094 213.834116,71.5863206 222.796204,71.5863206 C231.900702,71.5863206 238.017454,64.3076039 238.017454,53.4731724 C238.017454,42.6393178 231.900702,35.3600243 222.796204,35.3600243 L222.796204,35.3600243 Z M222.796204,73.893728 C212.476888,73.893728 205.26928,65.4964956 205.26928,53.4731724 C205.26928,41.4498493 212.476888,33.0526169 222.796204,33.0526169 C233.280416,33.0526169 240.323704,41.2589113 240.323704,53.4731724 C240.323704,65.6874335 233.280416,73.893728 222.796204,73.893728 L222.796204,73.893728 Z M206.191204,74.275027 L208.14921,76.1820993 C212.405971,80.3290872 218.109904,82.4311354 225.102454,82.4311354 C240.233184,82.4311354 250.009954,71.0648465 250.009954,53.4731724 C250.009954,35.8820752 240.233184,24.5152094 225.102454,24.5152094 C218.787941,24.5152094 213.535457,26.499003 208.072527,30.9482613 L206.191204,32.479803 L206.191204,2.82557981 L197.197405,2.82557981 L197.197405,81.2774317 L206.191204,81.2774317 L206.191204,74.275027 Z M225.102454,84.7385428 C218.500813,84.7385428 212.92776,82.9924122 208.497454,79.5428381 L208.497454,81.2774317 C208.497454,82.7224456 207.635493,83.5848391 206.191204,83.5848391 L197.197405,83.5848391 C195.753116,83.5848391 194.891155,82.7224456 194.891155,81.2774317 L194.891155,2.82557981 C194.891155,1.38056593 195.753116,0.518172407 197.197405,0.518172407 L206.191204,0.518172407 C207.635493,0.518172407 208.497454,1.38056593 208.497454,2.82557981 L208.497454,27.7126993 C213.747632,23.9193215 218.953991,22.207802 225.102454,22.207802 C241.37939,22.207802 252.316204,34.7722122 252.316204,53.4731724 C252.316204,72.1741326 241.37939,84.7385428 225.102454,84.7385428 L225.102454,84.7385428 Z" id="Fill-5"></path>
                            <path d="M273.940238,45.6281603 L304.530915,45.6281603 C302.412047,39.1674195 296.78941,35.3601973 289.215685,35.3601973 C283.459862,35.3601973 276.614335,38.091014 273.940238,45.6281603 L273.940238,45.6281603 Z M307.50886,47.9355677 L270.88388,47.9355677 L271.264412,46.4882464 C273.870474,36.5819695 282.246197,33.0527899 289.215685,33.0527899 C298.470666,33.0527899 305.183583,38.0858223 307.173877,46.517089 L307.50886,47.9355677 Z M289.215685,24.5153825 C272.912804,24.5153825 261.079435,36.6938788 261.079435,53.4733455 C261.079435,61.6306075 263.882105,69.0120038 268.970269,74.2584714 C274.081496,79.5285899 281.312743,82.4313084 289.330997,82.4313084 C302.731463,82.4313084 311.430062,76.6004899 315.926096,64.6054325 C315.984329,64.4300695 316.020652,64.3020084 316.043715,64.2027899 L306.627872,64.2027899 C306.373608,64.2027899 306.287124,64.2177881 306.258872,64.2252871 C306.268674,64.2270177 306.190838,64.3123918 306.045544,64.6031251 C303.06068,70.9340742 297.745927,73.893901 289.330997,73.893901 C279.071068,73.893901 272.134444,67.6962047 270.775487,57.3151788 L270.604824,56.0114936 L317.236622,56.0114936 L317.236622,53.8194566 C317.236622,36.5658177 305.713444,24.5153825 289.215685,24.5153825 L289.215685,24.5153825 Z M289.330997,84.7387158 C271.624763,84.7387158 258.773185,71.5893779 258.773185,53.4733455 C258.773185,35.3567362 271.575755,22.2079751 289.215685,22.2079751 C298.26368,22.2079751 305.980969,25.4666112 311.534419,31.6314269 C316.69869,37.3636038 319.542872,45.2434001 319.542872,53.8194566 L319.542872,56.0114936 C319.542872,57.4565075 318.680912,58.318901 317.236622,58.318901 L273.270849,58.318901 C274.854666,66.655564 280.77481,71.5864936 289.330997,71.5864936 C296.952001,71.5864936 301.330416,69.1965964 303.971072,63.5953649 C304.682551,62.1693871 305.482819,61.8953825 306.627872,61.8953825 L316.429435,61.8953825 C317.583713,61.8953825 318.389747,62.7018214 318.389747,63.8566788 C318.389747,64.2114427 318.367838,64.5702445 318.100313,65.374376 C313.212216,78.4181501 303.806752,84.7387158 289.330997,84.7387158 L289.330997,84.7387158 Z" id="Fill-7"></path>
                            <path d="M330.150815,81.2772009 L339.14519,81.2772009 L339.14519,2.82534907 L330.150815,2.82534907 L330.150815,81.2772009 Z M339.144614,83.5846083 L330.150815,83.5846083 C328.706526,83.5846083 327.844565,82.7222148 327.844565,81.2772009 L327.844565,2.82534907 C327.844565,1.38091204 328.706526,0.517941667 330.150815,0.517941667 L339.144614,0.517941667 C340.588903,0.517941667 341.450864,1.38091204 341.450864,2.82534907 L341.450864,81.2772009 C341.450864,82.7222148 340.588903,83.5846083 339.144614,83.5846083 L339.144614,83.5846083 Z" id="Fill-9"></path>
                            <path d="M353.096331,14.3626745 L364.627581,14.3626745 L364.627581,2.8256375 L353.096331,2.8256375 L353.096331,14.3626745 Z M364.627581,16.6700819 L353.096331,16.6700819 C351.652042,16.6700819 350.790081,15.8076884 350.790081,14.3626745 L350.790081,2.8256375 C350.790081,1.38062361 351.652042,0.518230093 353.096331,0.518230093 L364.627581,0.518230093 C366.07187,0.518230093 366.933831,1.38062361 366.933831,2.8256375 L366.933831,14.3626745 C366.933831,15.8076884 366.07187,16.6700819 364.627581,16.6700819 L364.627581,16.6700819 Z M354.365345,81.2774894 L363.35972,81.2774894 L363.35972,25.6689708 L354.365345,25.6689708 L354.365345,81.2774894 Z M363.359143,83.5848968 L354.365345,83.5848968 C352.921056,83.5848968 352.059095,82.7225032 352.059095,81.2774894 L352.059095,25.6689708 C352.059095,24.2239569 352.921056,23.3615634 354.365345,23.3615634 L363.359143,23.3615634 C364.803432,23.3615634 365.665393,24.2239569 365.665393,25.6689708 L365.665393,81.2774894 C365.665393,82.7225032 364.803432,83.5848968 363.359143,83.5848968 L363.359143,83.5848968 Z" id="Fill-11"></path>
                            <path d="M388.441976,45.6281603 L419.032652,45.6281603 C416.913785,39.1674195 411.291148,35.3601973 403.717423,35.3601973 C397.961599,35.3601973 391.116073,38.091014 388.441976,45.6281603 L388.441976,45.6281603 Z M422.010598,47.9355677 L385.385618,47.9355677 L385.766149,46.4882464 C388.372212,36.5819695 396.747935,33.0527899 403.717423,33.0527899 C412.972404,33.0527899 419.685321,38.0858223 421.675615,46.517089 L422.010598,47.9355677 Z M403.717423,24.5153825 C387.414542,24.5153825 375.581173,36.6938788 375.581173,53.4733455 C375.581173,61.6306075 378.383843,69.0120038 383.472007,74.2584714 C388.583234,79.5285899 395.814481,82.4313084 403.832735,82.4313084 C417.233201,82.4313084 425.931799,76.6004899 430.427834,64.6054325 C430.486067,64.4300695 430.52239,64.3020084 430.545452,64.2027899 L421.12961,64.2027899 C420.875346,64.2027899 420.788862,64.2177881 420.76061,64.2252871 C420.770412,64.2270177 420.692576,64.3123918 420.547282,64.6031251 C417.562418,70.9340742 412.247665,73.893901 403.832735,73.893901 C393.572806,73.893901 386.636182,67.6962047 385.277224,57.3151788 L385.106562,56.0114936 L431.73836,56.0114936 L431.73836,53.8194566 C431.73836,36.5658177 420.215182,24.5153825 403.717423,24.5153825 L403.717423,24.5153825 Z M403.832735,84.7387158 C386.126501,84.7387158 373.274923,71.5893779 373.274923,53.4733455 C373.274923,35.3567362 386.077493,22.2079751 403.717423,22.2079751 C412.765418,22.2079751 420.482707,25.4666112 426.036157,31.6314269 C431.200427,37.3636038 434.04461,45.2434001 434.04461,53.8194566 L434.04461,56.0114936 C434.04461,57.4565075 433.182649,58.318901 431.73836,58.318901 L387.772587,58.318901 C389.356404,66.655564 395.276548,71.5864936 403.832735,71.5864936 C411.453738,71.5864936 415.832154,69.1965964 418.47281,63.5953649 C419.184288,62.1693871 419.984557,61.8953825 421.12961,61.8953825 L430.931173,61.8953825 C432.085451,61.8953825 432.891485,62.7018214 432.891485,63.8566788 C432.891485,64.2114427 432.869576,64.5702445 432.602051,65.374376 C427.713954,78.4181501 418.30849,84.7387158 403.832735,84.7387158 L403.832735,84.7387158 Z" id="Fill-13"></path>
                            <path d="M436.300007,26.016351 L457.146778,80.8674631 C457.201551,80.9920631 457.350881,81.2776047 457.452932,81.2776047 L467.831057,81.2776047 C467.933109,81.2776047 468.082439,80.9920631 468.154509,80.8230455 L488.983982,26.016351 C489.030107,25.8282973 489.043368,25.7533066 489.046828,25.6690862 L479.131682,25.6690862 C478.716557,25.6690862 478.68254,25.7879177 478.626037,25.9857779 L478.603551,26.0573075 L462.641995,70.7465973 L446.657953,25.9857779 C446.60145,25.7879177 446.567432,25.6690862 446.152307,25.6690862 L436.237162,25.6690862 C436.240622,25.7533066 436.253882,25.8282973 436.300007,26.016351 M467.831057,83.5850121 L457.452932,83.5850121 C456.699942,83.5850121 455.665012,83.2637056 455.008884,81.7315871 L434.095809,26.7074195 L434.078512,26.6410816 C433.94302,26.0988408 433.929182,25.8929047 433.929182,25.5537158 C433.929182,24.2223418 434.788837,23.3616788 436.12012,23.3616788 L446.152307,23.3616788 C447.507229,23.3616788 448.493151,24.0717834 448.863881,25.3125918 L462.641995,63.8895594 L476.420109,25.3125918 C476.790839,24.0717834 477.776761,23.3616788 479.131682,23.3616788 L489.16387,23.3616788 C490.494576,23.3616788 491.354807,24.2223418 491.354807,25.5537158 C491.354807,25.8929047 491.34097,26.0988408 491.205478,26.6410816 L491.163965,26.7714501 L470.292403,81.6877464 C469.618978,83.2637056 468.583472,83.5850121 467.831057,83.5850121" id="Fill-15"></path>
                            <path d="M506.982419,45.6281603 L537.573095,45.6281603 C535.454228,39.1674195 529.831591,35.3601973 522.257866,35.3601973 C516.502042,35.3601973 509.656516,38.091014 506.982419,45.6281603 L506.982419,45.6281603 Z M540.551041,47.9355677 L503.926061,47.9355677 L504.306592,46.4882464 C506.912655,36.5819695 515.288378,33.0527899 522.257866,33.0527899 C531.512847,33.0527899 538.225764,38.0858223 540.216058,46.517089 L540.551041,47.9355677 Z M522.257866,24.5153825 C505.954984,24.5153825 494.121616,36.6938788 494.121616,53.4733455 C494.121616,61.6306075 496.924286,69.0120038 502.01245,74.2584714 C507.123677,79.5285899 514.354923,82.4313084 522.373178,82.4313084 C535.773644,82.4313084 544.472242,76.6004899 548.968277,64.6054325 C549.027086,64.4300695 549.063409,64.3020084 549.086472,64.2027899 L539.670053,64.2027899 C539.415789,64.2027899 539.329305,64.2177881 539.301053,64.2252871 C539.310855,64.2270177 539.233019,64.3123918 539.087725,64.6031251 C536.102861,70.9340742 530.788108,73.893901 522.373178,73.893901 C512.113248,73.893901 505.176625,67.6962047 503.817667,57.3151788 L503.647005,56.0114936 L550.27938,56.0114936 L550.27938,53.8194566 C550.27938,36.5658177 538.756202,24.5153825 522.257866,24.5153825 L522.257866,24.5153825 Z M522.373178,84.7387158 C504.666944,84.7387158 491.815366,71.5893779 491.815366,53.4733455 C491.815366,35.3567362 504.617936,22.2079751 522.257866,22.2079751 C531.305861,22.2079751 539.02315,25.4666112 544.577177,31.6314269 C549.741447,37.3636038 552.58563,45.2434001 552.58563,53.8194566 L552.58563,56.0114936 C552.58563,57.4565075 551.723669,58.318901 550.27938,58.318901 L506.31303,58.318901 C507.896847,66.655564 513.816991,71.5864936 522.373178,71.5864936 C529.994181,71.5864936 534.372597,69.1965964 537.013253,63.5953649 C537.724731,62.1693871 538.525,61.8953825 539.670053,61.8953825 L549.471616,61.8953825 C550.625894,61.8953825 551.432505,62.7018214 551.432505,63.8566788 C551.432505,64.2114427 551.410595,64.5708214 551.142494,65.3755297 C546.254397,78.4181501 536.848933,84.7387158 522.373178,84.7387158 L522.373178,84.7387158 Z" id="Fill-17"></path>
                            <path d="M35.3013653,150.730395 C26.3392778,150.730395 20.0801153,158.178706 20.0801153,168.843543 C20.0801153,179.50838 26.3392778,186.956691 35.3013653,186.956691 C44.4058637,186.956691 50.5226153,179.677974 50.5226153,168.843543 C50.5226153,158.009688 44.4058637,150.730395 35.3013653,150.730395 L35.3013653,150.730395 Z M35.3013653,189.264098 C24.9814731,189.264098 17.7738653,180.866866 17.7738653,168.843543 C17.7738653,156.820796 24.9814731,148.422987 35.3013653,148.422987 C45.7850012,148.422987 52.8288653,156.629859 52.8288653,168.843543 C52.8288653,181.057804 45.7850012,189.264098 35.3013653,189.264098 L35.3013653,189.264098 Z M9.70199031,219.491135 L18.6963653,219.491135 L18.6963653,189.836912 L20.5771122,191.369031 C26.0406184,195.817712 31.2925262,197.802083 37.6076153,197.802083 C52.738345,197.802083 62.5151153,186.435217 62.5151153,168.843543 C62.5151153,151.252446 52.738345,139.88558 37.6076153,139.88558 C30.6144887,139.88558 24.9105559,141.988205 20.653795,146.134616 L18.6963653,148.041688 L18.6963653,141.039284 L9.70199031,141.039284 L9.70199031,219.491135 Z M18.6963653,221.798543 L9.70199031,221.798543 C8.25770125,221.798543 7.39574031,220.936149 7.39574031,219.491135 L7.39574031,141.039284 C7.39574031,139.59427 8.25770125,138.731876 9.70199031,138.731876 L18.6963653,138.731876 C20.1406544,138.731876 21.0026153,139.59427 21.0026153,141.039284 L21.0026153,142.773877 C25.432345,139.324303 31.0053981,137.578172 37.6076153,137.578172 C53.8845512,137.578172 64.8213653,150.142583 64.8213653,168.843543 C64.8213653,187.544503 53.8845512,200.10949 37.6076153,200.10949 C31.4585762,200.10949 26.2522169,198.397971 21.0026153,194.604593 L21.0026153,219.491135 C21.0026153,220.936149 20.1406544,221.798543 18.6963653,221.798543 L18.6963653,221.798543 Z" id="Fill-22"></path>
                            <path d="M75.1983372,141.03911 L75.1983372,178.765798 C75.1983372,190.863535 82.0496294,197.80191 93.9948512,197.80191 C100.725642,197.80191 106.463015,195.452969 111.534459,190.621258 L113.482664,188.764372 L113.482664,196.648206 L122.476462,196.648206 L122.476462,141.03911 L113.482664,141.03911 L113.482664,168.382465 C113.482664,182.807222 105.142687,189.263925 96.8776637,189.263925 C88.697395,189.263925 84.1927122,184.347417 84.1927122,175.419481 L84.1927122,141.03911 L75.1983372,141.03911 Z M93.9948512,200.109317 C80.7811919,200.109317 72.8920872,192.130302 72.8920872,178.765798 L72.8920872,141.03911 C72.8920872,139.594673 73.7540481,138.731703 75.1983372,138.731703 L84.1927122,138.731703 C85.6370012,138.731703 86.4989622,139.594673 86.4989622,141.03911 L86.4989622,175.419481 C86.4989622,183.075459 89.9906247,186.956518 96.8776637,186.956518 C106.755332,186.956518 111.176414,177.62767 111.176414,168.382465 L111.176414,141.03911 C111.176414,139.594673 112.038375,138.731703 113.482664,138.731703 L122.476462,138.731703 C123.920751,138.731703 124.782712,139.594673 124.782712,141.03911 L124.782712,196.648206 C124.782712,198.09322 123.920751,198.955613 122.476462,198.955613 L113.482664,198.955613 C112.038375,198.955613 111.176414,198.09322 111.176414,196.648206 L111.176414,194.011416 C106.139564,198.109948 100.49444,200.109317 93.9948512,200.109317 L93.9948512,200.109317 Z" id="Fill-23"></path>
                            <path d="M132.854068,149.576922 L144.154693,149.576922 L144.154693,180.610974 C144.154693,191.375607 150.792657,197.801736 161.912818,197.801736 C166.062915,197.801736 170.545112,197.078941 173.611848,195.915431 C173.736385,195.868706 173.775592,195.836402 173.776168,195.835825 C173.790006,195.768334 173.790006,195.360499 173.790006,195.032271 L173.790006,187.327837 C173.764637,187.335913 173.734079,187.34572 173.694296,187.359564 C169.432923,188.943599 166.419807,189.263752 162.950631,189.263752 C154.849928,189.263752 153.149068,183.492349 153.149068,178.650255 L153.149068,149.576922 L172.636881,149.576922 L172.636881,141.039514 L153.149068,141.039514 L153.149068,123.272477 L144.154693,123.272477 L144.154693,141.039514 L132.854068,141.039514 L132.854068,149.576922 Z M161.912818,200.109144 C149.536904,200.109144 141.848443,192.637759 141.848443,180.610974 L141.848443,151.884329 L132.854068,151.884329 C131.409779,151.884329 130.547818,151.021359 130.547818,149.576922 L130.547818,141.039514 C130.547818,139.5945 131.409779,138.732107 132.854068,138.732107 L141.848443,138.732107 L141.848443,123.272477 C141.848443,121.827463 142.710404,120.96507 144.154693,120.96507 L153.149068,120.96507 C154.593357,120.96507 155.455318,121.827463 155.455318,123.272477 L155.455318,138.732107 L172.636881,138.732107 C174.08117,138.732107 174.943131,139.5945 174.943131,141.039514 L174.943131,149.576922 C174.943131,151.021359 174.08117,151.884329 172.636881,151.884329 L155.455318,151.884329 L155.455318,178.650255 C155.455318,184.394546 157.767334,186.956345 162.950631,186.956345 C166.163814,186.956345 168.953223,186.659843 172.927468,185.183102 C173.45041,185.007739 173.698332,184.995625 174.020631,184.995625 C175.203737,184.995625 176.096256,185.938201 176.096256,187.187662 L176.096256,195.032271 C176.096256,196.108676 176.096256,197.448126 174.424801,198.074587 C171.069207,199.348276 166.390403,200.109144 161.912818,200.109144 L161.912818,200.109144 Z" id="Fill-24"></path>
                            <path d="M180.131617,149.576922 L191.432242,149.576922 L191.432242,180.610974 C191.432242,191.375607 198.070782,197.801736 209.190943,197.801736 C213.340464,197.801736 217.823237,197.078941 220.889973,195.915431 C221.013934,195.868706 221.05314,195.836402 221.053717,195.836402 C221.067554,195.768334 221.067554,195.360499 221.067554,195.032271 L221.067554,187.327837 C221.042185,187.335913 221.011628,187.34572 220.971845,187.359564 C216.710471,188.943599 213.697356,189.263752 210.228179,189.263752 C202.127476,189.263752 200.426617,183.492349 200.426617,178.650255 L200.426617,149.576922 L219.914429,149.576922 L219.914429,141.039514 L200.426617,141.039514 L200.426617,123.272477 L191.432242,123.272477 L191.432242,141.039514 L180.131617,141.039514 L180.131617,149.576922 Z M209.190943,200.109144 C196.814453,200.109144 189.125992,192.637759 189.125992,180.610974 L189.125992,151.884329 L180.131617,151.884329 C178.687328,151.884329 177.825367,151.021359 177.825367,149.576922 L177.825367,141.039514 C177.825367,139.5945 178.687328,138.732107 180.131617,138.732107 L189.125992,138.732107 L189.125992,123.272477 C189.125992,121.827463 189.987953,120.96507 191.432242,120.96507 L200.426617,120.96507 C201.870906,120.96507 202.732867,121.827463 202.732867,123.272477 L202.732867,138.732107 L219.914429,138.732107 C221.358718,138.732107 222.220679,139.5945 222.220679,141.039514 L222.220679,149.576922 C222.220679,151.021359 221.358718,151.884329 219.914429,151.884329 L202.732867,151.884329 L202.732867,178.650255 C202.732867,184.394546 205.044882,186.956345 210.228179,186.956345 C213.441362,186.956345 216.230771,186.659843 220.205017,185.183102 C220.727959,185.007739 220.975881,184.995625 221.298756,184.995625 C222.481285,184.995625 223.373804,185.938201 223.373804,187.187662 L223.373804,195.032271 C223.373804,196.108676 223.373804,197.447549 221.703503,198.074587 C218.346756,199.348276 213.667951,200.109144 209.190943,200.109144 L209.190943,200.109144 Z" id="Fill-25"></path>
                            <path d="M231.099742,129.733045 L242.630992,129.733045 L242.630992,118.196008 L231.099742,118.196008 L231.099742,129.733045 Z M242.630992,132.040452 L231.099742,132.040452 C229.655453,132.040452 228.793492,131.178059 228.793492,129.733045 L228.793492,118.196008 C228.793492,116.750994 229.655453,115.8886 231.099742,115.8886 L242.630992,115.8886 C244.075281,115.8886 244.937242,116.750994 244.937242,118.196008 L244.937242,129.733045 C244.937242,131.178059 244.075281,132.040452 242.630992,132.040452 L242.630992,132.040452 Z M232.368179,196.64786 L241.363131,196.64786 L241.363131,141.039341 L232.368179,141.039341 L232.368179,196.64786 Z M241.362554,198.955267 L232.368179,198.955267 C230.92389,198.955267 230.061929,198.092874 230.061929,196.64786 L230.061929,141.039341 C230.061929,139.594327 230.92389,138.731934 232.368179,138.731934 L241.362554,138.731934 C242.806843,138.731934 243.668804,139.594327 243.668804,141.039341 L243.668804,196.64786 C243.668804,198.092874 242.806843,198.955267 241.362554,198.955267 L241.362554,198.955267 Z" id="Fill-26"></path>
                            <path d="M294.866459,196.648206 L303.860834,196.648206 L303.860834,158.921518 C303.860834,146.823781 297.010118,139.885407 285.064896,139.885407 C278.333529,139.885407 272.596156,142.234347 267.524712,147.066635 L265.576507,148.922945 L265.576507,141.03911 L256.582709,141.03911 L256.582709,196.648206 L265.576507,196.648206 L265.576507,169.304851 C265.576507,154.880094 273.916484,148.422814 282.182084,148.422814 C290.361776,148.422814 294.866459,153.339899 294.866459,162.267259 L294.866459,196.648206 Z M303.860834,198.955613 L294.866459,198.955613 C293.42217,198.955613 292.560209,198.09322 292.560209,196.648206 L292.560209,162.267259 C292.560209,154.611858 289.068546,150.730222 282.182084,150.730222 C272.304415,150.730222 267.882757,160.059647 267.882757,169.304851 L267.882757,196.648206 C267.882757,198.09322 267.020796,198.955613 265.576507,198.955613 L256.582709,198.955613 C255.13842,198.955613 254.276459,198.09322 254.276459,196.648206 L254.276459,141.03911 C254.276459,139.594673 255.13842,138.731703 256.582709,138.731703 L265.576507,138.731703 C267.020796,138.731703 267.882757,139.594673 267.882757,141.03911 L267.882757,143.676477 C272.919607,139.577368 278.564731,137.577999 285.064896,137.577999 C298.278556,137.577999 306.167084,145.557014 306.167084,158.921518 L306.167084,196.648206 C306.167084,198.09322 305.305123,198.955613 303.860834,198.955613 L303.860834,198.955613 Z" id="Fill-27"></path>
                            <path d="M344.450891,150.730395 C335.204559,150.730395 329.460266,157.405724 329.460266,168.151321 C329.460266,178.896917 335.204559,185.572246 344.450891,185.572246 C353.697224,185.572246 359.441516,178.896917 359.441516,168.151321 C359.441516,157.405724 353.697224,150.730395 344.450891,150.730395 L344.450891,150.730395 Z M344.450891,187.879654 C333.781602,187.879654 327.154016,180.320587 327.154016,168.151321 C327.154016,155.982054 333.781602,148.422987 344.450891,148.422987 C355.12018,148.422987 361.747766,155.982054 361.747766,168.151321 C361.747766,180.320587 355.12018,187.879654 344.450891,187.879654 L344.450891,187.879654 Z M320.817018,202.30095 C321.903262,213.448612 331.12192,220.644839 344.336155,220.644839 C361.24558,220.644839 369.819641,211.407134 369.819641,193.187268 L369.819641,141.039284 L360.825266,141.039284 L360.825266,147.267553 L358.914538,145.600451 C354.383334,141.648439 349.282485,139.88558 342.375266,139.88558 C327.244537,139.88558 317.467766,150.980748 317.467766,168.151321 C317.467766,185.058271 327.477468,196.417061 342.375266,196.417061 C349.447959,196.417061 353.784862,194.943782 358.949132,190.787564 L360.825266,189.277943 L360.825266,194.340971 C360.825266,205.631693 354.94087,212.107432 344.681516,212.107432 C336.268893,212.107432 330.99277,208.701121 329.82696,202.514962 C329.813123,202.424396 329.801015,202.354597 329.79006,202.30095 L320.817018,202.30095 Z M344.336155,222.952246 C329.802745,222.952246 319.665623,214.888434 318.510768,202.407668 L318.505579,202.30095 C318.505579,200.856513 319.36754,199.993543 320.811829,199.993543 L329.80678,199.993543 C331.794768,199.993543 332.025393,201.607574 332.100923,202.137701 C333.294984,208.462305 339.602577,209.800024 344.681516,209.800024 C353.604974,209.800024 358.519016,204.310125 358.519016,194.340971 L358.519016,194.009282 C353.66263,197.460009 349.18274,198.724469 342.375266,198.724469 C326.09833,198.724469 315.161516,186.438101 315.161516,168.151321 C315.161516,149.578998 325.844066,137.578172 342.375266,137.578172 C348.839685,137.578172 354.03336,139.100484 358.519016,142.340661 L358.519016,141.039284 C358.519016,139.59427 359.381554,138.731876 360.825266,138.731876 L369.819641,138.731876 C371.26393,138.731876 372.125891,139.59427 372.125891,141.039284 L372.125891,193.187268 C372.125891,212.659479 362.516324,222.952246 344.336155,222.952246 L344.336155,222.952246 Z" id="Fill-28"></path>
                            <path d="M410.061052,149.576806 L421.361677,149.576806 L421.361677,180.611436 C421.361677,191.375491 428.000217,197.801621 439.119802,197.801621 C443.269899,197.801621 447.752672,197.079403 450.818831,195.915316 C450.943369,195.868591 450.981999,195.836287 450.982575,195.836287 C450.996989,195.768218 450.996989,195.360384 450.996989,195.032732 L450.996989,187.327722 C450.97162,187.335798 450.940486,187.345604 450.900703,187.359449 C446.63933,188.943484 443.626214,189.264214 440.157614,189.264214 C432.056335,189.264214 430.356052,183.492234 430.356052,178.65014 L430.356052,149.576806 L449.843864,149.576806 L449.843864,141.039399 L430.356052,141.039399 L430.356052,123.272362 L421.361677,123.272362 L421.361677,141.039399 L410.061052,141.039399 L410.061052,149.576806 Z M439.119802,200.109029 C426.743888,200.109029 419.055427,192.637643 419.055427,180.611436 L419.055427,151.884214 L410.061052,151.884214 C408.616763,151.884214 407.754802,151.02182 407.754802,149.576806 L407.754802,141.039399 C407.754802,139.594385 408.616763,138.731991 410.061052,138.731991 L419.055427,138.731991 L419.055427,123.272362 C419.055427,121.827348 419.917388,120.964954 421.361677,120.964954 L430.356052,120.964954 C431.800341,120.964954 432.662302,121.827348 432.662302,123.272362 L432.662302,138.731991 L449.843864,138.731991 C451.287577,138.731991 452.150114,139.594385 452.150114,141.039399 L452.150114,149.576806 C452.150114,151.02182 451.287577,151.884214 449.843864,151.884214 L432.662302,151.884214 L432.662302,178.65014 C432.662302,184.39443 434.973741,186.956806 440.157614,186.956806 C443.37022,186.956806 446.160206,186.659728 450.133875,185.182987 C450.6597,185.007624 450.896091,184.99551 451.227614,184.99551 C452.41072,184.99551 453.303239,185.938086 453.303239,187.187547 L453.303239,195.032732 C453.303239,196.108561 453.303239,197.447434 451.632361,198.074472 C448.276767,199.348161 443.597963,200.109029 439.119802,200.109029 L439.119802,200.109029 Z" id="Fill-29"></path>
                            <path d="M502.426768,196.64786 L511.421143,196.64786 L511.421143,159.152489 C511.421143,146.548276 504.642497,139.885637 491.818018,139.885637 C484.141088,139.885637 479.106544,142.996023 473.90768,147.666215 L471.984268,149.394463 L471.984268,118.196008 L462.989893,118.196008 L462.989893,196.64786 L471.984268,196.64786 L471.984268,169.305082 C471.984268,162.850687 473.825232,157.447892 477.307093,153.682203 C480.443016,150.290891 484.736101,148.423045 489.396455,148.423045 C497.921508,148.423045 502.426768,153.130733 502.426768,162.036749 L502.426768,196.64786 Z M511.421143,198.955267 L502.426768,198.955267 C500.982479,198.955267 500.120518,198.092874 500.120518,196.64786 L500.120518,162.036749 C500.120518,154.42865 496.612712,150.730452 489.396455,150.730452 C481.877504,150.730452 474.290518,156.474166 474.290518,169.305082 L474.290518,196.64786 C474.290518,198.092874 473.428557,198.955267 471.984268,198.955267 L462.989893,198.955267 C461.545604,198.955267 460.683643,198.092874 460.683643,196.64786 L460.683643,118.196008 C460.683643,116.750994 461.545604,115.8886 462.989893,115.8886 L471.984268,115.8886 C473.428557,115.8886 474.290518,116.750994 474.290518,118.196008 L474.290518,144.288748 C478.733508,140.629776 484.062099,137.57823 491.818018,137.57823 C505.946682,137.57823 513.727393,145.239976 513.727393,159.152489 L513.727393,196.64786 C513.727393,198.092874 512.865432,198.955267 511.421143,198.955267 L511.421143,198.955267 Z" id="Fill-30"></path>
                            <path d="M3.47517297,264.947004 L14.775798,264.947004 L14.775798,295.981633 C14.775798,306.745689 21.4143386,313.172395 32.533923,313.172395 C36.6840198,313.172395 41.1667933,312.4496 44.2323761,311.285513 C44.3574902,311.238788 44.3966964,311.206484 44.3966964,311.206484 C44.4111105,311.138416 44.4111105,310.730581 44.4111105,310.40293 L44.4111105,302.697919 C44.3857417,302.705995 44.3546073,302.716379 44.3148245,302.729646 C40.0534511,304.313681 37.0403355,304.634411 33.5717355,304.634411 C25.4704558,304.634411 23.770173,298.862431 23.770173,294.020337 L23.770173,264.947004 L43.2579855,264.947004 L43.2579855,256.409596 L23.770173,256.409596 L23.770173,238.642559 L14.775798,238.642559 L14.775798,256.409596 L3.47517297,256.409596 L3.47517297,264.947004 Z M32.533923,315.479803 C20.1574323,315.479803 12.469548,308.008417 12.469548,295.981633 L12.469548,267.254411 L3.47517297,267.254411 C2.03088391,267.254411 1.16892297,266.392017 1.16892297,264.947004 L1.16892297,256.409596 C1.16892297,254.964582 2.03088391,254.102189 3.47517297,254.102189 L12.469548,254.102189 L12.469548,238.642559 C12.469548,237.198122 13.3315089,236.335152 14.775798,236.335152 L23.770173,236.335152 C25.214462,236.335152 26.076423,237.198122 26.076423,238.642559 L26.076423,254.102189 L43.2579855,254.102189 C44.7022745,254.102189 45.5642355,254.964582 45.5642355,256.409596 L45.5642355,264.947004 C45.5642355,266.392017 44.7022745,267.254411 43.2579855,267.254411 L26.076423,267.254411 L26.076423,294.020337 C26.076423,299.764628 28.387862,302.327004 33.5717355,302.327004 C36.7843417,302.327004 39.5737511,302.029925 43.548573,300.553761 C44.0715152,300.378398 44.3188605,300.365707 44.6417355,300.365707 C45.8248417,300.365707 46.7173605,301.308283 46.7173605,302.557744 L46.7173605,310.40293 C46.7173605,311.478758 46.7173605,312.818208 45.0459058,313.444669 C41.690312,314.718358 37.0115073,315.479803 32.533923,315.479803 L32.533923,315.479803 Z" id="Fill-32"></path>
                            <path d="M56.1733314,312.017942 L65.1677064,312.017942 L65.1677064,281.906852 C65.1677064,270.734385 70.6023845,263.793127 79.3511439,263.793127 C84.2317455,263.793127 87.3007877,264.866648 91.9253955,267.121562 C91.9657548,267.137137 92.0020783,267.151558 92.0355189,267.164249 L92.0355189,267.138868 L92.0355189,258.024608 C92.0355189,257.282777 92.0355189,257.282777 91.3770845,257.019732 C88.0485892,255.787 85.0988955,255.256296 81.5420814,255.256296 C74.665997,255.256296 69.9260767,258.760094 67.160883,261.699731 L65.1677064,263.817931 L65.1677064,256.41 L56.1733314,256.41 L56.1733314,312.017942 Z M65.1677064,314.325349 L56.1733314,314.325349 C54.7290423,314.325349 53.8670814,313.462956 53.8670814,312.017942 L53.8670814,256.41 C53.8670814,254.964986 54.7290423,254.102593 56.1733314,254.102593 L65.1677064,254.102593 C66.6119955,254.102593 67.4739564,254.964986 67.4739564,256.41 L67.4739564,258.215546 C71.5179658,254.759627 76.3322627,252.948889 81.5420814,252.948889 C85.3370158,252.948889 88.6263048,253.540162 92.2056048,254.866344 C93.9889127,255.579333 94.3417689,256.602669 94.3417689,258.024608 L94.3417689,267.138868 C94.3417689,268.927685 93.2232377,269.561645 92.2661439,269.561645 C91.9594127,269.561645 91.6959236,269.51492 91.0305705,269.247838 L90.9533111,269.214381 C86.5414548,267.060993 83.8200798,266.100534 79.3511439,266.100534 C71.9140642,266.100534 67.4739564,272.009805 67.4739564,281.906852 L67.4739564,312.017942 C67.4739564,313.462956 66.6119955,314.325349 65.1677064,314.325349 L65.1677064,314.325349 Z" id="Fill-33"></path>
                            <path d="M120.055476,287.559769 C117.485737,287.559769 109.100789,288.100279 109.100789,295.058843 C109.100789,299.745765 112.417753,302.327177 118.441101,302.327177 C125.783048,302.327177 133.188993,298.407468 133.640442,289.6797 C128.728706,288.216804 125.429039,287.559769 120.055476,287.559769 M118.441101,304.634584 C111.148739,304.634584 106.794539,301.055218 106.794539,295.058843 C106.794539,289.009975 111.875784,285.252362 120.055476,285.252362 C126.023475,285.252362 129.535317,286.01496 135.151036,287.725326 L135.968601,287.974526 L135.968601,288.828843 C135.968601,298.135194 128.760993,304.634584 118.441101,304.634584 M119.478914,277.176436 C102.96674,277.176436 97.1082887,287.057908 97.1082887,295.520325 C97.1082887,307.648058 107.330165,313.171991 116.826726,313.171991 C124.364704,313.171991 129.504182,311.302991 134.011748,306.921802 L135.968601,305.020498 L135.968601,312.018288 L146.995359,312.018288 C145.427109,309.033656 144.962976,306.51166 144.962976,301.404214 L144.962976,275.561251 C144.962976,263.036643 136.346826,255.256066 122.477039,255.256066 C110.644823,255.256066 102.096707,261.268592 99.6111466,271.338695 C99.5765528,271.475986 99.5569497,271.619045 99.545995,271.753452 L108.870164,271.754029 C109.186697,271.754029 109.259343,271.719994 109.270875,271.713072 C109.270875,271.713072 109.330261,271.662886 109.405214,271.464449 C111.560981,266.134338 116.077195,263.331991 122.477039,263.331991 C130.925409,263.331991 135.968601,268.205236 135.968601,276.368843 L135.968601,279.989742 L134.488565,279.551912 C129.159975,277.976529 125.375418,277.176436 119.478914,277.176436 M116.826726,315.479399 C110.991337,315.479399 105.582028,313.675583 101.594522,310.400795 C97.1503778,306.75163 94.8020387,301.605535 94.8020387,295.520325 C94.8020387,283.168196 104.718914,274.869029 119.478914,274.869029 C125.051967,274.869029 128.943187,275.583171 133.662351,276.911661 L133.662351,276.368843 C133.662351,269.549878 129.584901,265.639399 122.477039,265.639399 C117.016992,265.639399 113.341982,267.881045 111.553486,272.302038 C110.893898,274.061436 109.423664,274.061436 108.870164,274.061436 L99.1839137,274.061436 C98.0480856,274.061436 97.2236012,273.284993 97.2236012,272.21551 C97.2236012,271.945543 97.2236012,271.381959 97.3729309,270.783187 C98.6384856,265.654974 101.464795,261.289936 105.545128,258.161668 C109.994461,254.75132 115.849453,252.948658 122.477039,252.948658 C137.769782,252.948658 147.269226,261.61355 147.269226,275.561251 L147.269226,301.404214 C147.269226,306.914303 147.871734,308.879637 149.31314,311.454704 C149.84992,312.394395 149.613529,313.083733 149.42384,313.410231 C149.181684,313.827872 148.651247,314.325695 147.499851,314.325695 L135.968601,314.325695 C134.524312,314.325695 133.662351,313.463302 133.662351,312.018288 L133.662351,310.300423 C129.166893,313.866521 123.863672,315.479399 116.826726,315.479399" id="Fill-34"></path>
                            <path d="M151.946013,256.756803 L172.792783,311.608492 C172.847557,311.733092 172.997463,312.018634 173.098938,312.018634 L183.477063,312.018634 C183.579115,312.018634 183.728444,311.733092 183.801091,311.564075 L204.629988,256.756803 C204.676113,256.569326 204.689374,256.493759 204.692833,256.409539 L194.777688,256.409539 C194.362563,256.409539 194.328546,256.52837 194.272043,256.72623 L194.249557,256.79776 L178.288,301.48705 L162.303958,256.72623 C162.247455,256.52837 162.213438,256.409539 161.798313,256.409539 L151.883168,256.409539 C151.886627,256.493759 151.899888,256.569326 151.946013,256.756803 M183.477063,314.326041 L173.098938,314.326041 C172.346524,314.326041 171.311018,314.004158 170.655466,312.473193 L149.741815,257.448449 L149.724518,257.382111 C149.589025,256.83987 149.575188,256.633934 149.575188,256.294168 C149.575188,254.962794 150.435419,254.102131 151.766125,254.102131 L161.798313,254.102131 C163.153235,254.102131 164.139157,254.812813 164.509886,256.053044 L178.288,294.630012 L192.066115,256.053621 C192.436268,254.812813 193.422766,254.102131 194.777688,254.102131 L204.809875,254.102131 C206.141158,254.102131 207.000813,254.962794 207.000813,256.294168 C207.000813,256.633934 206.986975,256.83987 206.851483,257.382111 L206.809971,257.512479 L185.938408,312.428776 C185.264983,314.004158 184.230054,314.326041 183.477063,314.326041" id="Fill-35"></path>
                            <path d="M222.629001,276.368613 L253.219101,276.368613 C251.10081,269.908449 245.477596,266.10065 237.903871,266.10065 C232.148624,266.10065 225.303098,268.831466 222.629001,276.368613 L222.629001,276.368613 Z M256.197046,278.67602 L219.572643,278.67602 L219.953174,277.228699 C222.559237,267.322422 230.934384,263.793242 237.903871,263.793242 C247.159429,263.793242 253.872346,268.826851 255.862063,277.256964 L256.197046,278.67602 Z M237.903871,255.255835 C221.60099,255.255835 209.767621,267.434908 209.767621,284.214375 C209.767621,292.37106 212.570291,299.753033 217.658455,304.999501 C222.769682,310.270196 230.000929,313.172338 238.019184,313.172338 C251.419649,313.172338 260.118824,307.340942 264.614282,295.345885 C264.673091,295.171099 264.709415,295.042461 264.732477,294.943819 L255.316059,294.943242 C255.061795,294.943242 254.97531,294.958817 254.947059,294.965739 C254.95686,294.96747 254.879024,295.052844 254.73373,295.344154 C251.749443,301.674526 246.43469,304.634353 238.019184,304.634353 C227.759254,304.634353 220.82263,298.436657 219.463673,288.055631 L219.29301,286.751946 L265.925385,286.751946 L265.925385,284.559909 C265.925385,267.30627 254.402207,255.255835 237.903871,255.255835 L237.903871,255.255835 Z M238.019184,315.479745 C220.312949,315.479745 207.461371,302.330407 207.461371,284.214375 C207.461371,266.097765 220.263941,252.948427 237.903871,252.948427 C246.951866,252.948427 254.669732,256.207064 260.223182,262.371879 C265.387452,268.104633 268.231635,275.984429 268.231635,284.559909 L268.231635,286.751946 C268.231635,288.19696 267.369674,289.059353 265.925385,289.059353 L221.959035,289.059353 C223.542276,297.396016 229.463573,302.326946 238.019184,302.326946 C245.640187,302.326946 250.018602,299.937049 252.659259,294.33524 C253.370737,292.910416 254.171005,292.635835 255.316059,292.635835 L265.117621,292.635835 C266.271899,292.635835 267.07851,293.442851 267.07851,294.597708 C267.07851,294.952472 267.056601,295.311851 266.788499,296.115982 C261.900402,309.159179 252.494938,315.479745 238.019184,315.479745 L238.019184,315.479745 Z" id="Fill-36"></path>
                            <path d="M279.416083,312.018519 L288.410458,312.018519 L288.410458,233.566667 L279.416083,233.566667 L279.416083,312.018519 Z M288.409881,314.325926 L279.416083,314.325926 C277.971794,314.325926 277.109833,313.463532 277.109833,312.018519 L277.109833,233.566667 C277.109833,232.121653 277.971794,231.259259 279.416083,231.259259 L288.409881,231.259259 C289.85417,231.259259 290.716131,232.121653 290.716131,233.566667 L290.716131,312.018519 C290.716131,313.463532 289.85417,314.325926 288.409881,314.325926 L288.409881,314.325926 Z" id="Fill-37"></path>
                            <path d="M304.32243,312.018519 L313.317381,312.018519 L313.317381,233.566667 L304.32243,233.566667 L304.32243,312.018519 Z M313.317381,314.325926 L304.32243,314.325926 C302.878141,314.325926 302.01618,313.463532 302.01618,312.018519 L302.01618,233.566667 C302.01618,232.121653 302.878141,231.259259 304.32243,231.259259 L313.317381,231.259259 C314.761094,231.259259 315.623631,232.121653 315.623631,233.566667 L315.623631,312.018519 C315.623631,313.463532 314.761094,314.325926 313.317381,314.325926 L313.317381,314.325926 Z" id="Fill-38"></path>
                            <path d="M340.015742,276.368613 L370.605842,276.368613 C368.487551,269.908449 362.864337,266.10065 355.290612,266.10065 C349.535365,266.10065 342.689839,268.831466 340.015742,276.368613 L340.015742,276.368613 Z M373.583787,278.67602 L336.959384,278.67602 L337.339915,277.228699 C339.945978,267.322422 348.321125,263.793242 355.290612,263.793242 C364.54617,263.793242 371.259087,268.826851 373.248805,277.256964 L373.583787,278.67602 Z M355.290612,255.255835 C338.987731,255.255835 327.154362,267.434908 327.154362,284.214375 C327.154362,292.37106 329.957033,299.753033 335.045197,304.999501 C340.156423,310.270196 347.38767,313.172338 355.405925,313.172338 C368.80639,313.172338 377.505565,307.340942 382.001023,295.345885 C382.059833,295.171099 382.096156,295.042461 382.119219,294.943819 L372.7028,294.943242 C372.448536,294.943242 372.362051,294.958817 372.3338,294.965739 C372.343601,294.96747 372.265765,295.052844 372.120472,295.344154 C369.136184,301.674526 363.821431,304.634353 355.405925,304.634353 C345.145995,304.634353 338.209372,298.436657 336.850414,288.055631 L336.679751,286.751946 L383.312126,286.751946 L383.312126,284.559909 C383.312126,267.30627 371.788948,255.255835 355.290612,255.255835 L355.290612,255.255835 Z M355.405925,315.479745 C337.69969,315.479745 324.848112,302.330407 324.848112,284.214375 C324.848112,266.097765 337.650683,252.948427 355.290612,252.948427 C364.338608,252.948427 372.056473,256.207064 377.609923,262.371879 C382.774194,268.104633 385.618376,275.984429 385.618376,284.559909 L385.618376,286.751946 C385.618376,288.19696 384.756415,289.059353 383.312126,289.059353 L339.345776,289.059353 C340.929017,297.396016 346.850314,302.326946 355.405925,302.326946 C363.026928,302.326946 367.405344,299.937049 370.046,294.33524 C370.757478,292.910416 371.557747,292.635835 372.7028,292.635835 L382.504362,292.635835 C383.65864,292.635835 384.465251,293.442851 384.465251,294.597708 C384.465251,294.952472 384.443342,295.311851 384.17524,296.115982 C379.287144,309.159179 369.88168,315.479745 355.405925,315.479745 L355.405925,315.479745 Z" id="Fill-39"></path>
                            <path d="M397.263786,312.017942 L406.258161,312.017942 L406.258161,281.906852 C406.258161,270.734385 411.692839,263.793127 420.441598,263.793127 C425.3222,263.793127 428.391242,264.866648 433.016426,267.121562 C433.056209,267.137137 433.093109,267.151558 433.125973,267.164249 L433.125973,267.138868 L433.125973,258.024608 C433.125973,257.283354 433.125973,257.283354 432.467539,257.019732 C429.139044,255.787 426.18935,255.256296 422.632536,255.256296 C415.756451,255.256296 411.016531,258.760094 408.250761,261.699731 L406.258161,263.817931 L406.258161,256.41 L397.263786,256.41 L397.263786,312.017942 Z M406.258161,314.325349 L397.263786,314.325349 C395.819497,314.325349 394.957536,313.462956 394.957536,312.017942 L394.957536,256.41 C394.957536,254.964986 395.819497,254.102593 397.263786,254.102593 L406.258161,254.102593 C407.701873,254.102593 408.564411,254.964986 408.564411,256.41 L408.564411,258.215546 C412.60842,254.759627 417.422717,252.948889 422.632536,252.948889 C426.428047,252.948889 429.716759,253.540162 433.295483,254.866921 C435.079367,255.57991 435.432223,256.602669 435.432223,258.024608 L435.432223,267.138868 C435.432223,268.927685 434.314269,269.561645 433.356598,269.561645 C433.04929,269.561645 432.786378,269.51492 432.121025,269.247838 L432.043765,269.214381 C427.632486,267.060993 424.910534,266.100534 420.441598,266.100534 C413.004519,266.100534 408.564411,272.009805 408.564411,281.906852 L408.564411,312.017942 C408.564411,313.462956 407.701873,314.325349 406.258161,314.325349 L406.258161,314.325349 Z" id="Fill-40"></path>
                            <path d="M479.479869,312.01823 L488.473667,312.01823 L488.473667,264.947119 L506.462994,264.947119 L506.462994,256.409712 L488.473667,256.409712 L488.473667,250.987304 C488.473667,242.691598 492.988728,240.950082 496.776744,240.950082 C499.765067,240.950082 502.657105,241.39945 507.039556,243.582834 L507.039556,235.296934 C507.039556,234.99351 507.039556,234.617979 507.00035,234.513569 C506.995737,234.513569 506.940387,234.462806 506.782409,234.382047 C503.760645,233.09336 499.903442,232.412675 495.623619,232.412675 C485.665231,232.412675 479.479869,238.822652 479.479869,249.141378 L479.479869,256.409712 L468.870542,256.409712 L468.870542,264.947119 L479.479869,264.947119 L479.479869,312.01823 Z M488.473667,314.325637 L479.479869,314.325637 C478.03558,314.325637 477.173619,313.462667 477.173619,312.01823 L477.173619,267.254526 L468.870542,267.254526 C467.426253,267.254526 466.564292,266.392133 466.564292,264.947119 L466.564292,256.409712 C466.564292,254.964698 467.426253,254.102304 468.870542,254.102304 L477.173619,254.102304 L477.173619,249.141378 C477.173619,237.577229 484.415244,230.105267 495.623619,230.105267 C500.228623,230.105267 504.413314,230.855175 507.724512,232.275384 L507.785628,232.30365 C509.345806,233.08413 509.345806,234.208991 509.345806,235.296934 L509.345806,243.718971 C509.345806,245.078034 508.539195,246.026378 507.384917,246.026378 C506.957684,246.026378 506.66479,245.975615 506.061706,245.673345 C502.053444,243.668208 499.45084,243.257489 496.776744,243.257489 C494.202392,243.257489 490.779917,244.058737 490.779917,250.987304 L490.779917,254.102304 L506.462994,254.102304 C507.906706,254.102304 508.769244,254.964698 508.769244,256.409712 L508.769244,264.947119 C508.769244,266.392133 507.906706,267.254526 506.462994,267.254526 L490.779917,267.254526 L490.779917,312.01823 C490.779917,313.462667 489.917956,314.325637 488.473667,314.325637 L488.473667,314.325637 Z" id="Fill-41"></path>
                        </g>
                        <polygon id="Fill-46" points="31 3 31 416 712 416 712 413.68951 33.3045685 413.68951 33.3045685 5.31048951 712 5.31048951 712 3"></polygon>
                        <polygon id="Fill-47" points="456 442 458 442 458 414 456 414"></polygon>
                        <g id="Group-55">
                            <path d="M457.052942,445.583106 L457.052942,445.583106 C455.142213,445.583106 453.593567,444.033105 453.593567,442.121994 C453.593567,440.210307 455.142213,438.660883 457.052942,438.660883 C458.963093,438.660883 460.512317,440.210307 460.512317,442.121994 C460.512317,444.033105 458.963093,445.583106 457.052942,445.583106" id="Fill-48"></path>
                            <polygon id="Fill-50" points="28.196875 417.157577 35.115625 417.157577 35.115625 410.235355 28.196875 410.235355"></polygon>
                            <polygon id="Fill-52" points="28.196875 7.7537037 35.115625 7.7537037 35.115625 0.831481481 28.196875 0.831481481"></polygon>
                            <polygon id="Fill-53" points="3.98240312 187.15463 31.65625 187.15463 31.65625 184.847222 3.98240312 184.847222"></polygon>
                            <path d="M0.523028125,186.000926 L0.523028125,186.000926 C0.523028125,184.089239 2.071675,182.539815 3.98240312,182.539815 C5.89313125,182.539815 7.44177812,184.089239 7.44177812,186.000926 C7.44177812,187.912613 5.89313125,189.462037 3.98240312,189.462037 C2.071675,189.462037 0.523028125,187.912613 0.523028125,186.000926" id="Fill-54"></path>
                        </g>
                    </g>
                </g>
            </g>
        </g>
    </g>
</svg>