<svg height="90" viewBox="0 0 90 90" width="90" xmlns="http://www.w3.org/2000/svg" xmlns:xlink="http://www.w3.org/1999/xlink"><mask id="a" fill="#fff"/><path d="m0 69.1637924h87.1740793v-3.5097656h-87.1740793zm5.93696354-44.145832 14.36373606 8.8118515 16.7127239-4.4106055-17.9197606-23.44640425 2.4294571-2.35622266 33.3414287 21.09369141 7.303755-1.9280313c7.6492988-2.021625 13.06913-3.4512695 13.3294713-3.519125.583401-.1544296 1.1845526-.2316445 1.7892543-.2316445 3.0282419 0 5.1796072 1.856666 5.4363984 2.8136621.3372602 1.2471367-1.4425272 4.8657051-4.9654174 5.7969629l-47.9844399 12.7100313c-.1159702.0304179-.3869618.0818945-.9052775.0818945-4.0684235 0-13.6702816-3.0300977-17.6795366-4.4187949-2.52294326-3.5682617-4.10984143-5.8577989-5.10623834-7.3248809l-1.49577873-2.3690918zm2.66731429 13.4704804.32424319.4574395.53133279.1883574c.55618359.1965469 13.66081469 4.8095488 19.40725569 4.8095488.7147551 0 1.3099898-.0666855 1.823572-.2012265l47.9844399-12.7112012c5.1287223-1.3547695 8.3983716-6.6825938 7.4753436-10.0905762-.7005546-2.6077558-4.2885302-5.420248-8.8658025-5.420248-.9123776 0-1.8223887.1181621-2.6933484.3474668-.2485075.0655156-5.6778056 1.4975-13.3401215 3.5226347l-5.7914092 1.5290879-32.4645521-20.53563865c-1.0697658-.61537891-2.5974954-.50072656-3.6282101.4118125l-3.1382953 3.04413672c-1.0650323.93944727-1.2342541 2.56563867-.3727613 3.71918164l15.1447598 19.81613669-10.1320076 2.6744414-13.46555875-8.2608183c-1.07213255-.6808946-2.66968104-.5112559-3.58087536.3673554l-2.10758064 2.0344942c-.91711117.8961601-1.11118373 2.3726015-.46624749 3.4688183.64966972 1.3500899 2.57974498 4.0795176 7.35582327 10.8287969z" fill="#fff" mask="url(#a)" transform="translate(1 10)"/></svg>