<svg height="625" viewBox="0 0 689 625" width="689" xmlns="http://www.w3.org/2000/svg"><g fill="none" fill-rule="evenodd" transform="translate(3 -70)"><path d="m287 347.779248-120.825406 31.220752-47.174594-169.779822 120.825406-31.220178z" stroke="#73cec6" stroke-width="4"/><path d="m152 325 120-31" stroke="#73cec6" stroke-width="4"/><path d="m166.242333 331.198155c2.131484-.553627 3.874508.422551 4.317529 1.864397.025502.093709-.004745.1443-.100822.16902l-1.457759.378859c-.096076.02472-.134626-.007474-.174361-.097733-.36533-.791061-1.222311-1.010672-2.184266-.761166-.894345.232259-1.517659.751393-1.326098 1.444146.217655.786461 1.376508.871546 2.691931.887069 1.757851.014947 3.495537.277676 3.904754 1.75689.523085 1.892567-.65356 3.341312-2.894168 3.92311-2.145716.557076-4.103431-.448421-4.595676-2.177142-.025502-.093709.003558-.1443.100228-.16902l1.443525-.375409c.09667-.024721.13522.008048.174955.097733.39439 1.054364 1.348635 1.363659 2.531803 1.056663 1.168343-.303546 1.757258-.999749 1.555022-1.732744-.184444-.666308-1.168935-.867523-2.576876-.845102-2.202651.029895-3.621268-.358737-4.045311-1.891992-.471488-1.705724.889601-3.073983 2.63559-3.527579" fill="#73cec6"/><path d="m176.124669 334.217524 3.841889 3.344186c.039142.033344.046259.05979.053376.08681.018385.066113.002372.113255-.093705.13855l-1.539602.399555c-.097263.025296-.172582.017247-.253833-.062664l-2.913145-2.542777-.484536.754267.685586 2.478964c.025502.093133-.004152.143724-.100822.16902l-1.374729.357012c-.09667.025296-.14886-.004024-.174955-.097733l-2.505115-9.062704c-.025502-.093709.004151-.1443.101414-.169021l1.374137-.357012c.09667-.025295.148859.00345.174361.096583l1.300596 4.705547 1.722267-2.675579c.049818-.085085.090146-.152348.186223-.177069l1.663553-.432324c.082437-.021271.120393.011498.135813.064389.006523.02702.004744.070712-.025502.121304z" fill="#73cec6"/><path d="m180.243402 330.676032 2.809951 3.770187.173769-4.54515c.002372-.100607.018385-.147174.142336-.179943l1.512914-.392656c.068203-.017822.117427-.001725.135812.064963.007117.026446.013641.052891.011269.096583l-.565193 7.818049c-.132847 1.863247-.926371 2.512307-1.833764 2.748016-.577647.150049-1.05388.187992-1.393114.133376-.141743-.035068-.173769-.098307-.195712-.178218l-.324408-1.172219c-.026688-.093133.017199-.147749.072947-.162121.220028-.05749.685586.136251 1.18139.007473.701005-.182242.954245-.704825.966106-1.836801l-4.528067-5.609288c-.025502-.036218-.046259-.059789-.056934-.099457-.018385-.067263.011861-.117279.080064-.135101l1.59535-.414502c.109718-.028745.161907.000575.215284.086809" fill="#73cec6"/><path d="m192.628302 332.830753 2.255435-.585822c.782848-.203514 1.218159-.816356.990422-1.643061-.218249-.786461-.92222-1.146348-1.705068-.942834l-2.255434.585822zm-1.142247-4.131798 2.103609-.546728c.632803-.164421 1.018296-.635838.819026-1.355612-.198085-.719773-.769208-.914664-1.400232-.750243l-2.104795.546154zm-.200456 5.99447-2.505116-9.063279c-.025502-.093709.004745-.143725.100822-.16902l3.685319-.957207c1.59535-.413927 3.11716.190292 3.541203 1.722972.243157.879595-.011268 1.502785-.46793 2.092631.924592.14545 1.687869.719199 2.012277 1.891992.434125 1.572923-.361771 3.064786-2.176557 3.536777l-4.015064 1.042867c-.096076.024721-.148266-.004599-.174954-.097733z" fill="#73cec6"/><path d="m197.277889 323.422994c-.026688-.093133.003558-.143724.100821-.168445l1.37473-.357587c.096077-.024721.148267.004599.173769.097733l2.505708 9.063279c.025502.093709-.004745.1443-.100822.168445l-1.374729.357587c-.09667.025296-.148267-.004024-.174955-.097157z" fill="#73cec6"/><path d="m208.980526 330.097224c.026688.093709-.003559.143725-.099636.169021l-1.374729.357012c-.096077.025295-.149453-.004025-.174955-.097158l-.13344-.480041c-.437683.59962-.989236 1.057239-1.869347 1.285474-1.499274.389206-2.645673-.241458-3.028201-1.627538l-1.227649-4.438219c-.025502-.093134.004745-.143725.100822-.168445l1.374729-.357587c.096077-.024721.148267.004024.174955.097732l1.068114 3.865045c.276962.999749.809536 1.275125 1.56629 1.079085.865285-.224786 1.471992-1.068162 1.034309-2.654308l-.836225-3.025692c-.025502-.093134.004152-.1443.100822-.16902l1.374729-.357013c.096077-.025295.148267.004025.173769.097158z" fill="#73cec6"/><path d="m210.970562 325.252092 3.561961-.925012c-.445986-.655384-1.160632-.998599-2.137414-.745069-.782848.203515-1.358716.838778-1.424547 1.670081m4.015064 1.142324c.039143-.124178.063458-.144874.159535-.169595l1.402604-.363911c.068796-.018397.106752.014373.121579.068413.007116.026445.015419.052891.009489.1397-.185037 1.620065-1.12149 2.606017-2.77081 3.034316-1.994484.517984-3.925511-.494988-4.496634-2.560599-.571124-2.066186.633395-3.893214 2.586365-4.400275 2.255434-.585822 4.02574.754267 4.563058 2.700299l.062272.22651c.026688.093134-.003558.1443-.099635.169596l-5.239154 1.36021c.3849.857174 1.222311 1.325142 2.239421 1.061263.796489-.206963 1.263826-.599619 1.46191-1.265927" fill="#73cec6"/><path d="m456.447012 363.815268-62.272042 104.553968-157.165146-87.959515 62.272042-104.553967z" stroke="#73cec6" stroke-width="4"/><path d="m344.868204 440.774209 62.272042-104.553968" stroke="#73cec6" stroke-width="4"/><path d="m366.909541 440.037016c.085995.048292.102008.105207.05219.188567l-.754974 1.266502c-.049818.083935-.107938.098883-.194526.050591l-8.38241-4.691174c-.086588-.048291-.102008-.105781-.05219-.188567l.754381-1.266502c.049818-.08451.108532-.098882.194526-.050591l3.29093 1.841401 2.064466-3.464915-3.290929-1.842551c-.086588-.048291-.102008-.104631-.05219-.189141l.753788-1.266502c.049818-.082786.109125-.098883.194526-.050591l8.383003 4.692323c.086588.048292.102008.104632.05219.188567l-.753788 1.266502c-.049818.083361-.109124.098883-.195119.050591l-3.661003-2.048939-2.064467 3.46549z" fill="#73cec6"/><path d="m369.379132 430.012219c-.35584.597319-.376598 1.238907.129882 1.521757.479791.269052.991608.045992 1.390149-.623765.434125-.728972.355247-1.728146-.433532-2.170243-.447173.419101-.766243.734145-1.086499 1.272251zm-2.836047 1.312494c-.028467.047141-.074726.069562-.123951.041392-.024909-.013222-.07354-.040818-.116241-.080486-.875367-.792785-1.155295-2.144372-.308395-3.566097.910951-1.529231 2.42861-2.034567 3.895265-1.214186l2.674732 1.497036c.530795.297223.861727.403005 1.269757.408179.114462.000575.123358.068987.07354.152348l-.86825 1.458518c-.049818.08336-.109124.098308-.194526.050591l-.358213-.200065c.090147.51166.113869 1.161871-.413367 2.046065-.725914 1.21936-2.084038 1.73332-3.353795 1.022745-1.355751-.758866-1.416244-2.258202-.633395-3.572421.313139-.526032.74252-.971004 1.122083-1.332041l-.172583-.096008c-.61679-.345514-1.275687-.205238-1.710405.524308-.327373.549603-.335676 1.007223-.07532 1.424024.064051.114405.054562.157523.011862.229385z" fill="#73cec6"/><path d="m372.285339 420.661145c.074133.041393.121578.100032.078878.171895-.007117.010923-.014234.023571-.074134.069562-.565193.369085-.858168.666883-1.078789 1.037693-.447766.752542-.405065 1.509684.889008 2.233482l3.19248 1.78736c.086587.048291.102007.104631.05219.188567l-.711681 1.194639c-.049818.083936-.108531.098883-.194526.050591l-5.941939-3.324639c-.085995-.048292-.102007-.105782-.05219-.188567l.712274-1.19579c.049817-.08336.107938-.098307.194526-.050016l.332117.185693c-.131067-.551328-.067016-1.184292.296534-1.793685.234854-.394955.521899-.711724.851644-.9894.120986-.091409.183851-.08796.307802-.018972z" fill="#73cec6"/><path d="m378.100776 418.818019c.562228-.943983.071168-1.967878-.989236-2.561174-1.060403-.593295-2.221036-.493838-2.78267.449571-.563414.944559-.070575 1.968454.989236 2.561749 1.060404.593296 2.220443.494413 2.78267-.450146zm-9.006909-1.21591c-.085402-.048292-.101415-.105207-.051597-.188567l.712273-1.195215c.049818-.083935.107939-.098882.194526-.050591l2.810545 1.572923c-.113275-.747943.016606-1.407927.408624-2.066186.960768-1.612591 2.855617-2.034567 4.840613-.923288 1.983809 1.110705 2.554933 2.911863 1.594164 4.525604-.427008.716898-1.001097 1.128526-1.653471 1.368834l.382528.213287c.085402.048292.102008.105207.05219.188567l-.712866 1.195789c-.049818.083361-.107345.098883-.194526.050591z" fill="#73cec6"/><path d="m382.328099 411.720491c.590695-.992275.244344-2.093781-.889601-2.728469-1.133944-.635263-2.292204-.374259-2.882899.616866-.590694.992276-.24375 2.094357.890194 2.729045 1.133944.635263 2.291611.374834 2.882306-.617442m-5.103342-2.856097c1.088278-1.828753 3.251194-2.450793 5.124693-1.402178 1.873498 1.048616 2.399549 3.175166 1.310085 5.003344-1.088871 1.828178-3.250601 2.451369-5.124693 1.402178-1.874685-1.048615-2.398956-3.175166-1.310085-5.003344" fill="#73cec6"/><path d="m389.142025 402.708493c.086587.048292.1026.104632.052783.187992l-.712274 1.195215c-.049818.083935-.107938.098882-.194526.050591l-.443614-.248357c.126916.724948.071761 1.425749-.384308 2.190365-.775731 1.30272-2.046674 1.642486-3.328885.925012l-4.104617-2.297296c-.087181-.048291-.102601-.104056-.052783-.187417l.71168-1.195789c.049818-.082786.108532-.098883.194526-.050591l3.575009 2.001222c.925184.517409 1.502831.346664 1.894256-.310445.448358-.753117.262135-1.764939-1.204519-2.58532l-2.798091-1.566599c-.086588-.048291-.102007-.105781-.05219-.188567l.711088-1.195214c.049817-.083935.108531-.098308.194526-.050016z" fill="#73cec6"/><path d="m387.800092 394.612194c.074133.041392.121578.100032.078878.171894-.007117.011498-.014234.024146-.074134.070138-.565193.36851-.858168.667457-1.078789 1.037117-.448358.753118-.405658 1.510259.889008 2.234057l3.191887 1.786785c.087181.048292.102007.105207.05219.188567l-.711088 1.195215c-.049817.08336-.109124.098882-.194526.050591l-5.942532-3.325215c-.085401-.048291-.102007-.105206-.05219-.188566l.712867-1.195215c.049818-.083935.107345-.098308.194526-.050016l.332117.185692c-.13166-.551903-.067016-1.184291.295941-1.793684.234855-.394956.521899-.7123.852237-.989401.120393-.091984.183851-.087959.307209-.018972z" fill="#73cec6"/><path d="m583.017013 623.055815-120.300689-31.246899 46.970319-169.924559 120.300096 31.246899z" stroke="#73cec6" stroke-width="4"/><path d="m477.452261 538.499126 120.30069 31.247474" stroke="#73cec6" stroke-width="4"/><g fill="#73cec6"><path d="m491.231226 560.863494c-.025502.093134-.078285.122453-.174362.097733l-1.457166-.378284c-.096077-.025295-.126916-.076461-.101414-.169595l1.698544-6.144518-3.298639 4.043838c-.065831.082211-.150046.117854-.233076.096008l-1.126827-.292623c-.082436-.021272-.136405-.092559-.152418-.196616l-.771581-5.100502-1.698544 6.143944c-.025501.093133-.077098.123028-.173175.098307l-1.457759-.378283c-.09667-.025296-.126916-.076462-.101415-.169595l2.505709-9.06328c.026095-.093133.078285-.122453.174955-.097732l1.718708.446696c.096077.024721.167245.086235.182665.190866l.933487 6.114049 3.961688-4.842947c.067017-.082786.160721-.101183.256798-.076462l1.718709.446121c.096077.025296.126916.076462.100821.169596z"/><path d="m496.435626 560.957777c1.141061.296648 2.149276-.312745 2.487917-1.539004.339827-1.226259-.219435-2.243255-1.360496-2.539903-1.141061-.296072-2.149868.313895-2.489103 1.540154-.338641 1.226259.220028 2.242106 1.361682 2.538753m1.525369-5.517878c2.103609.547303 3.282626 2.409975 2.722771 4.435919-.559855 2.026518-2.542479 3.06881-4.646088 2.522081-2.103608-.546154-3.283812-2.409976-2.723957-4.435919.560449-2.026518 2.543665-3.068235 4.647274-2.522081"/><path d="m502.904921 557.010407c.026095-.093133.078285-.123028.174954-.097733l1.37473.357013c.096077.02472.126323.075886.100228.16902l-.131661.479465c.688551-.306421 1.402604-.435198 2.282122-.206388 1.499274.388631 2.166474 1.490712 1.783353 2.877368l-1.227056 4.437644c-.025502.093134-.077691.123028-.173768.097733l-1.375323-.357012c-.09667-.024721-.126323-.075887-.100821-.169021l1.068707-3.864469c.276369-1.000324-.042701-1.497612-.798862-1.694227-.866471-.224785-1.827832.210988-2.266109 1.797709l-.836225 3.025117c-.025501.093134-.077691.123028-.173768.098308l-1.37473-.357013c-.09667-.025295-.126916-.076461-.101414-.169595z"/><path d="m514.957941 559.997754c.096077.025295.126917.076461.100822.169595l-.323815 1.172219c-.026095.093133-.078878.123028-.174955.097732l-2.075734-.539255-.788187 2.852648c-.19927.719198-.040921 1.160721.646444 1.338939.426415.110956.735403.163272 1.265605.11498.04448-.003449.072354.00345.099635.010923.068796.017822.08125.078761.062865.144875l-.302464 1.093457c-.032619.120154-.051597.186842-.172583.197765-.439462.043118-1.117338-.060939-1.63983-.19719-1.320167-.34264-2.099458-1.36021-1.690834-2.83885l.869436-3.146421-1.182576-.306996c-.096077-.024721-.126916-.075887-.100821-.16902l.323814-1.172219c.026095-.093134.078878-.123028.174955-.098308l1.182576.306996.530202-1.918437c.026095-.093708.078285-.123028.174362-.097733l1.375322.357012c.096077.024721.126323.075887.100822.169596l-.530795 1.919012z"/><path d="m516.956637 563.216957 3.561367.925012c-.048631-.784162-.489873-1.427473-1.466061-1.681004-.784035-.204089-1.610771.067838-2.095306.755992m2.887643 2.934858c.097856-.087384.129289-.094283.225366-.069562l1.402603.36506c.068203.017247.085402.064389.069982.117855-.006524.026445-.014233.053465-.064051.125902-.996946 1.313069-2.315334 1.713199-3.965246 1.284899-1.993892-.517984-3.143256-2.330639-2.572132-4.396826.571123-2.066186 2.556712-3.06421 4.509089-2.557149 2.254841.585821 3.096996 2.604291 2.559677 4.550323l-.063458.226511c-.025502.093133-.078285.122453-.174362.097157l-5.238561-1.360785c-.109125.929036.374225 1.740219 1.391335 2.004097.797675.207539 1.403197.093134 1.919758-.387482"/><path d="m525.615772 569.794604c-.067017.082211-.13344.108081-.201643.090259l-1.485633-.385757c-.068796-.017822-.11209-.072437-.128696-.175919l-.720576-6.98732c.001779-.05634.004744-.070137.012454-.097158.021944-.079336.073541-.10923.15657-.087384l1.457166.378283c.096077.024721.154197.08336.155976.183968l.376598 4.926307 2.868072-4.084081c.053376-.085659.13344-.108081.229517-.08336l1.457166.378858c.083029.021272.112683.072438.090739.152349-.007117.026445-.014233.05289-.039142.089109z"/><path d="m531.24125 566.926836 3.561368.925013c-.048632-.783587-.489874-1.426899-1.466062-1.68043-.784035-.204089-1.61077.067838-2.095306.755417m2.887644 2.935434c.097263-.08796.129288-.094284.225365-.069563l1.402604.364486c.068202.017822.085401.064963.069982.118429-.006524.026445-.014234.053465-.064052.125903-.996945 1.313069-2.315333 1.713198-3.965839 1.284898-1.993299-.517983-3.142663-2.330639-2.571539-4.396825.571124-2.066187 2.556712-3.064211 4.509089-2.55715 2.254841.585247 3.096996 2.604291 2.559677 4.550324l-.063458.22651c-.025502.093133-.078285.121878-.174361.097158l-5.238562-1.360786c-.109124.929037.374225 1.739644 1.391335 2.004097.797676.207539 1.403197.093134 1.919759-.387481"/><path d="m542.876692 568.92047c-.021943.080486-.067609.139701-.150639.11843-.013047-.00345-.027281-.006899-.088367-.051741-.514782-.434049-.887228-.630664-1.31305-.741045-.866471-.224785-1.609584.010923-1.996264 1.409652l-.954838 3.452267c-.025502.093134-.077692.123029-.173769.097733l-1.374729-.357012c-.09667-.024721-.126917-.075887-.101415-.16902l1.775643-6.423919c.026095-.093134.078285-.123029.174955-.098308l1.374729.357012c.09667.025296.126324.076462.100229.169595l-.099042.359312c.515968-.265603 1.163004-.36851 1.864602-.186267.45429.117854.844528.304121 1.205706.541554.122765.089685.135812.149474.098449.282851z"/><path d="m547.002126 569.7205c-1.086499-.281701-1.979065.443247-2.296356 1.59017-.316698 1.146348.082437 2.206461 1.168936 2.488736 1.085905.282276 1.979064-.443246 2.295762-1.589595.317291-1.146348-.082436-2.207036-1.168342-2.489311zm1.847404 6.108874c-.025502.093134-.077099.123028-.173176.098308l-1.375322-.357587c-.096077-.024721-.126323-.075887-.100822-.169021l.114462-.413352c-.636954.277676-1.343297.380008-2.168253.166146-1.8563-.48234-2.766658-2.147822-2.173591-4.293919.59366-2.145522 2.240608-3.145846 4.096908-2.664081.756753.196041 1.329656.573749 1.7964 1.180842l.839783-3.03949c.026095-.093133.077692-.122453.174361-.097733l1.375323.357013c.096077.025295.12573.076461.099635.169595z"/><path d="m553.018495 572.583783 3.561368.925012c-.048039-.784162-.489281-1.427474-1.466062-1.681004-.783442-.204089-1.610177.067838-2.095306.755992m2.887643 2.934858c.097856-.087384.129289-.094283.225366-.068988l1.402604.364486c.068795.017247.085401.064389.069981.117855-.006523.026445-.014233.053465-.063458.125902-.996945 1.313069-2.315334 1.713199-3.965839 1.284899-1.993892-.517984-3.143256-2.33064-2.572132-4.396826.571123-2.066186 2.556712-3.06421 4.509089-2.55715 2.255434.585822 3.096996 2.604292 2.559677 4.550324l-.063458.22651c-.025502.093134-.077692.122454-.173769.097158l-5.238561-1.360785c-.109717.929036.373632 1.740219 1.390742 2.004097.798269.207539 1.40379.093134 1.919758-.387482"/></g><path d="m199.031588 649.214859-107.8581421 60.364373-90.7392615-152.350478 107.8581426-60.364373z" stroke="#73cec6" stroke-width="4"/><path d="m62.706108 661.782894 107.858142-60.364373" stroke="#73cec6" stroke-width="4"/><path d="m80.5438455 668.129834 2.0709902-1.159571-2.7725885-2.335814zm3.3899714-.048866-3.0566677 1.711473.5047001 2.504834c.0255019.097158.0219435.147174-.0765057.202365l-1.3432969.751967c-.0865878.048292-.1571628.039668-.2069804-.043692-.0142336-.023571-.0213504-.035644-.0302464-.078761l-1.7643745-9.751433c-.0255019-.097733-.0343979-.140276.0515968-.188567l1.4553866-.814057c.0854016-.048291.1192065-.019546.194526.050591l7.8290784 6.357231c.0338048.028745.0403285.040818.0551552.064964.0498176.08336.0219435.147174-.0646443.195465l-1.3432969.751393c-.0984492.055765-.1453015.033344-.2194348-.036219z" fill="#73cec6"/><path d="m90.5431935 665.76792c.9744092-.545004 1.0770098-1.669506.4643715-2.697425-.6114521-1.027919-1.6682976-1.50451-2.6421138-.959506-.9738161.545004-1.0764167 1.670081-.4643715 2.698s1.6677046 1.503935 2.6421138.958931zm-7.1725531-5.418421c-.0498176-.083361-.0332118-.140276.0521899-.188567l1.2329864-.689879c.0865878-.048291.1447084-.033344.194526.050592l1.6232246 2.724445c.2876375-.703676.7413338-1.211312 1.4192095-1.59132 1.6641462-.931336 3.5228184-.377708 4.6680309 1.546478 1.1458056 1.924186.7116805 3.760413-.9530588 4.691749-.7395546.414502-1.4488628.492113-2.1385998.384032l.221807.37081c.0492246.082785.0332118.140275-.0521899.188567l-1.2329864.689878c-.0865878.048292-.1453014.032195-.1951191-.050591z" fill="#73cec6"/><path d="m91.8439675 658.763008c-.0498176-.083935-.0349909-.140275.0521899-.188567l1.2323934-.689878c.0865878-.048292.1447084-.033344.194526.050591l3.4297068 5.759336c.0498177.083935.034991.140275-.0515968.188567l-1.2329864.689878c-.0854017.048292-.1447084.032769-.194526-.050016zm-1.4957151-2.317992c-.0498177-.083935-.0343979-.140275.0515968-.188567l1.406162-.787036c.0854017-.047717.1441153-.032769.193933.050591l.8113157 1.36251c.0498176.08336.0343979.140275-.0521899.188567l-1.4049759.786462c-.0865878.048291-.1447083.032769-.194526-.050592z" fill="#73cec6"/><path d="m100.544261 661.891837c-1.5651036.875571-3.1041126.637563-3.9717697-.597894-.0427009-.071288-.0338049-.139701.0521899-.187992l1.2448477-.696778c.0871809-.048291.132254-.026445.194526.050016.4531033.511085 1.1203037.472567 1.7608162.11383.6043349-.33804.9767819-.816931.7490439-1.199238-.199271-.334592-.7359965-.352988-2.0093115.104631-1.6410165.583522-2.6480444.382883-3.1889216-.525457-.8041989-1.350438.1713964-2.582446 1.3427039-3.237255 1.504018-.841652 2.9594046-.604794 3.6847252.390931.042701.071862.034398.14085-.052189.189141l-1.2448482.696778c-.0859947.048291-.1565697.039668-.2437506-.023571-.3932035-.273652-.8741808-.307571-1.4530143.017247-.4928387.275951-.8178395.696777-.5764612 1.102656.1785132.298947.5794265.392656 1.94526-.100608 1.4915633-.532356 2.5988203-.577773 3.2606823.534081.66898 1.122778.058714 2.49966-1.494529 3.369482" fill="#73cec6"/><path d="m104.995111 654.158759 4.604573 2.266251c.045666.022421.0599.045992.074726.069562.034991.060365.032026.110381-.054562.158673l-1.38066.772664c-.085995.048291-.1625.058639-.260949.002299l-3.493166-1.725271-.26688.850275 1.324319 2.222559c.049818.08336.033805.140275-.05219.188567l-1.232393.689878c-.087181.048292-.144709.032769-.194526-.050591l-4.8400206-8.126194c-.0498176-.083361-.0343978-.140276.0515969-.188567l1.2329867-.689304c.085994-.048291.144708-.033344.194526.050017l2.512232 4.218032.948907-3.016494c.026095-.094283.046852-.16902.132847-.217312l1.491564-.834753c.074133-.041393.120392-.018971.14886.02817.014233.023571.023129.066689.00771.123029z" fill="#73cec6"/><path d="m112.497113 653.481126c1.023634-.5726 1.2917-1.694802.636954-2.794009-.654153-1.099206-1.791656-1.435522-2.814696-.862923-1.023041.5726-1.2917 1.695377-.636954 2.794583.654153 1.099207 1.791655 1.434948 2.814696.862349m-2.94695-4.947005c1.887139-1.056089 4.079708-.546728 5.161462 1.269952 1.082348 1.81668.440649 3.912186-1.445304 4.9677-1.886546 1.055514-4.079708.546729-5.161463-1.269951-1.081754-1.816105-.440055-3.912761 1.445305-4.967701" fill="#73cec6"/><path d="m698.784357.44433927 88.066309 85.36787043-128.324887 124.3937243-88.065715-85.36787z" stroke="#73cec6" stroke-width="4"/><path d="m610.718583 85.8123247 88.065715 85.3678703" stroke="#73cec6" stroke-width="4"/><path d="m609.948248 102.61127 1.540788 1.493012c.462.448996 1.076417.53638 1.62026.009773.543249-.526607.432346-1.102656-.030247-1.551652l-1.540195-1.493012zm-3.120719 3.024542 1.651099 1.600518c.574089.556502 1.338552.614567 1.963052.009774.59366-.575474.563414-1.346413-.010675-1.90234l-1.650506-1.600519zm-2.334905-.195465 6.844587-6.6343324c.070575-.068413.131068-.0678381.201643.0005749l2.696676 2.6146395c1.167749 1.131401 1.389556 2.711798.231889 3.834575-.664235.643887-1.348041.741619-2.103609.653085.332118.8497.201643 1.776437-.683806 2.634761-1.187913 1.151522-2.919669 1.229134-4.247546-.058065l-2.939834-2.849773c-.069982-.067838-.070575-.127052 0-.195465z" fill="#73cec6"/><path d="m615.192029 115.812096c-.070575.068413-.131068.068413-.201643 0l-1.006435-.975604c-.070575-.068413-.070575-.127052 0-.195465l.362364-.350114c-.754974-.069562-1.439967-.303546-2.083445-.927886-1.097174-1.062988-1.107256-2.341563-.060492-3.356259l3.352015-3.249328c.069982-.067838.129881-.068413.200456 0l1.006435.975603c.071168.068413.071168.127053.000593.195466l-2.918483 2.829651c-.754974.731846-.735403 1.317093-.181478 1.854049.633988.614567 1.690834.701951 2.888829-.458194l2.285088-2.21566c.069982-.068413.129881-.068413.200456 0l1.007028.975603c.070575.068988.070575.127053 0 .194891z" fill="#73cec6"/><path d="m624.955039 111.537953c.784628.760591.452511 1.200389.99576 1.727571.190968.185117.453103.301822.886042.389781.051004.009774.070575.009774.110904.049442.039735.037943.039735.077036.020164.174769l-.161314.996299c-.010082.048292-.030247.067838-.049818.087385-.030246.02932-.061086.037943-.151825.02932-.573496-.068413-1.237138-.243757-1.660588-.654235-.784628-.760591-.451917-1.199814-.996352-1.727571-.190968-.184542-.453104-.301822-.88545-.389781-.05041-.009773-.071168-.009773-.110903-.048292-.040329-.039093-.040329-.078186-.020164-.175919l.160721-.995724c.010082-.048867.030839-.067838.05041-.08796.030247-.02932.060493-.037943.151233-.028745.574088.067838 1.237731.243182 1.66118.65366zm-3.774871.673207c.069981-.068413.130474-.067839.201049 0l1.006435.975603c.070575.068413.070575.127052.000593.195465l-.362364.351263c.754381.067839 1.438781.302397 2.082852.926737 1.097767 1.063563 1.107256 2.342138.061086 3.356834l-3.352015 3.248753c-.070575.068413-.130475.068413-.20105 0l-1.007028-.975603c-.070575-.068988-.070575-.127052 0-.195465l2.919076-2.829077c.755567-.731847.73481-1.317093.181479-1.854049-.633989-.614567-1.690835-.701951-2.88883.458769l-2.285088 2.21451c-.070575.068413-.130474.068413-.201642 0l-1.006435-.976178c-.069982-.067838-.070575-.126477 0-.19489z" fill="#73cec6"/><path d="m625.256258 123.851135c.835632.810033 2.022952.770939 2.949323-.127052.925777-.897417.966699-2.048365.130474-2.858397-.835631-.810607-2.022951-.770939-2.948729.126478-.926371.897991-.966699 2.048939-.131068 2.858971m4.166889-4.039239c1.540789 1.493013 1.601281 3.678203.071168 5.161442-1.530706 1.483239-3.784361 1.425174-5.325149-.068413-1.539602-1.492438-1.600688-3.678203-.070575-5.162016 1.530113-1.482664 3.785547-1.42345 5.324556.068987" fill="#73cec6"/><path d="m634.797996 121.547573c.070575-.068413.130474-.067838.201049.000575l1.006435.975603c.069982.067838.069982.126478-.000593.194891l-6.843994 6.634332c-.070575.068413-.130475.068988-.20105.000575l-1.006434-.975603c-.070575-.068413-.070575-.127053 0-.195466z" fill="#73cec6"/></g></svg>