<?xml version="1.0" encoding="UTF-8"?>
<svg width="689px" height="625px" viewBox="0 0 689 625" version="1.1" xmlns="http://www.w3.org/2000/svg" xmlns:xlink="http://www.w3.org/1999/xlink">
    <!-- Generator: Sketch 58 (84663) - https://sketch.com -->
    <title>Group 90</title>
    <desc>Created with Sketch.</desc>
    <g id="New_Designs" stroke="none" stroke-width="1" fill="none" fill-rule="evenodd">
        <g id="Guidelines-Colour" transform="translate(-751.000000, 0.000000)">
            <g id="mesut-kaya-eOcyhe5-9sQ-unsplash-Copy-6" transform="translate(480.000000, 0.000000)">
                <g id="mesut-kaya-eOcyhe5-9sQ-unsplash-Copy-5">
                    <g id="Group-14">
                        <g id="Group-90" transform="translate(274.000000, -70.000000)">
                            <polygon id="Stroke-1" stroke="#73CEC6" stroke-width="4" points="287 347.779248 166.174594 379 119 209.220178 239.825406 178"></polygon>
                            <path d="M152,325 L272,294" id="Stroke-2" stroke="#73CEC6" stroke-width="4"></path>
                            <g id="Group-89">
                                <path d="M166.242333,331.198155 C168.373817,330.644528 170.116841,331.620706 170.559862,333.062552 C170.585364,333.156261 170.555117,333.206852 170.45904,333.231572 L169.001281,333.610431 C168.905205,333.635151 168.866655,333.602957 168.82692,333.512698 C168.46159,332.721637 167.604609,332.502026 166.642654,332.751532 C165.748309,332.983791 165.124995,333.502925 165.316556,334.195678 C165.534211,334.982139 166.693064,335.067224 168.008487,335.082747 C169.766338,335.097694 171.504024,335.360423 171.913241,336.839637 C172.436326,338.732204 171.259681,340.180949 169.019073,340.762747 C166.873357,341.319823 164.915642,340.314326 164.423397,338.585605 C164.397895,338.491896 164.426955,338.441305 164.523625,338.416585 L165.96715,338.041176 C166.06382,338.016455 166.10237,338.049224 166.142105,338.138909 C166.536495,339.193273 167.49074,339.502568 168.673908,339.195572 C169.842251,338.892026 170.431166,338.195823 170.22893,337.462828 C170.044486,336.79652 169.059995,336.595305 167.652054,336.617726 C165.449403,336.647621 164.030786,336.258989 163.606743,334.725734 C163.135255,333.02001 164.496344,331.651751 166.242333,331.198155" id="Fill-3" fill="#73CEC6"></path>
                                <path d="M176.124669,334.217524 L179.966558,337.56171 C180.0057,337.595054 180.012817,337.6215 180.019934,337.64852 C180.038319,337.714633 180.022306,337.761775 179.926229,337.78707 L178.386627,338.186625 C178.289364,338.211921 178.214045,338.203872 178.132794,338.123961 L175.219649,335.581184 L174.735113,336.335451 L175.420699,338.814415 C175.446201,338.907548 175.416547,338.958139 175.319877,338.983435 L173.945148,339.340447 C173.848478,339.365743 173.796288,339.336423 173.770193,339.242714 L171.265078,330.18001 C171.239576,330.086301 171.269229,330.03571 171.366492,330.010989 L172.740629,329.653977 C172.837299,329.628682 172.889488,329.657427 172.91499,329.75056 L174.215586,334.456107 L175.937853,331.780528 C175.987671,331.695443 176.027999,331.62818 176.124076,331.603459 L177.787629,331.171135 C177.870066,331.149864 177.908022,331.182633 177.923442,331.235524 C177.929965,331.262544 177.928186,331.306236 177.89794,331.356828 L176.124669,334.217524 Z" id="Fill-5" fill="#73CEC6"></path>
                                <path d="M180.243402,330.676032 L183.053353,334.446219 L183.227122,329.901069 C183.229494,329.800462 183.245507,329.753895 183.369458,329.721126 L184.882372,329.32847 C184.950575,329.310648 184.999799,329.326745 185.018184,329.393433 C185.025301,329.419879 185.031825,329.446324 185.029453,329.490016 L184.46426,337.308065 C184.331413,339.171312 183.537889,339.820372 182.630496,340.056081 C182.052849,340.20613 181.576616,340.244073 181.237382,340.189457 C181.095639,340.154389 181.063613,340.09115 181.04167,340.011239 L180.717262,338.83902 C180.690574,338.745887 180.734461,338.691271 180.790209,338.676899 C181.010237,338.619409 181.475795,338.81315 181.971599,338.684372 C182.672604,338.50213 182.925844,337.979547 182.937705,336.847571 L178.409638,331.238283 C178.384136,331.202065 178.363379,331.178494 178.352704,331.138826 C178.334319,331.071563 178.364565,331.021547 178.432768,331.003725 L180.028118,330.589223 C180.137836,330.560478 180.190025,330.589798 180.243402,330.676032" id="Fill-7" fill="#73CEC6"></path>
                                <path d="M192.628302,332.830753 L194.883737,332.244931 C195.666585,332.041417 196.101896,331.428575 195.874159,330.60187 C195.65591,329.815409 194.951939,329.455522 194.169091,329.659036 L191.913657,330.244858 L192.628302,332.830753 Z M191.486055,328.698955 L193.589664,328.152227 C194.222467,327.987806 194.60796,327.516389 194.40869,326.796615 C194.210605,326.076842 193.639482,325.881951 193.008458,326.046372 L190.903663,326.592526 L191.486055,328.698955 Z M191.285599,334.693425 L188.780483,325.630146 C188.754981,325.536437 188.785228,325.486421 188.881305,325.461126 L192.566624,324.503919 C194.161974,324.089992 195.683784,324.694211 196.107827,326.226891 C196.350984,327.106486 196.096559,327.729676 195.639897,328.319522 C196.564489,328.464972 197.327766,329.038721 197.652174,330.211514 C198.086299,331.784437 197.290403,333.2763 195.475617,333.748291 L191.460553,334.791158 C191.364477,334.815879 191.312287,334.786559 191.285599,334.693425 L191.285599,334.693425 Z" id="Fill-9" fill="#73CEC6"></path>
                                <path d="M197.277889,323.422994 C197.251201,323.329861 197.281447,323.27927 197.37871,323.254549 L198.75344,322.896962 C198.849517,322.872241 198.901707,322.901561 198.927209,322.994695 L201.432917,332.057974 C201.458419,332.151683 201.428172,332.202274 201.332095,332.226419 L199.957366,332.584006 C199.860696,332.609302 199.809099,332.579982 199.782411,332.486849 L197.277889,323.422994 Z" id="Fill-11" fill="#73CEC6"></path>
                                <path d="M208.980526,330.097224 C209.007214,330.190933 208.976967,330.240949 208.88089,330.266245 L207.506161,330.623257 C207.410084,330.648552 207.356708,330.619232 207.331206,330.526099 L207.197766,330.046058 C206.760083,330.645678 206.20853,331.103297 205.328419,331.331532 C203.829145,331.720738 202.682746,331.090074 202.300218,329.703994 L201.072569,325.265775 C201.047067,325.172641 201.077314,325.12205 201.173391,325.09733 L202.54812,324.739743 C202.644197,324.715022 202.696387,324.743767 202.723075,324.837475 L203.791189,328.70252 C204.068151,329.702269 204.600725,329.977645 205.357479,329.781605 C206.222764,329.556819 206.829471,328.713443 206.391788,327.127297 L205.555563,324.101605 C205.530061,324.008471 205.559715,323.957305 205.656385,323.932585 L207.031114,323.575572 C207.127191,323.550277 207.179381,323.579597 207.204883,323.67273 L208.980526,330.097224 Z" id="Fill-13" fill="#73CEC6"></path>
                                <path d="M210.970562,325.252092 L214.532523,324.32708 C214.086537,323.671696 213.371891,323.328481 212.395109,323.582011 C211.612261,323.785526 211.036393,324.420789 210.970562,325.252092 M214.985626,326.394416 C215.024769,326.270238 215.049084,326.249542 215.145161,326.224821 L216.547765,325.86091 C216.616561,325.842513 216.654517,325.875283 216.669344,325.929323 C216.67646,325.955768 216.684763,325.982214 216.678833,326.069023 C216.493796,327.689088 215.557343,328.67504 213.908023,329.103339 C211.913539,329.621323 209.982512,328.608351 209.411389,326.54274 C208.840265,324.476554 210.044784,322.649526 211.997754,322.142465 C214.253188,321.556643 216.023494,322.896732 216.560812,324.842764 L216.623084,325.069274 C216.649772,325.162408 216.619526,325.213574 216.523449,325.23887 L211.284295,326.59908 C211.669195,327.456254 212.506606,327.924222 213.523716,327.660343 C214.320205,327.45338 214.787542,327.060724 214.985626,326.394416" id="Fill-15" fill="#73CEC6"></path>
                                <polygon id="Stroke-17" stroke="#73CEC6" stroke-width="4" points="456.447012 363.815268 394.17497 468.369236 237.009824 380.409721 299.281866 275.855754"></polygon>
                                <path d="M344.868204,440.774209 L407.140246,336.220241" id="Stroke-19" stroke="#73CEC6" stroke-width="4"></path>
                                <path d="M366.909541,440.037016 C366.995536,440.085308 367.011549,440.142223 366.961731,440.225583 L366.206757,441.492085 C366.156939,441.57602 366.098819,441.590968 366.012231,441.542676 L357.629821,436.851502 C357.543233,436.803211 357.527813,436.745721 357.577631,436.662935 L358.332012,435.396433 C358.38183,435.311923 358.440544,435.297551 358.526538,435.345842 L361.817468,437.187243 L363.881934,433.722328 L360.591005,431.879777 C360.504417,431.831486 360.488997,431.775146 360.538815,431.690636 L361.292603,430.424134 C361.342421,430.341348 361.401728,430.325251 361.487129,430.373543 L369.870132,435.065866 C369.95672,435.114158 369.97214,435.170498 369.922322,435.254433 L369.168534,436.520935 C369.118716,436.604296 369.05941,436.619818 368.973415,436.571526 L365.312412,434.522587 L363.247945,437.988077 L366.909541,440.037016 Z" id="Fill-21" fill="#73CEC6"></path>
                                <path d="M369.379132,430.012219 C369.023292,430.609538 369.002534,431.251126 369.509014,431.533976 C369.988805,431.803028 370.500622,431.579968 370.899163,430.910211 C371.333288,430.181239 371.25441,429.182065 370.465631,428.739968 C370.018458,429.159069 369.699388,429.474113 369.379132,430.012219 L369.379132,430.012219 Z M366.543085,431.324713 C366.514618,431.371854 366.468359,431.394275 366.419134,431.366105 C366.394225,431.352883 366.345594,431.325287 366.302893,431.285619 C365.427526,430.492834 365.147598,429.141247 365.994498,427.719522 C366.905449,426.190291 368.423108,425.684955 369.889763,426.505336 L372.564495,428.002372 C373.09529,428.299595 373.426222,428.405377 373.834252,428.410551 C373.948714,428.411126 373.95761,428.479538 373.907792,428.562899 L373.039542,430.021417 C372.989724,430.104777 372.930418,430.119725 372.845016,430.072008 L372.486803,429.871943 C372.57695,430.383603 372.600672,431.033814 372.073436,431.918008 C371.347522,433.137368 369.989398,433.651328 368.719641,432.940753 C367.36389,432.181887 367.303397,430.682551 368.086246,429.368332 C368.399385,428.8423 368.828766,428.397328 369.208329,428.036291 L369.035746,427.940283 C368.418956,427.594769 367.760059,427.735045 367.325341,428.464591 C366.997968,429.014194 366.989665,429.471814 367.250021,429.888615 C367.314072,430.00302 367.304583,430.046138 367.261883,430.118 L366.543085,431.324713 Z" id="Fill-23" fill="#73CEC6"></path>
                                <path d="M372.285339,420.661145 C372.359472,420.702538 372.406917,420.761177 372.364217,420.83304 C372.3571,420.843963 372.349983,420.856611 372.290083,420.902602 C371.72489,421.271687 371.431915,421.569485 371.211294,421.940295 C370.763528,422.692837 370.806229,423.449979 372.100302,424.173777 L375.292782,425.961137 C375.379369,426.009428 375.394789,426.065768 375.344972,426.149704 L374.633291,427.344343 C374.583473,427.428279 374.52476,427.443226 374.438765,427.394934 L368.496826,424.070295 C368.410831,424.022003 368.394819,423.964513 368.444636,423.881728 L369.15691,422.685938 C369.206727,422.602578 369.264848,422.587631 369.351436,422.635922 L369.683553,422.821615 C369.552486,422.270287 369.616537,421.637323 369.980087,421.02793 C370.214941,420.632975 370.501986,420.316206 370.831731,420.03853 C370.952717,419.947121 371.015582,419.95057 371.139533,420.019558 L372.285339,420.661145 Z" id="Fill-25" fill="#73CEC6"></path>
                                <path d="M378.100776,418.818019 C378.663004,417.874036 378.171944,416.850141 377.11154,416.256845 C376.051137,415.66355 374.890504,415.763007 374.32887,416.706416 C373.765456,417.650975 374.258295,418.67487 375.318106,419.268165 C376.37851,419.861461 377.538549,419.762578 378.100776,418.818019 L378.100776,418.818019 Z M369.093867,417.602109 C369.008465,417.553817 368.992452,417.496902 369.04227,417.413542 L369.754543,416.218327 C369.804361,416.134392 369.862482,416.119445 369.949069,416.167736 L372.759614,417.740659 C372.646339,416.992716 372.77622,416.332732 373.168238,415.674473 C374.129006,414.061882 376.023855,413.639906 378.008851,414.751185 C379.99266,415.86189 380.563784,417.663048 379.603015,419.276789 C379.176007,419.993687 378.601918,420.405315 377.949544,420.645623 L378.332072,420.85891 C378.417474,420.907202 378.43408,420.964117 378.384262,421.047477 L377.671396,422.243266 C377.621578,422.326627 377.564051,422.342149 377.47687,422.293857 L369.093867,417.602109 Z" id="Fill-27" fill="#73CEC6"></path>
                                <path d="M382.328099,411.720491 C382.918794,410.728216 382.572443,409.62671 381.438498,408.992022 C380.304554,408.356759 379.146294,408.617763 378.555599,409.608888 C377.964905,410.601164 378.311849,411.703245 379.445793,412.337933 C380.579737,412.973196 381.737404,412.712767 382.328099,411.720491 M377.224757,408.864394 C378.313035,407.035641 380.475951,406.413601 382.34945,407.462216 C384.222948,408.510832 384.748999,410.637382 383.659535,412.46556 C382.570664,414.293738 380.408934,414.916929 378.534842,413.867738 C376.660157,412.819123 376.135886,410.692572 377.224757,408.864394" id="Fill-29" fill="#73CEC6"></path>
                                <path d="M389.142025,402.708493 C389.228612,402.756785 389.244625,402.813125 389.194808,402.896485 L388.482534,404.0917 C388.432716,404.175635 388.374596,404.190582 388.288008,404.142291 L387.844394,403.893934 C387.97131,404.618882 387.916155,405.319683 387.460086,406.084299 C386.684355,407.387019 385.413412,407.726785 384.131201,407.009311 L380.026584,404.712015 C379.939403,404.663724 379.923983,404.607959 379.973801,404.524598 L380.685481,403.328809 C380.735299,403.246023 380.794013,403.229926 380.880007,403.278218 L384.455016,405.27944 C385.3802,405.796849 385.957847,405.626104 386.349272,404.968995 C386.79763,404.215878 386.611407,403.204056 385.144753,402.383675 L382.346662,400.817076 C382.260074,400.768785 382.244655,400.711295 382.294472,400.628509 L383.00556,399.433295 C383.055377,399.34936 383.114091,399.334987 383.200086,399.383279 L389.142025,402.708493 Z" id="Fill-31" fill="#73CEC6"></path>
                                <path d="M387.800092,394.612194 C387.874225,394.653586 387.92167,394.712226 387.87897,394.784088 C387.871853,394.795586 387.864736,394.808234 387.804836,394.854226 C387.239643,395.222736 386.946668,395.521683 386.726047,395.891343 C386.277689,396.644461 386.320389,397.401602 387.615055,398.1254 L390.806942,399.912185 C390.894123,399.960477 390.908949,400.017392 390.859132,400.100752 L390.148044,401.295967 C390.098227,401.379327 390.03892,401.394849 389.953518,401.346558 L384.010986,398.021343 C383.925585,397.973052 383.908979,397.916137 383.958796,397.832777 L384.671663,396.637562 C384.721481,396.553627 384.779008,396.539254 384.866189,396.587546 L385.198306,396.773238 C385.066646,396.221335 385.13129,395.588947 385.494247,394.979554 C385.729102,394.584598 386.016146,394.267254 386.346484,393.990153 C386.466877,393.898169 386.530335,393.902194 386.653693,393.971181 L387.800092,394.612194 Z" id="Fill-33" fill="#73CEC6"></path>
                                <polygon id="Stroke-35" stroke="#73CEC6" stroke-width="4" points="583.017013 623.055815 462.716324 591.808916 509.686643 421.884357 629.986739 453.131256"></polygon>
                                <path d="M477.452261,538.499126 L597.752951,569.7466" id="Stroke-37" stroke="#73CEC6" stroke-width="4"></path>
                                <path d="M491.231226,560.863494 C491.205724,560.956628 491.152941,560.985947 491.056864,560.961227 L489.599698,560.582943 C489.503621,560.557648 489.472782,560.506482 489.498284,560.413348 L491.196828,554.26883 L487.898189,558.312668 C487.832358,558.394879 487.748143,558.430522 487.665113,558.408676 L486.538286,558.116053 C486.45585,558.094781 486.401881,558.023494 486.385868,557.919437 L485.614287,552.818935 L483.915743,558.962879 C483.890242,559.056012 483.838645,559.085907 483.742568,559.061186 L482.284809,558.682903 C482.188139,558.657607 482.157893,558.606441 482.183394,558.513308 L484.689103,549.450028 C484.715198,549.356895 484.767388,549.327575 484.864058,549.352296 L486.582766,549.798992 C486.678843,549.823713 486.750011,549.885227 486.765431,549.989858 L487.698918,556.103907 L491.660606,551.26096 C491.727623,551.178174 491.821327,551.159777 491.917404,551.184498 L493.636113,551.630619 C493.73219,551.655915 493.763029,551.707081 493.736934,551.800215 L491.231226,560.863494 Z" id="Fill-39" fill="#73CEC6"></path>
                                <path d="M496.435626,560.957777 C497.576687,561.254425 498.584902,560.645032 498.923543,559.418773 C499.26337,558.192514 498.704108,557.175518 497.563047,556.87887 C496.421986,556.582798 495.413179,557.192765 495.073944,558.419024 C494.735303,559.645283 495.293972,560.66113 496.435626,560.957777 M497.960995,555.439899 C500.064604,555.987202 501.243621,557.849874 500.683766,559.875818 C500.123911,561.902336 498.141287,562.944628 496.037678,562.397899 C493.93407,561.851745 492.753866,559.987923 493.313721,557.96198 C493.87417,555.935462 495.857386,554.893745 497.960995,555.439899" id="Fill-41" fill="#73CEC6"></path>
                                <path d="M502.904921,557.010407 C502.931016,556.917274 502.983206,556.887379 503.079875,556.912674 L504.454605,557.269687 C504.550682,557.294407 504.580928,557.345573 504.554833,557.438707 L504.423172,557.918172 C505.111723,557.611751 505.825776,557.482974 506.705294,557.711784 C508.204568,558.100415 508.871768,559.202496 508.488647,560.589152 L507.261591,565.026796 C507.236089,565.11993 507.1839,565.149824 507.087823,565.124529 L505.7125,564.767517 C505.61583,564.742796 505.586177,564.69163 505.611679,564.598496 L506.680386,560.734027 C506.956755,559.733703 506.637685,559.236415 505.881524,559.0398 C505.015053,558.815015 504.053692,559.250788 503.615415,560.837509 L502.77919,563.862626 C502.753689,563.95576 502.701499,563.985654 502.605422,563.960934 L501.230692,563.603921 C501.134022,563.578626 501.103776,563.52746 501.129278,563.434326 L502.904921,557.010407 Z" id="Fill-43" fill="#73CEC6"></path>
                                <path d="M514.957941,559.997754 C515.054018,560.023049 515.084858,560.074215 515.058763,560.167349 L514.734948,561.339568 C514.708853,561.432701 514.65607,561.462596 514.559993,561.4373 L512.484259,560.898045 L511.696072,563.750693 C511.496802,564.469891 511.655151,564.911414 512.342516,565.089632 C512.768931,565.200588 513.077919,565.252904 513.608121,565.204612 C513.652601,565.201163 513.680475,565.208062 513.707756,565.215535 C513.776552,565.233357 513.789006,565.294296 513.770621,565.36041 L513.468157,566.453867 C513.435538,566.574021 513.41656,566.640709 513.295574,566.651632 C512.856112,566.69475 512.178236,566.590693 511.655744,566.454442 C510.335577,566.111802 509.556286,565.094232 509.96491,563.615592 L510.834346,560.469171 L509.65177,560.162175 C509.555693,560.137454 509.524854,560.086288 509.550949,559.993155 L509.874763,558.820936 C509.900858,558.727802 509.953641,558.697908 510.049718,558.722628 L511.232294,559.029624 L511.762496,557.111187 C511.788591,557.017479 511.840781,556.988159 511.936858,557.013454 L513.31218,557.370466 C513.408257,557.395187 513.438503,557.446353 513.413002,557.540062 L512.882207,559.459074 L514.957941,559.997754 Z" id="Fill-45" fill="#73CEC6"></path>
                                <path d="M516.956637,563.216957 L520.518004,564.141969 C520.469373,563.357807 520.028131,562.714496 519.051943,562.460965 C518.267908,562.256876 517.441172,562.528803 516.956637,563.216957 M519.84428,566.151815 C519.942136,566.064431 519.973569,566.057532 520.069646,566.082253 L521.472249,566.447313 C521.540452,566.46456 521.557651,566.511702 521.542231,566.565168 C521.535707,566.591613 521.527998,566.618633 521.47818,566.69107 C520.481234,568.004139 519.162846,568.404269 517.512934,567.975969 C515.519042,567.457985 514.369678,565.64533 514.940802,563.579143 C515.511925,561.512957 517.497514,560.514933 519.449891,561.021994 C521.704732,561.607815 522.546887,563.626285 522.009568,565.572317 L521.94611,565.798828 C521.920608,565.891961 521.867825,565.921281 521.771748,565.895985 L516.533187,564.5352 C516.424062,565.464236 516.907412,566.275419 517.924522,566.539297 C518.722197,566.746836 519.327719,566.632431 519.84428,566.151815" id="Fill-47" fill="#73CEC6"></path>
                                <path d="M525.615772,569.794604 C525.548755,569.876815 525.482332,569.902685 525.414129,569.884863 L523.928496,569.499106 C523.8597,569.481284 523.816406,569.426669 523.7998,569.323187 L523.079224,562.335867 C523.081003,562.279527 523.083968,562.26573 523.091678,562.238709 C523.113622,562.159373 523.165219,562.129479 523.248248,562.151325 L524.705414,562.529608 C524.801491,562.554329 524.859611,562.612968 524.86139,562.713576 L525.237988,567.639883 L528.10606,563.555802 C528.159436,563.470143 528.2395,563.447721 528.335577,563.472442 L529.792743,563.8513 C529.875772,563.872572 529.905426,563.923738 529.883482,564.003649 C529.876365,564.030094 529.869249,564.056539 529.84434,564.092758 L525.615772,569.794604 Z" id="Fill-49" fill="#73CEC6"></path>
                                <path d="M531.24125,566.926836 L534.802618,567.851849 C534.753986,567.068262 534.312744,566.42495 533.336556,566.171419 C532.552521,565.96733 531.725786,566.239257 531.24125,566.926836 M534.128894,569.86227 C534.226157,569.77431 534.258182,569.767986 534.354259,569.792707 L535.756863,570.157193 C535.825065,570.175015 535.842264,570.222156 535.826845,570.275622 C535.820321,570.302067 535.812611,570.329087 535.762793,570.401525 C534.765848,571.714594 533.44746,572.114723 531.796954,571.686423 C529.803655,571.16844 528.654291,569.355784 529.225415,567.289598 C529.796539,565.223411 531.782127,564.225387 533.734504,564.732448 C535.989345,565.317695 536.8315,567.336739 536.294181,569.282772 L536.230723,569.509282 C536.205221,569.602415 536.152438,569.63116 536.056362,569.60644 L530.8178,568.245654 C530.708676,569.174691 531.192025,569.985298 532.209135,570.249751 C533.006811,570.45729 533.612332,570.342885 534.128894,569.86227" id="Fill-51" fill="#73CEC6"></path>
                                <path d="M542.876692,568.92047 C542.854749,569.000956 542.809083,569.060171 542.726053,569.0389 C542.713006,569.03545 542.698772,569.032001 542.637686,568.987159 C542.122904,568.55311 541.750458,568.356495 541.324636,568.246114 C540.458165,568.021329 539.715052,568.257037 539.328372,569.655766 L538.373534,573.108033 C538.348032,573.201167 538.295842,573.231062 538.199765,573.205766 L536.825036,572.848754 C536.728366,572.824033 536.698119,572.772867 536.723621,572.679734 L538.499264,566.255815 C538.525359,566.162681 538.577549,566.132786 538.674219,566.157507 L540.048948,566.514519 C540.145618,566.539815 540.175272,566.590981 540.149177,566.684114 L540.050135,567.043426 C540.566103,566.777823 541.213139,566.674916 541.914737,566.857159 C542.369027,566.975013 542.759265,567.16128 543.120443,567.398713 C543.243208,567.488398 543.256255,567.548187 543.218892,567.681564 L542.876692,568.92047 Z" id="Fill-53" fill="#73CEC6"></path>
                                <path d="M547.002126,569.7205 C545.915627,569.438799 545.023061,570.163747 544.70577,571.31067 C544.389072,572.457018 544.788207,573.517131 545.874706,573.799406 C546.960611,574.081682 547.85377,573.35616 548.170468,572.209811 C548.487759,571.063463 548.088032,570.002775 547.002126,569.7205 L547.002126,569.7205 Z M548.84953,575.829374 C548.824028,575.922508 548.772431,575.952402 548.676354,575.927682 L547.301032,575.570095 C547.204955,575.545374 547.174709,575.494208 547.20021,575.401074 L547.314672,574.987722 C546.677718,575.265398 545.971375,575.36773 545.146419,575.153868 C543.290119,574.671528 542.379761,573.006046 542.972828,570.859949 C543.566488,568.714427 545.213436,567.714103 547.069736,568.195868 C547.826489,568.391909 548.399392,568.769617 548.866136,569.37671 L549.705919,566.33722 C549.732014,566.244087 549.783611,566.214767 549.88028,566.239487 L551.255603,566.5965 C551.35168,566.621795 551.381333,566.672961 551.355238,566.766095 L548.84953,575.829374 Z" id="Fill-55" fill="#73CEC6"></path>
                                <path d="M553.018495,572.583783 L556.579863,573.508795 C556.531824,572.724633 556.090582,572.081321 555.113801,571.827791 C554.330359,571.623702 553.503624,571.895629 553.018495,572.583783 M555.906138,575.518641 C556.003994,575.431257 556.035427,575.424358 556.131504,575.449653 L557.534108,575.814139 C557.602903,575.831386 557.619509,575.878528 557.604089,575.931994 C557.597566,575.958439 557.589856,575.985459 557.540631,576.057896 C556.543686,577.370965 555.225297,577.771095 553.574792,577.342795 C551.5809,576.824811 550.431536,575.012155 551.00266,572.945969 C551.573783,570.879783 553.559372,569.881759 555.511749,570.388819 C557.767183,570.974641 558.608745,572.993111 558.071426,574.939143 L558.007968,575.165653 C557.982466,575.258787 557.930276,575.288107 557.834199,575.262811 L552.595638,573.902026 C552.485921,574.831062 552.96927,575.642245 553.98638,575.906123 C554.784649,576.113662 555.39017,575.999257 555.906138,575.518641" id="Fill-57" fill="#73CEC6"></path>
                                <polygon id="Stroke-59" stroke="#73CEC6" stroke-width="4" points="199.031588 649.214859 91.1734459 709.579232 0.434184401 557.228754 108.292327 496.864381"></polygon>
                                <path d="M62.706108,661.782894 L170.56425,601.418521" id="Stroke-61" stroke="#73CEC6" stroke-width="4"></path>
                                <path d="M80.5438455,668.129834 L82.6148357,666.970263 L79.8422472,664.634449 L80.5438455,668.129834 Z M83.9338169,668.080968 L80.8771492,669.792441 L81.3818493,672.297275 C81.4073512,672.394433 81.4037928,672.444449 81.3053436,672.49964 L79.9620467,673.251607 C79.8754589,673.299899 79.8048839,673.291275 79.7550663,673.207915 C79.7408327,673.184344 79.7337159,673.172271 79.7248199,673.129154 L77.9604454,663.377721 C77.9349435,663.279988 77.9260475,663.237445 78.0120422,663.189154 L79.4674288,662.375097 C79.5528304,662.326806 79.5866353,662.355551 79.6619548,662.425688 L87.4910332,668.782919 C87.524838,668.811664 87.5313617,668.823737 87.5461884,668.847883 C87.596006,668.931243 87.5681319,668.995057 87.4815441,669.043348 L86.1382472,669.794741 C86.039798,669.850506 85.9929457,669.828085 85.9188124,669.758522 L83.9338169,668.080968 Z" id="Fill-63" fill="#73CEC6"></path>
                                <path d="M90.5431935,665.76792 C91.5176027,665.222916 91.6202033,664.098414 91.007565,663.070495 C90.3961129,662.042576 89.3392674,661.565985 88.3654512,662.110989 C87.3916351,662.655993 87.2890345,663.78107 87.9010797,664.808989 C88.5131249,665.836908 89.5687843,666.312924 90.5431935,665.76792 L90.5431935,665.76792 Z M83.3706404,660.349499 C83.3208228,660.266138 83.3374286,660.209223 83.4228303,660.160932 L84.6558167,659.471053 C84.7424045,659.422762 84.8005251,659.437709 84.8503427,659.521645 L86.4735673,662.24609 C86.7612048,661.542414 87.2149011,661.034778 87.8927768,660.65477 C89.556923,659.723434 91.4155952,660.277062 92.5608077,662.201248 C93.7066133,664.125434 93.2724882,665.961661 91.6077489,666.892997 C90.8681943,667.307499 90.1588861,667.38511 89.4691491,667.277029 L89.6909561,667.647839 C89.7401807,667.730624 89.7241679,667.788114 89.6387662,667.836406 L88.4057798,668.526284 C88.319192,668.574576 88.2604784,668.558479 88.2106607,668.475693 L83.3706404,660.349499 Z" id="Fill-65" fill="#73CEC6"></path>
                                <path d="M91.8439675,658.763008 C91.7941499,658.679073 91.8089766,658.622733 91.8961574,658.574441 L93.1285508,657.884563 C93.2151386,657.836271 93.2732592,657.851219 93.3230768,657.935154 L96.7527836,663.69449 C96.8026013,663.778425 96.7877746,663.834765 96.7011868,663.883057 L95.4682004,664.572935 C95.3827987,664.621227 95.323492,664.605704 95.2736744,664.522919 L91.8439675,658.763008 Z M90.3482524,656.445016 C90.2984347,656.361081 90.3138545,656.304741 90.3998492,656.256449 L91.8060112,655.469413 C91.8914129,655.421696 91.9501265,655.436644 91.9999442,655.520004 L92.8112599,656.882514 C92.8610775,656.965874 92.8456578,657.022789 92.75907,657.071081 L91.3540941,657.857543 C91.2675063,657.905834 91.2093858,657.890312 91.1595681,657.806951 L90.3482524,656.445016 Z" id="Fill-67" fill="#73CEC6"></path>
                                <path d="M100.544261,661.891837 C98.9791574,662.767408 97.4401484,662.5294 96.5724913,661.293943 C96.5297904,661.222655 96.5386864,661.154242 96.6246812,661.105951 L97.8695289,660.409173 C97.9567098,660.360882 98.0017829,660.382728 98.0640549,660.459189 C98.5171582,660.970274 99.1843586,660.931756 99.8248711,660.573019 C100.429206,660.234979 100.801653,659.756088 100.573915,659.373781 C100.374644,659.039189 99.8379185,659.020793 98.5646035,659.478412 C96.923587,660.061934 95.9165591,659.861295 95.3756819,658.952955 C94.571483,657.602517 95.5470783,656.370509 96.7183858,655.7157 C98.2224038,654.874048 99.6777904,655.110906 100.403111,656.106631 C100.445812,656.178493 100.437509,656.247481 100.350922,656.295772 L99.1060738,656.99255 C99.0200791,657.040841 98.9495041,657.032218 98.8623232,656.968979 C98.4691197,656.695327 97.9881424,656.661408 97.4093089,656.986226 C96.9164702,657.262177 96.5914694,657.683003 96.8328477,658.088882 C97.0113609,658.387829 97.4122742,658.481538 98.7781077,657.988274 C100.269671,657.455918 101.376928,657.410501 102.03879,658.522355 C102.70777,659.645133 102.097504,661.022015 100.544261,661.891837" id="Fill-69" fill="#73CEC6"></path>
                                <path d="M104.995111,654.158759 L109.599684,656.42501 C109.64535,656.447431 109.659584,656.471002 109.67441,656.494572 C109.709401,656.554937 109.706436,656.604953 109.619848,656.653245 L108.239188,657.425909 C108.153193,657.4742 108.076688,657.484548 107.978239,657.428208 L104.485073,655.702937 L104.218193,656.553212 L105.542512,658.775771 C105.59233,658.859131 105.576317,658.916046 105.490322,658.964338 L104.257929,659.654216 C104.170748,659.702508 104.11322,659.686985 104.063403,659.603625 L99.2233824,651.477431 C99.1735648,651.39407 99.1889846,651.337155 99.2749793,651.288864 L100.507966,650.59956 C100.59396,650.551269 100.652674,650.566216 100.702492,650.649577 L103.214724,654.867609 L104.163631,651.851115 C104.189726,651.756832 104.210483,651.682095 104.296478,651.633803 L105.788042,650.79905 C105.862175,650.757657 105.908434,650.780079 105.936902,650.82722 C105.951135,650.850791 105.960031,650.893909 105.944612,650.950249 L104.995111,654.158759 Z" id="Fill-71" fill="#73CEC6"></path>
                                <path d="M112.497113,653.481126 C113.520747,652.908526 113.788813,651.786324 113.134067,650.687117 C112.479914,649.587911 111.342411,649.251595 110.319371,649.824194 C109.29633,650.396794 109.027671,651.519571 109.682417,652.618777 C110.33657,653.717984 111.474072,654.053725 112.497113,653.481126 M109.550163,648.534121 C111.437302,647.478032 113.629871,647.987393 114.711625,649.804073 C115.793973,651.620753 115.152274,653.716259 113.266321,654.771773 C111.379775,655.827287 109.186613,655.318502 108.104858,653.501822 C107.023104,651.685717 107.664803,649.589061 109.550163,648.534121" id="Fill-73" fill="#73CEC6"></path>
                                <polyline id="Stroke-75" stroke="#73CEC6" stroke-width="4" points="698.784357 0.444339271 786.850666 85.8122097 658.525779 210.205934 570.460064 124.838064 698.784357 0.444339271"></polyline>
                                <path d="M610.718583,85.8123247 L698.784298,171.180195" id="Stroke-77" stroke="#73CEC6" stroke-width="4"></path>
                                <path d="M609.948248,102.61127 L611.489036,104.104282 C611.951036,104.553278 612.565453,104.640662 613.109296,104.114055 C613.652545,103.587448 613.541642,103.011399 613.079049,102.562403 L611.538854,101.069391 L609.948248,102.61127 Z M606.827529,105.635812 L608.478628,107.23633 C609.052717,107.792832 609.81718,107.850897 610.44168,107.246104 C611.03534,106.67063 611.005094,105.899691 610.431005,105.343764 L608.780499,103.743245 L606.827529,105.635812 Z M604.492624,105.440347 L611.337211,98.8060146 C611.407786,98.7376016 611.468279,98.7381765 611.538854,98.8065895 L614.23553,101.421229 C615.403279,102.55263 615.625086,104.133027 614.467419,105.255804 C613.803184,105.899691 613.119378,105.997423 612.36381,105.908889 C612.695928,106.758589 612.565453,107.685326 611.680004,108.54365 C610.492091,109.695172 608.760335,109.772784 607.432458,108.485585 L604.492624,105.635812 C604.422642,105.567974 604.422049,105.50876 604.492624,105.440347 L604.492624,105.440347 Z" id="Fill-79" fill="#73CEC6"></path>
                                <path d="M615.192029,115.812096 C615.121454,115.880509 615.060961,115.880509 614.990386,115.812096 L613.983951,114.836492 C613.913376,114.768079 613.913376,114.70944 613.983951,114.641027 L614.346315,114.290913 C613.591341,114.221351 612.906348,113.987367 612.26287,113.363027 C611.165696,112.300039 611.155614,111.021464 612.202378,110.006768 L615.554393,106.75744 C615.624375,106.689602 615.684274,106.689027 615.754849,106.75744 L616.761284,107.733043 C616.832452,107.801456 616.832452,107.860096 616.761877,107.928509 L613.843394,110.75816 C613.08842,111.490006 613.107991,112.075253 613.661916,112.612209 C614.295904,113.226776 615.35275,113.31416 616.550745,112.154015 L618.835833,109.938355 C618.905815,109.869942 618.965714,109.869942 619.036289,109.938355 L620.043317,110.913958 C620.113892,110.982946 620.113892,111.041011 620.043317,111.108849 L615.192029,115.812096 Z" id="Fill-81" fill="#73CEC6"></path>
                                <path d="M624.955039,111.537953 C625.739667,112.298544 625.40755,112.738342 625.950799,113.265524 C626.141767,113.450641 626.403902,113.567346 626.836841,113.655305 C626.887845,113.665079 626.907416,113.665079 626.947745,113.704747 C626.98748,113.74269 626.98748,113.781783 626.967909,113.879516 L626.806595,114.875815 C626.796513,114.924107 626.776348,114.943653 626.756777,114.9632 C626.726531,114.99252 626.695691,115.001143 626.604952,114.99252 C626.031456,114.924107 625.367814,114.748763 624.944364,114.338285 C624.159736,113.577694 624.492447,113.138471 623.948012,112.610714 C623.757044,112.426172 623.494908,112.308892 623.062562,112.220933 C623.012152,112.21116 622.991394,112.21116 622.951659,112.172641 C622.91133,112.133548 622.91133,112.094455 622.931495,111.996722 L623.092216,111.000998 C623.102298,110.952131 623.123055,110.93316 623.142626,110.913038 C623.172873,110.883718 623.203119,110.875095 623.293859,110.884293 C623.867947,110.952131 624.53159,111.127475 624.955039,111.537953 L624.955039,111.537953 Z M621.180168,112.21116 C621.250149,112.142747 621.310642,112.143321 621.381217,112.21116 L622.387652,113.186763 C622.458227,113.255176 622.458227,113.313815 622.388245,113.382228 L622.025881,113.733491 C622.780262,113.80133 623.464662,114.035888 624.108733,114.660228 C625.2065,115.723791 625.215989,117.002366 624.169819,118.017062 L620.817804,121.265815 C620.747229,121.334228 620.687329,121.334228 620.616754,121.265815 L619.609726,120.290212 C619.539151,120.221224 619.539151,120.16316 619.609726,120.094747 L622.528802,117.26567 C623.284369,116.533823 623.263612,115.948577 622.710281,115.411621 C622.076292,114.797054 621.019446,114.70967 619.821451,115.87039 L617.536363,118.0849 C617.465788,118.153313 617.405889,118.153313 617.334721,118.0849 L616.328286,117.108722 C616.258304,117.040884 616.257711,116.982245 616.328286,116.913832 L621.180168,112.21116 Z" id="Fill-83" fill="#73CEC6"></path>
                                <path d="M625.256258,123.851135 C626.09189,124.661168 627.27921,124.622074 628.205581,123.724083 C629.131358,122.826666 629.17228,121.675718 628.336055,120.865686 C627.500424,120.055079 626.313104,120.094747 625.387326,120.992164 C624.460955,121.890155 624.420627,123.041103 625.256258,123.851135 M629.423147,119.811896 C630.963936,121.304909 631.024428,123.490099 629.494315,124.973338 C627.963609,126.456577 625.709954,126.398512 624.169166,124.904925 C622.629564,123.412487 622.568478,121.226722 624.098591,119.742909 C625.628704,118.260245 627.884138,118.319459 629.423147,119.811896" id="Fill-85" fill="#73CEC6"></path>
                                <path d="M634.797996,121.547573 C634.868571,121.47916 634.92847,121.479735 634.999045,121.548148 L636.00548,122.523751 C636.075462,122.591589 636.075462,122.650229 636.004887,122.718642 L629.160893,129.352974 C629.090318,129.421387 629.030418,129.421962 628.959843,129.353549 L627.953409,128.377946 C627.882834,128.309533 627.882834,128.250893 627.953409,128.18248 L634.797996,121.547573 Z" id="Fill-87" fill="#73CEC6"></path>
                            </g>
                        </g>
                    </g>
                </g>
            </g>
        </g>
    </g>
</svg>