<svg height="545" viewBox="0 0 594 545" width="594" xmlns="http://www.w3.org/2000/svg"><g fill="none" fill-rule="evenodd" stroke="#e18b96" stroke-width="4" transform="translate(2 2)"><path d="m0 821h1191v-782h-1191z"/><path d="m353 153h819v-87h-819z"/><path d="m353 487h819v-19h-819z"/><path d="m353 264h819v-19h-819z"/><path d="m353 301h819v-19h-819z"/><path d="m353 339h819v-19h-819z"/><path d="m353 376h819v-19h-819z"/><path d="m353 413h819v-19h-819z"/><path d="m353 450h819v-19h-819z"/><path d="m353 190h819v-19h-819z"/><path d="m353 227h819v-19h-819z"/><path d="m0 39h1191v-30.16119016c0-4.88132012-3.96375-8.83880984-8.85341-8.83880984h-1173.2931774c-4.88966457 0-8.8534126 3.95748972-8.8534126 8.83880984z"/><path d="m19 599h315v-533h-315z"/><path d="m19 66 315 533"/><path d="m334 66-315 533"/></g></svg>