<?xml version="1.0" encoding="UTF-8"?>
<svg width="682px" height="624px" viewBox="0 0 682 624" version="1.1" xmlns="http://www.w3.org/2000/svg" xmlns:xlink="http://www.w3.org/1999/xlink">
    <!-- Generator: Sketch 58 (84663) - https://sketch.com -->
    <title>Group 54</title>
    <desc>Created with Sketch.</desc>
    <g id="New_Designs" stroke="none" stroke-width="1" fill="none" fill-rule="evenodd" opacity="0.495535714">
        <g id="Guidelines-Graphic-Devices" transform="translate(-758.000000, 0.000000)">
            <g id="Group" transform="translate(480.000000, -365.000000)">
                <g id="Group-54" transform="translate(278.000000, 0.000000)">
                    <path d="M399.5,989 L399.5,981" id="Stroke-1" stroke="#FFB54D" stroke-width="4"></path>
                    <path d="M399.5,965 L399.5,318" id="Stroke-3" stroke="#FFB54D" stroke-width="4" stroke-dasharray="24.538,24.538"></path>
                    <path d="M15,761.5 L29,761.5" id="Stroke-7" stroke="#FFB54D" stroke-width="4"></path>
                    <path d="M3.5,751 L3.5,737" id="Stroke-8" stroke="#FFB54D" stroke-width="4"></path>
                    <path d="M223,761.5 L205,761.5" id="Stroke-9" stroke="#FFB54D" stroke-width="4"></path>
                    <path d="M242,767 L258,777" id="Stroke-10" stroke="#FFB54D" stroke-width="4"></path>
                    <path d="M388,851 L371,841" id="Stroke-11" stroke="#FFB54D" stroke-width="4"></path>
                    <g id="Group-53">
                        <path d="M3.81716418,739.376462 L3.81716418,739.376462 C1.70945336,739.376462 0,737.670479 0,735.567047 C0,733.462981 1.70945336,731.757633 3.81716418,731.757633 C5.924875,731.757633 7.63432836,733.462981 7.63432836,735.567047 C7.63432836,737.670479 5.924875,739.376462 3.81716418,739.376462" id="Fill-12" fill="#FFB54D"></path>
                        <path d="M3.81716418,753.532182 L3.81716418,753.532182 C1.70945336,753.532182 0,751.826834 0,749.722768 C0,747.619336 1.70945336,745.913353 3.81716418,745.913353 C5.924875,745.913353 7.63432836,747.619336 7.63432836,749.722768 C7.63432836,751.826834 5.924875,753.532182 3.81716418,753.532182" id="Fill-14" fill="#FFB54D"></path>
                        <path d="M15.3164985,765.00817 L15.3164985,765.00817 C13.2081515,765.00817 11.4993343,763.302823 11.4993343,761.198756 C11.4993343,759.095324 13.2081515,757.389341 15.3164985,757.389341 C17.4242093,757.389341 19.1336627,759.095324 19.1336627,761.198756 C19.1336627,763.302823 17.4242093,765.00817 15.3164985,765.00817" id="Fill-16" fill="#FFB54D"></path>
                        <path d="M29.501017,765.00817 L29.501017,765.00817 C27.3933062,765.00817 25.6838528,763.302823 25.6838528,761.198756 C25.6838528,759.095324 27.3933062,757.389341 29.501017,757.389341 C31.609364,757.389341 33.3181812,759.095324 33.3181812,761.198756 C33.3181812,763.302823 31.609364,765.00817 29.501017,765.00817" id="Fill-18" fill="#FFB54D"></path>
                        <path d="M205.494425,765.00817 L205.494425,765.00817 C203.386078,765.00817 201.677261,763.302823 201.677261,761.198756 C201.677261,759.095324 203.386078,757.389341 205.494425,757.389341 C207.602136,757.389341 209.311589,759.095324 209.311589,761.198756 C209.311589,763.302823 207.602136,765.00817 205.494425,765.00817" id="Fill-20" fill="#FFB54D"></path>
                        <path d="M223.947106,765.00817 L223.947106,765.00817 C221.839395,765.00817 220.129942,763.302823 220.129942,761.198756 C220.129942,759.095324 221.839395,757.389341 223.947106,757.389341 C226.054817,757.389341 227.76427,759.095324 227.76427,761.198756 C227.76427,763.302823 226.054817,765.00817 223.947106,765.00817" id="Fill-22" fill="#FFB54D"></path>
                        <path d="M242.074946,769.856095 L242.074946,769.856095 C239.967235,769.856095 238.257782,768.150112 238.257782,766.04668 C238.257782,763.942614 239.967235,762.237266 242.074946,762.237266 C244.182657,762.237266 245.89211,763.942614 245.89211,766.04668 C245.89211,768.150112 244.182657,769.856095 242.074946,769.856095" id="Fill-24" fill="#FFB54D"></path>
                        <path d="M258.012688,779.03926 L258.012688,779.03926 C255.904977,779.03926 254.195524,777.333912 254.195524,775.229845 C254.195524,773.126414 255.904977,771.420431 258.012688,771.420431 C260.120399,771.420431 261.829852,773.126414 261.829852,775.229845 C261.829852,777.333912 260.120399,779.03926 258.012688,779.03926" id="Fill-26" fill="#FFB54D"></path>
                        <path d="M371.172647,844.243229 L371.172647,844.243229 C369.064936,844.243229 367.355483,842.537247 367.355483,840.433815 C367.355483,838.329748 369.064936,836.6244 371.172647,836.6244 C373.280358,836.6244 374.989811,838.329748 374.989811,840.433815 C374.989811,842.537247 373.280358,844.243229 371.172647,844.243229" id="Fill-28" fill="#FFB54D"></path>
                        <path d="M388.918325,854.46865 L388.918325,854.46865 C386.810614,854.46865 385.101161,852.762667 385.101161,850.659236 C385.101161,848.555169 386.810614,846.849821 388.918325,846.849821 C391.026036,846.849821 392.735489,848.555169 392.735489,850.659236 C392.735489,852.762667 391.026036,854.46865 388.918325,854.46865" id="Fill-30" fill="#FFB54D"></path>
                        <path d="M410.782533,850.659236 L428.527893,840.434132" id="Stroke-32" stroke="#FFB54D" stroke-width="4"></path>
                        <path d="M428.527638,844.243229 L428.527638,844.243229 C430.635985,844.243229 432.344802,842.537882 432.344802,840.433815 C432.344802,838.329748 430.635985,836.6244 428.527638,836.6244 C426.419927,836.6244 424.710474,838.329748 424.710474,840.433815 C424.710474,842.537882 426.419927,844.243229 428.527638,844.243229" id="Fill-34" fill="#FFB54D"></path>
                        <path d="M410.782533,854.46865 L410.782533,854.46865 C412.890243,854.46865 414.599697,852.762667 414.599697,850.659236 C414.599697,848.555169 412.890243,846.849821 410.782533,846.849821 C408.674186,846.849821 406.965368,848.555169 406.965368,850.659236 C406.965368,852.762667 408.674186,854.46865 410.782533,854.46865" id="Fill-36" fill="#FFB54D"></path>
                        <path d="M575.748154,761.201867 L594.201598,761.201867" id="Stroke-38" stroke="#FFB54D" stroke-width="4"></path>
                        <path d="M557.620314,766.049156 L541.639756,775.257146" id="Stroke-40" stroke="#FFB54D" stroke-width="4"></path>
                        <path d="M594.20147,765.011281 L594.20147,765.011281 C596.309181,765.011281 598.018635,763.305299 598.018635,761.201867 C598.018635,759.0978 596.309181,757.392452 594.20147,757.392452 C592.09376,757.392452 590.384306,759.0978 590.384306,761.201867 C590.384306,763.305299 592.09376,765.011281 594.20147,765.011281" id="Fill-42" fill="#FFB54D"></path>
                        <path d="M575.748154,765.011281 L575.748154,765.011281 C577.856501,765.011281 579.565318,763.305299 579.565318,761.201867 C579.565318,759.0978 577.856501,757.392452 575.748154,757.392452 C573.640443,757.392452 571.930989,759.0978 571.930989,761.201867 C571.930989,763.305299 573.640443,765.011281 575.748154,765.011281" id="Fill-44" fill="#FFB54D"></path>
                        <path d="M557.620314,769.858571 L557.620314,769.858571 C559.728661,769.858571 561.437478,768.153223 561.437478,766.049156 C561.437478,763.945725 559.728661,762.239742 557.620314,762.239742 C555.512603,762.239742 553.803149,763.945725 553.803149,766.049156 C553.803149,768.153223 555.512603,769.858571 557.620314,769.858571" id="Fill-46" fill="#FFB54D"></path>
                        <path d="M541.682572,779.042371 L541.683208,779.042371 C543.790282,779.042371 545.500372,777.336388 545.500372,775.232956 C545.500372,773.12889 543.790282,771.423542 541.683208,771.423542 L541.682572,771.423542 C539.574861,771.423542 537.866044,773.12889 537.866044,775.232956 C537.866044,777.336388 539.574861,779.042371 541.682572,779.042371" id="Fill-48" fill="#FFB54D"></path>
                        <g id="Group-52" transform="translate(3.817164, 0.000000)" stroke="#FFFFFF" stroke-width="4">
                            <path d="M953.800857,735.567047 L953.800857,26.7575512 C953.800857,12.0017843 941.814326,0.0389530425 927.027904,0.0389530425 L26.7732715,0.0389530425 C11.9862136,0.0389530425 0.000318097015,12.0017843 0.000318097015,26.7575512 L0.000318097015,735.567047 C0.000318097015,749.722831 11.4995252,761.198692 25.6841073,761.198692 L201.677007,761.198692 C220.129814,761.198692 238.257527,766.046807 254.239357,775.254797 L367.355292,840.433878 C385.101288,850.658982 406.965368,850.658982 424.710729,840.433878 L537.823482,775.257337 C553.80404,766.049347 571.931753,761.201867 590.384561,761.201867 L928.117068,761.198692 C942.30165,761.198692 953.800857,749.722831 953.800857,735.567047 Z" id="Stroke-50"></path>
                        </g>
                    </g>
                </g>
            </g>
        </g>
    </g>
</svg>