<?xml version="1.0" encoding="UTF-8"?>
<svg width="567px" height="558px" viewBox="0 0 567 558" version="1.1" xmlns="http://www.w3.org/2000/svg" xmlns:xlink="http://www.w3.org/1999/xlink">
    <!-- Generator: Sketch 58 (84663) - https://sketch.com -->
    <title>Group 2</title>
    <desc>Created with Sketch.</desc>
    <defs>
        <polygon id="path-1" points="0.122275 0.148159112 322.143525 0.148159112 322.143525 174.447781 0.122275 174.447781"></polygon>
        <polygon id="path-3" points="0.155923438 0.148159112 286.052439 0.148159112 286.052439 156.854456 0.155923438 156.854456"></polygon>
        <polygon id="path-5" points="0.0935882812 0.563175578 235.539063 0.563175578 235.539063 138.904467 0.0935882812 138.904467"></polygon>
        <polygon id="path-7" points="0.501247656 0.148045143 230.976562 0.148045143 230.976562 134.126051 0.501247656 134.126051"></polygon>
        <polygon id="path-9" points="0 0.108555042 530.361539 0.108555042 530.361539 297.606068 0 297.606068"></polygon>
    </defs>
    <g id="New_Designs" stroke="none" stroke-width="1" fill="none" fill-rule="evenodd">
        <g id="Guidelines-Illustration" transform="translate(-873.000000, -8.000000)">
            <g id="Group" transform="translate(480.000000, 0.000000)">
                <g id="Group-14">
                    <g id="Group-98" transform="translate(-135.000000, 8.000000)">
                        <g id="Group-2">
                            <g id="Group-66" transform="translate(645.000000, 139.000000)" stroke="#73CEC6" stroke-width="4">
                                <path d="M11.6380043,328.528183 C8.17000713,323.034527 6.25468282,317.192528 6.25468282,311.156689 L6.25468282,181.841394 C2.62132573,175.722889 0.623891661,169.180215 0.623891661,162.370156 L0.623891661,355.43091" id="Stroke-2"></path>
                                <path d="M217.588453,355.430625 L217.588453,162.370441 C217.588453,169.17993 215.590449,175.722604 211.959943,181.841109 L211.959943,311.156974 C211.959943,317.192813 210.042908,323.034812 206.576622,328.527898" id="Stroke-4"></path>
                                <path d="M0.623663578,160.493727 L0.623663578,162.370555 C0.623663578,161.741145 0.674982181,161.118576 0.70805417,160.493727 L0.623663578,160.493727 Z" id="Stroke-6"></path>
                                <path d="M217.506001,160.493727 C217.539073,161.118576 217.588681,161.741145 217.588681,162.370555 L217.588681,160.493727 L217.506001,160.493727 Z" id="Stroke-8"></path>
                                <path d="M174.416964,113.467604 C156.253029,105.717421 133.632929,101.12113 109.106058,101.12113 C50.307484,101.12113 2.46942267,127.536975 0.70805417,160.493784" id="Stroke-10"></path>
                                <path d="M217.506001,160.493727 C216.766443,146.649552 207.895167,133.959297 193.495738,123.896145" id="Stroke-12"></path>
                                <path d="M191.900185,129.850457 C203.785004,138.586374 211.131547,149.175175 211.868254,160.493727" id="Stroke-14"></path>
                                <path d="M6.34580185,160.493727 C8.25257306,131.173701 54.5174341,106.750988 109.106172,106.750988 C132.964761,106.750988 155.232473,111.416263 172.903749,119.116276" id="Stroke-16"></path>
                                <path d="M0.708282252,160.493727 C0.674640057,161.118576 0.623891661,161.741145 0.623891661,162.370555 C0.623891661,169.180044 2.62132573,175.722147 6.25468282,181.841223" id="Stroke-18"></path>
                                <path d="M211.959886,181.840881 C215.590392,175.722946 217.588396,169.179702 217.588396,162.370213 C217.588396,161.740803 217.538788,161.118234 217.506287,160.493385" id="Stroke-20"></path>
                                <path d="M109.106058,106.750645 C54.5178902,106.750645 8.25245902,131.173358 6.34625802,160.493385" id="Stroke-22"></path>
                                <path d="M187.865289,144.907329 C195.037919,149.55265 200.867142,154.813128 204.992587,160.493784" id="Stroke-24"></path>
                                <path d="M13.2216964,160.493727 C28.2939701,139.737442 66.1169209,124.586558 109.105944,124.586558" id="Stroke-26"></path>
                                <path d="M168.599658,135.174959 C151.678774,128.539927 131.066942,124.586159 109.106001,124.586159 C66.1169779,124.586159 28.2934569,139.737043 13.2217534,160.493898" id="Stroke-28"></path>
                                <path d="M170.492915,355.430625 C153.223065,362.518901 131.889922,366.775402 109.106172,366.775402 C86.3229936,366.775402 64.9892801,362.518901 47.7194298,355.430625" id="Stroke-30"></path>
                                <path d="M0.623663578,355.430625 C0.623663578,389.258003 49.1927299,416.680107 109.106058,416.680107 C169.019387,416.680107 217.588453,389.258003 217.588453,355.430625" id="Stroke-32"></path>
                                <path d="M47.7192017,355.430625 C31.1900499,348.646221 18.4105773,339.262079 11.6376622,328.527898" id="Stroke-34"></path>
                                <path d="M206.576336,328.528183 C199.801711,339.261794 187.022808,348.645936 170.493086,355.43091" id="Stroke-36"></path>
                                <path d="M6.25445474,181.841394 C6.28353528,181.889855 6.31318603,181.937744 6.33998574,181.986204" id="Stroke-38"></path>
                                <path d="M211.959886,162.370555 C211.959886,165.398452 211.463236,168.375607 210.551475,171.28834" id="Stroke-40"></path>
                                <path d="M7.66218104,171.288112 C6.75099073,168.375379 6.2543407,165.398223 6.2543407,162.370327" id="Stroke-42"></path>
                                <path d="M6.25445474,160.493727 L6.25445474,162.370555 C6.25445474,161.741715 6.30577334,161.118006 6.34625802,160.493727 L6.25445474,160.493727 Z" id="Stroke-44"></path>
                                <path d="M211.871903,181.985634 C211.900984,181.937744 211.930634,181.889284 211.959145,181.841394" id="Stroke-46"></path>
                                <path d="M211.959886,162.370555 L211.959886,160.493727 L211.868083,160.493727 C211.907997,161.118576 211.959886,161.741715 211.959886,162.370555 Z" id="Stroke-48"></path>
                                <path d="M6.34580185,160.493727 C6.30588738,161.118006 6.25456878,161.741715 6.25456878,162.370555 C6.25456878,165.398452 6.75121882,168.375607 7.66240912,171.28834 C8.82848182,167.562619 10.7101639,163.951492 13.2219244,160.493727" id="Stroke-50"></path>
                                <path d="M204.992644,160.493727 C207.503835,163.951492 209.386087,167.562619 210.55216,171.28834 C211.46278,168.375607 211.95943,165.398452 211.95943,162.370555 C211.95943,161.741715 211.908111,161.118006 211.868197,160.493727" id="Stroke-52"></path>
                                <path d="M210.55216,171.288112 C202.390221,197.374999 159.259216,217.989894 109.106115,217.989894 C58.9535852,217.989894 15.8242908,197.374999 7.6623521,171.288112" id="Stroke-54"></path>
                                <path d="M6.34021383,181.986147 C20.8297363,206.188795 61.3491946,223.619011 109.106287,223.619011 C156.862808,223.619011 197.383977,206.188225 211.871219,181.985577" id="Stroke-56"></path>
                                <path d="M13.2216964,160.493727 C10.7105061,163.951492 8.82825374,167.562619 7.66218104,171.28834 C15.8241197,197.374657 58.9528439,217.989552 109.105944,217.989552 C159.258475,217.989552 202.39005,197.374657 210.551418,171.28834 C209.385916,167.562619 207.504234,163.951492 204.992473,160.493727" id="Stroke-58"></path>
                                <path d="M203.96918,3.19436304 C205.203108,-1.41161992 213.108453,0.322678899 215.502751,0.964061599 C217.896479,1.60487418 225.611376,4.05581127 224.376878,8.66179423" id="Stroke-60"></path>
                                <path d="M220.217277,7.54732765 C219.94871,8.54845478 217.02469,8.63568283 213.6867,7.74116776 C210.34814,6.84665269 207.859187,5.30961468 208.127755,4.30848755 C208.395752,3.30736042 211.319772,3.22013237 214.658332,4.11464744 C217.996892,5.00916252 220.485845,6.54620052 220.217277,7.54732765 Z" id="Stroke-62"></path>
                                <path d="M186.240428,150.969279 C185.00536,155.575262 177.098874,153.840393 174.705146,153.199581 C172.310848,152.558198 164.597092,150.107831 165.83216,145.501848" id="Stroke-64"></path>
                            </g>
                            <path d="M849,142 L811,284" id="Stroke-67" stroke="#73CEC6" stroke-width="4"></path>
                            <path d="M870,148 L832,290" id="Stroke-68" stroke="#73CEC6" stroke-width="4"></path>
                            <path d="M745.5,246 L745.5,264" id="Stroke-69" stroke="#73CEC6" stroke-width="4"></path>
                            <path d="M727.5,248 L727.5,266" id="Stroke-70" stroke="#73CEC6" stroke-width="4"></path>
                            <path d="M721.5,249 L721.5,267" id="Stroke-71" stroke="#73CEC6" stroke-width="4"></path>
                            <path d="M713.5,251 L713.5,269" id="Stroke-72" stroke="#73CEC6" stroke-width="4"></path>
                            <g id="Group-97">
                                <path d="M846.613337,526.306582 L962.114165,447.482515 C991.79836,427.038837 995.938829,391.188321 952.814079,368.203144 C909.689329,345.218538 862.883782,356.682634 862.883782,356.682634" id="Stroke-73" stroke="#73CEC6" stroke-width="4"></path>
                                <path d="M826.45912,540.124699 L941.959948,461.300632 C978.93673,434.163581 960.843566,397.042885 932.659862,382.021261 C904.476159,366.999637 862.884409,370.97372 862.884409,370.97372" id="Stroke-75" stroke="#73CEC6" stroke-width="4"></path>
                                <path d="M930.478189,380.915937 L1014.62609,314.462017 C1017.42917,312.248178 1021.22688,311.761532 1024.4982,313.196966 C1027.84707,314.665451 1028.42081,319.170627 1025.54757,321.430623 L941.687681,387.399608" id="Stroke-77" stroke="#73CEC6" stroke-width="4"></path>
                                <g id="Group-81" transform="translate(518.414062, 0.000000)">
                                    <mask id="mask-2" fill="white">
                                        <use xlink:href="#path-1"></use>
                                    </mask>
                                    <g id="Clip-80"></g>
                                    <path d="M0.122275,-7.68592488 L322.143525,174.447781" id="Stroke-79" stroke="#73CEC6" stroke-width="4" mask="url(#mask-2)"></path>
                                </g>
                                <g id="Group-84" transform="translate(559.476562, 0.000000)">
                                    <mask id="mask-4" fill="white">
                                        <use xlink:href="#path-3"></use>
                                    </mask>
                                    <g id="Clip-83"></g>
                                    <path d="M0.155923438,-5.85729954 L286.052439,156.854456" id="Stroke-82" stroke="#73CEC6" stroke-width="4" mask="url(#mask-4)"></path>
                                </g>
                                <g id="Group-87" transform="translate(859.460937, 184.629047)">
                                    <mask id="mask-6" fill="white">
                                        <use xlink:href="#path-5"></use>
                                    </mask>
                                    <g id="Clip-86"></g>
                                    <path d="M0.0935882812,0.563175578 L244.687502,138.904467" id="Stroke-85" stroke="#73CEC6" stroke-width="4" mask="url(#mask-6)"></path>
                                </g>
                                <g id="Group-90" transform="translate(864.023438, 166.963922)">
                                    <mask id="mask-8" fill="white">
                                        <use xlink:href="#path-7"></use>
                                    </mask>
                                    <g id="Clip-89"></g>
                                    <path d="M0.501247656,0.148045143 L238.26738,134.126051" id="Stroke-88" stroke="#73CEC6" stroke-width="4" mask="url(#mask-8)"></path>
                                </g>
                                <g id="Group-93" transform="translate(0.000000, 317.972248)">
                                    <mask id="mask-10" fill="white">
                                        <use xlink:href="#path-9"></use>
                                    </mask>
                                    <g id="Clip-92"></g>
                                </g>
                            </g>
                        </g>
                    </g>
                </g>
            </g>
        </g>
    </g>
</svg>